<svg width="276" height="256" viewBox="0 0 276 256" fill="none" xmlns="http://www.w3.org/2000/svg">
<path d="M226.916 52.2849C226.916 52.2849 213.426 32.5442 183.635 29.6184C153.845 26.6926 133.079 40.9517 111.143 48.2661C99.6622 52.0938 86.5471 50.6059 74.3593 52.4595C35.3784 58.3859 20.7122 95.5151 36.946 116.631C50.9995 134.918 75.7282 144.418 113.39 146.612C151.052 148.807 177.47 151.363 211.201 133.451C244.933 115.538 242.675 78.243 226.916 52.2849Z" fill="#7CB7FB"/>
<path opacity="0.8" d="M226.916 52.6757C226.916 52.6757 213.426 32.6004 183.635 29.625C153.845 26.6496 133.079 41.1504 111.143 48.5888C99.6622 52.4813 86.5471 50.9683 74.3593 52.8532C35.3784 58.8801 20.7122 96.6386 36.946 118.113C50.9995 136.709 75.7282 146.371 113.39 148.602C151.052 150.834 177.47 153.433 211.201 135.217C244.933 117.001 242.675 79.0737 226.916 52.6757Z" fill="white"/>
<path d="M218.691 104.909C218.464 104.909 196.108 104.535 195.507 104.535C194.905 104.535 192.995 104.535 192.112 103.721C191.229 102.907 189.352 100.459 189.286 100.352C189.264 100.321 189.248 100.287 189.241 100.251C189.233 100.215 189.234 100.178 189.242 100.142L195.038 77.7164C195.055 77.6507 195.099 77.5939 195.161 77.5584C195.223 77.5229 195.298 77.5116 195.369 77.527C195.404 77.5342 195.438 77.5479 195.467 77.5674C195.497 77.5869 195.522 77.6117 195.541 77.6404C195.56 77.6691 195.573 77.701 195.578 77.7343C195.584 77.7676 195.582 77.8016 195.573 77.8342L189.816 100.147C190.18 100.618 191.819 102.707 192.509 103.357C193.199 104.008 194.944 104.023 195.512 104.023C196.081 104.023 215.887 104.351 218.453 104.392L222.869 77.184C222.88 77.1161 222.919 77.0547 222.978 77.0134C223.037 76.9721 223.111 76.9543 223.184 76.9638C223.257 76.9733 223.323 77.0094 223.368 77.0641C223.412 77.1189 223.432 77.1877 223.421 77.2556L218.978 104.689C218.968 104.752 218.933 104.81 218.88 104.85C218.827 104.891 218.76 104.912 218.691 104.909Z" fill="#263238"/>
<path d="M200.149 73.7997L198.311 73.769C198.237 73.7676 198.167 73.7395 198.116 73.6907C198.064 73.6419 198.035 73.5762 198.035 73.5078C198.042 73.4416 198.074 73.3798 198.125 73.3337C198.177 73.2876 198.245 73.2604 198.317 73.257L200.16 73.2877C200.234 73.2877 200.304 73.3147 200.356 73.3627C200.407 73.4107 200.436 73.4758 200.436 73.5437C200.436 73.6116 200.407 73.6767 200.356 73.7247C200.304 73.7727 200.234 73.7997 200.16 73.7997H200.149Z" fill="#263238"/>
<path d="M190.715 100.828C190.642 100.828 190.572 100.801 190.52 100.753C190.469 100.705 190.439 100.64 190.439 100.572C190.439 100.504 190.469 100.439 190.52 100.391C190.572 100.343 190.642 100.316 190.715 100.316L214.865 100.244L219.96 74.1324L202.401 73.8355C202.329 73.8341 202.26 73.8066 202.21 73.7587C202.159 73.7108 202.131 73.6465 202.131 73.5795C202.138 73.5131 202.17 73.4512 202.222 73.4045C202.273 73.3577 202.341 73.3291 202.412 73.3235L220.292 73.6256C220.332 73.6265 220.372 73.6357 220.408 73.6525C220.444 73.6693 220.476 73.6933 220.501 73.7228C220.526 73.7513 220.544 73.7842 220.555 73.8194C220.565 73.8546 220.568 73.8915 220.562 73.9276L215.368 100.552C215.357 100.611 215.324 100.665 215.274 100.703C215.225 100.742 215.162 100.762 215.097 100.762L190.715 100.838V100.828Z" fill="#263238"/>
<path d="M217.488 103.608L194.11 103.055C194.035 103.05 193.964 103.019 193.912 102.968L191.913 100.92C191.862 100.872 191.834 100.806 191.834 100.739C191.834 100.671 191.862 100.606 191.913 100.557C191.939 100.533 191.969 100.514 192.002 100.501C192.035 100.488 192.071 100.482 192.107 100.482C192.143 100.482 192.178 100.488 192.211 100.501C192.245 100.514 192.275 100.533 192.3 100.557L194.221 102.513L217.239 103.06L221.412 79.6058L219.696 77.3683C219.673 77.3414 219.657 77.3105 219.648 77.2777C219.639 77.2448 219.638 77.2106 219.643 77.1771C219.649 77.1436 219.662 77.1115 219.681 77.0828C219.701 77.054 219.726 77.0293 219.756 77.0099C219.786 76.9903 219.819 76.9763 219.855 76.9687C219.891 76.9612 219.927 76.9603 219.963 76.966C219.999 76.9717 220.034 76.9839 220.064 77.002C220.095 77.0201 220.122 77.0437 220.143 77.0714L221.975 79.4214C222.017 79.4784 222.033 79.5483 222.019 79.616L217.791 103.393C217.78 103.459 217.743 103.517 217.686 103.557C217.629 103.597 217.558 103.616 217.488 103.608Z" fill="#263238"/>
<path d="M196.203 101.934H199.587C199.587 101.934 199.035 104.422 198.742 106.772C198.45 109.123 198.317 112.138 198.317 112.138L196.347 108.733L193.945 111.616L196.203 101.934Z" fill="#263238"/>
<path d="M53.5932 107.105C53.5385 107.106 53.485 107.091 53.4397 107.062C53.3943 107.034 53.3593 106.994 53.3392 106.947C53.3116 106.883 53.3116 106.813 53.3395 106.749C53.3674 106.686 53.4208 106.636 53.4883 106.609L67.7796 101.268C68.0805 100.49 68.3366 99.6967 68.5468 98.8928C68.6131 98.5344 68.3757 97.9968 67.8458 97.3056C67.6416 97.0393 60.8796 87.8797 59.7866 86.4051L43.337 94.1363C43.3052 94.1522 43.2703 94.1621 43.2343 94.1653C43.1984 94.1685 43.1621 94.1649 43.1276 94.1549C43.0931 94.1449 43.0612 94.1286 43.0336 94.1069C43.0061 94.0853 42.9835 94.0587 42.9672 94.0288C42.9501 93.9986 42.9397 93.9656 42.9365 93.9316C42.9334 93.8976 42.9376 93.8634 42.949 93.831C42.9603 93.7986 42.9784 93.7686 43.0024 93.7428C43.0264 93.7169 43.0557 93.6958 43.0886 93.6806L59.7535 85.847C59.8133 85.8197 59.8816 85.8129 59.9463 85.8279C60.011 85.8429 60.0679 85.8787 60.1068 85.9289C60.1896 86.0365 68.0832 96.7321 68.2929 97.0086C68.6959 97.5206 69.2148 98.304 69.0933 98.9747C68.9719 99.6454 68.2929 101.468 68.2653 101.535C68.2522 101.57 68.2311 101.603 68.2035 101.63C68.176 101.657 68.1425 101.679 68.1052 101.693L53.698 107.075C53.6659 107.092 53.6301 107.102 53.5932 107.105Z" fill="#263238"/>
<path d="M50.1658 107.233C50.121 107.233 50.077 107.222 50.0376 107.203C49.9982 107.183 49.9645 107.155 49.9394 107.121L49.2881 106.24C49.2464 106.184 49.2305 106.114 49.2439 106.047C49.2574 105.98 49.2991 105.92 49.3598 105.882C49.4206 105.843 49.4954 105.828 49.5679 105.841C49.6404 105.853 49.7045 105.892 49.7462 105.948L50.3976 106.834C50.4367 106.89 50.451 106.958 50.4377 107.024C50.4243 107.09 50.3843 107.148 50.3258 107.187C50.2786 107.217 50.2229 107.233 50.1658 107.233Z" fill="#263238"/>
<path d="M48.7193 105.272C48.6746 105.272 48.6306 105.262 48.5912 105.242C48.5518 105.222 48.5181 105.194 48.493 105.16L42.1836 96.6042C42.1613 96.5738 42.1463 96.5393 42.1397 96.5031C42.133 96.4669 42.1348 96.4298 42.145 96.3942C42.1559 96.3587 42.1749 96.3257 42.2006 96.2975C42.2263 96.2692 42.2581 96.2464 42.294 96.2304L58.7823 89.0624C58.8404 89.0357 58.907 89.0293 58.9698 89.0443C59.0327 89.0594 59.0876 89.0949 59.1245 89.1443L67.9952 100.628C68.0371 100.684 68.0542 100.752 68.0429 100.819C68.0315 100.886 67.9927 100.946 67.9345 100.987C67.9048 101.007 67.8712 101.021 67.8357 101.028C67.8002 101.036 67.7634 101.037 67.7274 101.031C67.6915 101.025 67.6572 101.013 67.6264 100.995C67.5956 100.977 67.569 100.953 67.5481 100.925L58.8099 89.6L42.8019 96.5632L48.9291 104.873C48.969 104.929 48.9833 104.998 48.9689 105.064C48.9544 105.131 48.9123 105.189 48.8518 105.226C48.8131 105.253 48.7672 105.269 48.7193 105.272Z" fill="#263238"/>
<path d="M67.3439 100.29H67.2887C67.2177 100.276 67.1556 100.236 67.1154 100.18C67.0753 100.123 67.0603 100.055 67.0734 99.9884L67.4488 98.4114L59.5055 87.4393L45.2639 93.9058L44.6733 95.5238C44.6483 95.5877 44.5974 95.64 44.5314 95.6697C44.4654 95.6993 44.3896 95.7039 44.32 95.6825C44.2515 95.6604 44.1951 95.6141 44.1631 95.5538C44.1311 95.4934 44.126 95.4238 44.1489 95.3599L44.7782 93.6396C44.8016 93.5754 44.8511 93.5221 44.9162 93.4911L59.5 86.8812C59.5602 86.8533 59.6293 86.8467 59.6944 86.8627C59.7595 86.8787 59.816 86.9163 59.8533 86.9682L68.0118 98.2322C68.0337 98.2599 68.049 98.2915 68.0566 98.3251C68.0642 98.3587 68.064 98.3933 68.056 98.4268L67.6586 100.111C67.6392 100.172 67.5964 100.224 67.5383 100.257C67.4802 100.29 67.411 100.302 67.3439 100.29Z" fill="#263238"/>
<path d="M66.5321 97.6793L65.3066 96.0819C65.3066 96.0819 66.8743 95.447 68.2709 94.725C69.6674 94.0031 71.3676 92.9843 71.3676 92.9843L70.2139 95.15L72.6593 95.237L66.5321 97.6793Z" fill="#263238"/>
<path d="M62.199 146.55H62.1659C62.1219 146.543 62.0801 146.527 62.0437 146.503C62.0074 146.479 61.9774 146.448 61.9561 146.411L51.8545 128.491C51.8271 128.427 51.8271 128.356 51.8545 128.292C51.878 128.228 51.9275 128.174 51.9925 128.143L53.1351 127.631C53.1995 127.606 53.2716 127.605 53.3369 127.628C53.4023 127.65 53.4561 127.694 53.4875 127.752C53.519 127.81 53.5258 127.876 53.5065 127.939C53.4872 128.001 53.4433 128.054 53.3835 128.087L52.4948 128.502L62.2818 145.874L78.9356 129.418C78.967 129.387 79.0071 129.364 79.0515 129.352L99.3486 123.54L89.3077 108.692L88.568 108.744C88.5316 108.747 88.4948 108.744 88.4598 108.734C88.4249 108.724 88.3925 108.707 88.3646 108.685C88.3367 108.663 88.314 108.636 88.2977 108.606C88.2814 108.575 88.272 108.542 88.2699 108.508C88.2654 108.441 88.2894 108.375 88.337 108.324C88.3845 108.273 88.4516 108.242 88.5239 108.237L89.4347 108.17C89.4847 108.165 89.5351 108.174 89.5801 108.195C89.625 108.216 89.6627 108.248 89.6886 108.288L100.005 123.561C100.024 123.596 100.034 123.635 100.034 123.674C100.034 123.713 100.024 123.751 100.005 123.786C99.9905 123.823 99.9669 123.857 99.9364 123.884C99.9058 123.911 99.8691 123.932 99.8288 123.945L79.2558 129.828L62.4032 146.478C62.348 146.526 62.2746 146.552 62.199 146.55Z" fill="#263238"/>
<path d="M62.4202 144.108H62.3761C62.335 144.101 62.2961 144.085 62.2626 144.062C62.2291 144.039 62.2018 144.009 62.1829 143.974L52.5229 126.869C52.4924 126.816 52.4829 126.756 52.496 126.698C52.5091 126.639 52.5441 126.588 52.5946 126.551C52.6388 126.515 57.1762 123.069 59.318 118.298C61.2941 113.894 64.6945 111.708 68.4149 112.445C68.4535 112.453 68.4898 112.469 68.5213 112.491C68.5528 112.513 68.5786 112.541 68.5971 112.573L77.6002 127.642C77.6262 127.685 77.638 127.734 77.6343 127.784C77.6306 127.833 77.6116 127.88 77.5794 127.92C77.5473 127.96 77.5035 127.99 77.4533 128.007C77.4031 128.024 77.3486 128.027 77.2966 128.015C77.1476 127.985 73.5982 127.304 72.7978 130.473C71.9367 133.862 68.1665 138.225 66.356 140.319L66.1573 140.554C65.0744 141.802 63.8876 142.97 62.6079 144.046C62.5555 144.087 62.4888 144.109 62.4202 144.108ZM53.108 126.807L62.492 143.437C63.6484 142.44 64.7258 141.367 65.7157 140.227L65.9144 139.991C67.7029 137.943 71.4344 133.627 72.2458 130.35C72.9689 127.503 75.6572 127.36 76.8385 127.442L68.1721 112.917C64.7828 112.307 61.6695 114.381 59.8203 118.492C57.8662 122.844 53.9746 126.116 53.108 126.807Z" fill="#263238"/>
<path d="M77.3511 128C77.302 128.001 77.2536 127.989 77.211 127.967C77.1683 127.944 77.1328 127.911 77.1083 127.872L68.1051 112.799C68.086 112.742 68.086 112.681 68.1051 112.625C68.7565 109.809 72.0906 108.529 78.9133 108.529C84.8694 108.529 87.2816 106.772 87.3037 106.757C87.3344 106.734 87.3698 106.717 87.4078 106.708C87.4458 106.698 87.4855 106.696 87.5245 106.701C87.5629 106.707 87.5994 106.721 87.6317 106.741C87.664 106.762 87.6914 106.788 87.7122 106.819L97.8138 122.092C97.8501 122.148 97.8618 122.216 97.8464 122.281C97.831 122.345 97.7898 122.402 97.731 122.44C97.7034 122.44 96.9913 122.88 92.8292 124.099C89.9423 124.948 86.7572 124.831 84.1904 124.739C83.1719 124.685 82.1509 124.685 81.1323 124.739C78.7146 124.923 77.6492 127.811 77.6382 127.811C77.6212 127.858 77.5897 127.9 77.5475 127.93C77.5053 127.961 77.4544 127.98 77.4008 127.985L77.3511 128ZM68.6406 112.64L77.3125 127.16C77.7651 126.239 78.9354 124.401 81.0606 124.237C82.1012 124.184 83.1442 124.184 84.1849 124.237C86.702 124.329 89.8374 124.442 92.636 123.622C94.1713 123.205 95.6806 122.709 97.1569 122.138L87.3699 107.331C86.5971 107.796 84.0303 109.051 78.8857 109.051C72.4494 109.056 69.2809 110.182 68.6406 112.64Z" fill="#263238"/>
<path d="M69.4469 137.994C69.3853 137.995 69.3251 137.977 69.2758 137.943C69.2186 137.9 69.1819 137.838 69.1736 137.77C69.1654 137.702 69.1862 137.633 69.2317 137.579C70.297 136.34 71.1416 135.245 71.8868 134.277C72.7088 133.098 73.6717 132.009 74.7572 131.031C75.7072 130.274 76.7661 129.643 77.9036 129.157C77.9365 129.144 77.972 129.136 78.008 129.136C78.044 129.135 78.0797 129.141 78.1131 129.154C78.1466 129.166 78.177 129.185 78.2026 129.208C78.2282 129.231 78.2486 129.259 78.2624 129.29C78.2904 129.353 78.2911 129.423 78.2643 129.486C78.2376 129.549 78.1854 129.6 78.1189 129.628C77.0344 130.095 76.024 130.698 75.116 131.42C74.0703 132.373 73.1444 133.433 72.356 134.579C71.6053 135.552 70.7552 136.627 69.6788 137.902C69.6508 137.933 69.6152 137.958 69.5749 137.974C69.5346 137.99 69.4907 137.997 69.4469 137.994Z" fill="#263238"/>
<path d="M79.7637 128.425C79.7029 128.426 79.644 128.406 79.5981 128.369C79.5404 128.327 79.5028 128.266 79.4935 128.199C79.4842 128.132 79.5039 128.064 79.5484 128.01C80.5909 126.84 82.0715 126.077 83.694 125.875L84.682 125.803C88.9169 125.588 93.0839 124.723 97.0137 123.243C97.0825 123.219 97.159 123.221 97.2263 123.249C97.2936 123.277 97.3462 123.328 97.3725 123.392C97.3989 123.456 97.3968 123.527 97.3668 123.589C97.3368 123.652 97.2812 123.7 97.2124 123.725C93.2315 125.217 89.0132 126.092 84.7262 126.315L83.7436 126.387C82.2741 126.578 80.9338 127.27 79.9845 128.328C79.9574 128.358 79.9237 128.382 79.8856 128.399C79.8475 128.415 79.8059 128.424 79.7637 128.425Z" fill="#263238"/>
<path d="M56.0552 129.239C56.0014 129.239 55.9486 129.225 55.9034 129.198C55.8581 129.171 55.8225 129.132 55.8008 129.086C55.779 129.04 55.7722 128.99 55.7812 128.941C55.7901 128.891 55.8144 128.846 55.851 128.809C57.7275 126.808 59.4784 124.709 61.095 122.522C64.2138 118.395 66.5046 116.71 69.0051 116.71C69.0783 116.71 69.1485 116.737 69.2003 116.785C69.2521 116.833 69.2811 116.898 69.2811 116.966C69.2811 117.034 69.2521 117.099 69.2003 117.147C69.1485 117.195 69.0783 117.222 69.0051 117.222C66.7088 117.222 64.545 118.845 61.5476 122.818C59.9144 125.022 58.1489 127.138 56.2595 129.157C56.2334 129.183 56.2018 129.204 56.1666 129.218C56.1315 129.232 56.0935 129.239 56.0552 129.239Z" fill="#263238"/>
<path d="M57.8109 131.886C57.7415 131.887 57.6745 131.863 57.6232 131.82C57.5975 131.796 57.5771 131.768 57.5631 131.738C57.5492 131.707 57.542 131.674 57.542 131.64C57.542 131.607 57.5492 131.574 57.5631 131.543C57.5771 131.512 57.5975 131.484 57.6232 131.461C59.4979 129.456 61.2505 127.355 62.8727 125.169C65.986 121.042 68.2768 119.357 70.7829 119.357C70.8556 119.359 70.925 119.386 70.9765 119.434C71.0279 119.482 71.0574 119.546 71.0589 119.613C71.0589 119.681 71.0298 119.746 70.978 119.794C70.9263 119.842 70.8561 119.869 70.7829 119.869C68.481 119.869 66.3227 121.492 63.3198 125.466C61.6866 127.669 59.9211 129.785 58.0317 131.804C58.0038 131.832 57.9695 131.854 57.9313 131.868C57.8931 131.882 57.8519 131.889 57.8109 131.886Z" fill="#263238"/>
<path d="M59.5659 134.533C59.5131 134.533 59.4615 134.518 59.4174 134.491C59.3733 134.464 59.3384 134.426 59.3169 134.381C59.2954 134.337 59.2882 134.287 59.2961 134.239C59.304 134.19 59.3268 134.145 59.3616 134.108C61.2357 132.104 62.9882 130.005 64.6112 127.821C67.7244 123.689 70.0152 122.005 72.5213 122.005C72.5941 122.006 72.6635 122.033 72.7149 122.081C72.7664 122.129 72.7959 122.193 72.7973 122.261C72.7973 122.328 72.7682 122.394 72.7165 122.442C72.6647 122.49 72.5945 122.517 72.5213 122.517C70.2195 122.517 68.0612 124.14 65.0638 128.113C63.4279 130.315 61.6605 132.431 59.7701 134.451C59.7443 134.478 59.7127 134.498 59.6775 134.513C59.6423 134.527 59.6042 134.534 59.5659 134.533Z" fill="#263238"/>
<path d="M61.3219 137.18C61.2883 137.181 61.2549 137.175 61.2237 137.164C61.1924 137.152 61.1639 137.135 61.1398 137.114C61.1141 137.09 61.0937 137.062 61.0797 137.032C61.0658 137.001 61.0586 136.968 61.0586 136.934C61.0586 136.901 61.0658 136.868 61.0797 136.837C61.0937 136.806 61.1141 136.779 61.1398 136.755C63.0159 134.753 64.7685 132.654 66.3893 130.468C69.5026 126.336 71.7934 124.657 74.2995 124.657C74.3727 124.657 74.4429 124.684 74.4946 124.732C74.5464 124.78 74.5755 124.845 74.5755 124.913C74.5755 124.981 74.5464 125.046 74.4946 125.094C74.4429 125.142 74.3727 125.169 74.2995 125.169C71.9976 125.169 69.8393 126.787 66.8419 130.76C65.21 132.965 63.4425 135.081 61.5483 137.098C61.52 137.127 61.4849 137.15 61.4456 137.164C61.4063 137.178 61.3639 137.184 61.3219 137.18Z" fill="#263238"/>
<path d="M72.08 116.004H71.9862C71.9183 115.98 71.8631 115.932 71.8323 115.871C71.8014 115.81 71.7972 115.74 71.8206 115.676C71.8206 115.65 72.8087 113.265 76.2366 113.265C82.6674 113.265 86.8405 112.343 87.3925 110.792C87.416 110.724 87.4675 110.667 87.5358 110.635C87.5696 110.618 87.6066 110.609 87.6445 110.606C87.6824 110.603 87.7206 110.607 87.7568 110.618C87.7931 110.628 87.8267 110.646 87.8557 110.668C87.8848 110.691 87.9087 110.719 87.9261 110.75C87.9436 110.782 87.9542 110.816 87.9573 110.851C87.9605 110.886 87.9561 110.922 87.9445 110.955C87.0668 113.413 80.2496 113.777 76.2642 113.777C73.2172 113.777 72.4002 115.763 72.3505 115.85C72.3279 115.898 72.2898 115.939 72.2414 115.967C72.193 115.994 72.1367 116.007 72.08 116.004Z" fill="#263238"/>
<path d="M74.0559 119.055C73.9944 119.056 73.9344 119.038 73.8847 119.004C73.8279 118.962 73.7913 118.901 73.783 118.833C73.7748 118.766 73.7955 118.699 73.8406 118.646C73.9068 118.564 75.4966 116.71 79.7635 116.71C84.3507 116.71 87.7565 115.712 89.8927 113.731C89.9443 113.684 90.0137 113.657 90.0859 113.657C90.1582 113.657 90.2275 113.684 90.2791 113.731C90.305 113.754 90.3255 113.783 90.3395 113.814C90.3536 113.845 90.3608 113.878 90.3608 113.912C90.3608 113.946 90.3536 113.98 90.3395 114.011C90.3255 114.042 90.305 114.07 90.2791 114.094C88.0435 116.173 84.5052 117.248 79.7635 117.248C75.8002 117.248 74.2877 118.968 74.2767 118.984C74.2478 119.01 74.213 119.03 74.1748 119.042C74.1367 119.055 74.0961 119.059 74.0559 119.055Z" fill="#263238"/>
<path d="M75.375 122.112C75.3349 122.111 75.2954 122.102 75.259 122.086C75.2261 122.073 75.1964 122.053 75.1719 122.028C75.1473 122.004 75.1282 121.975 75.1159 121.943C75.1035 121.912 75.0981 121.878 75.1 121.845C75.1018 121.811 75.1108 121.779 75.1266 121.748C75.6372 120.868 76.4052 120.138 77.3425 119.644C78.2799 119.149 79.3485 118.91 80.4258 118.953C85.0405 118.953 89.0811 118.057 91.2394 116.562C91.2681 116.541 91.3011 116.526 91.3363 116.517C91.3715 116.508 91.4083 116.506 91.4444 116.511C91.4805 116.516 91.5152 116.527 91.5464 116.545C91.5775 116.562 91.6046 116.586 91.6258 116.613C91.6684 116.668 91.6864 116.736 91.6761 116.803C91.6658 116.869 91.628 116.93 91.5706 116.971C88.3304 119.219 82.6945 119.465 80.4258 119.465C79.4534 119.423 78.4877 119.634 77.6387 120.076C76.7897 120.518 76.0914 121.172 75.6234 121.963C75.6019 122.008 75.567 122.046 75.5229 122.072C75.4788 122.098 75.4274 122.112 75.375 122.112Z" fill="#263238"/>
<path d="M76.9095 124.349C76.884 124.354 76.8577 124.354 76.8322 124.349C76.7628 124.329 76.7044 124.285 76.6694 124.226C76.6345 124.167 76.6255 124.097 76.6445 124.032C76.6777 123.94 77.4063 121.82 81.2869 121.61C85.3253 121.412 89.3004 120.594 93.05 119.188C93.0836 119.17 93.1209 119.159 93.1595 119.156C93.198 119.152 93.237 119.156 93.2739 119.167C93.3107 119.178 93.3446 119.196 93.3734 119.221C93.4021 119.245 93.425 119.274 93.4406 119.307C93.4562 119.34 93.4642 119.376 93.4639 119.412C93.4637 119.448 93.4553 119.483 93.4393 119.516C93.4233 119.549 93.4 119.578 93.3709 119.602C93.3419 119.626 93.3078 119.644 93.2708 119.654C89.4635 121.09 85.4241 121.924 81.32 122.122C77.8479 122.312 77.2021 124.104 77.1745 124.17C77.1568 124.222 77.1215 124.268 77.0738 124.3C77.0261 124.333 76.9685 124.35 76.9095 124.349Z" fill="#263238"/>
<path d="M183.816 64.5529C183.774 64.5485 183.735 64.5357 183.699 64.5153C183.664 64.4949 183.634 64.4676 183.612 64.4352L175.839 52.7769L160.98 45.2659C160.94 45.2472 160.906 45.2196 160.881 45.1856C160.856 45.1516 160.84 45.1123 160.836 45.0713C160.831 45.0308 160.836 44.9896 160.851 44.9513C160.867 44.913 160.892 44.8787 160.924 44.8512L172.031 35.5174C172.058 35.4941 172.09 35.4762 172.125 35.4648C172.16 35.4534 172.198 35.4486 172.235 35.4509C172.271 35.453 172.306 35.4619 172.338 35.4768C172.37 35.4918 172.399 35.5125 172.422 35.5379L173.002 36.1523C173.04 36.2042 173.055 36.267 173.047 36.3289C173.038 36.3908 173.005 36.4476 172.954 36.4885C172.903 36.5294 172.838 36.5516 172.77 36.551C172.703 36.5504 172.638 36.5269 172.588 36.4851L172.196 36.0704L161.581 44.9894L176.148 52.3571C176.19 52.381 176.225 52.4124 176.253 52.4493L183.876 63.8822L192.681 55.2192L192.532 54.8198C192.52 54.7879 192.515 54.7541 192.517 54.7203C192.519 54.6866 192.528 54.6535 192.544 54.6231C192.56 54.5927 192.582 54.5655 192.61 54.543C192.637 54.5205 192.669 54.5032 192.703 54.4921C192.737 54.481 192.774 54.4764 192.81 54.4783C192.847 54.4803 192.882 54.4889 192.915 54.5036C192.948 54.5184 192.977 54.539 193.001 54.5642C193.026 54.5895 193.044 54.6189 193.056 54.6509L193.26 55.1987C193.277 55.2432 193.28 55.2911 193.27 55.3372C193.259 55.3833 193.235 55.4257 193.2 55.4598L184.031 64.4761C184.003 64.5023 183.969 64.5227 183.932 64.5359C183.895 64.5492 183.855 64.555 183.816 64.5529Z" fill="#263238"/>
<path d="M177.026 51.4406C176.993 51.4454 176.96 51.4454 176.927 51.4406C176.877 51.422 176.833 51.3904 176.802 51.3495C176.771 51.3087 176.753 51.2603 176.75 51.2102C176.75 51.1181 176.623 48.8704 174.299 48.937C171.683 48.9882 167.902 47.401 166.08 46.6586L165.881 46.5766C164.794 46.1233 163.746 45.5927 162.746 44.9894C162.711 44.9677 162.682 44.9389 162.661 44.9052C162.64 44.8715 162.628 44.8337 162.625 44.7949C162.622 44.7555 162.629 44.7161 162.645 44.6797C162.661 44.6433 162.686 44.6109 162.718 44.585L173.328 35.6403C173.378 35.6029 173.44 35.5825 173.505 35.5825C173.569 35.5825 173.631 35.6029 173.681 35.6403C175.791 37.0021 178.194 37.9244 180.725 38.3437C184.269 38.8096 186.454 40.5606 186.57 43.0234C186.572 43.0594 186.566 43.0953 186.551 43.1288C186.537 43.1624 186.515 43.1927 186.488 43.2179L177.236 51.4099C177.173 51.4447 177.098 51.4556 177.026 51.4406ZM174.382 48.4045C175.071 48.3923 175.74 48.615 176.263 49.0303C176.786 49.4456 177.126 50.0246 177.22 50.6573L186.024 42.9107C185.858 40.745 183.91 39.2653 180.658 38.8147C178.107 38.4104 175.682 37.4967 173.549 36.137L163.353 44.7232C164.238 45.2381 165.16 45.6949 166.113 46.0902L166.312 46.1722C168.1 46.9146 171.832 48.4659 174.294 48.4045H174.382Z" fill="#263238"/>
<path d="M184.473 62.976C184.405 62.976 184.339 62.9543 184.285 62.9145C184.241 62.8736 183.805 62.4844 182.232 60.16C181.128 58.5113 180.642 56.5145 180.267 54.912C180.132 54.2776 179.96 53.6504 179.753 53.0329C179.201 51.6198 177.032 51.4662 176.993 51.4611C176.94 51.4584 176.889 51.4415 176.846 51.4125C176.803 51.3834 176.77 51.3434 176.751 51.2972C176.733 51.2496 176.731 51.1983 176.743 51.1494C176.756 51.1004 176.783 51.0558 176.822 51.0208L186.074 42.8544C186.122 42.8126 186.185 42.7889 186.25 42.7878C188.42 42.6905 189.938 44.5542 191.13 48.814C192.157 52.4748 193.807 53.6268 193.824 53.6371C193.856 53.6587 193.883 53.6863 193.903 53.718C193.923 53.7497 193.935 53.7849 193.94 53.8214C193.943 53.8578 193.937 53.8944 193.924 53.9288C193.911 53.9632 193.89 53.9947 193.863 54.0211L184.672 62.8736C184.648 62.9025 184.618 62.9265 184.584 62.9442C184.55 62.9618 184.512 62.9726 184.473 62.976ZM177.628 51.031C178.423 51.1897 179.809 51.63 180.272 52.864C180.498 53.4983 180.682 54.1445 180.824 54.7993C181.194 56.366 181.658 58.3116 182.723 59.8886C183.273 60.7334 183.868 61.552 184.506 62.3411L193.3 53.8572C192.775 53.3913 191.494 51.9936 190.633 48.942C189.557 45.0969 188.216 43.31 186.422 43.31L177.628 51.031Z" fill="#263238"/>
<path d="M175.972 52.1267C175.931 52.1262 175.89 52.1172 175.853 52.1004C175.816 52.0836 175.783 52.0594 175.757 52.0295C175.24 51.4432 174.638 50.9263 173.968 50.4935C173.108 50.0145 172.194 49.6248 171.242 49.3312C170.414 49.0394 169.475 48.7066 168.388 48.256C168.321 48.2281 168.269 48.1768 168.243 48.1135C168.218 48.0502 168.22 47.9799 168.25 47.9181C168.264 47.8871 168.285 47.8591 168.311 47.8357C168.337 47.8124 168.369 47.7942 168.403 47.7823C168.437 47.7703 168.473 47.7648 168.509 47.7662C168.546 47.7675 168.581 47.7757 168.614 47.7901C169.685 48.2304 170.618 48.5632 171.435 48.8551C172.431 49.1595 173.387 49.5683 174.283 50.0736C174.995 50.5346 175.638 51.0822 176.193 51.7018C176.238 51.7563 176.258 51.825 176.248 51.893C176.239 51.961 176.201 52.0229 176.143 52.0653C176.096 52.1033 176.035 52.125 175.972 52.1267Z" fill="#263238"/>
<path d="M183.518 62.8941C183.474 62.8939 183.43 62.884 183.391 62.8654C183.351 62.8467 183.317 62.8197 183.291 62.7866C181.527 60.5827 180.166 58.1247 179.262 55.511C179.185 55.296 179.107 55.0963 179.041 54.9171C178.653 54.0653 177.942 53.3749 177.043 52.9766C177.006 52.9658 176.972 52.9479 176.943 52.9241C176.914 52.9002 176.89 52.871 176.874 52.8382C176.858 52.8054 176.85 52.7699 176.85 52.7339C176.849 52.698 176.857 52.6624 176.873 52.6294C176.889 52.5965 176.911 52.567 176.94 52.5428C176.969 52.5186 177.003 52.5004 177.04 52.4892C177.077 52.478 177.116 52.4741 177.154 52.4778C177.193 52.4815 177.23 52.4927 177.264 52.5107C178.307 52.9575 179.128 53.7556 179.56 54.743C179.632 54.9274 179.703 55.127 179.781 55.3421C180.669 57.9168 182.008 60.3385 183.744 62.5101C183.765 62.5372 183.78 62.5679 183.788 62.6005C183.796 62.633 183.797 62.6667 183.791 62.6996C183.785 62.7325 183.772 62.764 183.752 62.7921C183.733 62.8202 183.707 62.8444 183.678 62.8634C183.63 62.8901 183.573 62.9009 183.518 62.8941Z" fill="#263238"/>
<path d="M183.324 44.421C183.263 44.4204 183.204 44.401 183.156 44.3658C183.108 44.3306 183.074 44.2816 183.059 44.2265C182.667 42.839 181.149 41.7996 177.81 40.6425C175.942 40.0156 174.113 39.2909 172.334 38.4716C172.299 38.4572 172.268 38.4364 172.243 38.4105C172.217 38.3845 172.198 38.354 172.186 38.3208C172.173 38.2876 172.169 38.2524 172.172 38.2174C172.175 38.1824 172.186 38.1484 172.203 38.1175C172.221 38.0865 172.246 38.0593 172.275 38.0375C172.305 38.0157 172.339 37.9997 172.376 37.9907C172.412 37.9817 172.451 37.9797 172.488 37.9849C172.525 37.9901 172.561 38.0024 172.593 38.021C174.351 38.8274 176.155 39.5436 177.997 40.1663C181.53 41.3798 183.153 42.5215 183.595 44.0934C183.604 44.126 183.606 44.1599 183.601 44.1933C183.596 44.2267 183.584 44.2588 183.565 44.2878C183.547 44.3168 183.522 44.3422 183.493 44.3624C183.464 44.3826 183.431 44.3973 183.396 44.4057L183.324 44.421Z" fill="#263238"/>
<path d="M181.729 45.9622C181.669 45.9619 181.61 45.9432 181.563 45.9089C181.515 45.8747 181.48 45.8269 181.464 45.7727C181.073 44.3801 179.555 43.3459 176.215 42.1887C174.347 41.5591 172.519 40.8326 170.739 40.0127C170.705 39.9984 170.674 39.9776 170.648 39.9516C170.623 39.9257 170.603 39.8952 170.591 39.8619C170.579 39.8287 170.574 39.7935 170.577 39.7586C170.58 39.7236 170.591 39.6895 170.609 39.6586C170.627 39.6276 170.651 39.6004 170.681 39.5786C170.71 39.5568 170.745 39.5409 170.781 39.5318C170.818 39.5228 170.856 39.5208 170.893 39.526C170.931 39.5313 170.967 39.5436 170.999 39.5622C172.757 40.3717 174.563 41.088 176.408 41.7075C179.935 42.926 181.558 44.0627 182 45.6345C182.01 45.6671 182.013 45.7013 182.008 45.7349C182.003 45.7685 181.991 45.8009 181.973 45.8301C181.954 45.8592 181.929 45.8846 181.9 45.9047C181.87 45.9248 181.837 45.9391 181.801 45.9468C181.779 45.9569 181.754 45.9621 181.729 45.9622Z" fill="#263238"/>
<path d="M180.134 47.5033C180.073 47.503 180.014 47.4843 179.967 47.4501C179.919 47.4158 179.884 47.368 179.869 47.3139C179.477 45.9212 177.959 44.887 174.619 43.7299C172.751 43.103 170.923 42.3782 169.143 41.559C169.111 41.5432 169.082 41.5216 169.059 41.4956C169.036 41.4695 169.018 41.4395 169.007 41.4072C168.997 41.3748 168.993 41.3409 168.996 41.3072C169 41.2735 169.01 41.2407 169.027 41.2108C169.044 41.1809 169.068 41.1544 169.096 41.1328C169.124 41.1112 169.156 41.0949 169.191 41.085C169.226 41.075 169.262 41.0715 169.299 41.0746C169.335 41.0778 169.37 41.0875 169.403 41.1033C171.161 41.9128 172.967 42.6291 174.812 43.2486C178.34 44.4671 179.962 45.6038 180.404 47.1807C180.413 47.2134 180.415 47.2473 180.41 47.2807C180.405 47.314 180.393 47.3462 180.375 47.3752C180.356 47.4042 180.332 47.4295 180.303 47.4498C180.274 47.47 180.24 47.4847 180.205 47.4931L180.134 47.5033Z" fill="#263238"/>
<path d="M178.538 49.0495C178.477 49.0489 178.418 49.0295 178.37 48.9943C178.322 48.9591 178.288 48.9101 178.274 48.855C177.882 47.4675 176.364 46.4281 173.024 45.271C171.156 44.6441 169.328 43.9193 167.548 43.1001C167.484 43.0675 167.436 43.0129 167.414 42.9479C167.392 42.8828 167.399 42.8125 167.432 42.7519C167.468 42.6931 167.527 42.6493 167.597 42.6293C167.667 42.6093 167.742 42.6147 167.808 42.6444C169.564 43.4566 171.37 44.1729 173.217 44.7897C176.744 46.0083 178.367 47.15 178.809 48.7219C178.818 48.7545 178.82 48.7884 178.815 48.8218C178.81 48.8552 178.798 48.8873 178.78 48.9163C178.761 48.9453 178.737 48.9706 178.708 48.9909C178.678 49.0111 178.645 49.0258 178.61 49.0342L178.538 49.0495Z" fill="#263238"/>
<path d="M190.942 54.8813C189.071 54.7635 187.663 51.1283 186.813 48.1024C186.3 46.2797 184.787 46.1107 184.721 46.1056C184.649 46.0979 184.583 46.0639 184.537 46.0112C184.492 45.9584 184.47 45.8911 184.478 45.824C184.486 45.7574 184.522 45.6964 184.578 45.6535C184.633 45.6107 184.704 45.5892 184.776 45.5936C184.859 45.5936 186.736 45.7881 187.349 47.9693C188.453 51.9065 189.81 54.2976 190.975 54.3693C191.011 54.3712 191.047 54.3798 191.08 54.3945C191.112 54.4092 191.142 54.4298 191.166 54.455C191.19 54.4802 191.208 54.5096 191.22 54.5414C191.232 54.5733 191.237 54.607 191.235 54.6406C191.229 54.7081 191.195 54.7708 191.141 54.8157C191.086 54.8606 191.015 54.8841 190.942 54.8813Z" fill="#263238"/>
<path d="M189.17 56.8985C189.12 56.8995 189.07 56.8871 189.027 56.8627C187.128 55.8387 185.748 53.7907 184.92 50.8672C184.247 48.4659 182.789 47.8361 182.773 47.831C182.714 47.7995 182.67 47.7489 182.648 47.689C182.627 47.6291 182.631 47.564 182.658 47.5063C182.685 47.4485 182.735 47.4022 182.797 47.3761C182.859 47.3501 182.929 47.3461 182.994 47.3651C183.065 47.3651 184.71 48.0716 185.456 50.7392C186.245 53.55 187.542 55.4598 189.32 56.4224C189.382 56.4565 189.428 56.5123 189.446 56.5775C189.465 56.6427 189.455 56.712 189.419 56.7705C189.393 56.8104 189.357 56.8432 189.313 56.8657C189.27 56.8882 189.22 56.8995 189.17 56.8985Z" fill="#263238"/>
<path d="M187.349 58.2042C187.286 58.2061 187.225 58.186 187.177 58.1479C184.969 56.5248 183.827 53.074 183.429 51.6608C183.292 51.07 182.981 50.5263 182.529 50.0904C182.078 49.6546 181.505 49.3438 180.874 49.193C180.802 49.1805 180.739 49.1423 180.697 49.0867C180.656 49.0311 180.64 48.9625 180.653 48.896C180.666 48.8293 180.707 48.7701 180.767 48.7309C180.827 48.6917 180.901 48.6756 180.973 48.6861C181.708 48.8543 182.378 49.21 182.907 49.7131C183.436 50.2162 183.802 50.8466 183.965 51.5328C184.76 54.3642 186.09 56.6887 187.52 57.7485C187.549 57.7695 187.573 57.7956 187.591 57.8253C187.609 57.8551 187.62 57.8878 187.624 57.9217C187.628 57.9555 187.625 57.9898 187.615 58.0225C187.604 58.0552 187.587 58.0856 187.564 58.112C187.538 58.1418 187.505 58.1657 187.468 58.1817C187.431 58.1977 187.39 58.2054 187.349 58.2042Z" fill="#263238"/>
<path d="M185.754 59.7504C185.712 59.7495 185.672 59.7404 185.634 59.7236C185.597 59.7068 185.564 59.6828 185.538 59.6531C183.842 57.5438 182.536 55.1871 181.674 52.6797C180.957 50.6317 179.615 50.5344 179.56 50.5344C179.486 50.5304 179.417 50.4998 179.368 50.449C179.318 50.3983 179.292 50.3315 179.295 50.2631C179.294 50.2289 179.301 50.195 179.315 50.1636C179.33 50.1322 179.351 50.1041 179.379 50.0812C179.406 50.0583 179.438 50.0412 179.473 50.031C179.509 50.0209 179.546 50.0179 179.582 50.0224C179.654 50.0224 181.36 50.1095 182.199 52.521C183.046 54.9674 184.317 57.2692 185.963 59.3357C186.008 59.3894 186.028 59.4572 186.018 59.5244C186.009 59.5916 185.971 59.6526 185.914 59.6941C185.868 59.7278 185.812 59.7475 185.754 59.7504Z" fill="#263238"/>
<path d="M85.2615 70.7123H85.1952L83.197 70.2515C83.1549 70.2416 83.1159 70.2225 83.0832 70.1959C83.0506 70.1693 83.0251 70.136 83.009 70.0986C82.9929 70.0611 82.9865 70.0207 82.9904 69.9806C82.9943 69.9404 83.0083 69.9017 83.0314 69.8675L92.2553 56.4531C92.2948 56.3954 92.3575 56.3546 92.4294 56.3398C92.5014 56.3249 92.5767 56.3371 92.639 56.3738C92.7012 56.4104 92.7451 56.4685 92.7612 56.5353C92.7772 56.602 92.764 56.6719 92.7245 56.7296L83.7048 69.8419L85.14 70.1747L94.2536 57.6051C94.293 57.5511 94.3529 57.5127 94.4213 57.4975C94.4898 57.4823 94.5619 57.4915 94.6234 57.5232L109.147 65.2903L110.725 63.8259L94.8552 56.1459C94.7901 56.1147 94.741 56.0607 94.7187 55.9959C94.6965 55.9311 94.7029 55.8608 94.7366 55.8003C94.7702 55.7399 94.8284 55.6944 94.8983 55.6737C94.9682 55.6531 95.044 55.659 95.1092 55.6903L111.316 63.5546C111.355 63.5728 111.388 63.5996 111.413 63.6326C111.438 63.6657 111.454 63.7039 111.459 63.744C111.466 63.783 111.463 63.8229 111.449 63.8603C111.436 63.8977 111.413 63.9316 111.382 63.9591L109.389 65.8125C109.347 65.852 109.291 65.8773 109.231 65.8847C109.171 65.8921 109.111 65.8811 109.058 65.8535L94.5682 58.1069L85.4878 70.6304C85.4596 70.6595 85.4244 70.682 85.3851 70.6963C85.3458 70.7105 85.3035 70.716 85.2615 70.7123Z" fill="#263238"/>
<path d="M110.686 86.6662C110.64 86.6664 110.595 86.6558 110.554 86.6355L98.3382 80.1587C98.3026 80.1399 98.2717 80.1142 98.2479 80.0832C98.224 80.0523 98.2078 80.0169 98.2002 79.9795L94.2093 57.7791C94.1981 57.7113 94.2162 57.6422 94.2596 57.5866C94.3029 57.531 94.3682 57.4935 94.4411 57.4822C94.477 57.4771 94.5136 57.4786 94.5489 57.4867C94.5841 57.4947 94.6173 57.5092 94.6465 57.5292C94.6758 57.5491 94.7005 57.5743 94.7192 57.6031C94.738 57.6319 94.7504 57.6639 94.7558 57.6972L98.7246 79.7747L110.399 85.9494L108.694 66.775C108.69 66.7076 108.715 66.6417 108.762 66.5904C108.809 66.539 108.875 66.5062 108.948 66.4985C108.984 66.4957 109.02 66.4996 109.055 66.5099C109.09 66.5203 109.122 66.5369 109.15 66.5587C109.177 66.5806 109.2 66.6074 109.217 66.6375C109.233 66.6676 109.243 66.7004 109.246 66.734L110.951 86.3897C110.957 86.4361 110.947 86.4829 110.925 86.5246C110.902 86.5663 110.868 86.6012 110.824 86.6252C110.784 86.6519 110.736 86.6662 110.686 86.6662Z" fill="#263238"/>
<path d="M110.687 86.6662C110.64 86.6658 110.593 86.6543 110.552 86.6326C110.511 86.6109 110.477 86.5798 110.453 86.5423C110.428 86.5048 110.415 86.4622 110.413 86.4184C110.412 86.3747 110.422 86.3313 110.444 86.2924L112.404 82.8876L110.913 63.7695C110.911 63.7359 110.915 63.7022 110.927 63.6702C110.938 63.6383 110.957 63.6087 110.98 63.5833C111.029 63.5319 111.097 63.5004 111.17 63.4956C111.243 63.4909 111.315 63.5133 111.371 63.5579C111.426 63.6026 111.46 63.6658 111.465 63.7337L112.961 82.9439C112.962 82.9918 112.951 83.0391 112.928 83.0822L110.952 86.5279C110.927 86.5725 110.889 86.6094 110.842 86.634C110.795 86.6585 110.741 86.6697 110.687 86.6662Z" fill="#263238"/>
<path d="M90.246 90.6239H90.1908C90.1382 90.6149 90.0896 90.5916 90.0513 90.5569C90.013 90.5223 89.9866 90.4779 89.9755 90.4294L85.7362 72.3916C85.7214 72.3244 85.7357 72.2546 85.7759 72.1971C85.8162 72.1396 85.8793 72.0991 85.9514 72.0844C85.987 72.0777 86.0235 72.0775 86.0591 72.0839C86.0947 72.0903 86.1286 72.1031 86.1589 72.1217C86.1891 72.1402 86.2151 72.1641 86.2354 72.192C86.2557 72.2198 86.2699 72.2511 86.2771 72.2841L90.384 89.7638L98.2555 79.7849C98.2987 79.7299 98.3637 79.6931 98.4361 79.6825C98.5086 79.6719 98.5826 79.6885 98.6419 79.7286C98.7012 79.7686 98.7409 79.8289 98.7523 79.8961C98.7637 79.9633 98.7458 80.032 98.7026 80.087L90.4723 90.4959C90.45 90.5338 90.4174 90.5656 90.3776 90.5881C90.3379 90.6105 90.2925 90.6229 90.246 90.6239Z" fill="#263238"/>
<path d="M90.246 90.624H90.2128L87.9717 90.3936C87.9147 90.3873 87.8612 90.3648 87.8186 90.329C87.7761 90.2932 87.7466 90.246 87.7344 90.1939L82.9982 70.0723C82.9906 70.0387 82.9902 70.004 82.997 69.9702C83.0039 69.9365 83.0178 69.9043 83.0381 69.8755C83.0583 69.8468 83.0845 69.822 83.115 69.8026C83.1456 69.7832 83.18 69.7696 83.2162 69.7625C83.2525 69.7555 83.2899 69.7551 83.3263 69.7615C83.3627 69.7678 83.3974 69.7807 83.4284 69.7995C83.4594 69.8183 83.4861 69.8425 83.507 69.8709C83.5279 69.8993 83.5426 69.9312 83.5502 69.9648L88.2477 89.9021L90.2901 90.112C90.3633 90.112 90.4335 90.139 90.4853 90.187C90.537 90.235 90.5661 90.3001 90.5661 90.368C90.5661 90.4359 90.537 90.501 90.4853 90.549C90.4335 90.597 90.3633 90.624 90.2901 90.624H90.246Z" fill="#263238"/>
<path d="M88.5021 73.9482C88.4513 73.9484 88.4014 73.9357 88.3579 73.9113C88.3144 73.8869 88.279 73.8519 88.2556 73.8101C88.2322 73.7683 88.2217 73.7213 88.2253 73.6743C88.2288 73.6273 88.2463 73.5821 88.2758 73.5437L94.7618 65.2186C94.7821 65.1909 94.8083 65.1673 94.8388 65.1494C94.8693 65.1314 94.9034 65.1194 94.9391 65.1141C94.9748 65.1089 95.0112 65.1104 95.0462 65.1187C95.0812 65.127 95.1141 65.1418 95.1427 65.1623C95.1725 65.1817 95.1979 65.2063 95.2174 65.2349C95.2369 65.2635 95.2501 65.2953 95.2563 65.3286C95.2625 65.362 95.2614 65.3961 95.2533 65.429C95.2452 65.462 95.2301 65.4931 95.2089 65.5207L88.7229 73.8458C88.6975 73.8779 88.6642 73.9039 88.6258 73.9217C88.5874 73.9395 88.545 73.9486 88.5021 73.9482Z" fill="#263238"/>
<path d="M88.9985 77.8803C88.9414 77.88 88.8856 77.864 88.8384 77.8342C88.7802 77.7934 88.7413 77.7332 88.73 77.6664C88.7186 77.5995 88.7358 77.5312 88.7777 77.4758L95.2582 69.1507C95.279 69.1228 95.3057 69.0992 95.3367 69.0812C95.3677 69.0632 95.4023 69.0512 95.4384 69.0459C95.4745 69.0406 95.5114 69.0422 95.5468 69.0505C95.5823 69.0589 95.6155 69.0738 95.6446 69.0944C95.7024 69.1342 95.7411 69.1935 95.7525 69.2595C95.7638 69.3255 95.7469 69.3931 95.7053 69.4476L89.2248 77.7728C89.1995 77.8065 89.1656 77.834 89.1261 77.8527C89.0866 77.8715 89.0428 77.8809 88.9985 77.8803Z" fill="#263238"/>
<path d="M89.4951 81.8124C89.437 81.8129 89.3805 81.7948 89.335 81.7612C89.2772 81.7214 89.2384 81.6621 89.2271 81.5961C89.2157 81.5301 89.2327 81.4625 89.2743 81.408L95.7548 73.0828C95.7757 73.0552 95.8023 73.0316 95.8331 73.0135C95.8639 72.9954 95.8982 72.9831 95.9342 72.9774C95.9701 72.9717 96.0069 72.9727 96.0424 72.9802C96.0779 72.9878 96.1115 73.0018 96.1412 73.0214C96.1994 73.0622 96.2383 73.1224 96.2496 73.1892C96.2609 73.2561 96.2438 73.3244 96.2019 73.3798L89.7214 81.7049C89.6961 81.7387 89.6622 81.7661 89.6227 81.7849C89.5833 81.8036 89.5394 81.8131 89.4951 81.8124Z" fill="#263238"/>
<path d="M89.9759 85.7446C89.9178 85.7455 89.8611 85.7274 89.8159 85.6934C89.786 85.674 89.7606 85.6493 89.7411 85.6208C89.7216 85.5922 89.7084 85.5604 89.7022 85.527C89.6961 85.4937 89.6971 85.4596 89.7052 85.4266C89.7133 85.3937 89.7284 85.3626 89.7496 85.335L96.2356 77.0099C96.2786 76.9563 96.3425 76.9203 96.4137 76.9098C96.4849 76.8993 96.5576 76.915 96.6165 76.9536C96.6463 76.973 96.6718 76.9977 96.6913 77.0263C96.7108 77.0548 96.724 77.0867 96.7301 77.12C96.7363 77.1533 96.7353 77.1874 96.7271 77.2204C96.719 77.2534 96.7039 77.2845 96.6827 77.312L90.1967 85.6371C90.1716 85.6699 90.1385 85.6966 90.1002 85.7153C90.0618 85.734 90.0193 85.744 89.9759 85.7446Z" fill="#263238"/>
<path d="M106.453 70.4818C106.404 70.4827 106.356 70.4703 106.315 70.446L97.5882 65.838C97.5245 65.8041 97.478 65.748 97.4588 65.6823C97.4396 65.6165 97.4494 65.5463 97.486 65.4873C97.5226 65.4282 97.583 65.385 97.654 65.3673C97.7249 65.3495 97.8005 65.3586 97.8642 65.3926L106.591 70.0006C106.654 70.0357 106.7 70.0924 106.719 70.1584C106.737 70.2244 106.727 70.2946 106.691 70.3538C106.667 70.3925 106.632 70.4247 106.59 70.4472C106.549 70.4696 106.501 70.4816 106.453 70.4818Z" fill="#263238"/>
<path d="M106.453 74.1785C106.405 74.1788 106.358 74.1682 106.315 74.1478L97.5881 69.5398C97.5529 69.5251 97.5215 69.5036 97.4958 69.4769C97.4701 69.4502 97.4507 69.4187 97.4389 69.3846C97.4271 69.3505 97.4232 69.3145 97.4274 69.2788C97.4316 69.2432 97.4438 69.2088 97.4632 69.1779C97.4826 69.1469 97.5088 69.1201 97.5401 69.0991C97.5714 69.0781 97.6071 69.0634 97.6449 69.056C97.6827 69.0487 97.7217 69.0487 97.7595 69.0562C97.7972 69.0637 97.8329 69.0784 97.8641 69.0995L106.591 73.7075C106.654 73.7417 106.699 73.7974 106.718 73.8626C106.737 73.9278 106.727 73.9972 106.691 74.0557C106.666 74.0934 106.631 74.1245 106.589 74.1461C106.548 74.1676 106.501 74.1788 106.453 74.1785Z" fill="#263238"/>
<path d="M107.695 78.1107C107.649 78.1103 107.604 78.0997 107.563 78.0799L98.8355 73.472C98.7719 73.4386 98.7252 73.3832 98.7055 73.318C98.6858 73.2527 98.6949 73.1829 98.7306 73.1238C98.7676 73.0644 98.8283 73.021 98.8996 73.0028C98.9708 72.9846 99.047 72.9931 99.1115 73.0265L107.833 77.6345C107.865 77.6505 107.893 77.6723 107.916 77.6987C107.939 77.7251 107.956 77.7554 107.965 77.7879C107.975 77.8204 107.978 77.8544 107.973 77.8879C107.968 77.9213 107.956 77.9536 107.938 77.9827C107.913 78.0221 107.878 78.0548 107.835 78.0773C107.793 78.0998 107.744 78.1113 107.695 78.1107Z" fill="#263238"/>
<path d="M107.949 82.0429C107.901 82.0438 107.853 82.0313 107.811 82.007L99.0843 77.399C99.0527 77.3822 99.0251 77.3598 99.0029 77.3331C98.9807 77.3064 98.9644 77.2759 98.9549 77.2433C98.9454 77.2107 98.9429 77.1767 98.9476 77.1433C98.9523 77.1098 98.964 77.0776 98.9821 77.0483C99.0003 77.0191 99.0244 76.9934 99.0532 76.9728C99.082 76.9522 99.1149 76.9371 99.1501 76.9283C99.1852 76.9195 99.2218 76.9172 99.2579 76.9216C99.2939 76.9259 99.3287 76.9368 99.3603 76.9536L108.087 81.5616C108.139 81.5901 108.18 81.6335 108.202 81.6853C108.225 81.7371 108.229 81.7943 108.213 81.8482C108.197 81.9022 108.163 81.9499 108.116 81.9841C108.068 82.0184 108.01 82.0372 107.949 82.0378V82.0429Z" fill="#263238"/>
<path d="M216.384 155.136C216.351 155.143 216.317 155.143 216.285 155.136L199.305 148.828C199.264 148.814 199.228 148.79 199.199 148.76C199.171 148.73 199.15 148.693 199.14 148.654C199.13 148.615 199.129 148.574 199.139 148.535C199.148 148.496 199.168 148.46 199.195 148.429L200.978 146.381C201.017 146.338 201.069 146.308 201.128 146.295C201.186 146.282 201.248 146.287 201.303 146.309L216.561 152.663L224.233 139.351C224.262 139.306 224.303 139.27 224.353 139.246C224.403 139.223 224.459 139.213 224.515 139.218L226.552 139.494C226.595 139.499 226.636 139.514 226.672 139.537C226.708 139.56 226.736 139.591 226.756 139.627C226.776 139.664 226.787 139.704 226.787 139.745C226.787 139.786 226.776 139.827 226.756 139.863L219.028 154.066C218.995 154.127 218.937 154.173 218.868 154.195C218.798 154.217 218.721 154.212 218.656 154.181C218.59 154.151 218.54 154.097 218.516 154.032C218.493 153.967 218.498 153.897 218.531 153.835L226.083 139.95L224.62 139.75L216.936 153.088C216.902 153.145 216.846 153.188 216.78 153.209C216.714 153.229 216.641 153.227 216.577 153.201L201.281 146.831L199.868 148.48L216.5 154.624C216.567 154.65 216.621 154.699 216.65 154.761C216.678 154.824 216.68 154.894 216.655 154.957C216.636 155.009 216.599 155.055 216.551 155.087C216.502 155.12 216.444 155.137 216.384 155.136Z" fill="#263238"/>
<path d="M216.693 153.236C216.632 153.238 216.573 153.22 216.524 153.187C216.475 153.154 216.439 153.106 216.422 153.052L210.08 131.451L197.82 126.397L201.596 145.316C201.609 145.382 201.593 145.451 201.551 145.507C201.51 145.562 201.446 145.6 201.375 145.613C201.303 145.625 201.229 145.61 201.169 145.572C201.109 145.533 201.068 145.474 201.055 145.408L197.191 126.013C197.18 125.968 197.183 125.921 197.201 125.877C197.219 125.833 197.25 125.795 197.29 125.768C197.329 125.739 197.376 125.72 197.425 125.714C197.475 125.707 197.526 125.714 197.572 125.732L210.428 131.036C210.465 131.051 210.498 131.074 210.525 131.102C210.551 131.13 210.571 131.164 210.582 131.2L216.936 152.914C216.953 152.98 216.943 153.049 216.907 153.108C216.871 153.167 216.812 153.211 216.743 153.231L216.693 153.236Z" fill="#263238"/>
<path d="M199.421 148.818C199.356 148.819 199.292 148.797 199.242 148.757C199.193 148.718 199.16 148.663 199.151 148.603L195.574 129.659C195.563 129.613 195.563 129.566 195.574 129.521L197.186 125.88C197.218 125.824 197.271 125.781 197.336 125.759C197.4 125.738 197.471 125.739 197.535 125.764C197.598 125.788 197.65 125.833 197.679 125.891C197.708 125.948 197.713 126.014 197.693 126.075L196.115 129.659L199.675 148.541C199.681 148.575 199.681 148.609 199.673 148.642C199.665 148.675 199.65 148.706 199.629 148.734C199.608 148.761 199.581 148.785 199.55 148.803C199.519 148.821 199.485 148.833 199.449 148.838L199.421 148.818Z" fill="#263238"/>
<path d="M223.56 137.953C223.501 137.953 223.444 137.935 223.396 137.903C223.349 137.871 223.313 137.826 223.295 137.774L217.311 120.765L210.566 131.4C210.528 131.457 210.467 131.498 210.397 131.514C210.326 131.53 210.252 131.52 210.19 131.485C210.128 131.451 210.082 131.396 210.064 131.331C210.045 131.266 210.055 131.197 210.091 131.139L217.145 120.018C217.172 119.975 217.212 119.94 217.261 119.918C217.309 119.896 217.363 119.888 217.416 119.895C217.468 119.9 217.518 119.92 217.559 119.95C217.6 119.981 217.631 120.022 217.648 120.069L223.819 137.615C223.831 137.647 223.836 137.681 223.834 137.715C223.831 137.748 223.821 137.781 223.805 137.811C223.788 137.842 223.765 137.868 223.738 137.89C223.71 137.912 223.677 137.928 223.642 137.938L223.56 137.953Z" fill="#263238"/>
<path d="M226.524 139.996C226.466 139.997 226.409 139.98 226.361 139.949C226.314 139.918 226.278 139.873 226.26 139.822L219.426 120.422H217.367C217.294 120.422 217.223 120.395 217.172 120.347C217.12 120.299 217.091 120.234 217.091 120.166C217.094 120.098 217.124 120.034 217.177 119.986C217.229 119.939 217.299 119.912 217.372 119.91H219.63C219.688 119.911 219.744 119.929 219.791 119.961C219.838 119.993 219.872 120.038 219.889 120.09L226.784 139.663C226.796 139.695 226.801 139.729 226.798 139.763C226.796 139.797 226.786 139.829 226.77 139.86C226.753 139.89 226.73 139.916 226.702 139.938C226.674 139.96 226.642 139.976 226.607 139.986L226.524 139.996Z" fill="#263238"/>
<path d="M215.368 145.695C215.319 145.696 215.271 145.683 215.23 145.659C215.168 145.625 215.122 145.569 215.102 145.504C215.083 145.439 215.091 145.37 215.125 145.311L220.645 136.422C220.682 136.364 220.742 136.322 220.812 136.304C220.882 136.286 220.957 136.293 221.021 136.325C221.083 136.36 221.129 136.417 221.149 136.482C221.168 136.548 221.16 136.618 221.125 136.678L215.578 145.567C215.556 145.602 215.526 145.632 215.49 145.654C215.453 145.676 215.411 145.69 215.368 145.695Z" fill="#263238"/>
<path d="M214.446 141.824C214.397 141.826 214.349 141.813 214.308 141.788C214.245 141.755 214.198 141.699 214.178 141.634C214.158 141.569 214.168 141.499 214.203 141.44L219.751 132.557C219.767 132.524 219.79 132.495 219.819 132.471C219.848 132.447 219.881 132.429 219.918 132.418C219.955 132.408 219.994 132.404 220.032 132.408C220.071 132.412 220.108 132.423 220.141 132.441C220.175 132.459 220.203 132.483 220.226 132.512C220.249 132.541 220.265 132.574 220.272 132.609C220.28 132.645 220.28 132.681 220.272 132.716C220.264 132.751 220.248 132.784 220.226 132.813L214.706 141.701C214.679 141.742 214.641 141.775 214.595 141.797C214.549 141.819 214.497 141.828 214.446 141.824Z" fill="#263238"/>
<path d="M213.519 137.964C213.471 137.964 213.423 137.951 213.381 137.928C213.35 137.911 213.322 137.889 213.3 137.863C213.278 137.836 213.261 137.806 213.252 137.773C213.243 137.741 213.241 137.707 213.246 137.674C213.251 137.64 213.263 137.608 213.282 137.58L218.829 128.691C218.87 128.64 218.929 128.604 218.996 128.591C219.063 128.578 219.132 128.589 219.191 128.62C219.251 128.652 219.295 128.703 219.316 128.764C219.336 128.824 219.332 128.889 219.304 128.947L213.784 137.836C213.757 137.878 213.718 137.912 213.672 137.935C213.625 137.957 213.572 137.967 213.519 137.964Z" fill="#263238"/>
<path d="M212.597 134.098C212.549 134.098 212.501 134.086 212.459 134.062C212.428 134.046 212.4 134.024 212.378 133.997C212.356 133.97 212.34 133.94 212.33 133.908C212.321 133.875 212.319 133.841 212.324 133.808C212.329 133.775 212.341 133.743 212.36 133.714L217.88 124.826C217.918 124.767 217.979 124.725 218.05 124.708C218.121 124.69 218.197 124.7 218.261 124.733C218.292 124.75 218.32 124.772 218.342 124.799C218.365 124.825 218.381 124.856 218.39 124.888C218.399 124.921 218.401 124.954 218.396 124.988C218.391 125.021 218.379 125.053 218.36 125.082L212.813 133.97C212.791 134.006 212.759 134.036 212.722 134.058C212.684 134.081 212.642 134.094 212.597 134.098Z" fill="#263238"/>
<path d="M212.614 145.72C212.576 145.72 212.538 145.711 212.504 145.695L203.318 141.911C203.285 141.898 203.255 141.878 203.229 141.854C203.204 141.83 203.185 141.801 203.172 141.769C203.159 141.738 203.153 141.704 203.155 141.67C203.156 141.637 203.165 141.604 203.18 141.573C203.195 141.542 203.216 141.514 203.242 141.491C203.268 141.467 203.299 141.449 203.333 141.436C203.366 141.424 203.403 141.418 203.439 141.419C203.475 141.419 203.511 141.426 203.545 141.44L212.724 145.229C212.798 145.242 212.862 145.282 212.903 145.34C212.945 145.398 212.96 145.468 212.945 145.536C212.931 145.604 212.887 145.664 212.825 145.702C212.763 145.74 212.687 145.754 212.614 145.741V145.72Z" fill="#263238"/>
<path d="M212.21 142.039C212.174 142.044 212.137 142.044 212.1 142.039L202.915 138.24C202.879 138.228 202.847 138.209 202.82 138.184C202.793 138.16 202.772 138.131 202.757 138.099C202.743 138.066 202.736 138.032 202.736 137.997C202.737 137.962 202.745 137.927 202.761 137.895C202.776 137.863 202.799 137.835 202.826 137.811C202.854 137.788 202.887 137.77 202.923 137.758C202.958 137.747 202.996 137.743 203.034 137.745C203.071 137.748 203.108 137.758 203.141 137.774L212.321 141.558C212.394 141.571 212.458 141.611 212.5 141.669C212.541 141.726 212.556 141.797 212.542 141.865C212.527 141.933 212.484 141.993 212.422 142.031C212.36 142.069 212.284 142.083 212.21 142.07V142.039Z" fill="#263238"/>
<path d="M210.544 138.24C210.505 138.239 210.467 138.231 210.433 138.214L201.248 134.431C201.215 134.417 201.184 134.398 201.159 134.374C201.134 134.349 201.114 134.32 201.102 134.289C201.089 134.257 201.083 134.224 201.084 134.19C201.086 134.156 201.094 134.123 201.11 134.093C201.124 134.062 201.145 134.034 201.171 134.01C201.198 133.987 201.228 133.968 201.262 133.956C201.296 133.944 201.332 133.938 201.369 133.938C201.405 133.939 201.441 133.946 201.474 133.96L210.654 137.748C210.687 137.762 210.718 137.781 210.743 137.805C210.768 137.83 210.788 137.858 210.802 137.89C210.815 137.921 210.821 137.955 210.821 137.988C210.82 138.022 210.812 138.055 210.798 138.086C210.775 138.132 210.74 138.17 210.695 138.198C210.65 138.225 210.597 138.24 210.544 138.24Z" fill="#263238"/>
<path d="M209.871 134.354C209.834 134.362 209.797 134.362 209.76 134.354L200.575 130.56C200.538 130.549 200.504 130.531 200.475 130.507C200.446 130.484 200.423 130.454 200.407 130.422C200.39 130.389 200.382 130.353 200.382 130.317C200.382 130.281 200.39 130.246 200.405 130.213C200.421 130.18 200.444 130.15 200.472 130.126C200.501 130.102 200.535 130.084 200.572 130.073C200.609 130.061 200.648 130.057 200.686 130.061C200.725 130.065 200.762 130.076 200.796 130.094L209.981 133.883C210.015 133.896 210.045 133.916 210.07 133.94C210.095 133.964 210.115 133.993 210.129 134.024C210.142 134.056 210.148 134.089 210.148 134.123C210.147 134.157 210.139 134.19 210.125 134.221C210.099 134.262 210.062 134.296 210.017 134.32C209.973 134.343 209.922 134.355 209.871 134.354Z" fill="#263238"/>
<path d="M185.312 161.326C183.766 164.874 182.177 162.022 182.43 147.159C182.546 140.191 183.076 125.957 191.384 129.091C199.36 132.101 188.845 153.155 188.845 153.155L185.312 161.326ZM196.722 163.435C196.722 163.435 214.038 146.698 207.546 141.445C200.784 135.982 195.303 149.284 192.747 155.837C187.305 169.82 187.812 172.995 190.539 170.112L196.722 163.435ZM200.376 178.458C200.376 178.458 216.229 167.987 212.084 163.098C207.767 158.013 201.497 167.444 198.521 172.114C192.179 182.072 192.068 184.571 194.586 182.728L200.376 178.458ZM204.665 193.434C204.665 193.434 220.518 182.963 216.373 178.074C212.062 172.984 205.791 182.42 202.816 187.085C196.468 197.043 196.357 199.542 198.88 197.699L204.665 193.434ZM176.977 163.328C176.977 163.328 154.792 152.617 151.187 159.872C147.428 167.429 162.735 168.576 170.231 169.001C186.239 169.912 189.375 168.571 185.627 166.953L176.977 163.328ZM180.101 175.104C180.101 175.104 156.067 168.694 154.085 176.471C152.021 184.576 167.256 182.876 174.708 181.914C190.584 179.866 193.377 177.966 189.364 177.091L180.101 175.104ZM185.621 187.955C185.621 187.955 165.131 183.055 163.651 189.675C162.111 196.562 174.962 194.795 181.227 193.823C194.602 191.749 196.915 190.085 193.498 189.43L185.621 187.955ZM188.828 198.569C188.828 198.569 169.017 191.677 166.787 198.113C164.463 204.815 177.446 204.324 183.788 203.971C197.323 203.223 199.796 201.8 196.484 200.811L188.828 198.569ZM175.58 144.809C175.58 144.809 166.538 118.738 156.26 123.474C145.573 128.404 157.916 140.16 164.093 145.787C177.269 157.798 181.349 158.638 179.615 154.445L175.58 144.809Z" fill="#7CB7FB"/>
<path opacity="0.65" d="M185.312 161.326C183.766 164.874 182.177 162.022 182.43 147.159C182.546 140.191 183.076 125.957 191.384 129.091C199.36 132.101 188.845 153.155 188.845 153.155L185.312 161.326ZM196.722 163.435C196.722 163.435 214.038 146.698 207.546 141.445C200.784 135.982 195.303 149.284 192.747 155.837C187.305 169.82 187.812 172.995 190.539 170.112L196.722 163.435ZM200.376 178.458C200.376 178.458 216.229 167.987 212.084 163.098C207.767 158.013 201.497 167.444 198.521 172.114C192.179 182.072 192.068 184.571 194.586 182.728L200.376 178.458ZM204.665 193.434C204.665 193.434 220.518 182.963 216.373 178.074C212.062 172.984 205.791 182.42 202.816 187.085C196.468 197.043 196.357 199.542 198.88 197.699L204.665 193.434ZM176.977 163.328C176.977 163.328 154.792 152.617 151.187 159.872C147.428 167.429 162.735 168.576 170.231 169.001C186.239 169.912 189.375 168.571 185.627 166.953L176.977 163.328ZM180.101 175.104C180.101 175.104 156.067 168.694 154.085 176.471C152.021 184.576 167.256 182.876 174.708 181.914C190.584 179.866 193.377 177.966 189.364 177.091L180.101 175.104ZM185.621 187.955C185.621 187.955 165.131 183.055 163.651 189.675C162.111 196.562 174.962 194.795 181.227 193.823C194.602 191.749 196.915 190.085 193.498 189.43L185.621 187.955ZM188.828 198.569C188.828 198.569 169.017 191.677 166.787 198.113C164.463 204.815 177.446 204.324 183.788 203.971C197.323 203.223 199.796 201.8 196.484 200.811L188.828 198.569ZM175.58 144.809C175.58 144.809 166.538 118.738 156.26 123.474C145.573 128.404 157.916 140.16 164.093 145.787C177.269 157.798 181.349 158.638 179.615 154.445L175.58 144.809Z" fill="white"/>
<path d="M200.017 216.899C199.93 216.897 199.846 216.866 199.782 216.81C199.719 216.754 199.68 216.678 199.675 216.597C198.841 202.972 194.707 186.522 188.359 171.464C183.005 158.787 160.494 133.233 160.262 132.977C160.205 132.911 160.178 132.826 160.187 132.742C160.197 132.658 160.241 132.58 160.312 132.526C160.347 132.499 160.387 132.479 160.431 132.467C160.474 132.454 160.52 132.45 160.565 132.455C160.61 132.459 160.654 132.472 160.694 132.492C160.734 132.512 160.769 132.539 160.798 132.572C161.024 132.828 183.612 158.464 189.005 171.228C195.408 186.368 199.531 202.87 200.376 216.576C200.38 216.661 200.349 216.744 200.288 216.807C200.227 216.87 200.142 216.909 200.05 216.914L200.017 216.899Z" fill="#CCCCCC"/>
<path d="M184.158 163.272H184.12C184.028 163.261 183.945 163.218 183.888 163.151C183.831 163.083 183.805 162.998 183.816 162.913L186.973 138.399C186.984 138.314 187.031 138.238 187.103 138.185C187.175 138.133 187.266 138.109 187.357 138.12C187.448 138.13 187.53 138.173 187.587 138.24C187.643 138.306 187.669 138.391 187.658 138.475L184.5 162.99C184.49 163.067 184.449 163.139 184.386 163.19C184.323 163.242 184.242 163.271 184.158 163.272Z" fill="#CCCCCC"/>
<path d="M188.68 171.669C188.626 171.666 188.573 171.654 188.525 171.633C188.484 171.613 188.448 171.587 188.419 171.554C188.389 171.522 188.367 171.484 188.353 171.444C188.339 171.403 188.334 171.361 188.338 171.319C188.342 171.276 188.355 171.235 188.376 171.197L199.824 150.595C199.842 150.552 199.869 150.514 199.904 150.482C199.939 150.45 199.981 150.426 200.026 150.41C200.072 150.394 200.121 150.387 200.17 150.39C200.219 150.393 200.266 150.405 200.31 150.426C200.353 150.447 200.391 150.476 200.421 150.512C200.452 150.547 200.474 150.588 200.486 150.632C200.498 150.676 200.5 150.722 200.491 150.767C200.483 150.811 200.464 150.854 200.437 150.892L188.989 171.52C188.955 171.567 188.909 171.606 188.855 171.632C188.801 171.658 188.741 171.671 188.68 171.669Z" fill="#CCCCCC"/>
<path d="M187.012 168.612H186.946L163.011 164.091C162.963 164.086 162.917 164.072 162.875 164.049C162.833 164.027 162.797 163.996 162.769 163.96C162.74 163.924 162.72 163.883 162.71 163.839C162.7 163.795 162.7 163.75 162.709 163.706C162.719 163.662 162.738 163.621 162.766 163.584C162.794 163.548 162.829 163.517 162.871 163.494C162.912 163.471 162.958 163.456 163.006 163.45C163.054 163.445 163.103 163.448 163.149 163.461L187.084 167.982C187.172 168 187.25 168.05 187.299 168.121C187.349 168.192 187.367 168.278 187.348 168.361C187.332 168.432 187.289 168.496 187.228 168.542C187.167 168.588 187.09 168.612 187.012 168.612Z" fill="#CCCCCC"/>
<path d="M193.2 183.357C193.138 183.354 193.078 183.335 193.026 183.302C192.975 183.27 192.934 183.225 192.907 183.173C192.881 183.12 192.87 183.062 192.876 183.005C192.882 182.947 192.904 182.892 192.941 182.845L207 167.936C207.03 167.904 207.066 167.878 207.107 167.86C207.147 167.841 207.191 167.83 207.236 167.827C207.281 167.824 207.327 167.83 207.369 167.843C207.412 167.857 207.452 167.878 207.486 167.905C207.52 167.933 207.548 167.966 207.568 168.004C207.588 168.041 207.6 168.082 207.603 168.124C207.606 168.166 207.6 168.208 207.586 168.248C207.572 168.287 207.549 168.324 207.519 168.356L193.449 183.229C193.419 183.266 193.382 183.296 193.339 183.318C193.296 183.34 193.249 183.353 193.2 183.357Z" fill="#CCCCCC"/>
<path d="M191.213 178.458L173.146 178.314C173.055 178.313 172.968 178.278 172.904 178.218C172.84 178.158 172.804 178.076 172.804 177.992C172.807 177.907 172.844 177.827 172.909 177.768C172.974 177.709 173.061 177.675 173.151 177.674L191.218 177.818C191.31 177.819 191.397 177.853 191.461 177.914C191.525 177.974 191.561 178.055 191.561 178.14C191.561 178.182 191.552 178.224 191.534 178.263C191.517 178.302 191.491 178.337 191.458 178.366C191.426 178.396 191.388 178.419 191.346 178.435C191.303 178.451 191.258 178.458 191.213 178.458Z" fill="#CCCCCC"/>
<path d="M180.835 191.135C180.745 191.135 180.658 191.102 180.593 191.044C180.528 190.986 180.49 190.906 180.487 190.822C180.486 190.738 180.519 190.656 180.581 190.594C180.643 190.532 180.728 190.495 180.819 190.49L194.674 189.978C194.765 189.975 194.854 190.005 194.921 190.063C194.988 190.12 195.028 190.2 195.033 190.285C195.035 190.327 195.028 190.369 195.012 190.409C194.997 190.448 194.973 190.485 194.942 190.516C194.911 190.547 194.874 190.572 194.833 190.589C194.791 190.607 194.747 190.616 194.701 190.618L180.846 191.13L180.835 191.135Z" fill="#CCCCCC"/>
<path d="M197.534 198.39C197.459 198.39 197.387 198.367 197.329 198.323C197.256 198.272 197.207 198.196 197.193 198.112C197.18 198.027 197.203 197.941 197.258 197.873L204.677 188.703C204.732 188.634 204.814 188.589 204.905 188.576C204.996 188.564 205.088 188.585 205.162 188.636C205.199 188.661 205.23 188.693 205.253 188.73C205.277 188.766 205.292 188.807 205.298 188.848C205.304 188.89 205.301 188.933 205.289 188.974C205.277 189.015 205.257 189.053 205.229 189.087L197.81 198.262C197.777 198.301 197.736 198.334 197.688 198.356C197.64 198.378 197.587 198.39 197.534 198.39Z" fill="#CCCCCC"/>
<path d="M198.08 201.8L181.878 201.052C181.833 201.05 181.788 201.04 181.747 201.022C181.705 201.004 181.668 200.978 181.637 200.947C181.607 200.916 181.583 200.879 181.567 200.839C181.552 200.799 181.545 200.757 181.547 200.714C181.553 200.63 181.594 200.55 181.663 200.494C181.731 200.437 181.82 200.408 181.912 200.412L198.118 201.16C198.163 201.162 198.207 201.172 198.248 201.19C198.289 201.207 198.325 201.232 198.356 201.263C198.386 201.294 198.409 201.33 198.424 201.37C198.44 201.409 198.446 201.451 198.444 201.492C198.442 201.535 198.431 201.576 198.411 201.615C198.392 201.653 198.364 201.688 198.331 201.716C198.297 201.745 198.257 201.767 198.214 201.781C198.171 201.795 198.125 201.802 198.08 201.8Z" fill="#CCCCCC"/>
<path d="M229.003 181.632C226.204 182.61 227.06 180.424 235.71 173.24C239.761 169.876 248.185 163.139 250.47 168.776C252.678 174.193 235.428 179.348 235.428 179.348L229.003 181.632ZM233.419 188.288C233.419 188.288 251.524 188.605 251.348 182.82C251.16 176.799 240.832 180.634 235.82 182.595C225.128 186.783 223.555 188.59 226.541 188.508L233.419 188.288ZM226.58 197.478C226.58 197.478 240.38 200.156 241.141 195.707C241.942 191.099 233.446 192.635 229.306 193.449C220.474 195.215 218.99 196.388 221.286 196.726L226.58 197.478ZM220.099 206.961C220.099 206.961 233.899 209.633 234.661 205.189C235.461 200.581 226.966 202.117 222.826 202.926C213.994 204.692 212.509 205.865 214.805 206.203L220.099 206.961ZM223.759 178.499C223.759 178.499 218.995 162.304 213.072 164.076C206.895 165.934 213.762 174.049 217.201 177.956C224.543 186.301 226.856 187.172 225.928 184.556L223.759 178.499ZM218.531 185.856C218.531 185.856 210.389 170.844 204.958 173.691C199.305 176.64 207.773 183.296 211.968 186.516C220.949 193.341 223.411 193.787 221.937 191.375L218.531 185.856ZM213.867 194.888C213.867 194.888 206.608 182.369 202.082 184.893C197.373 187.52 204.704 192.993 208.341 195.604C216.108 201.18 218.195 201.508 216.892 199.501L213.867 194.888ZM209.357 201.687C209.357 201.687 203.572 188.524 198.781 190.587C193.813 192.737 200.464 198.897 203.782 201.851C210.864 208.159 212.907 208.691 211.836 206.566L209.357 201.687ZM233.645 168.719C233.645 168.719 244.133 151.439 236.405 148.705C228.324 145.853 227.65 157.722 227.463 163.553C227.049 175.954 228.567 178.401 230.123 175.462L233.645 168.719Z" fill="#7CB7FB"/>
<path opacity="0.65" d="M229.003 181.632C226.204 182.61 227.06 180.424 235.71 173.24C239.761 169.876 248.185 163.139 250.47 168.776C252.678 174.193 235.428 179.348 235.428 179.348L229.003 181.632ZM233.419 188.288C233.419 188.288 251.524 188.605 251.348 182.82C251.16 176.799 240.832 180.634 235.82 182.595C225.128 186.783 223.555 188.59 226.541 188.508L233.419 188.288ZM226.58 197.478C226.58 197.478 240.38 200.156 241.141 195.707C241.942 191.099 233.446 192.635 229.306 193.449C220.474 195.215 218.99 196.388 221.286 196.726L226.58 197.478ZM220.099 206.961C220.099 206.961 233.899 209.633 234.661 205.189C235.461 200.581 226.966 202.117 222.826 202.926C213.994 204.692 212.509 205.865 214.805 206.203L220.099 206.961ZM223.759 178.499C223.759 178.499 218.995 162.304 213.072 164.076C206.895 165.934 213.762 174.049 217.201 177.956C224.543 186.301 226.856 187.172 225.928 184.556L223.759 178.499ZM218.531 185.856C218.531 185.856 210.389 170.844 204.958 173.691C199.305 176.64 207.773 183.296 211.968 186.516C220.949 193.341 223.411 193.787 221.937 191.375L218.531 185.856ZM213.867 194.888C213.867 194.888 206.608 182.369 202.082 184.893C197.373 187.52 204.704 192.993 208.341 195.604C216.108 201.18 218.195 201.508 216.892 199.501L213.867 194.888ZM209.357 201.687C209.357 201.687 203.572 188.524 198.781 190.587C193.813 192.737 200.464 198.897 203.782 201.851C210.864 208.159 212.907 208.691 211.836 206.566L209.357 201.687ZM233.645 168.719C233.645 168.719 244.133 151.439 236.405 148.705C228.324 145.853 227.65 157.722 227.463 163.553C227.049 175.954 228.567 178.401 230.123 175.462L233.645 168.719Z" fill="#E5E5E5"/>
<path d="M203.843 217.088C203.799 217.089 203.756 217.082 203.715 217.067C203.674 217.052 203.637 217.029 203.606 217.001C203.54 216.941 203.504 216.859 203.504 216.773C203.504 216.688 203.54 216.606 203.606 216.545C211.184 209.275 219.233 198.364 224.609 188.073C229.24 179.215 232.828 155.561 232.862 155.305C232.875 155.221 232.924 155.145 232.997 155.093C233.07 155.041 233.162 155.018 233.253 155.029C233.344 155.041 233.425 155.086 233.48 155.155C233.535 155.223 233.559 155.308 233.546 155.392C233.513 155.633 229.908 179.384 225.233 188.334C219.823 198.677 211.725 209.654 204.102 216.97C204.071 217.007 204.032 217.036 203.987 217.057C203.942 217.077 203.893 217.088 203.843 217.088Z" fill="#CCCCCC"/>
<path d="M227.501 182.18C227.446 182.18 227.392 182.168 227.343 182.145C227.294 182.121 227.252 182.088 227.219 182.047C227.167 181.977 227.145 181.891 227.16 181.807C227.174 181.723 227.223 181.647 227.297 181.596L242.907 171.11C242.942 171.077 242.985 171.051 243.032 171.034C243.079 171.018 243.13 171.011 243.18 171.014C243.23 171.017 243.279 171.031 243.323 171.053C243.367 171.075 243.405 171.106 243.435 171.144C243.465 171.182 243.486 171.225 243.496 171.27C243.507 171.316 243.506 171.363 243.495 171.409C243.483 171.454 243.461 171.497 243.431 171.534C243.4 171.571 243.36 171.601 243.316 171.622L227.705 182.118C227.646 182.158 227.574 182.18 227.501 182.18Z" fill="#CCCCCC"/>
<path d="M224.912 188.534C224.83 188.531 224.752 188.502 224.691 188.451C224.63 188.4 224.591 188.331 224.579 188.256C224.568 188.18 224.586 188.104 224.63 188.039C224.674 187.975 224.74 187.927 224.819 187.904L242.251 183.419C242.294 183.408 242.34 183.405 242.384 183.41C242.429 183.415 242.472 183.428 242.512 183.449C242.551 183.47 242.585 183.497 242.613 183.53C242.641 183.563 242.661 183.601 242.673 183.642C242.685 183.682 242.688 183.724 242.683 183.766C242.677 183.807 242.663 183.847 242.64 183.884C242.618 183.92 242.588 183.952 242.553 183.978C242.517 184.003 242.476 184.022 242.433 184.033L225.001 188.524C224.972 188.532 224.942 188.535 224.912 188.534Z" fill="#CCCCCC"/>
<path d="M225.84 186.209C225.781 186.21 225.723 186.197 225.671 186.17C225.62 186.143 225.577 186.103 225.548 186.056L216.384 172.032C216.36 171.996 216.344 171.956 216.337 171.915C216.33 171.873 216.332 171.83 216.343 171.789C216.354 171.748 216.373 171.71 216.4 171.676C216.427 171.642 216.461 171.613 216.5 171.592C216.579 171.548 216.673 171.535 216.762 171.555C216.85 171.575 216.927 171.627 216.975 171.699L226.144 185.728C226.191 185.801 226.205 185.888 226.183 185.97C226.162 186.053 226.106 186.124 226.028 186.168C225.972 186.2 225.906 186.214 225.84 186.209Z" fill="#CCCCCC"/>
<path d="M220.413 196.5C220.329 196.491 220.252 196.453 220.196 196.394C220.14 196.335 220.109 196.259 220.109 196.18C220.109 196.102 220.14 196.026 220.196 195.967C220.252 195.908 220.329 195.87 220.413 195.86L235.869 195.492C235.961 195.492 236.049 195.524 236.116 195.582C236.182 195.64 236.223 195.719 236.228 195.804C236.23 195.889 236.195 195.971 236.132 196.032C236.069 196.093 235.983 196.129 235.891 196.132L220.435 196.5H220.413Z" fill="#CCCCCC"/>
<path d="M222.258 193.121C222.21 193.121 222.163 193.112 222.119 193.095C222.076 193.077 222.036 193.051 222.004 193.019L213.205 184.033C213.141 183.972 213.105 183.891 213.105 183.805C213.105 183.72 213.141 183.639 213.205 183.578C213.239 183.549 213.279 183.528 213.322 183.514C213.365 183.5 213.411 183.494 213.456 183.496C213.502 183.498 213.547 183.509 213.588 183.527C213.629 183.546 213.666 183.572 213.696 183.603L222.495 192.589C222.532 192.636 222.554 192.691 222.56 192.748C222.566 192.806 222.555 192.864 222.529 192.916C222.502 192.968 222.461 193.013 222.409 193.046C222.358 193.078 222.298 193.097 222.236 193.101L222.258 193.121Z" fill="#CCCCCC"/>
<path d="M216.992 200.817C216.947 200.817 216.902 200.809 216.86 200.793C216.819 200.777 216.781 200.754 216.749 200.725L209.644 194.14C209.584 194.079 209.552 193.998 209.554 193.915C209.556 193.832 209.592 193.753 209.656 193.695C209.719 193.636 209.804 193.602 209.893 193.6C209.983 193.599 210.07 193.629 210.136 193.685L217.234 200.269C217.282 200.314 217.314 200.371 217.327 200.433C217.34 200.495 217.333 200.559 217.307 200.617C217.281 200.675 217.238 200.725 217.182 200.761C217.126 200.796 217.059 200.816 216.992 200.817Z" fill="#CCCCCC"/>
<path d="M213.938 206.039C213.853 206.035 213.772 206.001 213.712 205.945C213.652 205.889 213.616 205.814 213.611 205.735C213.606 205.656 213.633 205.578 213.686 205.516C213.739 205.454 213.815 205.412 213.9 205.399L222.809 204.549C222.897 204.547 222.982 204.575 223.049 204.629C223.115 204.682 223.157 204.757 223.166 204.838C223.175 204.919 223.151 205.001 223.098 205.066C223.045 205.131 222.967 205.175 222.881 205.189L213.971 206.039H213.938Z" fill="#CCCCCC"/>
<path d="M212.249 207.985C212.196 207.988 212.143 207.979 212.094 207.959C212.045 207.94 212.002 207.91 211.968 207.872L204.427 199.511C204.37 199.446 204.342 199.362 204.35 199.277C204.358 199.193 204.402 199.115 204.472 199.061C204.506 199.033 204.546 199.013 204.59 199C204.633 198.987 204.678 198.983 204.724 198.987C204.769 198.99 204.813 199.003 204.853 199.022C204.893 199.042 204.929 199.069 204.957 199.101L212.52 207.457C212.578 207.523 212.605 207.607 212.597 207.691C212.589 207.775 212.545 207.853 212.476 207.908C212.413 207.958 212.332 207.985 212.249 207.985Z" fill="#CCCCCC"/>
<path d="M95.767 161.326C97.3126 164.874 98.9023 162.022 98.6539 147.159C98.5325 140.191 98.0026 125.957 89.695 129.091C81.7186 132.101 92.2342 153.155 92.2342 153.155L95.767 161.326ZM84.3571 163.435C84.3571 163.435 67.0409 146.698 73.5324 141.445C80.2944 135.982 85.7813 149.284 88.3315 155.837C93.7743 169.82 93.2664 172.995 90.5395 170.112L84.3571 163.435ZM80.7029 178.458C80.7029 178.458 64.8495 167.987 68.995 163.098C73.3116 158.013 79.5823 167.444 82.5576 172.114C88.9001 182.072 89.0105 184.571 86.4934 182.728L80.7029 178.458ZM76.4139 193.434C76.4139 193.434 60.5604 182.963 64.7059 178.074C69.0171 172.984 75.2878 182.42 78.2631 187.085C84.6111 197.043 84.7215 199.542 82.1988 197.699L76.4139 193.434ZM104.102 163.328C104.102 163.328 126.287 152.617 129.892 159.872C133.651 167.429 118.344 168.576 110.848 169.001C94.8396 169.912 91.7043 168.571 95.4523 166.953L104.102 163.328ZM100.978 175.104C100.978 175.104 125.017 168.694 126.994 176.471C129.058 184.566 113.812 182.866 106.371 181.903C90.4954 179.855 87.7023 177.956 91.7208 177.08L100.978 175.104ZM95.4579 187.955C95.4579 187.955 115.948 183.055 117.427 189.675C118.968 196.562 106.117 194.795 99.8518 193.823C86.4768 191.749 84.1639 190.085 87.5808 189.43L95.4579 187.955ZM92.2507 198.569C92.2507 198.569 112.056 191.688 114.309 198.144C116.633 204.846 103.65 204.355 97.3071 204.001C83.772 203.254 81.2991 201.83 84.6111 200.842L92.2507 198.569ZM105.499 144.809C105.499 144.809 114.546 118.738 124.819 123.474C135.505 128.404 123.163 140.16 116.986 145.787C103.81 157.798 99.7303 158.638 101.469 154.445L105.499 144.809Z" fill="#7CB7FB"/>
<path opacity="0.65" d="M95.767 161.326C97.3126 164.874 98.9023 162.022 98.6539 147.159C98.5325 140.191 98.0026 125.957 89.695 129.091C81.7186 132.101 92.2342 153.155 92.2342 153.155L95.767 161.326ZM84.3571 163.435C84.3571 163.435 67.0409 146.698 73.5324 141.445C80.2944 135.982 85.7813 149.284 88.3315 155.837C93.7743 169.82 93.2664 172.995 90.5395 170.112L84.3571 163.435ZM80.7029 178.458C80.7029 178.458 64.8495 167.987 68.995 163.098C73.3116 158.013 79.5823 167.444 82.5576 172.114C88.9001 182.072 89.0105 184.571 86.4934 182.728L80.7029 178.458ZM76.4139 193.434C76.4139 193.434 60.5604 182.963 64.7059 178.074C69.0171 172.984 75.2878 182.42 78.2631 187.085C84.6111 197.043 84.7215 199.542 82.1988 197.699L76.4139 193.434ZM104.102 163.328C104.102 163.328 126.287 152.617 129.892 159.872C133.651 167.429 118.344 168.576 110.848 169.001C94.8396 169.912 91.7043 168.571 95.4523 166.953L104.102 163.328ZM100.978 175.104C100.978 175.104 125.017 168.694 126.994 176.471C129.058 184.566 113.812 182.866 106.371 181.903C90.4954 179.855 87.7023 177.956 91.7208 177.08L100.978 175.104ZM95.4579 187.955C95.4579 187.955 115.948 183.055 117.427 189.675C118.968 196.562 106.117 194.795 99.8518 193.823C86.4768 191.749 84.1639 190.085 87.5808 189.43L95.4579 187.955ZM92.2507 198.569C92.2507 198.569 112.056 191.688 114.309 198.144C116.633 204.846 103.65 204.355 97.3071 204.001C83.772 203.254 81.2991 201.83 84.6111 200.842L92.2507 198.569ZM105.499 144.809C105.499 144.809 114.546 118.738 124.819 123.474C135.505 128.404 123.163 140.16 116.986 145.787C103.81 157.798 99.7303 158.638 101.469 154.445L105.499 144.809Z" fill="white"/>
<path d="M81.0615 216.899C80.9702 216.893 80.8848 216.855 80.8238 216.792C80.7629 216.728 80.7312 216.645 80.7358 216.561C81.5693 202.87 85.7038 186.353 92.1015 171.228C97.489 158.464 120.077 132.828 120.303 132.572C120.332 132.539 120.367 132.512 120.407 132.492C120.447 132.472 120.49 132.459 120.536 132.455C120.581 132.45 120.627 132.454 120.67 132.467C120.713 132.479 120.754 132.499 120.789 132.526C120.859 132.58 120.904 132.658 120.913 132.742C120.923 132.826 120.896 132.911 120.839 132.977C120.612 133.233 98.0962 158.792 92.7418 171.464C86.3827 186.522 82.2538 202.972 81.4258 216.597C81.4201 216.681 81.3787 216.76 81.3105 216.817C81.2423 216.873 81.1528 216.903 81.0615 216.899Z" fill="#CCCCCC"/>
<path d="M96.9201 163.272C96.836 163.271 96.755 163.242 96.6921 163.19C96.6291 163.139 96.5886 163.067 96.5779 162.99L93.4205 138.475C93.4095 138.391 93.435 138.306 93.4914 138.24C93.5478 138.173 93.6305 138.13 93.7213 138.12C93.8121 138.109 93.9035 138.133 93.9754 138.185C94.0474 138.238 94.094 138.314 94.1049 138.399L97.2624 162.913C97.2733 162.998 97.2474 163.083 97.1905 163.151C97.1336 163.218 97.0502 163.261 96.9588 163.272H96.9201Z" fill="#CCCCCC"/>
<path d="M92.3996 171.668C92.336 171.668 92.2737 171.651 92.2192 171.621C92.1648 171.59 92.1204 171.546 92.0905 171.494L80.6641 150.891C80.643 150.854 80.6302 150.813 80.6263 150.77C80.6224 150.728 80.6275 150.686 80.6413 150.645C80.6552 150.605 80.6775 150.567 80.707 150.535C80.7364 150.502 80.7725 150.476 80.8132 150.456C80.8956 150.419 80.9901 150.413 81.0774 150.439C81.1646 150.465 81.2379 150.52 81.2824 150.594L92.7032 171.197C92.7243 171.235 92.7372 171.276 92.7411 171.318C92.745 171.361 92.7399 171.403 92.726 171.444C92.7122 171.484 92.6899 171.522 92.6604 171.554C92.6309 171.586 92.5948 171.613 92.5542 171.633C92.5058 171.654 92.4532 171.666 92.3996 171.668Z" fill="#CCCCCC"/>
<path d="M94.0661 168.612C93.9866 168.612 93.9096 168.587 93.8482 168.54C93.7867 168.493 93.7447 168.428 93.7294 168.356C93.7114 168.272 93.7298 168.186 93.7805 168.115C93.8311 168.044 93.91 167.994 93.9998 167.977L117.929 163.456C117.975 163.443 118.024 163.44 118.072 163.445C118.12 163.451 118.166 163.466 118.207 163.489C118.248 163.512 118.284 163.542 118.312 163.579C118.34 163.616 118.359 163.657 118.369 163.701C118.378 163.745 118.378 163.79 118.368 163.834C118.357 163.877 118.338 163.919 118.309 163.955C118.281 163.991 118.245 164.021 118.203 164.044C118.161 164.066 118.115 164.081 118.067 164.086L94.1378 168.607L94.0661 168.612Z" fill="#CCCCCC"/>
<path d="M87.9001 183.357C87.8512 183.357 87.8029 183.347 87.7582 183.329C87.7136 183.31 87.6735 183.284 87.6407 183.25L73.5702 168.376C73.5405 168.345 73.5178 168.308 73.5033 168.268C73.4889 168.228 73.4831 168.186 73.4861 168.145C73.4892 168.103 73.5012 168.062 73.5213 168.024C73.5414 167.987 73.5692 167.953 73.6033 167.926C73.6374 167.898 73.677 167.877 73.7198 167.864C73.7627 167.85 73.8079 167.845 73.853 167.848C73.8982 167.851 73.9422 167.862 73.9827 167.88C74.0232 167.899 74.0594 167.925 74.0891 167.956L88.1596 182.804C88.1963 182.851 88.2188 182.906 88.2247 182.964C88.2307 183.021 88.2198 183.079 88.1933 183.132C88.1668 183.184 88.1256 183.229 88.074 183.261C88.0224 183.294 87.9624 183.313 87.9001 183.316V183.357Z" fill="#CCCCCC"/>
<path d="M89.8712 178.458C89.8258 178.458 89.7807 178.451 89.7385 178.435C89.6964 178.419 89.658 178.396 89.6256 178.366C89.5933 178.337 89.5676 178.302 89.55 178.263C89.5325 178.224 89.5234 178.182 89.5234 178.14C89.5234 178.055 89.5593 177.974 89.6233 177.914C89.6874 177.854 89.7744 177.819 89.8657 177.818L107.933 177.674C107.978 177.674 108.023 177.681 108.065 177.697C108.107 177.713 108.146 177.736 108.178 177.765C108.211 177.795 108.236 177.83 108.254 177.869C108.271 177.908 108.28 177.95 108.28 177.992C108.28 178.076 108.245 178.158 108.181 178.218C108.116 178.278 108.029 178.313 107.938 178.314L89.8712 178.458Z" fill="#CCCCCC"/>
<path d="M100.243 191.135L86.3882 190.623C86.3042 190.61 86.2281 190.569 86.1743 190.508C86.1204 190.447 86.0926 190.37 86.096 190.291C86.0994 190.212 86.1338 190.138 86.1927 190.081C86.2517 190.024 86.331 189.989 86.4158 189.983L100.271 190.495C100.362 190.5 100.447 190.537 100.509 190.599C100.57 190.661 100.604 190.743 100.602 190.827C100.598 190.912 100.558 190.992 100.491 191.049C100.424 191.107 100.335 191.137 100.243 191.135Z" fill="#CCCCCC"/>
<path d="M83.5457 198.39C83.4922 198.39 83.4394 198.378 83.3915 198.356C83.3437 198.334 83.302 198.301 83.2697 198.262L75.8508 189.087C75.8227 189.053 75.8021 189.015 75.7902 188.974C75.7782 188.933 75.7753 188.89 75.7815 188.848C75.7876 188.807 75.8028 188.766 75.8261 188.73C75.8494 188.693 75.8803 188.661 75.917 188.636C75.991 188.585 76.0837 188.564 76.1747 188.576C76.2658 188.589 76.3478 188.634 76.4028 188.703L83.8217 197.873C83.8764 197.941 83.8996 198.027 83.8862 198.112C83.8727 198.196 83.8237 198.272 83.7499 198.323C83.6922 198.367 83.62 198.39 83.5457 198.39Z" fill="#CCCCCC"/>
<path d="M83.0044 201.8C82.915 201.8 82.829 201.768 82.7642 201.711C82.6994 201.654 82.6609 201.575 82.6567 201.493C82.6544 201.451 82.6611 201.409 82.6763 201.37C82.6914 201.331 82.7148 201.294 82.7451 201.263C82.7753 201.233 82.8119 201.207 82.8526 201.19C82.8933 201.172 82.9374 201.162 82.9823 201.16L99.1891 200.412C99.2346 200.409 99.2805 200.414 99.3238 200.427C99.3672 200.441 99.4071 200.462 99.4412 200.491C99.4753 200.519 99.5028 200.553 99.5221 200.592C99.5414 200.63 99.552 200.672 99.5534 200.714C99.5556 200.757 99.5488 200.799 99.5334 200.839C99.5179 200.879 99.4941 200.916 99.4634 200.947C99.4326 200.978 99.3955 201.004 99.3541 201.022C99.3127 201.04 99.2679 201.05 99.2222 201.052L83.021 201.8H83.0044Z" fill="#CCCCCC"/>
<path d="M52.0813 181.632C54.8744 182.61 54.0188 180.424 45.3689 173.24C41.3173 169.876 32.8937 163.139 30.6085 168.776C28.4005 174.193 45.6505 179.348 45.6505 179.348L52.0813 181.632ZM47.6653 188.288C47.6653 188.288 29.5541 188.605 29.7308 182.82C29.924 176.799 40.2188 180.634 45.2585 182.595C55.9508 186.783 57.524 188.59 54.5432 188.508L47.6653 188.288ZM54.499 197.478C54.499 197.478 40.699 200.156 39.9373 195.707C39.1424 191.099 47.6321 192.635 51.7721 193.449C60.6041 195.215 62.089 196.388 59.7927 196.726L54.499 197.478ZM60.9795 206.961C60.9795 206.961 47.1795 209.633 46.4177 205.189C45.6173 200.581 54.1126 202.117 58.2526 202.926C67.0846 204.692 68.5695 205.865 66.2732 206.203L60.9795 206.961ZM57.3197 178.499C57.3197 178.499 62.0835 162.289 68.0175 164.076C74.1944 165.934 67.3275 174.049 63.8885 177.956C56.5469 186.301 54.2341 187.172 55.1614 184.556L57.3197 178.499ZM62.5472 185.856C62.5472 185.856 70.6892 170.844 76.1209 173.691C81.7789 176.655 73.3057 183.337 69.0994 186.537C60.1184 193.362 57.6565 193.807 59.1303 191.396L62.5472 185.856ZM67.2116 194.888C67.2116 194.888 74.4704 182.369 78.9968 184.893C83.7053 187.52 76.3748 192.993 72.7371 195.604C64.9705 201.18 62.8839 201.508 64.1866 199.501L67.2116 194.888ZM71.7214 201.687C71.7214 201.687 77.5064 188.524 82.2977 190.587C87.2657 192.737 80.6141 198.897 77.2966 201.851C70.2145 208.159 68.1721 208.691 69.2429 206.566L71.7214 201.687ZM47.4334 168.719C47.4334 168.719 36.9454 151.439 44.6734 148.705C52.7547 145.853 53.4281 157.722 53.6213 163.553C54.0298 175.954 52.5173 178.401 50.9552 175.462L47.4334 168.719Z" fill="#7CB7FB"/>
<path opacity="0.65" d="M52.0813 181.632C54.8744 182.61 54.0188 180.424 45.3689 173.24C41.3173 169.876 32.8937 163.139 30.6085 168.776C28.4005 174.193 45.6505 179.348 45.6505 179.348L52.0813 181.632ZM47.6653 188.288C47.6653 188.288 29.5541 188.605 29.7308 182.82C29.924 176.799 40.2188 180.634 45.2585 182.595C55.9508 186.783 57.524 188.59 54.5432 188.508L47.6653 188.288ZM54.499 197.478C54.499 197.478 40.699 200.156 39.9373 195.707C39.1424 191.099 47.6321 192.635 51.7721 193.449C60.6041 195.215 62.089 196.388 59.7927 196.726L54.499 197.478ZM60.9795 206.961C60.9795 206.961 47.1795 209.633 46.4177 205.189C45.6173 200.581 54.1126 202.117 58.2526 202.926C67.0846 204.692 68.5695 205.865 66.2732 206.203L60.9795 206.961ZM57.3197 178.499C57.3197 178.499 62.0835 162.289 68.0175 164.076C74.1944 165.934 67.3275 174.049 63.8885 177.956C56.5469 186.301 54.2341 187.172 55.1614 184.556L57.3197 178.499ZM62.5472 185.856C62.5472 185.856 70.6892 170.844 76.1209 173.691C81.7789 176.655 73.3057 183.337 69.0994 186.537C60.1184 193.362 57.6565 193.807 59.1303 191.396L62.5472 185.856ZM67.2116 194.888C67.2116 194.888 74.4704 182.369 78.9968 184.893C83.7053 187.52 76.3748 192.993 72.7371 195.604C64.9705 201.18 62.8839 201.508 64.1866 199.501L67.2116 194.888ZM71.7214 201.687C71.7214 201.687 77.5064 188.524 82.2977 190.587C87.2657 192.737 80.6141 198.897 77.2966 201.851C70.2145 208.159 68.1721 208.691 69.2429 206.566L71.7214 201.687ZM47.4334 168.719C47.4334 168.719 36.9454 151.439 44.6734 148.705C52.7547 145.853 53.4281 157.722 53.6213 163.553C54.0298 175.954 52.5173 178.401 50.9552 175.462L47.4334 168.719Z" fill="#E5E5E5"/>
<path d="M77.2355 217.088C77.1891 217.088 77.1431 217.08 77.1003 217.063C77.0576 217.047 77.019 217.022 76.9871 216.991C69.3639 209.674 61.2661 198.702 55.8565 188.355C51.1811 179.405 47.5765 155.653 47.5434 155.412C47.5307 155.328 47.5544 155.243 47.6091 155.175C47.6639 155.107 47.7454 155.062 47.8359 155.049C47.9272 155.039 48.0192 155.062 48.0924 155.113C48.1656 155.165 48.2142 155.241 48.2279 155.325C48.261 155.561 51.849 179.22 56.4803 188.093C61.8567 198.385 69.9049 209.295 77.4839 216.566C77.5489 216.626 77.5855 216.708 77.5855 216.794C77.5855 216.879 77.5489 216.961 77.4839 217.021C77.4495 217.048 77.4098 217.067 77.3671 217.079C77.3244 217.09 77.2796 217.093 77.2355 217.088Z" fill="#CCCCCC"/>
<path d="M53.5769 182.18C53.5035 182.18 53.4321 182.158 53.3727 182.118L37.7621 171.627C37.7174 171.606 37.6783 171.576 37.6474 171.539C37.6165 171.502 37.5946 171.459 37.5832 171.414C37.5718 171.368 37.5712 171.321 37.5815 171.275C37.5917 171.23 37.6125 171.187 37.6424 171.149C37.6724 171.112 37.7107 171.081 37.7549 171.058C37.799 171.036 37.8479 171.022 37.8981 171.019C37.9484 171.016 37.9987 171.023 38.0458 171.04C38.0928 171.056 38.1354 171.082 38.1706 171.115L53.7812 181.601C53.8546 181.652 53.9038 181.728 53.9182 181.812C53.9326 181.896 53.9112 181.982 53.8584 182.052C53.8253 182.092 53.7826 182.124 53.7338 182.146C53.685 182.169 53.6313 182.18 53.5769 182.18Z" fill="#CCCCCC"/>
<path d="M56.1716 188.534C56.1406 188.539 56.1088 188.539 56.0778 188.534L38.6401 184.033C38.5966 184.022 38.5559 184.003 38.5203 183.978C38.4847 183.952 38.4549 183.92 38.4326 183.884C38.4103 183.847 38.3959 183.807 38.3903 183.766C38.3848 183.724 38.388 183.682 38.4 183.642C38.412 183.601 38.4324 183.563 38.4601 183.53C38.4877 183.497 38.5222 183.47 38.5614 183.449C38.6006 183.428 38.6438 183.415 38.6886 183.41C38.7334 183.405 38.7788 183.408 38.8223 183.419L56.2599 187.904C56.3378 187.927 56.4045 187.974 56.4484 188.038C56.4922 188.102 56.5105 188.178 56.5 188.253C56.4895 188.328 56.4508 188.397 56.3908 188.449C56.3307 188.5 56.2532 188.53 56.1716 188.534Z" fill="#CCCCCC"/>
<path d="M55.2391 186.209C55.1748 186.211 55.1114 186.195 55.0569 186.163C54.9791 186.119 54.9232 186.048 54.9015 185.965C54.8798 185.883 54.894 185.796 54.941 185.723L64.1152 171.694C64.1358 171.653 64.1655 171.616 64.2024 171.586C64.2393 171.556 64.2826 171.534 64.3295 171.521C64.3763 171.508 64.4257 171.504 64.4743 171.509C64.5229 171.515 64.5696 171.53 64.6115 171.554C64.6533 171.577 64.6894 171.609 64.7172 171.646C64.745 171.684 64.764 171.726 64.7729 171.771C64.7818 171.815 64.7804 171.861 64.7689 171.905C64.7573 171.95 64.7359 171.991 64.7059 172.027L55.5316 186.056C55.5021 186.103 55.4594 186.142 55.4079 186.169C55.3565 186.196 55.2982 186.21 55.2391 186.209Z" fill="#CCCCCC"/>
<path d="M60.6648 196.5L45.2088 196.132C45.1176 196.129 45.0311 196.093 44.9681 196.032C44.9051 195.971 44.8706 195.889 44.8721 195.804C44.879 195.72 44.9197 195.641 44.9861 195.583C45.0525 195.525 45.1398 195.493 45.2309 195.492L60.6869 195.86C60.7323 195.861 60.7772 195.87 60.8188 195.887C60.8604 195.904 60.898 195.928 60.9293 195.959C60.9607 195.989 60.9851 196.025 61.0013 196.065C61.0175 196.104 61.0251 196.146 61.0236 196.188C61.0222 196.23 61.0118 196.272 60.993 196.311C60.9742 196.349 60.9473 196.384 60.914 196.413C60.8807 196.442 60.8415 196.465 60.7988 196.48C60.756 196.495 60.7105 196.502 60.6648 196.5Z" fill="#CCCCCC"/>
<path d="M58.8212 193.121C58.7585 193.119 58.6979 193.1 58.646 193.067C58.594 193.035 58.5526 192.99 58.5264 192.937C58.5002 192.884 58.4902 192.826 58.4974 192.768C58.5046 192.71 58.5287 192.655 58.5672 192.609L67.344 183.603C67.3745 183.572 67.4113 183.546 67.4525 183.527C67.4937 183.509 67.5383 183.498 67.584 183.496C67.6296 183.494 67.6753 183.5 67.7184 183.514C67.7615 183.528 67.8013 183.549 67.8353 183.578C67.8991 183.639 67.9347 183.72 67.9347 183.805C67.9347 183.891 67.8991 183.972 67.8353 184.033L59.064 193.024C59.0001 193.085 58.9128 193.12 58.8212 193.121Z" fill="#CCCCCC"/>
<path d="M64.0869 200.817C64.019 200.816 63.9529 200.796 63.8968 200.761C63.8407 200.725 63.7971 200.675 63.7712 200.617C63.7454 200.559 63.7385 200.495 63.7515 200.433C63.7644 200.371 63.7966 200.314 63.844 200.269L70.9428 193.685C71.0089 193.629 71.0956 193.599 71.1851 193.6C71.2745 193.602 71.3597 193.636 71.4229 193.695C71.4862 193.753 71.5226 193.832 71.5247 193.915C71.5268 193.998 71.4943 194.079 71.434 194.14L64.3298 200.704C64.2997 200.737 64.2627 200.764 64.2209 200.784C64.1791 200.803 64.1335 200.814 64.0869 200.817Z" fill="#CCCCCC"/>
<path d="M67.1396 206.039H67.1065L58.1972 205.189C58.1106 205.175 58.0331 205.131 57.9802 205.066C57.9273 205.001 57.9029 204.919 57.912 204.838C57.9211 204.757 57.963 204.682 58.0292 204.629C58.0954 204.575 58.1811 204.547 58.2689 204.549L67.1782 205.399C67.2624 205.412 67.3384 205.454 67.3917 205.516C67.4449 205.578 67.4717 205.656 67.4669 205.735C67.4622 205.814 67.4262 205.889 67.3658 205.945C67.3054 206.001 67.2249 206.035 67.1396 206.039Z" fill="#CCCCCC"/>
<path d="M68.8291 207.985C68.748 207.984 68.6698 207.957 68.6083 207.908C68.5387 207.853 68.495 207.775 68.4868 207.691C68.4785 207.607 68.5063 207.523 68.5641 207.457L76.1045 199.096C76.1332 199.064 76.1687 199.037 76.2088 199.017C76.249 198.997 76.2929 198.985 76.3381 198.982C76.3833 198.978 76.4289 198.982 76.4722 198.995C76.5154 199.008 76.5556 199.028 76.5902 199.055C76.6598 199.11 76.7035 199.188 76.7117 199.272C76.72 199.357 76.6922 199.44 76.6344 199.506L69.0941 207.872C69.0616 207.908 69.021 207.936 68.9752 207.956C68.9294 207.975 68.8795 207.985 68.8291 207.985Z" fill="#CCCCCC"/>
<path d="M234.981 217.149H44.4801C44.4069 217.149 44.3367 217.122 44.2849 217.074C44.2332 217.026 44.2041 216.961 44.2041 216.893C44.2041 216.826 44.2332 216.76 44.2849 216.712C44.3367 216.664 44.4069 216.637 44.4801 216.637H234.981C235.054 216.637 235.124 216.664 235.176 216.712C235.228 216.76 235.257 216.826 235.257 216.893C235.257 216.961 235.228 217.026 235.176 217.074C235.124 217.122 235.054 217.149 234.981 217.149Z" fill="#263238"/>
</svg>
