<svg width="251" height="232" viewBox="0 0 251 232" fill="none" xmlns="http://www.w3.org/2000/svg">
<path d="M211.955 83.52C213.09 72.6346 215.805 62.3291 211.005 51.8613C202.195 32.6517 175.62 22.453 154.97 31.552C144.41 36.192 135.38 42.9803 123.75 45.472C92.3601 52.1954 43.9101 16.3746 26.8251 58.0789C20.9601 72.3886 23.3251 91.2456 33.9301 103.208C37.3351 107.045 41.4951 110.386 44.0151 114.775C50.9101 126.788 41.1501 139.989 36.7501 151.194C26.3001 177.675 65.7001 192.328 87.0851 195.029C122.435 199.52 151.595 161.936 186.75 177.248C211.25 187.92 232.75 161.936 228.25 135.952C225.305 118.942 210.395 102.66 211.79 85.325C211.84 84.7264 211.895 84.1278 211.955 83.52Z" fill="#C8E1FF"/>
<path opacity="0.7" d="M211.955 83.52C213.09 72.6346 215.805 62.3291 211.005 51.8613C202.195 32.6517 175.62 22.453 154.97 31.552C144.41 36.192 135.38 42.9803 123.75 45.472C92.3601 52.1954 43.9101 16.3746 26.8251 58.0789C20.9601 72.3886 23.3251 91.2456 33.9301 103.208C37.3351 107.045 41.4951 110.386 44.0151 114.775C50.9101 126.788 41.1501 139.989 36.7501 151.194C26.3001 177.675 65.7001 192.328 87.0851 195.029C122.435 199.52 151.595 161.936 186.75 177.248C211.25 187.92 232.75 161.936 228.25 135.952C225.305 118.942 210.395 102.66 211.79 85.325C211.84 84.7264 211.895 84.1278 211.955 83.52Z" fill="white"/>
<path d="M43.635 90.6007C53.1702 90.6007 60.9 83.4274 60.9 74.5787C60.9 65.7301 53.1702 58.5568 43.635 58.5568C34.0998 58.5568 26.37 65.7301 26.37 74.5787C26.37 83.4274 34.0998 90.6007 43.635 90.6007Z" fill="white" stroke="#252428" stroke-linecap="round" stroke-linejoin="round"/>
<path d="M42.35 89.0092C51.8852 89.0092 59.615 81.8359 59.615 72.9873C59.615 64.1386 51.8852 56.9653 42.35 56.9653C32.8148 56.9653 25.085 64.1386 25.085 72.9873C25.085 81.8359 32.8148 89.0092 42.35 89.0092Z" fill="white" stroke="#252428" stroke-linecap="round" stroke-linejoin="round"/>
<path d="M42.35 87.4176C50.9381 87.4176 57.9001 80.9569 57.9001 72.9872C57.9001 65.0175 50.9381 58.5568 42.35 58.5568C33.762 58.5568 26.8 65.0175 26.8 72.9872C26.8 80.9569 33.762 87.4176 42.35 87.4176Z" fill="#252428" stroke="#252428" stroke-linecap="round" stroke-linejoin="round"/>
<path d="M40.525 62.1389C40.525 62.1389 38.81 58.1578 35.81 55.3738C32.81 52.5898 20.58 50.7941 20.58 50.7941C22.5549 52.5618 24.3508 54.4939 25.945 56.5663C28.73 60.1483 37.945 68.3101 37.945 68.3101C37.945 68.3101 33.445 64.728 29.365 64.329C25.285 63.9299 14.995 65.9205 14.365 65.9205C13.735 65.9205 18.225 67.512 21.445 68.904C24.665 70.296 37.1 71.4931 37.1 71.4931C37.1 71.4931 31.74 72.8851 28.1 74.0823C24.46 75.2794 21.01 84.0304 21.01 84.0304C21.01 84.0304 25.73 80.0493 29.805 79.0563C33.88 78.0634 39.67 76.2723 39.67 76.2723C39.67 76.2723 36.025 80.0539 35.17 82.6431C34.315 85.2322 34.955 91.1992 34.955 91.1992C34.955 91.1992 36.885 85.6312 39.245 83.4365C41.605 81.2418 44.17 77.488 44.17 77.488C45.358 79.2849 46.4331 81.144 47.39 83.056C49.105 86.4386 50.175 91.408 50.175 91.408C50.175 91.408 52.965 85.84 52.75 83.056C52.535 80.272 49.32 75.2933 49.32 75.2933C49.32 75.2933 51.465 73.9013 54.68 75.0938C57.895 76.2863 63.475 81.265 63.475 81.265C63.475 81.265 62.185 74.6947 60.04 72.1103C57.895 69.5258 48.675 68.7231 48.675 68.7231C48.675 68.7231 53.825 65.9391 57.04 65.3405C60.255 64.7419 64.54 66.1386 64.54 66.1386C64.54 66.1386 59.61 59.7679 55.75 59.3688C51.89 58.9698 46.1 64.5285 46.1 64.5285L47.82 56.5663C48.245 54.5757 47.39 49.6063 47.39 49.6063C47.39 49.6063 45.03 50.7987 42.24 54.5803C41.4235 55.6695 40.851 56.8998 40.5564 58.1982C40.2618 59.4966 40.2511 60.8366 40.525 62.1389Z" fill="#C8E1FF"/>
<path opacity="0.5" d="M40.525 62.1389C40.525 62.1389 38.81 58.1578 35.81 55.3738C32.81 52.5898 20.58 50.7941 20.58 50.7941C22.5549 52.5618 24.3508 54.4939 25.945 56.5663C28.73 60.1483 37.945 68.3101 37.945 68.3101C37.945 68.3101 33.445 64.728 29.365 64.329C25.285 63.9299 14.995 65.9205 14.365 65.9205C13.735 65.9205 18.225 67.512 21.445 68.904C24.665 70.296 37.1 71.4931 37.1 71.4931C37.1 71.4931 31.74 72.8851 28.1 74.0823C24.46 75.2794 21.01 84.0304 21.01 84.0304C21.01 84.0304 25.73 80.0493 29.805 79.0563C33.88 78.0634 39.67 76.2723 39.67 76.2723C39.67 76.2723 36.025 80.0539 35.17 82.6431C34.315 85.2322 34.955 91.1992 34.955 91.1992C34.955 91.1992 36.885 85.6312 39.245 83.4365C41.605 81.2418 44.17 77.488 44.17 77.488C45.358 79.2849 46.4331 81.144 47.39 83.056C49.105 86.4386 50.175 91.408 50.175 91.408C50.175 91.408 52.965 85.84 52.75 83.056C52.535 80.272 49.32 75.2933 49.32 75.2933C49.32 75.2933 51.465 73.9013 54.68 75.0938C57.895 76.2863 63.475 81.265 63.475 81.265C63.475 81.265 62.185 74.6947 60.04 72.1103C57.895 69.5258 48.675 68.7231 48.675 68.7231C48.675 68.7231 53.825 65.9391 57.04 65.3405C60.255 64.7419 64.54 66.1386 64.54 66.1386C64.54 66.1386 59.61 59.7679 55.75 59.3688C51.89 58.9698 46.1 64.5285 46.1 64.5285L47.82 56.5663C48.245 54.5757 47.39 49.6063 47.39 49.6063C47.39 49.6063 45.03 50.7987 42.24 54.5803C41.4235 55.6695 40.851 56.8998 40.5564 58.1982C40.2618 59.4966 40.2511 60.8366 40.525 62.1389Z" fill="#808081"/>
<path d="M44.75 56.079C44.9 55.5083 45.065 54.9376 45.25 54.3762" stroke="#252428" stroke-width="0.5" stroke-linecap="round" stroke-linejoin="round"/>
<path d="M30.425 56.079C32.425 57.4386 34.9251 59.327 36.2351 60.9464C38.5951 63.9299 43.315 70.3006 43.315 70.3006C43.1799 66.0217 43.5453 61.7418 44.405 57.536" stroke="#252428" stroke-width="0.5" stroke-linecap="round" stroke-linejoin="round"/>
<path d="M27.4451 54.1766C27.4451 54.1766 28.0701 54.5478 29.0051 55.1464" stroke="#252428" stroke-width="0.5" stroke-linecap="round" stroke-linejoin="round"/>
<path d="M43.3151 70.3006C43.3151 70.3006 51.4651 62.7374 54.8951 62.1389C58.3251 61.5403 61.3301 63.9299 61.3301 63.9299" stroke="#252428" stroke-width="0.5" stroke-linecap="round" stroke-linejoin="round"/>
<path d="M28.75 76.625C26.75 77.7943 26.585 78.481 26.585 78.481" stroke="#252428" stroke-width="0.5" stroke-linecap="round" stroke-linejoin="round"/>
<path d="M61.1151 77.2653C61.1151 77.2653 59.8301 74.2772 55.3251 72.8852C50.8201 71.4932 43.7501 71.2936 43.7501 71.2936C43.7501 71.2936 33.8251 74.3096 30.1951 75.8826" stroke="#252428" stroke-width="0.5" stroke-linecap="round" stroke-linejoin="round"/>
<path d="M39.41 70.1568C41.81 70.8064 43.745 71.2936 43.745 71.2936" stroke="#252428" stroke-width="0.5" stroke-linecap="round" stroke-linejoin="round"/>
<path d="M24.3051 66.6212C26.6351 66.7511 29.6351 67.048 31.3051 67.7116C32.6651 68.2544 35.3451 69.0386 37.8751 69.7392" stroke="#252428" stroke-width="0.5" stroke-linecap="round" stroke-linejoin="round"/>
<path d="M21.01 66.519C21.01 66.519 21.795 66.519 22.95 66.5608" stroke="#252428" stroke-width="0.5" stroke-linecap="round" stroke-linejoin="round"/>
<path d="M43.3151 72.4861C43.3151 72.4861 37.3151 80.8381 36.8801 82.8379C36.6224 84.0177 36.4785 85.2165 36.4501 86.42" stroke="#252428" stroke-width="0.5" stroke-linecap="round" stroke-linejoin="round"/>
<path d="M45.985 75.117C47.14 76.509 48.525 78.365 49.105 79.8498C49.7801 81.6614 50.282 83.5246 50.605 85.4178" stroke="#252428" stroke-width="0.5" stroke-linecap="round" stroke-linejoin="round"/>
<path d="M44.17 73.0847C44.17 73.0847 44.67 73.5765 45.315 74.3328" stroke="#252428" stroke-width="0.5" stroke-linecap="round" stroke-linejoin="round"/>
<path d="M37.8 63.8557C37.8 63.8557 36.695 59.6797 37.38 55.8053C38.065 51.9309 46.88 43.8434 46.88 43.8434C46.3901 46.348 46.1474 48.8889 46.155 51.4344C46.155 55.8517 43.78 67.4703 43.78 67.4703C43.78 67.4703 45.185 62.125 48.245 59.5823C51.305 57.0395 60.92 53.0863 61.44 52.7475C61.96 52.4088 59.305 56.1301 57.57 59.0069C55.835 61.8837 46.47 69.6 46.47 69.6C46.47 69.6 51.7 67.8275 55.41 66.816C59.12 65.8045 67.41 71.0663 67.41 71.0663C67.41 71.0663 61.075 70.3888 57.14 71.7855C53.205 73.1821 47.375 74.8618 47.375 74.8618C47.375 74.8618 52.715 75.9615 55.035 77.5994C57.355 79.2373 60.595 84.448 60.595 84.448C60.595 84.448 55.525 80.9634 52.23 80.4623C48.935 79.9611 44.47 78.2861 44.47 78.2861C44.6394 80.388 44.9365 82.4793 45.36 84.5501C46.095 88.2296 48.36 92.8511 48.36 92.8511C48.36 92.8511 42.595 89.8351 41.015 87.4547C39.435 85.0744 38.925 79.293 38.925 79.293C38.925 79.293 36.305 79.3208 34.425 82.0306C32.545 84.7403 31.16 91.8024 31.16 91.8024C31.16 91.8024 28.08 85.7704 28.195 82.5224C28.31 79.2744 35.3 73.6229 35.3 73.6229C35.3 73.6229 29.37 74.1472 26.38 75.4C23.39 76.6528 20.78 80.1096 20.78 80.1096C20.78 80.1096 20.78 72.268 23.67 69.8552C26.56 67.4424 34.765 68.8344 34.765 68.8344L28.365 63.2989C26.765 61.9069 24.335 57.4061 24.335 57.4061C24.335 57.4061 27.005 57.0999 31.645 58.6635C32.9937 59.1018 34.2337 59.7872 35.2911 60.6792C36.3484 61.5712 37.2017 62.6515 37.8 63.8557Z" fill="#C8E1FF"/>
<path d="M30.56 61.2202C30.06 60.835 29.59 60.4638 29.09 60.1019" stroke="#252428" stroke-width="0.5" stroke-linecap="round" stroke-linejoin="round"/>
<path d="M42.195 53.4667C41.42 55.6568 40.555 58.5383 40.535 60.5613C40.495 64.2733 40.665 71.9896 40.665 71.9896C38.0842 68.4418 35.095 65.1652 31.75 62.2178" stroke="#252428" stroke-width="0.5" stroke-linecap="round" stroke-linejoin="round"/>
<path d="M43.425 50.3069C43.425 50.3069 43.145 50.9472 42.765 51.9355" stroke="#252428" stroke-width="0.5" stroke-linecap="round" stroke-linejoin="round"/>
<path d="M40.665 71.9896C40.665 71.9896 29.29 70.2589 26.13 71.6324C22.97 73.0058 22.03 76.56 22.03 76.56" stroke="#252428" stroke-width="0.5" stroke-linecap="round" stroke-linejoin="round"/>
<path d="M56.475 69.2427C58.82 69.1221 59.38 69.5629 59.38 69.5629" stroke="#252428" stroke-width="0.5" stroke-linecap="round" stroke-linejoin="round"/>
<path d="M30.585 87.2831C30.585 87.2831 29.755 84.1604 32.535 80.5922C35.315 77.024 40.945 73.0336 40.945 73.0336C40.945 73.0336 50.9 70.1058 54.835 69.4237" stroke="#252428" stroke-width="0.5" stroke-linecap="round" stroke-linejoin="round"/>
<path d="M43.7501 69.7625C42.2101 71.586 40.9501 73.0336 40.9501 73.0336" stroke="#252428" stroke-width="0.5" stroke-linecap="round" stroke-linejoin="round"/>
<path d="M53.795 58.7146C51.985 60.1066 49.735 61.9626 48.795 63.3871C48.03 64.5656 46.345 66.6351 44.73 68.5885" stroke="#252428" stroke-width="0.5" stroke-linecap="round" stroke-linejoin="round"/>
<path d="M56.405 56.8447C56.405 56.8447 55.77 57.2715 54.855 57.9304" stroke="#252428" stroke-width="0.5" stroke-linecap="round" stroke-linejoin="round"/>
<path d="M42.04 73.776C42.04 73.776 52.175 77.3117 53.77 78.699C54.7212 79.5176 55.5913 80.4136 56.37 81.3763" stroke="#252428" stroke-width="0.5" stroke-linecap="round" stroke-linejoin="round"/>
<path d="M41.5251 77.3488C41.4551 79.1027 41.4901 81.3531 41.9651 82.8843C42.5545 84.7239 43.3192 86.5112 44.2501 88.225" stroke="#252428" stroke-width="0.5" stroke-linecap="round" stroke-linejoin="round"/>
<path d="M41.7201 74.704C41.7201 74.704 41.6401 75.3629 41.5801 76.3373" stroke="#252428" stroke-width="0.5" stroke-linecap="round" stroke-linejoin="round"/>
<path d="M71.165 85.1115H184.5C185.915 85.1115 187.272 85.6331 188.272 86.5616C189.273 87.4901 189.835 88.7493 189.835 90.0624V158.27C189.835 158.981 189.684 159.686 189.391 160.343C189.098 161 188.668 161.596 188.126 162.099C187.584 162.602 186.941 163.001 186.233 163.273C185.525 163.545 184.766 163.685 184 163.685H71.665C70.8987 163.685 70.1399 163.545 69.432 163.273C68.7241 163.001 68.0808 162.602 67.539 162.099C66.9972 161.596 66.5674 161 66.2741 160.343C65.9809 159.686 65.83 158.981 65.83 158.27V90.0624C65.83 88.7493 66.392 87.4901 67.3925 86.5616C68.393 85.6331 69.75 85.1115 71.165 85.1115Z" fill="white" stroke="#252428" stroke-linecap="round" stroke-linejoin="round"/>
<path d="M112.645 92.8464H105.665V97.1013H112.645V92.8464Z" fill="#252428"/>
<path d="M90.0299 119.095H83.5499V125.062H90.0299V119.095Z" fill="#252428"/>
<path d="M118.66 98.1221H112.13V104.089H118.66V98.1221Z" fill="#252428"/>
<path d="M104.56 92.8464H97.58V97.1013H104.56V92.8464Z" fill="#252428"/>
<path d="M126.29 98.1221H119.76V104.089H126.29V98.1221Z" fill="#252428"/>
<path d="M120.725 92.8464H113.745V97.1013H120.725V92.8464Z" fill="#252428"/>
<path d="M86.115 112.102H73.835V118.069H86.115V112.102Z" fill="#252428"/>
<path d="M103.395 98.1221H96.865V104.089H103.395V98.1221Z" fill="#252428"/>
<path d="M82.45 119.095H73.835V125.062H82.45V119.095Z" fill="#252428"/>
<path d="M128.81 92.8464H121.83V97.1013H128.81V92.8464Z" fill="#252428"/>
<path d="M88.13 98.1221H81.6V104.089H88.13V98.1221Z" fill="#252428"/>
<path d="M88.3949 92.8464H81.4149V97.1013H88.3949V92.8464Z" fill="#252428"/>
<path d="M96.48 92.8464H89.5V97.1013H96.48V92.8464Z" fill="#252428"/>
<path d="M95.76 98.1221H89.23V104.089H95.76V98.1221Z" fill="#252428"/>
<path d="M111.025 98.1221H104.495V104.089H111.025V98.1221Z" fill="#252428"/>
<path d="M161.145 92.8464H154.165V97.1013H161.145V92.8464Z" fill="#252428"/>
<path d="M169.225 92.8464H162.245V97.1013H169.225V92.8464Z" fill="#252428"/>
<path d="M164.455 98.1221H157.925V104.089H164.455V98.1221Z" fill="#252428"/>
<path d="M172.09 98.1221H165.56V104.089H172.09V98.1221Z" fill="#252428"/>
<path d="M184.165 119.095H174.55V125.062H184.165V119.095Z" fill="#252428"/>
<path d="M177.31 92.8464H170.33V97.1013H177.31V92.8464Z" fill="#252428"/>
<path d="M80.5 98.1221H73.835V104.089H80.5V98.1221Z" fill="#252428"/>
<path d="M136.895 92.8464H129.915V97.1013H136.895V92.8464Z" fill="#252428"/>
<path d="M144.975 92.8464H137.995V97.1013H144.975V92.8464Z" fill="#252428"/>
<path d="M141.56 98.1221H135.03V104.089H141.56V98.1221Z" fill="#252428"/>
<path d="M156.825 98.1221H150.295V104.089H156.825V98.1221Z" fill="#252428"/>
<path d="M133.925 98.1221H127.395V104.089H133.925V98.1221Z" fill="#252428"/>
<path d="M149.19 98.1221H142.66V104.089H149.19V98.1221Z" fill="#252428"/>
<path d="M153.06 92.8464H146.08V97.1013H153.06V92.8464Z" fill="#252428"/>
<path d="M143.115 119.095H136.635V125.062H143.115V119.095Z" fill="#252428"/>
<path d="M177.115 112.102H170.635V118.069H177.115V112.102Z" fill="#252428"/>
<path d="M169.53 112.102H163.05V118.069H169.53V112.102Z" fill="#252428"/>
<path d="M173.445 119.095H166.965V125.062H173.445V119.095Z" fill="#252428"/>
<path d="M165.865 119.095H159.385V125.062H165.865V119.095Z" fill="#252428"/>
<path d="M150.695 119.095H144.215V125.062H150.695V119.095Z" fill="#252428"/>
<path d="M158.28 119.095H151.8V125.062H158.28V119.095Z" fill="#252428"/>
<path d="M161.945 112.102H155.465V118.069H161.945V112.102Z" fill="#252428"/>
<path d="M154.365 112.102H147.885V118.069H154.365V112.102Z" fill="#252428"/>
<path d="M184.17 92.8464H178.415V97.1013H184.17V92.8464Z" fill="#252428"/>
<path d="M80.315 92.8464H73.835V97.1013H80.315V92.8464Z" fill="#252428"/>
<path d="M184.17 126.083H73.835V132.286H184.17V126.083Z" fill="#252428"/>
<path d="M184.165 98.1221H173.19V104.089H184.165V98.1221Z" fill="#252428"/>
<path d="M184.165 112.102H178.215V118.069H184.165V112.102Z" fill="#252428"/>
<path d="M176.385 111.035H175.28V105.115H168.8V111.035H167.7V105.115H161.22V111.035H160.115V105.115H153.635V111.035H152.53V105.115H146.05V111.035H144.95V105.115H138.47V111.035H137.365V105.115H130.885V111.035H129.78V105.115H123.3V111.035H122.2V105.115H115.72V111.035H114.615V105.115H108.135V111.035H107.03V105.115H100.55V111.035H99.45V105.115H92.97V111.035H91.865V105.115H85.385V111.035H84.28V105.115H73.835V111.082H184.165V105.115H176.385V111.035Z" fill="#252428"/>
<path d="M124.03 112.102H117.55V118.069H124.03V112.102Z" fill="#252428"/>
<path d="M146.78 112.102H140.3V118.069H146.78V112.102Z" fill="#252428"/>
<path d="M108.865 112.102H102.385V118.069H108.865V112.102Z" fill="#252428"/>
<path d="M112.78 119.095H106.3V125.062H112.78V119.095Z" fill="#252428"/>
<path d="M116.445 112.102H109.965V118.069H116.445V112.102Z" fill="#252428"/>
<path d="M101.28 112.102H94.7999V118.069H101.28V112.102Z" fill="#252428"/>
<path d="M97.615 119.095H91.135V125.062H97.615V119.095Z" fill="#252428"/>
<path d="M105.195 119.095H98.715V125.062H105.195V119.095Z" fill="#252428"/>
<path d="M131.615 112.102H125.135V118.069H131.615V112.102Z" fill="#252428"/>
<path d="M135.53 119.095H129.05V125.062H135.53V119.095Z" fill="#252428"/>
<path d="M139.195 112.102H132.715V118.069H139.195V112.102Z" fill="#252428"/>
<path d="M120.365 119.095H113.885V125.062H120.365V119.095Z" fill="#252428"/>
<path d="M127.945 119.095H121.465V125.062H127.945V119.095Z" fill="#252428"/>
<path d="M93.695 112.102H87.215V118.069H93.695V112.102Z" fill="#252428"/>
<path d="M196.915 42.4235H58.085C57.4041 42.424 56.7326 42.5698 56.1221 42.8496C55.5117 43.1294 54.9788 43.5357 54.5646 44.0372C54.1504 44.5386 53.866 45.1217 53.7335 45.7414C53.6009 46.3611 53.6236 47.0008 53.8 47.611L63.95 82.6802C64.2029 83.5556 64.7598 84.3291 65.5345 84.8811C66.3092 85.433 67.2583 85.7326 68.235 85.7333H82.405V88.16H173.25V85.7472H186.75C187.727 85.7465 188.676 85.447 189.45 84.895C190.225 84.3431 190.782 83.5695 191.035 82.6941L201.185 47.625C201.364 47.0149 201.389 46.3749 201.258 45.7545C201.128 45.134 200.845 44.5498 200.432 44.0469C200.02 43.544 199.488 43.1361 198.878 42.8546C198.268 42.5731 197.596 42.4256 196.915 42.4235Z" fill="#252428" stroke="#252428" stroke-linecap="round" stroke-linejoin="round"/>
<path d="M181.215 82.6384H73.7849L63.0399 46.7573H191.955L181.215 82.6384Z" fill="#C8E1FF" stroke="#252428" stroke-linecap="round" stroke-linejoin="round"/>
<path d="M80.9149 66.8903V67.3543H79.0199V66.8903H80.9149Z" fill="#252428"/>
<path d="M83.275 66.8903V67.3543H81.375V66.8903H83.275Z" fill="#252428"/>
<path d="M85.635 66.8903V67.3543H83.75V66.8903H85.635Z" fill="#252428"/>
<path d="M87.99 66.8903V67.3543H86.095V66.8903H87.99Z" fill="#252428"/>
<path d="M90.35 66.8903V67.3543H88.45V66.8903H90.35Z" fill="#252428"/>
<path d="M92.7099 66.8903V67.3543H90.8099V66.8903H92.7099Z" fill="#252428"/>
<path d="M95.0649 66.8903V67.3543H93.1699V66.8903H95.0649Z" fill="#252428"/>
<path d="M97.3999 69.3355L95.3099 64.1666H95.8099L97.8999 69.3355H97.3999Z" fill="#252428"/>
<path d="M79.005 59.3641V59.8281H77.11V59.3641H79.005Z" fill="#252428"/>
<path d="M81.365 59.3641V59.8281H79.47V59.3641H81.365Z" fill="#252428"/>
<path d="M83.75 59.3641V59.8281H81.85V59.3641H83.75Z" fill="#252428"/>
<path d="M86.0849 59.3641V59.8281H84.1849V59.3641H86.0849Z" fill="#252428"/>
<path d="M88.4399 59.3641V59.8281H86.5449V59.3641H88.4399Z" fill="#252428"/>
<path d="M92.4299 59.3641V59.8281H90.5299V59.3641H92.4299Z" fill="#252428"/>
<path d="M94.7849 59.3641V59.8281H92.8899V59.3641H94.7849Z" fill="#252428"/>
<path d="M97.145 59.3641V59.8281H95.25V59.3641H97.145Z" fill="#252428"/>
<path d="M99.505 59.3641V59.8281H97.605V59.3641H99.505Z" fill="#252428"/>
<path d="M101.86 59.3641V59.8281H99.965V59.3641H101.86Z" fill="#252428"/>
<path d="M104.22 59.3641V59.8281H102.325V59.3641H104.22Z" fill="#252428"/>
<path d="M106.58 59.3641V59.8281H104.68V59.3641H106.58Z" fill="#252428"/>
<path d="M110.565 59.3641V59.8281H108.67V59.3641H110.565Z" fill="#252428"/>
<path d="M112.925 59.3641V59.8281H111.025V59.3641H112.925Z" fill="#252428"/>
<path d="M115.285 59.3641V59.8281H113.385V59.3641H115.285Z" fill="#252428"/>
<path d="M119.25 59.3641V59.8281H117.355V59.3641H119.25Z" fill="#252428"/>
<path d="M121.63 59.3641V59.8281H119.75V59.3641H121.63Z" fill="#252428"/>
<path d="M123.99 59.3641V59.8281H122.09V59.3641H123.99Z" fill="#252428"/>
<path d="M132.86 59.3641V59.8281H130.965V59.3641H132.86Z" fill="#252428"/>
<path d="M135.22 59.3641V59.8281H133.32V59.3641H135.22Z" fill="#252428"/>
<path d="M137.58 59.3641V59.8281H135.68V59.3641H137.58Z" fill="#252428"/>
<path d="M139.935 59.3641V59.8281H138.04V59.3641H139.935Z" fill="#252428"/>
<path d="M142.295 59.3641V59.8281H140.395V59.3641H142.295Z" fill="#252428"/>
<path d="M146.28 59.3641V59.8281H144.385V59.3641H146.28Z" fill="#252428"/>
<path d="M148.64 59.3641V59.8281H146.75V59.3641H148.64Z" fill="#252428"/>
<path d="M151 59.3641V59.8281H149.1V59.3641H151Z" fill="#252428"/>
<path d="M154.985 59.3641V59.8281H153.09V59.3641H154.985Z" fill="#252428"/>
<path d="M158.975 59.3641V59.8281H157.075V59.3641H158.975Z" fill="#252428"/>
<path d="M190.595 135.623L185.245 154.776L190.305 156.155L190.595 135.623Z" fill="white" stroke="#252428" stroke-linecap="round" stroke-linejoin="round"/>
<path d="M192.995 115.378C192.391 114.517 192.171 113.473 192.38 112.464C192.655 110.576 195.11 110.144 195.11 110.144C195.11 110.144 195.645 109.768 197.61 110.46C199.575 111.151 214.77 113.063 224.48 114.283C234.19 115.504 237.335 114.715 237.2 117.81C237.065 120.904 228.545 148.68 228.415 149.552C228.285 150.424 192.995 115.378 192.995 115.378Z" fill="white" stroke="#252428" stroke-miterlimit="10"/>
<path d="M233.837 120.518L192.991 115.379L186.39 160.563L227.237 165.702L233.837 120.518Z" fill="white" stroke="#252428" stroke-linecap="round" stroke-linejoin="round"/>
<path d="M226.245 129.53L228.62 129.832" stroke="#252428" stroke-width="0.5" stroke-linecap="round" stroke-linejoin="round"/>
<path d="M211.37 127.66L224.365 129.298" stroke="#252428" stroke-width="0.5" stroke-linecap="round" stroke-linejoin="round"/>
<path d="M195.62 125.679L209.49 127.424" stroke="#252428" stroke-width="0.5" stroke-linecap="round" stroke-linejoin="round"/>
<path d="M222.525 133.154L228.035 133.85" stroke="#252428" stroke-width="0.5" stroke-linecap="round" stroke-linejoin="round"/>
<path d="M195.035 129.697L216.89 132.444" stroke="#252428" stroke-width="0.5" stroke-linecap="round" stroke-linejoin="round"/>
<path d="M206.125 135.182L227.45 137.864" stroke="#252428" stroke-width="0.5" stroke-linecap="round" stroke-linejoin="round"/>
<path d="M194.445 133.711L203.93 134.908" stroke="#252428" stroke-width="0.5" stroke-linecap="round" stroke-linejoin="round"/>
<path d="M213.21 140.165L226.86 141.882" stroke="#252428" stroke-width="0.5" stroke-linecap="round" stroke-linejoin="round"/>
<path d="M201.625 138.704L211.645 139.966" stroke="#252428" stroke-width="0.5" stroke-linecap="round" stroke-linejoin="round"/>
<path d="M193.86 137.729L199.9 138.49" stroke="#252428" stroke-width="0.5" stroke-linecap="round" stroke-linejoin="round"/>
<path d="M221.39 145.283L226.275 145.896" stroke="#252428" stroke-width="0.5" stroke-linecap="round" stroke-linejoin="round"/>
<path d="M193.275 141.747L218.105 144.87" stroke="#252428" stroke-width="0.5" stroke-linecap="round" stroke-linejoin="round"/>
<path d="M211.88 148.174L225.69 149.914" stroke="#252428" stroke-width="0.5" stroke-linecap="round" stroke-linejoin="round"/>
<path d="M192.685 145.761L209.53 147.881" stroke="#252428" stroke-width="0.5" stroke-linecap="round" stroke-linejoin="round"/>
<path d="M216.145 152.805L225.1 153.927" stroke="#252428" stroke-width="0.5" stroke-linecap="round" stroke-linejoin="round"/>
<path d="M197.985 150.517L213.955 152.526" stroke="#252428" stroke-width="0.5" stroke-linecap="round" stroke-linejoin="round"/>
<path d="M192.1 149.779L196.105 150.28" stroke="#252428" stroke-width="0.5" stroke-linecap="round" stroke-linejoin="round"/>
<path d="M233.84 120.519C233.84 120.519 234.54 114.218 237.04 116.752" stroke="#252428" stroke-linecap="round" stroke-linejoin="round"/>
<path d="M219.99 169.058L219.945 173.063L217.43 169.768L207.335 138.258L209.895 137.548L219.99 169.058Z" fill="white" stroke="#252428" stroke-linecap="round" stroke-linejoin="round"/>
<path d="M208.893 138.895L207.496 139.273L217.415 170.832L218.812 170.454L208.893 138.895Z" fill="#C8E1FF" stroke="#252428" stroke-width="0.5" stroke-linecap="round" stroke-linejoin="round"/>
<path d="M219.99 169.068L217.435 169.773L219.945 173.063L219.99 169.068Z" stroke="#252428" stroke-linecap="round" stroke-linejoin="round"/>
<path d="M218.69 171.416L219.945 173.063L219.97 171.063L218.69 171.416Z" fill="#252428" stroke="#252428" stroke-linecap="round" stroke-linejoin="round"/>
<path d="M207.485 134.374C207.146 134.469 206.862 134.684 206.693 134.973C206.524 135.261 206.486 135.6 206.585 135.915L207.335 138.258L209.895 137.553L209.145 135.21C209.043 134.895 208.811 134.631 208.501 134.475C208.19 134.318 207.825 134.282 207.485 134.374Z" fill="white" stroke="#252428" stroke-linecap="round" stroke-linejoin="round"/>
<path d="M207.485 134.374C207.146 134.469 206.862 134.684 206.693 134.973C206.524 135.261 206.486 135.6 206.585 135.915L206.945 137.033L209.5 136.328L209.145 135.21C209.043 134.895 208.811 134.631 208.501 134.475C208.19 134.318 207.825 134.282 207.485 134.374Z" fill="#252428" stroke="#252428" stroke-linecap="round" stroke-linejoin="round"/>
<path d="M81.575 115.763C81.255 116.181 80.94 116.617 80.625 117.076" stroke="white" stroke-linecap="round" stroke-linejoin="round"/>
<path d="M86.8051 110.177C85.4119 111.375 84.1229 112.674 82.9501 114.06" stroke="white" stroke-linecap="round" stroke-linejoin="round"/>
<path d="M81.13 112.641C79.764 114.419 78.5263 116.279 77.425 118.209" stroke="white" stroke-linecap="round" stroke-linejoin="round"/>
<path d="M116.395 122.844C116.08 123.262 115.76 123.698 115.445 124.152" stroke="white" stroke-linecap="round" stroke-linejoin="round"/>
<path d="M121.625 117.257C120.234 118.457 118.947 119.755 117.775 121.141" stroke="white" stroke-linecap="round" stroke-linejoin="round"/>
<path d="M115.955 119.712C114.59 121.5 113.352 123.369 112.25 125.308" stroke="white" stroke-linecap="round" stroke-linejoin="round"/>
<path d="M166.305 111.36C165.85 111.072 165.37 110.785 164.875 110.497" stroke="white" stroke-linecap="round" stroke-linejoin="round"/>
<path d="M172.405 116.13C171.09 114.859 169.671 113.685 168.16 112.617" stroke="white" stroke-linecap="round" stroke-linejoin="round"/>
<path d="M169.665 110.896C167.719 109.656 165.688 108.535 163.585 107.541" stroke="white" stroke-linecap="round" stroke-linejoin="round"/>
<path d="M114.875 140.128C114.615 141.873 114.225 144.304 113.835 145.747" stroke="#252428" stroke-linecap="round" stroke-linejoin="round"/>
<path d="M115.165 138.008C115.165 138.008 115.125 138.337 115.05 138.871" stroke="#252428" stroke-linecap="round" stroke-linejoin="round"/>
<path d="M116.5 142.958C115.954 144.649 115.286 146.303 114.5 147.909" stroke="#252428" stroke-linecap="round" stroke-linejoin="round"/>
<path d="M141.5 145.432C141.5 145.432 141.835 149.454 144.165 151.621" stroke="#252428" stroke-linecap="round" stroke-linejoin="round"/>
<path d="M141.165 149.454C141.165 149.454 142.165 152.238 144.165 153.477" stroke="#252428" stroke-linecap="round" stroke-linejoin="round"/>
<g style="mix-blend-mode:multiply">
<path d="M73.25 170.956C73.25 170.956 75.47 169.3 75.47 155.059C75.47 140.819 78.025 130.416 81.175 125.855C84.325 121.294 87.27 119.466 88.65 119.466C90.03 119.466 89.04 121.109 87.075 123.48C85.11 125.851 83.34 127.131 82.55 130.055C81.76 132.978 81.765 136.625 82.75 136.258C83.735 135.892 85.305 128.593 86.68 125.855C88.055 123.118 91.405 119.647 93.37 118.004C95.335 116.362 99.665 111.434 101.63 112.71C103.595 113.986 102.42 115.814 101.24 116.543C100.06 117.271 95.335 121.647 93.175 124.394C91.015 127.141 89.635 134.068 90.815 134.249C91.995 134.43 95.535 124.213 97.5 122.023C99.465 119.833 107.335 113.805 109.105 113.624C110.875 113.443 111.075 115.995 109.5 117.276C107.925 118.557 102.615 124.027 100.845 127.312C99.075 130.597 98.285 136.625 99.845 135.163C101.405 133.702 103.975 127.679 106.14 125.67C108.305 123.661 114.795 117.276 116.37 118.004C117.945 118.733 117.55 120.561 116.175 121.837C114.8 123.113 109.485 130.055 108.11 133.702C106.735 137.349 105.155 147.575 105.945 146.118C106.735 144.661 109.29 137.172 110.665 134.054C112.04 130.936 114.795 129.493 115.19 130.95C115.585 132.407 114.795 133.14 113.81 136.43C112.825 139.72 112.81 148.494 109.88 153.403C106.95 158.312 95.19 168.817 93.62 172.464C92.4828 174.976 91.1248 177.397 89.56 179.703" fill="#C8E1FF"/>
</g>
<g style="mix-blend-mode:multiply">
<path d="M182.525 172.19C182.525 172.19 180.25 169.3 180.25 155.059C180.25 140.819 177.69 130.416 174.545 125.855C171.4 121.294 168.445 119.466 167.07 119.466C165.695 119.466 166.675 121.109 168.645 123.48C170.615 125.851 172.38 127.131 173.145 130.055C173.91 132.978 173.935 136.625 172.95 136.258C171.965 135.892 170.395 128.593 169.015 125.855C167.635 123.118 164.295 119.647 162.33 118.004C160.365 116.362 156.035 111.434 154.065 112.71C152.095 113.986 153.28 115.814 154.46 116.543C155.64 117.271 160.36 121.647 162.525 124.394C164.69 127.141 166.065 134.068 164.885 134.249C163.705 134.43 160.18 124.213 158.215 122.032C156.25 119.851 148.375 113.815 146.605 113.634C144.835 113.453 144.64 116.005 146.215 117.285C147.79 118.566 153.1 124.036 154.87 127.322C156.64 130.607 157.425 136.634 155.87 135.172C154.315 133.711 151.74 127.688 149.58 125.679C147.42 123.67 140.925 117.285 139.35 118.014C137.775 118.742 138.17 120.57 139.545 121.846C140.92 123.122 146.235 130.064 147.61 133.711C148.985 137.358 150.56 147.584 149.775 146.127C148.99 144.671 146.43 137.182 145.055 134.063C143.68 130.945 140.925 129.502 140.53 130.959C140.135 132.416 140.925 133.149 141.905 136.439C142.885 139.729 142.905 148.503 145.84 153.412C148.775 158.321 160.2 167.903 161.775 171.555C163.35 175.206 166.2 180.96 166.2 180.96" fill="#C8E1FF"/>
</g>
<path d="M72.5 174.464C72.5 174.464 75.45 165.523 75.45 151.264C75.45 137.005 78.005 126.621 81.155 122.06C84.305 117.499 87.25 115.671 88.63 115.671C90.01 115.671 89.02 117.313 87.055 119.684C85.09 122.055 83.32 123.336 82.53 126.254C81.74 129.173 81.745 132.829 82.73 132.463C83.715 132.096 85.285 124.797 86.66 122.06C88.035 119.322 91.385 115.851 93.35 114.209C95.315 112.566 99.645 107.639 101.61 108.915C103.575 110.191 102.4 112.019 101.22 112.747C100.04 113.476 95.315 117.851 93.155 120.598C90.995 123.345 89.615 130.273 90.795 130.454C91.975 130.635 95.515 120.417 97.48 118.223C99.445 116.028 107.315 110.01 109.085 109.829C110.855 109.648 111.055 112.2 109.48 113.48C107.905 114.761 102.595 120.232 100.825 123.517C99.055 126.802 98.265 132.829 99.825 131.368C101.385 129.906 103.955 123.883 106.12 121.874C108.285 119.865 114.775 113.48 116.35 114.209C117.925 114.937 117.53 116.766 116.155 118.042C114.78 119.318 109.465 126.254 108.09 129.906C106.715 133.558 105.135 143.78 105.925 142.318C106.715 140.856 109.27 133.377 110.645 130.254C112.02 127.131 114.775 125.688 115.17 127.15C115.565 128.611 114.775 129.34 113.79 132.625C112.805 135.91 112.79 144.689 109.86 149.603C106.93 154.517 95.5 167.857 93.925 171.508C92.35 175.16 88.81 183.192 88.81 183.192" fill="white"/>
<path d="M72.5 174.464C72.5 174.464 75.45 165.523 75.45 151.264C75.45 137.005 78.005 126.621 81.155 122.06C84.305 117.499 87.25 115.671 88.63 115.671C90.01 115.671 89.02 117.313 87.055 119.684C85.09 122.055 83.32 123.336 82.53 126.254C81.74 129.173 81.745 132.829 82.73 132.463C83.715 132.096 85.285 124.797 86.66 122.06C88.035 119.322 91.385 115.851 93.35 114.209C95.315 112.566 99.645 107.639 101.61 108.915C103.575 110.191 102.4 112.019 101.22 112.747C100.04 113.476 95.315 117.851 93.155 120.598C90.995 123.345 89.615 130.273 90.795 130.454C91.975 130.635 95.515 120.417 97.48 118.223C99.445 116.028 107.315 110.01 109.085 109.829C110.855 109.648 111.055 112.2 109.48 113.48C107.905 114.761 102.595 120.232 100.825 123.517C99.055 126.802 98.265 132.829 99.825 131.368C101.385 129.906 103.955 123.883 106.12 121.874C108.285 119.865 114.775 113.48 116.35 114.209C117.925 114.937 117.53 116.766 116.155 118.042C114.78 119.318 109.465 126.254 108.09 129.906C106.715 133.558 105.135 143.78 105.925 142.318C106.715 140.856 109.27 133.377 110.645 130.254C112.02 127.131 114.775 125.688 115.17 127.15C115.565 128.611 114.775 129.34 113.79 132.625C112.805 135.91 112.79 144.689 109.86 149.603C106.93 154.517 95.5 167.857 93.925 171.508C92.35 175.16 88.81 183.192 88.81 183.192" stroke="#252428" stroke-linecap="round" stroke-linejoin="round"/>
<path d="M183.195 174.464C183.195 174.464 180.245 165.523 180.245 151.264C180.245 137.005 177.685 126.621 174.54 122.06C171.395 117.499 168.44 115.671 167.065 115.671C165.69 115.671 166.67 117.313 168.64 119.684C170.61 122.055 172.375 123.336 173.14 126.254C173.905 129.173 173.93 132.829 172.945 132.463C171.96 132.096 170.39 124.797 169.01 122.06C167.63 119.322 164.29 115.851 162.325 114.209C160.36 112.566 156.03 107.639 154.06 108.915C152.09 110.191 153.275 112.019 154.455 112.747C155.635 113.476 160.355 117.851 162.52 120.598C164.685 123.345 166.06 130.273 164.88 130.454C163.7 130.635 160.16 120.417 158.195 118.223C156.23 116.028 148.355 110.01 146.585 109.829C144.815 109.648 144.62 112.2 146.195 113.48C147.77 114.761 153.08 120.232 154.85 123.517C156.62 126.802 157.405 132.829 155.85 131.368C154.295 129.906 151.72 123.883 149.56 121.874C147.4 119.865 140.905 113.48 139.33 114.209C137.755 114.937 138.15 116.766 139.525 118.042C140.9 119.318 146.215 126.254 147.59 129.906C148.965 133.558 150.54 143.78 149.755 142.318C148.97 140.856 146.41 133.377 145.035 130.254C143.66 127.131 140.905 125.688 140.51 127.15C140.115 128.611 140.905 129.34 141.885 132.625C142.865 135.91 142.885 144.689 145.82 149.603C148.755 154.517 160.18 167.857 161.755 171.508C163.33 175.16 166.87 183.192 166.87 183.192" fill="white"/>
<path d="M183.195 174.464C183.195 174.464 180.245 165.523 180.245 151.264C180.245 137.005 177.685 126.621 174.54 122.06C171.395 117.499 168.44 115.671 167.065 115.671C165.69 115.671 166.67 117.313 168.64 119.684C170.61 122.055 172.375 123.336 173.14 126.254C173.905 129.173 173.93 132.829 172.945 132.463C171.96 132.096 170.39 124.797 169.01 122.06C167.63 119.322 164.29 115.851 162.325 114.209C160.36 112.566 156.03 107.639 154.06 108.915C152.09 110.191 153.275 112.019 154.455 112.747C155.635 113.476 160.355 117.851 162.52 120.598C164.685 123.345 166.06 130.273 164.88 130.454C163.7 130.635 160.16 120.417 158.195 118.223C156.23 116.028 148.355 110.01 146.585 109.829C144.815 109.648 144.62 112.2 146.195 113.48C147.77 114.761 153.08 120.232 154.85 123.517C156.62 126.802 157.405 132.829 155.85 131.368C154.295 129.906 151.72 123.883 149.56 121.874C147.4 119.865 140.905 113.48 139.33 114.209C137.755 114.937 138.15 116.766 139.525 118.042C140.9 119.318 146.215 126.254 147.59 129.906C148.965 133.558 150.54 143.78 149.755 142.318C148.97 140.856 146.41 133.377 145.035 130.254C143.66 127.131 140.905 125.688 140.51 127.15C140.115 128.611 140.905 129.34 141.885 132.625C142.865 135.91 142.885 144.689 145.82 149.603C148.755 154.517 160.18 167.857 161.755 171.508C163.33 175.16 166.87 183.192 166.87 183.192" stroke="#252428" stroke-linecap="round" stroke-linejoin="round"/>
<path d="M60.05 202.304H90.0501C90.4401 200.912 90.9301 199.353 91.5501 197.664C93.9101 191.103 101.55 182.899 101.55 182.899C96.0744 178.424 89.64 175.075 82.67 173.072C71.17 169.787 62.75 170.752 62.75 170.752C64.3001 176.683 64.4705 182.851 63.25 188.848C61.75 195.604 60.75 199.877 60.05 202.304Z" fill="#252428" stroke="#252428" stroke-linecap="round" stroke-linejoin="round"/>
<path d="M165.45 202.304H196.62C195.62 199.9 193.46 194.68 191.3 189.46C188.35 182.352 189.53 172.784 188.35 172.784C187.17 172.784 173.915 171.963 167.435 173.875C160.955 175.786 153.585 181.257 153.585 181.257C156.921 184.854 159.789 188.804 162.13 193.024C163.635 195.982 164.749 199.098 165.45 202.304Z" fill="#252428" stroke="#252428" stroke-linecap="round" stroke-linejoin="round"/>
<path d="M78.79 176.413C78.575 175.624 75.375 176.812 75.375 176.812C75.375 176.812 76.445 173.053 74.74 173.053C73.035 173.053 72.82 175.837 72.82 175.837C72.82 175.837 69.62 174.654 69.62 176.431C69.62 178.208 71.75 178.176 71.75 178.176C71.75 178.176 69.19 181.146 71.11 181.735C73.03 182.324 74.305 180.153 74.305 180.153C74.305 180.153 75.585 182.134 77.305 181.34C79.025 180.547 77.73 178.77 77.73 178.77C77.73 178.77 79 177.206 78.79 176.413ZM74.525 179.382C74.3641 179.349 74.2166 179.274 74.0994 179.167C73.9822 179.059 73.9002 178.923 73.8628 178.774C73.8255 178.625 73.8342 178.469 73.888 178.324C73.9419 178.18 74.0387 178.052 74.1673 177.957C74.2958 177.861 74.451 177.801 74.6147 177.783C74.7785 177.766 74.9443 177.791 75.093 177.857C75.2417 177.923 75.3673 178.027 75.4552 178.157C75.5431 178.286 75.5899 178.436 75.59 178.589C75.554 178.822 75.424 179.033 75.2262 179.181C75.0285 179.328 74.7779 179.4 74.525 179.382ZM83.48 198.592C83.265 197.803 80.065 198.991 80.065 198.991C80.065 198.991 81.135 195.233 79.425 195.233C77.715 195.233 77.51 198.017 77.51 198.017C77.51 198.017 74.31 196.829 74.31 198.606C74.31 200.383 76.445 200.388 76.445 200.388C76.445 200.388 73.885 203.357 75.805 203.951C77.725 204.545 79 202.364 79 202.364C79 202.364 80.28 204.346 82 203.552C83.72 202.759 82.425 200.982 82.425 200.982C82.425 200.982 83.69 199.362 83.48 198.592ZM79.215 201.562C79.0541 201.528 78.9066 201.454 78.7894 201.346C78.6722 201.238 78.5902 201.102 78.5528 200.953C78.5155 200.804 78.5242 200.648 78.578 200.504C78.6319 200.359 78.7287 200.232 78.8573 200.136C78.9858 200.04 79.1409 199.98 79.3047 199.962C79.4685 199.945 79.6343 199.971 79.783 200.037C79.9317 200.103 80.0573 200.206 80.1452 200.336C80.2331 200.465 80.2799 200.615 80.28 200.768C80.2439 200.999 80.113 201.208 79.9145 201.352C79.716 201.496 79.4654 201.562 79.215 201.538V201.562ZM64.715 201.562C64.5 200.768 61.305 201.956 61.305 201.956C61.305 201.956 62.37 198.198 60.665 198.198C58.96 198.198 58.745 200.982 58.745 200.982C58.745 200.982 55.545 199.794 55.545 201.575C55.545 203.357 57.68 203.357 57.68 203.357C57.68 203.357 55.12 206.322 57.04 206.916C58.96 207.51 60.235 205.334 60.235 205.334C60.235 205.334 61.515 207.311 63.235 206.522C64.955 205.733 63.665 203.951 63.665 203.951C63.665 203.951 64.93 202.327 64.72 201.538L64.715 201.562ZM60.45 204.527C60.2889 204.493 60.1412 204.418 60.024 204.31C59.9067 204.203 59.8248 204.066 59.7876 203.917C59.7504 203.768 59.7594 203.612 59.8137 203.467C59.8679 203.322 59.9652 203.195 60.0942 203.099C60.2233 203.004 60.3788 202.944 60.5429 202.927C60.7069 202.91 60.8728 202.936 61.0214 203.003C61.17 203.07 61.2952 203.174 61.3825 203.304C61.4699 203.434 61.5158 203.585 61.515 203.738C61.4778 203.967 61.347 204.174 61.1498 204.317C60.9525 204.459 60.7038 204.526 60.455 204.503L60.45 204.527ZM87.95 186.129H90.295C92 186.129 93.065 187.911 93.065 187.911C89.445 188.876 87.955 186.106 87.955 186.106L87.95 186.129ZM85.605 201.562H87.95C89.655 201.562 90.72 203.343 90.72 203.343C87.1 204.308 85.61 201.538 85.61 201.538L85.605 201.562ZM65.145 198.592H67.49C69.195 198.592 70.26 200.374 70.26 200.374C66.635 201.339 65.145 198.592 65.145 198.592ZM76.48 184.63L77.85 186.398C78.85 187.688 77.905 189.525 77.905 189.525C74.925 187.349 76.48 184.607 76.48 184.607V184.63ZM64.75 190.542L65.82 188.607C66.605 187.215 68.795 187.131 68.795 187.131C68.06 190.574 64.75 190.542 64.75 190.542Z" fill="white"/>
<path d="M179.195 180.171C178.98 179.382 175.78 180.57 175.78 180.57C175.78 180.57 176.85 176.812 175.145 176.812C173.44 176.812 173.225 179.596 173.225 179.596C173.225 179.596 170.025 178.413 170.025 180.19C170.025 181.967 172.16 181.972 172.16 181.972C172.16 181.972 169.6 184.941 171.52 185.535C173.44 186.129 174.715 183.948 174.715 183.948C174.715 183.948 175.995 185.929 177.715 185.136C179.435 184.343 178.14 182.565 178.14 182.565C178.14 182.565 179.405 180.96 179.195 180.171ZM174.93 183.141C174.769 183.108 174.622 183.033 174.504 182.925C174.387 182.818 174.305 182.681 174.268 182.532C174.23 182.383 174.239 182.228 174.293 182.083C174.347 181.938 174.444 181.811 174.572 181.715C174.701 181.619 174.856 181.559 175.02 181.542C175.184 181.524 175.349 181.55 175.498 181.616C175.647 181.682 175.772 181.786 175.86 181.915C175.948 182.044 175.995 182.194 175.995 182.347C175.965 182.583 175.836 182.798 175.637 182.946C175.438 183.094 175.184 183.164 174.93 183.141ZM189.21 195.604C189 194.81 185.8 195.998 185.8 195.998C185.8 195.998 186.865 192.24 185.16 192.24C183.455 192.24 183.245 195.024 183.245 195.024C183.245 195.024 180.045 193.836 180.045 195.618C180.045 197.399 182.175 197.399 182.175 197.399C182.175 197.399 179.62 200.364 181.54 200.958C183.46 201.552 184.735 199.376 184.735 199.376C184.735 199.376 186.015 201.353 187.735 200.564C189.455 199.775 188.16 197.993 188.16 197.993C188.16 197.993 189.425 196.393 189.21 195.604ZM184.95 198.592C184.789 198.559 184.641 198.484 184.524 198.376C184.407 198.268 184.325 198.132 184.288 197.982C184.25 197.833 184.259 197.677 184.314 197.532C184.368 197.388 184.465 197.26 184.594 197.165C184.723 197.069 184.879 197.009 185.043 196.992C185.207 196.975 185.373 197.002 185.521 197.069C185.67 197.135 185.795 197.24 185.883 197.37C185.97 197.5 186.016 197.65 186.015 197.803C185.984 198.038 185.855 198.251 185.656 198.399C185.457 198.546 185.203 198.616 184.95 198.592ZM178.555 201.562C178.34 200.768 175.145 201.956 175.145 201.956C175.145 201.956 176.21 198.198 174.505 198.198C172.8 198.198 172.585 200.982 172.585 200.982C172.585 200.982 169.385 199.794 169.385 201.575C169.385 203.357 171.52 203.357 171.52 203.357C171.52 203.357 168.96 206.322 170.88 206.916C172.8 207.51 174.075 205.334 174.075 205.334C174.075 205.334 175.355 207.311 177.075 206.522C178.795 205.733 177.505 203.951 177.505 203.951C177.505 203.951 178.75 202.327 178.555 201.538V201.562ZM174.29 204.527C174.129 204.493 173.981 204.418 173.864 204.311C173.747 204.203 173.665 204.066 173.628 203.917C173.59 203.768 173.599 203.612 173.654 203.467C173.708 203.322 173.805 203.195 173.934 203.099C174.063 203.004 174.219 202.944 174.383 202.927C174.547 202.91 174.713 202.936 174.861 203.003C175.01 203.07 175.135 203.174 175.223 203.304C175.31 203.434 175.356 203.585 175.355 203.738C175.318 203.968 175.186 204.176 174.988 204.319C174.79 204.461 174.54 204.527 174.29 204.503V204.527ZM188.36 189.887H190.705C192.41 189.887 193.475 191.669 193.475 191.669C189.85 192.634 188.36 189.864 188.36 189.864V189.887ZM163.205 201.144H165.55C167.255 201.144 168.32 202.921 168.32 202.921C164.695 203.914 163.205 201.144 163.205 201.144ZM176.885 188.384L178.255 190.152C179.255 191.442 178.31 193.279 178.31 193.279C175.33 191.108 176.885 188.384 176.885 188.384ZM190.75 199.446L192.115 201.214C193.115 202.499 192.17 204.341 192.17 204.341C189.19 202.183 190.75 199.446 190.75 199.446ZM165.135 194.3L166.205 192.365C166.99 190.973 169.205 190.89 169.205 190.89C168.465 194.332 165.13 194.3 165.13 194.3H165.135Z" fill="white"/>
</svg>
