<svg width="233" height="155" viewBox="0 0 233 155" fill="none" xmlns="http://www.w3.org/2000/svg">
<path d="M183.036 20.6739C160.843 17.7785 148.241 30.1072 118.404 31.4495C88.7715 29.14 77.4723 16.3959 55.0133 18.5535C30.8491 20.8723 12.1317 52.4117 17.4578 83.9635C22.784 115.515 55.7901 133.151 72.663 133.043C86.1502 132.956 98.0621 127.463 113.44 126.142C128.651 127.965 139.969 133.846 153.422 134.379C170.255 135.048 205.05 118.532 213.672 87.2123C222.294 55.893 206.916 23.7863 183.036 20.6739Z" fill="#7CB7FB"/>
<path opacity="0.7" d="M183.036 20.6739C160.843 17.7785 148.241 30.1072 118.404 31.4495C88.7715 29.14 77.4723 16.3959 55.0133 18.5535C30.8491 20.8723 12.1317 52.4117 17.4578 83.9635C22.784 115.515 55.7901 133.151 72.663 133.043C86.1502 132.956 98.0621 127.463 113.44 126.142C128.651 127.965 139.969 133.846 153.422 134.379C170.255 135.048 205.05 118.532 213.672 87.2123C222.294 55.893 206.916 23.7863 183.036 20.6739Z" fill="white"/>
<path d="M11.3892 140.396H227.855" stroke="#263238" stroke-width="0.778894" stroke-linecap="round" stroke-linejoin="round"/>
<g opacity="0.15">
<path d="M63.0963 24.6821C61.7903 25.9686 57.9248 27.3512 57.9218 27.3512C57.9187 27.3512 57.7856 24.5209 57.8011 24.3411C57.9682 22.2579 59.5156 18.3271 61.7934 17.7908C63.4336 17.4033 64.8882 18.634 65.1079 20.2398C65.3276 21.8456 64.2104 23.5847 63.0963 24.6821Z" fill="black"/>
<path d="M60.7572 76.8241C60.7757 76.9171 60.7943 77.0039 60.8098 77.0969L59.5966 78.2191C59.5285 77.844 59.4604 77.4658 59.3955 77.0721C59.2005 75.9623 59.0179 74.7719 58.8415 73.5474C57.6634 73.5287 56.4874 73.4407 55.3196 73.2839C54.6635 74.9269 52.3424 77.4441 52.0391 77.7665C52.7942 78.5756 53.5401 79.3568 54.255 80.0853C54.744 80.5854 55.2185 81.0628 55.6786 81.5175L54.2302 82.0755L53.2523 81.0463C52.4817 80.2248 51.6739 79.332 50.8507 78.4113C50.4731 78.6531 47.3752 80.6247 45.6731 80.8727C44.1257 81.0959 42.0986 80.9502 40.9257 79.7846C39.7527 78.619 39.6877 76.7342 40.9845 75.6616C42.7887 74.1705 46.8491 75.3144 48.607 76.4428C48.7122 76.511 49.7582 77.3573 50.4081 77.9029C50.0739 77.5247 49.7458 77.1589 49.4085 76.7652C48.7308 75.9902 48.0808 75.1966 47.3783 74.3441L46.3911 73.0638C46.0537 72.6422 45.7505 72.1524 45.4255 71.6967C44.6889 70.621 43.9988 69.4926 43.3272 68.3425C42.6495 68.9346 40.2046 70.9961 38.7067 71.4425C37.2088 71.8889 35.1879 72.0625 33.8509 71.0891C32.514 70.1157 32.1643 68.2619 33.2846 67.0033C34.832 65.2549 39.0316 65.7633 40.938 66.6189C41.0587 66.6716 42.3585 67.4342 43.0673 67.8589C42.668 67.1645 42.2688 66.4732 41.8881 65.7571C40.7895 63.6925 39.7434 61.5659 38.6912 59.4486C38.3817 58.8007 38.0382 58.159 37.7101 57.5142C37.4718 57.7281 34.6153 60.2422 32.941 60.7537C31.4494 61.2094 29.4223 61.3737 28.0884 60.4003C26.7545 59.4269 26.3986 57.5731 27.522 56.3145C29.0694 54.5661 33.266 55.0745 35.1755 55.9301C35.3179 55.9952 37.1902 57.0957 37.6513 57.3964C36.9303 55.9797 36.1999 54.5723 35.4231 53.2145C34.3831 51.3764 33.2253 49.6078 31.9569 47.9197C31.8455 48.0189 28.8838 50.657 27.163 51.1809C25.6713 51.6366 23.6442 51.8009 22.3073 50.8275C20.9703 49.8541 20.6206 48.0003 21.744 46.7417C23.2914 44.9933 27.488 45.5017 29.3975 46.3573C29.546 46.4255 31.5639 47.5973 31.9074 47.8484C31.8331 47.7523 31.7681 47.6438 31.6907 47.5384C30.3731 45.8801 28.9096 44.3436 27.3178 42.9473C26.4512 42.163 25.5754 41.4624 24.712 40.8021C24.2075 41.3477 21.8895 43.8277 20.3947 44.4694C18.9587 45.0894 16.9626 45.4707 15.5297 44.6523C14.0968 43.8339 13.5428 42.0297 14.5177 40.6533C15.8763 38.7468 20.0883 38.7933 22.0845 39.4319C22.1928 39.466 23.2543 39.9372 24.0218 40.2906C23.6257 39.9992 23.2234 39.6892 22.8396 39.4164C21.4005 38.3872 20.0171 37.5378 18.7885 36.7907C18.086 36.3722 17.4423 36.0095 16.8357 35.6747C16.062 35.9537 12.9362 37.0449 11.3424 36.9147C9.74856 36.7845 7.83597 36.2699 6.94157 34.8718C6.04717 33.4737 6.3845 31.6199 7.88548 30.8573C9.9652 29.7909 13.6852 31.7873 15.1614 33.2629C15.2883 33.3931 17.0523 35.622 17.0183 35.6375L16.9718 35.653C17.5629 35.963 18.1912 36.304 18.869 36.6884C20.1069 37.4076 21.5243 38.2384 22.9912 39.2335C24.5833 40.2937 26.1117 41.4468 27.5685 42.6869C29.2103 44.0666 30.7256 45.5906 32.0962 47.2408C32.1133 47.2601 32.1289 47.2809 32.1426 47.3028C31.8857 46.6642 31.2141 44.86 31.1956 44.7174C30.7066 42.6838 30.9542 38.4647 32.9503 37.2433C34.3894 36.366 36.1627 37.0759 36.8622 38.536C37.5616 39.9961 37.051 41.9956 36.333 43.3844C35.5283 44.9499 32.5325 47.3152 32.2942 47.5043C33.6502 49.2167 34.8909 51.0177 36.008 52.8952C36.661 53.9864 37.2893 55.1055 37.902 56.2339C37.6978 55.6759 37.5214 55.1768 37.5028 55.1055C37.0138 53.0719 37.2614 48.8528 39.2575 47.6345C40.6966 46.7541 42.47 47.4671 43.1694 48.9241C43.8688 50.3811 43.3582 52.3837 42.6433 53.7725C41.9284 55.1613 39.403 57.2507 38.7314 57.787C38.9604 58.2241 39.1987 58.655 39.4278 59.0921C40.5264 61.1877 41.6158 63.2833 42.7485 65.2921C43.1446 66.0051 43.5655 66.6902 43.9864 67.3815C43.8069 66.8855 43.6584 66.467 43.6429 66.4019C43.1539 64.3683 43.4015 60.1492 45.3976 58.9278C46.8336 58.0505 48.6101 58.7604 49.3095 60.2205C50.0089 61.6806 49.4952 63.6801 48.7803 65.0689C48.0654 66.4577 45.7845 68.3425 44.9891 68.9873C45.4379 69.6786 45.8835 70.373 46.3477 71.0271C46.6758 71.4642 46.9667 71.9075 47.3133 72.3291L48.3284 73.5908C49 74.3658 49.6901 75.1749 50.3648 75.9158C50.8321 76.4366 51.2933 76.9202 51.742 77.4131C51.3366 76.7094 50.5722 75.3113 50.5226 75.1873C49.8892 73.4597 49.7091 71.5982 49.9996 69.7809C49.9216 69.5914 49.8605 69.3953 49.817 69.195C49.4859 67.6109 50.4638 65.9648 52.1381 65.785C54.4654 65.537 57.2198 68.7362 58.0647 70.6489C58.1173 70.7605 58.5196 72.047 58.761 72.8592C58.6929 72.3601 58.6187 71.8734 58.5537 71.3588C58.4175 70.3389 58.3123 69.3159 58.1947 68.2185C58.1575 67.6853 58.1173 67.1459 58.0802 66.6034C58.043 66.0609 58.0461 65.4905 58.0245 64.9294C58.0059 63.6274 58.0492 62.3037 58.1235 60.9738C57.2322 61.0916 54.0569 61.4605 52.5528 61.0141C51.0488 60.5677 49.2785 59.585 48.6967 58.035C48.1149 56.485 48.8484 54.7459 50.4762 54.315C52.7385 53.7198 55.9478 56.4633 57.0713 58.2241C57.1424 58.3357 57.8078 59.6904 58.1575 60.4406C58.2101 59.6408 58.2566 58.8441 58.3339 58.0381C58.5537 55.7069 58.8508 53.3571 59.1386 51.0104C59.2283 50.2912 59.3057 49.572 59.3893 48.8404C59.0798 48.8838 55.3103 49.4046 53.6267 48.9055C52.1319 48.4591 50.3524 47.4764 49.7737 45.9264C49.195 44.3764 49.9223 42.6373 51.5532 42.2064C53.8124 41.6112 57.0217 44.3547 58.1452 46.1155C58.2318 46.2488 59.185 48.2018 59.4047 48.7071C59.5842 47.1292 59.7483 45.5513 59.8473 43.9889C59.9941 41.8817 60.0034 39.7671 59.8752 37.6587C59.7266 37.6773 55.8024 38.2415 54.0786 37.7269C52.5838 37.2836 50.8043 36.2978 50.2255 34.7509C49.6468 33.204 50.3741 31.4587 52.0051 31.0309C54.2643 30.4326 57.4736 33.1761 58.597 34.9369C58.6867 35.0764 59.7111 37.1782 59.8721 37.5719C59.8721 37.4479 59.8721 37.3208 59.8721 37.1999C59.6728 35.1038 59.2907 33.0292 58.7301 30.9999C58.4206 29.8653 58.0925 28.7989 57.7366 27.7697C57.0156 27.9495 53.7134 28.7338 52.1134 28.4424C50.566 28.1665 48.7091 27.3853 47.9571 25.9097C47.205 24.4341 47.7435 22.6206 49.3157 22.0161C51.4975 21.1729 54.9885 23.5475 56.3007 25.175C56.3718 25.2618 56.997 26.2445 57.4426 26.9637C57.2724 26.5018 57.1084 26.0337 56.9382 25.5811C56.3192 23.9288 55.6198 22.4532 55.0039 21.1512C54.648 20.4134 54.3107 19.7562 53.9888 19.1424C53.1904 18.9471 49.9841 18.1287 48.7277 17.1522C47.4712 16.1757 46.1868 14.635 46.2054 12.9827C46.224 11.3304 47.53 9.9664 49.2043 10.1555C51.5285 10.4159 53.537 14.1328 53.9486 16.1819C53.9826 16.3586 54.224 19.1951 54.1838 19.1858H54.1374C54.4469 19.7686 54.7935 20.401 55.1494 21.0954C55.7931 22.385 56.5111 23.8513 57.1858 25.4974C57.9291 27.2552 58.5718 29.0541 59.1107 30.8852C59.7187 32.9432 60.1434 35.0512 60.3796 37.1844C60.3781 37.2102 60.3781 37.2361 60.3796 37.2619C60.5158 36.5892 60.9614 34.723 61.014 34.5835C61.7258 32.615 64.2543 29.236 66.5847 29.3135C68.2683 29.3755 69.37 30.9503 69.1348 32.553C68.8996 34.1557 67.3863 35.5414 66.04 36.304C64.4926 37.1658 60.7015 37.482 60.4013 37.5068C60.5862 39.6841 60.6266 41.8713 60.522 44.054C60.4694 45.325 60.3734 46.6053 60.2651 47.8856C60.4013 47.309 60.5282 46.7944 60.5529 46.7231C61.2647 44.7577 63.7963 41.3756 66.1236 41.4531C67.8071 41.512 68.9089 43.0868 68.6737 44.6895C68.4385 46.2922 66.9251 47.681 65.5789 48.4436C64.2326 49.2062 60.9645 49.5534 60.1073 49.6309C60.0578 50.1207 60.0175 50.6136 59.968 51.1034C59.7328 53.4594 59.4852 55.8092 59.315 58.1218C59.2562 58.934 59.2252 59.74 59.1943 60.546C59.315 60.0314 59.4233 59.6005 59.445 59.5385C60.1568 57.57 62.6883 54.191 65.0156 54.2685C66.6992 54.3305 67.801 55.9053 67.5658 57.508C67.3305 59.1107 65.8172 60.4964 64.4555 61.259C63.0938 62.0216 60.1537 62.3347 59.1355 62.4308C59.1355 63.2585 59.1169 64.0831 59.1355 64.8829C59.1664 65.4316 59.1603 65.9586 59.2221 66.5042C59.284 67.0498 59.3243 67.583 59.3738 68.1162C59.5069 69.1361 59.6369 70.1901 59.7916 71.1821C59.8937 71.8734 60.0051 72.5306 60.1011 73.1909C60.1537 72.3787 60.2837 70.7915 60.3115 70.6613C60.7169 68.6091 62.7069 64.886 65.028 64.6132C66.7023 64.4179 68.0145 65.8098 68.0393 67.428C68.064 69.0462 66.7642 70.6489 65.5356 71.6099C64.18 72.667 60.621 73.5381 60.1754 73.6435C60.3703 74.7595 60.5622 75.8228 60.7572 76.8241Z" fill="black"/>
<path d="M24.6438 40.3869C24.6191 40.421 22.9695 38.1022 22.8829 37.9441C21.8771 36.112 21.0043 31.9797 22.6074 30.2747C23.7618 29.0347 25.6589 29.2641 26.7204 30.4855C27.782 31.7069 27.8129 33.7715 27.4879 35.2998C27.1073 37.0947 24.6438 40.3838 24.6438 40.3869Z" fill="black"/>
</g>
<g opacity="0.15">
<path d="M150.676 32.8229C151.982 34.1094 155.848 35.492 155.851 35.492C155.854 35.492 155.987 32.6617 155.972 32.4819C155.804 30.3987 154.257 26.4679 151.979 25.9316C150.339 25.5441 148.884 26.7748 148.668 28.3806C148.451 29.9864 149.565 31.7255 150.676 32.8229Z" fill="black"/>
<path d="M153.016 84.9648C152.997 85.0578 152.982 85.1446 152.963 85.2376L154.179 86.3598C154.244 85.9847 154.313 85.6065 154.381 85.2128C154.572 84.103 154.755 82.9126 154.931 81.6881C156.111 81.6694 157.288 81.5814 158.456 81.4246C159.109 83.0676 161.434 85.5848 161.734 85.9072C160.979 86.7163 160.233 87.4975 159.521 88.2229C159.029 88.7251 158.556 89.2025 158.094 89.6582L159.543 90.2131C159.852 89.8814 160.186 89.5404 160.521 89.187C161.291 88.3655 162.099 87.4727 162.922 86.552C163.3 86.7938 166.401 88.7654 168.103 89.0134C169.65 89.2366 171.674 89.0909 172.847 87.9253C174.02 86.7597 174.085 84.8749 172.789 83.8023C170.984 82.3112 166.908 83.4551 165.166 84.5835C165.061 84.6486 164.018 85.498 163.365 86.0436C163.699 85.6654 164.027 85.2996 164.368 84.9059C165.042 84.1309 165.692 83.3373 166.395 82.4848L167.382 81.2045C167.719 80.7829 168.023 80.2931 168.351 79.8374C169.084 78.7617 169.774 77.6333 170.446 76.4832C171.127 77.0753 173.568 79.1368 175.066 79.5832C176.564 80.0296 178.585 80.2032 179.922 79.2298C181.259 78.2564 181.609 76.4026 180.488 75.144C178.941 73.3956 174.744 73.904 172.835 74.7596C172.714 74.8123 171.414 75.5749 170.706 75.9996C171.105 75.3052 171.507 74.6139 171.885 73.8978C172.984 71.8301 174.03 69.7066 175.085 67.5893C175.394 66.9414 175.735 66.2997 176.063 65.6549C176.301 65.8688 179.158 68.3829 180.832 68.8944C182.324 69.347 184.351 69.5144 185.685 68.541C187.018 67.5676 187.374 65.7138 186.251 64.4552C184.704 62.7068 180.507 63.2152 178.597 64.0708C178.455 64.1328 176.583 65.2333 176.122 65.5371C176.843 64.1204 177.573 62.713 178.35 61.3552C179.39 59.5171 180.548 57.7485 181.816 56.0604C181.927 56.1596 184.889 58.7977 186.61 59.3216C188.102 59.7742 190.129 59.9416 191.466 58.9682C192.803 57.9948 193.152 56.141 192.029 54.8824C190.482 53.134 186.285 53.6424 184.375 54.498C184.227 54.5631 182.209 55.738 181.866 55.9891C181.94 55.893 182.005 55.7845 182.082 55.6791C183.4 54.0208 184.863 52.4843 186.455 51.088C187.322 50.3037 188.198 49.6031 189.064 48.9428C189.565 49.4884 191.883 51.9684 193.397 52.6101C194.83 53.2301 196.826 53.6114 198.259 52.793C199.692 51.9746 200.249 50.1673 199.271 48.794C197.912 46.8875 193.7 46.934 191.704 47.5726C191.596 47.6067 190.537 48.0779 189.767 48.4313C190.163 48.1399 190.565 47.8299 190.949 47.5571C192.388 46.5279 193.771 45.6754 195 44.9314C195.706 44.5129 196.346 44.1502 196.953 43.8154C197.727 44.0944 200.852 45.1856 202.446 45.0554C204.04 44.9252 205.952 44.361 206.847 42.9722C207.741 41.5834 207.404 39.7265 205.903 38.9422C203.823 37.8758 200.103 39.8722 198.627 41.3478C198.5 41.4749 196.736 43.7069 196.77 43.7224L196.817 43.7379C196.226 44.0479 195.597 44.3889 194.92 44.7733C193.682 45.4925 192.267 46.3233 190.797 47.3184C189.199 48.4009 187.665 49.5769 186.205 50.84C184.559 52.2152 183.04 53.7351 181.664 55.3815L181.618 55.4404C181.875 54.8049 182.546 53.0007 182.565 52.8581C183.054 50.8245 182.806 46.6054 180.81 45.384C179.374 44.5067 177.598 45.2166 176.898 46.6767C176.199 48.1368 176.713 50.1363 177.428 51.5251C178.232 53.0751 181.228 55.4559 181.451 55.645C180.094 57.3567 178.853 59.1577 177.737 61.0359C177.081 62.1271 176.453 63.2462 175.84 64.3746C176.044 63.8166 176.221 63.3175 176.239 63.2462C176.728 61.2126 176.481 56.9935 174.484 55.7721C173.045 54.8948 171.272 55.6047 170.573 57.0648C169.873 58.5249 170.384 60.5244 171.099 61.9132C171.814 63.302 174.339 65.3914 175.011 65.9277C174.782 66.3648 174.546 66.7957 174.314 67.2328C173.216 69.3284 172.126 71.424 170.994 73.4483C170.597 74.1613 170.177 74.8464 169.756 75.5377C169.935 75.0417 170.084 74.6232 170.099 74.5581C170.588 72.5214 170.341 68.3054 168.347 67.084C166.908 66.2067 165.132 66.9166 164.436 68.3767C163.739 69.8368 164.247 71.8363 164.962 73.2251C165.677 74.6139 167.958 76.4987 168.753 77.1435C168.304 77.8348 167.859 78.5292 167.394 79.1833C167.066 79.6204 166.775 80.0637 166.429 80.4853L165.417 81.7439C164.742 82.522 164.052 83.328 163.377 84.072C162.91 84.5928 162.449 85.0764 162 85.5693C162.405 84.8625 163.17 83.4675 163.219 83.3435C163.853 81.616 164.033 79.7544 163.742 77.9371C163.82 77.7476 163.882 77.5516 163.925 77.3512C164.256 75.7671 163.278 74.121 161.604 73.9412C159.277 73.6963 156.522 76.8955 155.677 78.8082C155.628 78.9198 155.222 80.2063 154.981 81.0185C155.049 80.5194 155.123 80.0327 155.188 79.5181C155.325 78.4982 155.43 77.4752 155.547 76.3778C155.584 75.8446 155.625 75.3052 155.662 74.7627C155.699 74.2202 155.699 73.6498 155.718 73.0887C155.736 71.7867 155.693 70.463 155.619 69.1331C156.513 69.2509 159.685 69.6198 161.189 69.1734C162.693 68.727 164.467 67.7443 165.045 66.1943C165.624 64.6443 164.894 62.9052 163.266 62.4743C161.004 61.8791 157.794 64.6226 156.671 66.3834C156.6 66.495 155.934 67.8497 155.585 68.5999C155.535 67.8001 155.489 67.0034 155.411 66.1974C155.188 63.8662 154.891 61.5164 154.603 59.1666C154.514 58.4505 154.436 57.7313 154.353 57.0152C154.662 57.0586 158.432 57.5794 160.115 57.0803C161.61 56.6339 163.39 55.6512 163.968 54.1012C164.547 52.5512 163.82 50.8121 162.192 50.3812C159.93 49.786 156.72 52.5295 155.597 54.2903C155.51 54.4236 154.557 56.3735 154.337 56.8819C154.158 55.304 153.994 53.7261 153.895 52.1637C153.748 50.0565 153.739 47.942 153.867 45.8335C154.015 45.8521 157.94 46.4163 159.663 45.9017C161.158 45.4553 162.938 44.4726 163.516 42.9257C164.095 41.3788 163.368 39.6335 161.74 39.2057C159.478 38.6105 156.268 41.354 155.145 43.1148C155.055 43.2543 154.031 45.3561 153.873 45.7498C153.873 45.6258 153.873 45.4987 153.873 45.3778C154.079 43.2638 154.473 41.1723 155.049 39.1282C155.343 37.9936 155.687 36.9272 156.043 35.898C156.764 36.0778 160.066 36.8621 161.666 36.5707C163.213 36.2948 165.07 35.5105 165.825 34.038C166.58 32.5655 166.036 30.7489 164.463 30.1413C162.297 29.3012 158.791 31.6913 157.482 33.3033C157.41 33.3901 156.782 34.3728 156.34 35.092C156.507 34.6301 156.671 34.162 156.841 33.7094C157.475 32.0571 158.159 30.5815 158.775 29.2795C159.131 28.5417 159.468 27.8814 159.79 27.2707C160.589 27.0754 163.795 26.257 165.052 25.2805C166.308 24.304 167.592 22.7633 167.574 21.111C167.555 19.4587 166.252 18.0947 164.581 18.29C162.257 18.5504 160.248 22.2673 159.837 24.3164C159.8 24.4931 159.558 27.3296 159.598 27.3203H159.648C159.338 27.9031 158.989 28.5355 158.633 29.2299C157.989 30.5195 157.271 31.9858 156.6 33.6319C155.854 35.3969 155.212 37.2042 154.678 39.0445C154.067 41.1018 153.642 43.2101 153.409 45.3437C153.409 45.3685 153.409 45.3964 153.409 45.4212C153.273 44.7485 152.827 42.8823 152.774 42.7428C152.063 40.7743 149.534 37.3953 147.204 37.4728C145.52 37.5348 144.418 39.1096 144.654 40.7123C144.889 42.315 146.402 43.7007 147.748 44.4633C149.296 45.3251 153.087 45.6413 153.39 45.6661C153.203 47.8433 153.161 50.0306 153.266 52.2133C153.319 53.4843 153.415 54.7646 153.523 56.0449C153.387 55.4683 153.26 54.9537 153.236 54.8824C152.524 52.917 149.992 49.5349 147.665 49.6124C145.981 49.6713 144.895 51.2461 145.115 52.8488C145.334 54.4515 146.863 55.8403 148.225 56.6029C149.587 57.3655 152.839 57.7127 153.7 57.7902C153.746 58.28 153.786 58.7698 153.836 59.2627C154.074 61.6187 154.319 63.9685 154.489 66.2811C154.548 67.0933 154.579 67.8993 154.613 68.7053C154.489 68.1907 154.381 67.7598 154.359 67.6978C153.647 65.7293 151.119 62.3503 148.788 62.4278C147.105 62.4898 146.018 64.0646 146.238 65.6673C146.458 67.27 147.987 68.6557 149.333 69.4183C150.679 70.1809 153.635 70.494 154.653 70.5901C154.653 71.4178 154.672 72.2424 154.653 73.0422C154.619 73.5909 154.628 74.1179 154.563 74.6635C154.498 75.2091 154.464 75.7423 154.415 76.2755C154.282 77.2954 154.149 78.3494 153.994 79.3414C153.892 80.0327 153.78 80.6899 153.684 81.3502C153.635 80.538 153.502 78.9508 153.474 78.8206C153.068 76.7684 151.078 73.0453 148.757 72.7725C147.083 72.5772 145.771 73.9691 145.746 75.5873C145.721 77.2055 147.021 78.8082 148.253 79.7661C149.605 80.8263 153.164 81.6974 153.61 81.8028C153.403 82.9002 153.211 83.9635 153.016 84.9648Z" fill="black"/>
<path d="M189.13 48.5274C189.157 48.5615 190.804 46.2427 190.891 46.0846C191.899 44.2525 192.772 40.1202 191.169 38.4152C190.012 37.1752 188.114 37.4046 187.056 38.626C185.998 39.8474 185.96 41.912 186.285 43.4403C186.666 45.2352 189.13 48.5243 189.13 48.5274Z" fill="black"/>
</g>
<path d="M153.252 133.69V122.245C153.253 120.467 153.959 118.762 155.214 117.505C156.469 116.247 158.171 115.541 159.946 115.54H96.8308C95.0554 115.54 93.3527 116.246 92.0974 117.504C90.842 118.761 90.1367 120.467 90.1367 122.245V133.69C90.1363 134.571 90.3092 135.443 90.6454 136.257C90.9817 137.071 91.4748 137.81 92.0965 138.433C92.7181 139.055 93.4563 139.549 94.2686 139.886C95.0809 140.223 95.9516 140.396 96.8308 140.396H159.946C158.171 140.396 156.468 139.689 155.213 138.432C153.957 137.174 153.252 135.469 153.252 133.69Z" fill="#263238" stroke="#263238" stroke-width="0.778894" stroke-linecap="round" stroke-linejoin="round"/>
<path d="M216.151 116.448L216.903 115.952C216.942 115.925 216.972 115.886 216.987 115.841C217.003 115.796 217.004 115.747 216.991 115.701C216.977 115.655 216.949 115.615 216.911 115.586C216.873 115.557 216.827 115.541 216.779 115.54H159.946C158.171 115.541 156.469 116.247 155.214 117.505C153.958 118.762 153.253 120.467 153.252 122.245V133.69C153.252 135.469 153.957 137.174 155.213 138.432C156.468 139.689 158.171 140.396 159.946 140.396H216.779C216.828 140.397 216.876 140.382 216.915 140.353C216.955 140.325 216.984 140.284 216.998 140.237C217.012 140.19 217.01 140.14 216.993 140.094C216.976 140.048 216.944 140.009 216.903 139.983L216.151 139.487V116.448Z" fill="#949494" stroke="#263238" stroke-width="0.778894" stroke-linecap="round" stroke-linejoin="round"/>
<path d="M163.295 116.448H216.151V139.5H163.295C160.96 139.5 158.722 138.571 157.071 136.918C155.42 135.264 154.493 133.022 154.493 130.684V125.265C154.493 122.927 155.42 120.684 157.071 119.031C158.722 117.377 160.96 116.448 163.295 116.448Z" fill="white" stroke="#263238" stroke-width="0.778894" stroke-linecap="round" stroke-linejoin="round"/>
<path d="M156.421 120.689H178.595" stroke="#263238" stroke-width="0.778894" stroke-linecap="round" stroke-linejoin="round"/>
<path d="M172.773 122.797H193.462" stroke="#263238" stroke-width="0.778894" stroke-linecap="round" stroke-linejoin="round"/>
<path d="M185.286 125.404H165.464" stroke="#263238" stroke-width="0.778894" stroke-linecap="round" stroke-linejoin="round"/>
<path d="M156.916 133.347H169.923" stroke="#263238" stroke-width="0.778894" stroke-linecap="round" stroke-linejoin="round"/>
<path d="M166.581 135.206H186.029" stroke="#263238" stroke-width="0.778894" stroke-linecap="round" stroke-linejoin="round"/>
<path d="M164.227 136.945H169.429" stroke="#263238" stroke-width="0.778894" stroke-linecap="round" stroke-linejoin="round"/>
<path d="M178.846 131.61H211.92" stroke="#263238" stroke-width="0.778894" stroke-linecap="round" stroke-linejoin="round"/>
<path d="M215.761 126.272H208.949" stroke="#263238" stroke-width="0.778894" stroke-linecap="round" stroke-linejoin="round"/>
<path d="M214.647 124.536H207.708" stroke="#263238" stroke-width="0.778894" stroke-linecap="round" stroke-linejoin="round"/>
<path d="M214.647 135.706H197.304" stroke="#263238" stroke-width="0.778894" stroke-linecap="round" stroke-linejoin="round"/>
<path d="M150.275 108.717V97.2717C150.274 96.391 150.447 95.5189 150.783 94.7052C151.12 93.8915 151.613 93.1522 152.234 92.5294C152.856 91.9067 153.594 91.4128 154.407 91.076C155.219 90.7392 156.09 90.566 156.969 90.5664H93.8502C92.9712 90.5664 92.1009 90.7399 91.2889 91.0769C90.4769 91.4139 89.7392 91.9079 89.1178 92.5305C88.4965 93.1532 88.0037 93.8924 87.6676 94.7059C87.3315 95.5194 87.1588 96.3913 87.1592 97.2717V108.717C87.1592 110.495 87.864 112.2 89.1187 113.457C90.3734 114.715 92.0753 115.421 93.8502 115.422H156.984C156.104 115.424 155.232 115.252 154.418 114.916C153.604 114.58 152.864 114.087 152.241 113.464C151.618 112.841 151.123 112.101 150.786 111.287C150.448 110.472 150.275 109.599 150.275 108.717Z" fill="#8C8C8C" stroke="#263238" stroke-width="0.778894" stroke-linecap="round" stroke-linejoin="round"/>
<path d="M213.171 91.4748L213.926 90.9788C213.968 90.9528 213.999 90.9139 214.017 90.8681C214.034 90.8224 214.035 90.7722 214.021 90.7253C214.007 90.6785 213.978 90.6375 213.939 90.6088C213.899 90.5801 213.851 90.5653 213.803 90.5665H156.969C156.09 90.5661 155.22 90.7392 154.407 91.0761C153.595 91.4129 152.857 91.9068 152.235 92.5295C151.613 93.1522 151.12 93.8916 150.784 94.7053C150.448 95.519 150.275 96.3911 150.275 97.2718V108.717C150.275 110.495 150.981 112.201 152.236 113.458C153.491 114.716 155.194 115.422 156.969 115.422H213.803C213.85 115.421 213.896 115.405 213.934 115.376C213.972 115.347 214 115.307 214.014 115.261C214.028 115.215 214.027 115.166 214.011 115.121C213.995 115.076 213.966 115.037 213.926 115.01L213.171 114.514V91.4748Z" fill="#949494" stroke="#263238" stroke-width="0.778894" stroke-linecap="round" stroke-linejoin="round"/>
<path d="M160.311 91.4746H213.171V114.514H160.311C157.98 114.513 155.744 113.585 154.094 111.935C152.444 110.284 151.516 108.045 151.513 105.71V100.291C151.513 97.9533 152.44 95.7113 154.09 94.058C155.739 92.4047 157.977 91.4754 160.311 91.4746Z" fill="white" stroke="#263238" stroke-width="0.778894" stroke-linecap="round" stroke-linejoin="round"/>
<path d="M153.443 95.7156H175.618" stroke="#263238" stroke-width="0.778894" stroke-linecap="round" stroke-linejoin="round"/>
<path d="M169.797 97.8235H190.486" stroke="#263238" stroke-width="0.778894" stroke-linecap="round" stroke-linejoin="round"/>
<path d="M182.31 100.431H162.487" stroke="#263238" stroke-width="0.778894" stroke-linecap="round" stroke-linejoin="round"/>
<path d="M153.938 108.373H166.946" stroke="#263238" stroke-width="0.778894" stroke-linecap="round" stroke-linejoin="round"/>
<path d="M163.602 110.233H183.052" stroke="#263238" stroke-width="0.778894" stroke-linecap="round" stroke-linejoin="round"/>
<path d="M161.249 111.969H166.451" stroke="#263238" stroke-width="0.778894" stroke-linecap="round" stroke-linejoin="round"/>
<path d="M175.866 106.634H208.944" stroke="#263238" stroke-width="0.778894" stroke-linecap="round" stroke-linejoin="round"/>
<path d="M212.783 101.299H205.972" stroke="#263238" stroke-width="0.778894" stroke-linecap="round" stroke-linejoin="round"/>
<path d="M211.67 99.5627H204.731" stroke="#263238" stroke-width="0.778894" stroke-linecap="round" stroke-linejoin="round"/>
<path d="M211.669 110.729H194.326" stroke="#263238" stroke-width="0.778894" stroke-linecap="round" stroke-linejoin="round"/>
<path d="M202.62 128.659L197.523 123.554L192.438 128.659V99.5441H202.62V128.659Z" fill="#263238" stroke="#263238" stroke-width="0.778894" stroke-linecap="round" stroke-linejoin="round"/>
<path d="M92.9064 66.498L92.1544 66.0051C92.113 65.9792 92.0812 65.9403 92.0641 65.8945C92.0469 65.8487 92.0452 65.7985 92.0592 65.7517C92.0733 65.7048 92.1024 65.6639 92.1419 65.6352C92.1815 65.6065 92.2293 65.5916 92.2782 65.5928H149.111C150.886 65.5928 152.588 66.2989 153.844 67.5557C155.099 68.8125 155.804 70.5172 155.805 72.295V83.7433C155.804 85.5212 155.099 87.2259 153.844 88.4827C152.588 89.7395 150.886 90.4455 149.111 90.4455H92.2782C92.2293 90.4468 92.1815 90.4319 92.1419 90.4032C92.1024 90.3745 92.0733 90.3335 92.0592 90.2867C92.0452 90.2398 92.0469 90.1897 92.0641 90.1439C92.0812 90.0981 92.113 90.0592 92.1544 90.0332L92.9064 89.5403V66.498Z" fill="#949494" stroke="#263238" stroke-width="0.778894" stroke-linecap="round" stroke-linejoin="round"/>
<path d="M145.763 89.5404L92.9066 89.5404V66.5012H145.763C148.097 66.5012 150.335 67.4296 151.985 69.0824C153.636 70.7351 154.564 72.9768 154.564 75.3145V80.7085C154.566 81.8676 154.34 83.0157 153.899 84.0872C153.457 85.1586 152.809 86.1323 151.992 86.9527C151.174 87.773 150.203 88.4238 149.135 88.8678C148.066 89.3118 146.92 89.5404 145.763 89.5404Z" fill="white" stroke="#263238" stroke-width="0.778894" stroke-linecap="round" stroke-linejoin="round"/>
<path d="M152.636 70.7389H130.459" stroke="#263238" stroke-width="0.778894" stroke-linecap="round" stroke-linejoin="round"/>
<path d="M136.284 72.85H115.595" stroke="#263238" stroke-width="0.778894" stroke-linecap="round" stroke-linejoin="round"/>
<path d="M123.771 75.4539H143.591" stroke="#263238" stroke-width="0.778894" stroke-linecap="round" stroke-linejoin="round"/>
<path d="M152.138 83.3961H139.131" stroke="#263238" stroke-width="0.778894" stroke-linecap="round" stroke-linejoin="round"/>
<path d="M142.476 85.2593H123.025" stroke="#263238" stroke-width="0.778894" stroke-linecap="round" stroke-linejoin="round"/>
<path d="M144.831 86.9952H139.626" stroke="#263238" stroke-width="0.778894" stroke-linecap="round" stroke-linejoin="round"/>
<path d="M130.211 81.6602H97.1338" stroke="#263238" stroke-width="0.778894" stroke-linecap="round" stroke-linejoin="round"/>
<path d="M93.293 76.325H100.108" stroke="#263238" stroke-width="0.778894" stroke-linecap="round" stroke-linejoin="round"/>
<path d="M94.4102 74.5859H101.346" stroke="#263238" stroke-width="0.778894" stroke-linecap="round" stroke-linejoin="round"/>
<path d="M94.4102 85.7552H111.753" stroke="#263238" stroke-width="0.778894" stroke-linecap="round" stroke-linejoin="round"/>
<path d="M208.642 84.6484H163.495V85.6869H208.642V84.6484Z" fill="#263238" stroke="#263238" stroke-width="0.778894" stroke-linecap="round" stroke-linejoin="round"/>
<path d="M155.202 46.8812C155.201 46.5389 155.065 46.2109 154.823 45.9692C154.581 45.7274 154.253 45.5916 153.911 45.5916H57.7865C57.6119 45.5831 57.4374 45.6101 57.2735 45.6711C57.1097 45.7321 56.96 45.8259 56.8334 45.9466C56.7068 46.0673 56.606 46.2126 56.5371 46.3735C56.4683 46.5344 56.4328 46.7077 56.4328 46.8828C56.4328 47.0579 56.4683 47.2311 56.5371 47.3921C56.606 47.553 56.7068 47.6982 56.8334 47.819C56.96 47.9397 57.1097 48.0334 57.2735 48.0944C57.4374 48.1555 57.6119 48.1825 57.7865 48.1739H152.488L145.561 137.764H88.1063L84.8568 134.32L80.524 137.764H40.9445C40.7699 137.755 40.5954 137.782 40.4316 137.843C40.2678 137.904 40.118 137.998 39.9914 138.119C39.8648 138.24 39.7641 138.385 39.6952 138.546C39.6263 138.707 39.5908 138.88 39.5908 139.055C39.5908 139.23 39.6263 139.403 39.6952 139.564C39.7641 139.725 39.8648 139.871 39.9914 139.991C40.118 140.112 40.2678 140.206 40.4316 140.267C40.5954 140.328 40.7699 140.355 40.9445 140.346H146.385C146.468 140.371 146.554 140.387 146.641 140.393C146.81 140.406 146.98 140.385 147.141 140.333C147.302 140.28 147.451 140.196 147.58 140.085C147.708 139.975 147.814 139.84 147.89 139.688C147.967 139.537 148.012 139.372 148.025 139.202L155.143 47.216C155.177 47.1074 155.197 46.9949 155.202 46.8812Z" fill="#263238" stroke="#263238" stroke-width="0.778894" stroke-linecap="round" stroke-linejoin="round"/>
<path d="M85.1573 135.637C85.6679 135.842 86.6644 137.575 87.2586 138.675H146.868L142.074 127.236C142.074 127.236 137.484 125.153 125.501 121.204C113.518 117.254 105.936 115.887 97.8955 117.558C89.8552 119.229 86.6737 120.28 86.6737 120.28C86.6737 120.28 83.9441 118.001 75.6005 117.85C67.2569 117.698 42.4644 127.224 42.4644 127.224L40.7158 138.663H82.5886C83.3592 137.392 84.6404 135.43 85.1573 135.637Z" fill="white" stroke="#263238" stroke-width="0.778894" stroke-linecap="round" stroke-linejoin="round"/>
<path d="M95.7478 36.6482L85.9961 125.24C85.9961 125.24 96.636 120.801 103.507 120.59C109.139 120.407 126.099 124.406 132.025 125.86C133.434 126.205 134.864 126.458 136.305 126.616L142.074 127.261L148.944 39.5591C148.944 39.5591 137.642 36.8962 129.447 34.2302C121.252 31.5642 105.057 29.543 95.7478 36.6482Z" fill="white" stroke="#263238" stroke-width="0.778894" stroke-linecap="round" stroke-linejoin="round"/>
<path d="M134.77 43.1674L135.525 37.5874L136.695 37.9873C137.033 38.0942 137.352 38.2554 137.638 38.4647C137.867 38.6334 138.041 38.865 138.14 39.1312C138.237 39.4312 138.26 39.7502 138.208 40.0612C138.183 40.2543 138.132 40.4432 138.056 40.6223C137.995 40.7699 137.895 40.8976 137.765 40.9912C137.632 41.0809 137.474 41.1245 137.313 41.1152L137.762 44.1873L136.979 43.9207L136.568 41.047L135.949 40.83L135.596 43.4433L134.77 43.1674ZM136.007 40.2751L136.317 40.3805C136.499 40.4522 136.693 40.49 136.889 40.4921C136.958 40.4917 137.026 40.4759 137.087 40.4458C137.149 40.4158 137.203 40.3723 137.245 40.3185C137.346 40.161 137.405 39.981 137.419 39.7946C137.473 39.5354 137.442 39.2654 137.329 39.0258C137.154 38.7904 136.902 38.6245 136.617 38.5577L136.258 38.4337L136.007 40.2751Z" fill="black"/>
<path d="M138.647 42.6156L138.722 42.0576L140.328 42.6063L140.251 43.1643L138.647 42.6156Z" fill="black"/>
<path d="M141.452 45.4552L142.127 40.4611L141.14 40.1232L141.22 39.5466L143.974 40.4766L143.894 41.0532L142.938 40.7277L142.263 45.7187L141.452 45.4552Z" fill="black"/>
<path d="M95.7472 36.6481L85.9954 125.24C85.9954 125.24 79.128 120.801 73.8205 120.59C69.7663 120.419 57.3561 123.873 51.705 125.516C49.7333 126.087 47.7225 126.513 45.6887 126.79L42.4639 127.239L54.4036 40.8796C54.4036 40.8796 59.7948 39.0754 66.7086 36.4094C73.6224 33.7434 89.898 29.5429 95.7472 36.6481Z" fill="white" stroke="#263238" stroke-width="0.778894" stroke-linecap="round" stroke-linejoin="round"/>
<path d="M59.0615 44.3547L59.6619 39.9186L60.6708 39.6086C60.933 39.5199 61.2081 39.4759 61.4848 39.4784C61.571 39.4757 61.6564 39.4958 61.7325 39.5366C61.8085 39.5774 61.8725 39.6375 61.918 39.7109C62.0061 39.905 62.0299 40.1222 61.9861 40.3309C61.9636 40.4987 61.921 40.6631 61.8592 40.8207C61.8005 40.9721 61.7169 41.1125 61.6116 41.2361C61.5029 41.3625 61.3717 41.4676 61.2248 41.5461L61.6364 43.558L60.9617 43.7595L60.5873 41.8747L60.0426 42.039L59.761 44.1191L59.0615 44.3547ZM60.1014 41.6205L60.3675 41.5399C60.5401 41.4915 60.7055 41.4207 60.8596 41.3291C60.9875 41.2539 61.094 41.1472 61.1691 41.0191C61.2479 40.8739 61.2983 40.7151 61.3176 40.551C61.3517 40.2906 61.3176 40.1201 61.231 40.0364C61.1443 39.9527 60.9215 39.962 60.612 40.055L60.3025 40.148L60.1014 41.6205Z" fill="black"/>
<path d="M62.3789 41.9863L62.4408 41.543L63.8211 41.1276L63.753 41.5709L62.3789 41.9863Z" fill="black"/>
<path d="M64.8124 42.6282L65.3509 38.6509L64.5029 38.9082L64.5648 38.4463L66.9354 37.7333L66.8736 38.1952L66.0503 38.4432L65.5118 42.4174L64.8124 42.6282Z" fill="black"/>
<path d="M148.944 39.5342L153.255 48.2793L146.867 138.675L142.073 127.236L148.944 39.5342Z" fill="white" stroke="#263238" stroke-width="0.778894" stroke-linecap="round" stroke-linejoin="round"/>
<path d="M82.5884 138.675C82.5884 138.675 79.6421 136.654 76.6897 135.916C73.7372 135.179 65.3163 136.211 57.1924 136.952" stroke="#263238" stroke-width="0.778894" stroke-linecap="round" stroke-linejoin="round"/>
<path d="M82.7434 136.654C82.7434 136.654 79.6486 134.14 75.6562 133.845" stroke="#263238" stroke-width="0.778894" stroke-linecap="round" stroke-linejoin="round"/>
<path d="M84.0742 135.175C84.0742 135.175 79.1999 131.183 73.1433 131.183C68.5445 131.183 62.9521 132.218 62.9521 132.218" stroke="#263238" stroke-width="0.778894" stroke-linecap="round" stroke-linejoin="round"/>
<path d="M84.5166 131.626C84.5166 131.626 80.6759 128.814 77.2778 128.526C73.8797 128.238 69.5996 128.96 69.5996 128.96" stroke="#263238" stroke-width="0.778894" stroke-linecap="round" stroke-linejoin="round"/>
<path d="M84.7983 128.076C84.7983 128.076 81.9944 125.559 78.1538 124.976C75.7536 124.625 73.3152 124.625 70.915 124.976" stroke="#263238" stroke-width="0.778894" stroke-linecap="round" stroke-linejoin="round"/>
<path d="M86.2871 129.112C86.2871 129.112 91.016 125.702 98.9758 126.595" stroke="#263238" stroke-width="0.778894" stroke-linecap="round" stroke-linejoin="round"/>
<path d="M85.9932 132.37C85.9932 132.37 88.3576 130.597 94.411 130.597" stroke="#263238" stroke-width="0.778894" stroke-linecap="round" stroke-linejoin="round"/>
<path d="M86.4346 135.47C86.4346 135.47 91.3089 133.545 95.7406 133.988C100.172 134.431 100.76 134.729 106.226 135.321" stroke="#263238" stroke-width="0.778894" stroke-linecap="round" stroke-linejoin="round"/>
<path d="M89.0938 137.544C91.5066 136.687 94.0808 136.382 96.6265 136.654" stroke="#263238" stroke-width="0.778894" stroke-linecap="round" stroke-linejoin="round"/>
<path d="M97.2178 130.739C97.2178 130.739 101.944 131.034 104.305 131.92" stroke="#263238" stroke-width="0.778894" stroke-linecap="round" stroke-linejoin="round"/>
<path d="M68.8597 125.265L65.9072 126.003" stroke="#263238" stroke-width="0.778894" stroke-linecap="round" stroke-linejoin="round"/>
<path d="M61.1817 132.81L58.9658 133.399" stroke="#263238" stroke-width="0.778894" stroke-linecap="round" stroke-linejoin="round"/>
<path d="M100.761 127.038L103.125 127.484" stroke="#263238" stroke-width="0.778894" stroke-linecap="round" stroke-linejoin="round"/>
<path d="M135.321 136.211C135.321 136.211 141.672 136.654 144.033 136.654" stroke="#263238" stroke-width="0.778894" stroke-linecap="round" stroke-linejoin="round"/>
<path d="M144.032 135.619L141.522 135.473" stroke="#263238" stroke-width="0.778894" stroke-linecap="round" stroke-linejoin="round"/>
<path d="M135.172 132.512C135.172 132.512 140.195 132.822 142.705 133.105" stroke="#263238" stroke-width="0.778894" stroke-linecap="round" stroke-linejoin="round"/>
<path d="M43.1641 130.147C46.1646 129.821 49.1299 129.227 52.0245 128.371" stroke="#263238" stroke-width="0.778894" stroke-linecap="round" stroke-linejoin="round"/>
<path d="M46.5586 131.477C46.5586 131.477 50.1052 131.183 52.1726 130.442" stroke="#263238" stroke-width="0.778894" stroke-linecap="round" stroke-linejoin="round"/>
<path d="M140.932 129.85C140.932 129.85 136.797 130.442 130.889 129.112C127.526 128.338 124.125 127.745 120.698 127.336" stroke="#263238" stroke-width="0.778894" stroke-linecap="round" stroke-linejoin="round"/>
<path d="M128.379 136.509L132.365 136.654" stroke="#263238" stroke-width="0.778894" stroke-linecap="round" stroke-linejoin="round"/>
<path d="M150.974 44.7856L149.35 65.7943" stroke="#263238" stroke-width="0.778894" stroke-linecap="round" stroke-linejoin="round"/>
<path d="M151.863 50.2601L151.123 59.433" stroke="#263238" stroke-width="0.778894" stroke-linecap="round" stroke-linejoin="round"/>
<path d="M149.204 84.7291L147.725 104.11" stroke="#263238" stroke-width="0.778894" stroke-linecap="round" stroke-linejoin="round"/>
<path d="M146.989 109.731L145.513 129.112" stroke="#263238" stroke-width="0.778894" stroke-linecap="round" stroke-linejoin="round"/>
<path d="M148.093 82.5095L147.137 95.0862" stroke="#263238" stroke-width="0.778894" stroke-linecap="round" stroke-linejoin="round"/>
<path d="M146.911 97.3026L145.955 109.879" stroke="#263238" stroke-width="0.778894" stroke-linecap="round" stroke-linejoin="round"/>
<path d="M98.2578 46.8316C98.2578 46.8316 104.519 42.4389 115.793 44.3206" stroke="#B2B2B2" stroke-width="0.778894" stroke-linecap="round" stroke-linejoin="round"/>
<path d="M97.9258 49.6309C97.9258 49.6309 104.205 45.2227 115.48 47.0641" stroke="#B2B2B2" stroke-width="0.778894" stroke-linecap="round" stroke-linejoin="round"/>
<path d="M97.5977 52.4302C97.5977 52.4302 103.893 48.0065 115.167 49.8045" stroke="#B2B2B2" stroke-width="0.778894" stroke-linecap="round" stroke-linejoin="round"/>
<path d="M97.2705 55.2265C97.2705 55.2265 103.581 50.7873 114.852 52.545" stroke="#B2B2B2" stroke-width="0.778894" stroke-linecap="round" stroke-linejoin="round"/>
<path d="M96.9395 58.0257C96.9395 58.0257 103.268 53.571 114.54 55.2884" stroke="#B2B2B2" stroke-width="0.778894" stroke-linecap="round" stroke-linejoin="round"/>
<path d="M96.6104 60.825C96.6104 60.825 102.952 56.3548 114.226 58.035" stroke="#B2B2B2" stroke-width="0.778894" stroke-linecap="round" stroke-linejoin="round"/>
<path d="M96.2803 63.6243C96.2803 63.6243 102.64 59.1355 113.921 60.7692" stroke="#B2B2B2" stroke-width="0.778894" stroke-linecap="round" stroke-linejoin="round"/>
<path d="M95.9395 66.4236C95.9395 66.4236 102.315 61.9193 113.58 63.5096" stroke="#B2B2B2" stroke-width="0.778894" stroke-linecap="round" stroke-linejoin="round"/>
<path d="M95.6299 69.2228C95.6299 69.2228 102.021 64.703 113.292 66.253" stroke="#B2B2B2" stroke-width="0.778894" stroke-linecap="round" stroke-linejoin="round"/>
<path d="M95.293 72.0222C95.293 72.0222 101.702 67.4838 112.974 68.9935" stroke="#B2B2B2" stroke-width="0.778894" stroke-linecap="round" stroke-linejoin="round"/>
<path d="M94.9648 74.8215C94.9648 74.8215 101.387 70.2676 112.661 71.7215" stroke="#B2B2B2" stroke-width="0.778894" stroke-linecap="round" stroke-linejoin="round"/>
<path d="M94.6357 77.6178C94.6357 77.6178 101.073 73.0515 112.347 74.4744" stroke="#B2B2B2" stroke-width="0.778894" stroke-linecap="round" stroke-linejoin="round"/>
<path d="M94.3057 80.417C94.3057 80.417 100.761 75.8321 112.036 77.2178" stroke="#B2B2B2" stroke-width="0.778894" stroke-linecap="round" stroke-linejoin="round"/>
<path d="M93.9775 83.2162C93.9775 83.2162 100.449 78.6158 111.723 79.9581" stroke="#B2B2B2" stroke-width="0.778894" stroke-linecap="round" stroke-linejoin="round"/>
<path d="M93.6455 86.0156C93.6455 86.0156 100.145 81.3997 111.407 82.6986" stroke="#B2B2B2" stroke-width="0.778894" stroke-linecap="round" stroke-linejoin="round"/>
<path d="M93.3184 88.8149C93.3184 88.8149 99.8175 84.1835 111.095 85.439" stroke="#B2B2B2" stroke-width="0.778894" stroke-linecap="round" stroke-linejoin="round"/>
<path d="M92.9902 91.6143C92.9902 91.6143 99.5079 86.9643 110.782 88.1826" stroke="#B2B2B2" stroke-width="0.778894" stroke-linecap="round" stroke-linejoin="round"/>
<path d="M92.6592 94.4136C92.6592 94.4136 99.1954 89.7481 110.485 90.923" stroke="#B2B2B2" stroke-width="0.778894" stroke-linecap="round" stroke-linejoin="round"/>
<path d="M92.3311 97.2129C92.3311 97.2129 98.8828 92.5319 110.157 93.6634" stroke="#B2B2B2" stroke-width="0.778894" stroke-linecap="round" stroke-linejoin="round"/>
<path d="M92.0029 100.009C92.0029 100.009 98.5701 95.3124 109.841 96.4098" stroke="#B2B2B2" stroke-width="0.778894" stroke-linecap="round" stroke-linejoin="round"/>
<path d="M91.6719 102.808C91.6719 102.808 98.2576 98.0963 109.529 99.1472" stroke="#B2B2B2" stroke-width="0.778894" stroke-linecap="round" stroke-linejoin="round"/>
<path d="M91.3438 105.608C91.3438 105.608 97.9419 100.88 109.216 101.888" stroke="#B2B2B2" stroke-width="0.778894" stroke-linecap="round" stroke-linejoin="round"/>
<path d="M91.0127 108.407C91.0127 108.407 97.6294 103.661 108.904 104.628" stroke="#B2B2B2" stroke-width="0.778894" stroke-linecap="round" stroke-linejoin="round"/>
<path d="M90.6787 111.206C90.6787 111.206 97.3109 106.445 108.585 107.372" stroke="#B2B2B2" stroke-width="0.778894" stroke-linecap="round" stroke-linejoin="round"/>
<path d="M90.3691 114.006C90.3691 114.006 97.0168 109.228 108.291 110.112" stroke="#B2B2B2" stroke-width="0.778894" stroke-linecap="round" stroke-linejoin="round"/>
<path d="M90.0254 116.805C90.0254 116.805 96.6916 112.009 107.975 112.852" stroke="#B2B2B2" stroke-width="0.778894" stroke-linecap="round" stroke-linejoin="round"/>
<path d="M89.6973 119.604C89.6973 119.604 96.379 114.793 107.647 115.593" stroke="#B2B2B2" stroke-width="0.778894" stroke-linecap="round" stroke-linejoin="round"/>
<path d="M121.008 44.7393C121.008 44.7393 129.775 43.4993 142.093 49.969" stroke="#B2B2B2" stroke-width="0.778894" stroke-linecap="round" stroke-linejoin="round"/>
<path d="M120.698 47.5074C120.698 47.5074 129.602 46.3232 141.823 52.7185" stroke="#B2B2B2" stroke-width="0.778894" stroke-linecap="round" stroke-linejoin="round"/>
<path d="M120.389 50.2726C120.389 50.2726 129.429 49.1628 141.554 55.4682" stroke="#B2B2B2" stroke-width="0.778894" stroke-linecap="round" stroke-linejoin="round"/>
<path d="M120.098 53.0409C120.098 53.0409 129.274 52.0024 141.3 58.221" stroke="#B2B2B2" stroke-width="0.778894" stroke-linecap="round" stroke-linejoin="round"/>
<path d="M119.791 55.8C119.791 55.8 129.106 54.8359 141.037 60.9646" stroke="#B2B2B2" stroke-width="0.778894" stroke-linecap="round" stroke-linejoin="round"/>
<path d="M119.484 58.5898C119.484 58.5898 128.936 57.697 140.77 63.7358" stroke="#B2B2B2" stroke-width="0.778894" stroke-linecap="round" stroke-linejoin="round"/>
<path d="M119.182 61.3397C119.182 61.3397 128.776 60.5213 140.508 66.4733" stroke="#B2B2B2" stroke-width="0.778894" stroke-linecap="round" stroke-linejoin="round"/>
<path d="M118.875 64.1079C118.875 64.1079 128.599 63.3577 140.229 69.2229" stroke="#B2B2B2" stroke-width="0.778894" stroke-linecap="round" stroke-linejoin="round"/>
<path d="M118.572 66.8731C118.572 66.8731 128.432 66.1973 139.976 71.9726" stroke="#B2B2B2" stroke-width="0.778894" stroke-linecap="round" stroke-linejoin="round"/>
<path d="M118.266 69.6415C118.266 69.6415 128.262 69.0215 139.713 74.7224" stroke="#B2B2B2" stroke-width="0.778894" stroke-linecap="round" stroke-linejoin="round"/>
<path d="M117.959 72.4067C117.959 72.4067 128.094 71.8766 139.446 77.4752" stroke="#B2B2B2" stroke-width="0.778894" stroke-linecap="round" stroke-linejoin="round"/>
<path d="M117.655 75.175C117.655 75.175 127.924 74.7162 139.183 80.2249" stroke="#B2B2B2" stroke-width="0.778894" stroke-linecap="round" stroke-linejoin="round"/>
<path d="M117.35 77.94C117.35 77.94 127.757 77.5556 138.917 82.9744" stroke="#B2B2B2" stroke-width="0.778894" stroke-linecap="round" stroke-linejoin="round"/>
<path d="M117.046 80.7086C117.046 80.7086 127.587 80.3986 138.651 85.7275" stroke="#B2B2B2" stroke-width="0.778894" stroke-linecap="round" stroke-linejoin="round"/>
<path d="M116.739 83.4736C116.739 83.4736 127.419 83.2319 138.403 88.4771" stroke="#B2B2B2" stroke-width="0.778894" stroke-linecap="round" stroke-linejoin="round"/>
<path d="M116.433 86.2419C116.433 86.2419 127.249 86.0714 138.121 91.2267" stroke="#B2B2B2" stroke-width="0.778894" stroke-linecap="round" stroke-linejoin="round"/>
<path d="M116.13 89.0071C116.13 89.0071 127.082 88.911 137.855 93.9671" stroke="#B2B2B2" stroke-width="0.778894" stroke-linecap="round" stroke-linejoin="round"/>
<path d="M115.824 91.7755C115.824 91.7755 126.913 91.7507 137.593 96.7355" stroke="#B2B2B2" stroke-width="0.778894" stroke-linecap="round" stroke-linejoin="round"/>
<path d="M115.521 94.5499C115.521 94.5499 126.745 94.5995 137.327 99.4882" stroke="#B2B2B2" stroke-width="0.778894" stroke-linecap="round" stroke-linejoin="round"/>
<path d="M115.214 97.309C115.214 97.309 126.575 97.4299 137.063 102.229" stroke="#B2B2B2" stroke-width="0.778894" stroke-linecap="round" stroke-linejoin="round"/>
<path d="M114.91 100.074C114.91 100.074 126.407 100.266 136.797 104.981" stroke="#B2B2B2" stroke-width="0.778894" stroke-linecap="round" stroke-linejoin="round"/>
<path d="M114.604 102.842C114.604 102.842 126.238 103.106 136.531 107.731" stroke="#B2B2B2" stroke-width="0.778894" stroke-linecap="round" stroke-linejoin="round"/>
<path d="M114.298 105.608C114.298 105.608 126.058 105.946 136.271 110.481" stroke="#B2B2B2" stroke-width="0.778894" stroke-linecap="round" stroke-linejoin="round"/>
<path d="M113.994 108.376C113.994 108.376 125.9 108.785 136.001 113.234" stroke="#B2B2B2" stroke-width="0.778894" stroke-linecap="round" stroke-linejoin="round"/>
<path d="M113.688 111.141C113.688 111.141 125.732 111.625 135.738 115.983" stroke="#B2B2B2" stroke-width="0.778894" stroke-linecap="round" stroke-linejoin="round"/>
<path d="M113.385 113.91C113.385 113.91 125.563 114.464 135.472 118.733" stroke="#B2B2B2" stroke-width="0.778894" stroke-linecap="round" stroke-linejoin="round"/>
<path d="M113.079 116.675C113.079 116.675 125.396 117.295 135.207 121.486" stroke="#B2B2B2" stroke-width="0.778894" stroke-linecap="round" stroke-linejoin="round"/>
<path d="M57.7871 48.174C57.7871 48.174 60.8819 44.5315 70.9091 44.3207" stroke="#B2B2B2" stroke-width="0.778894" stroke-linecap="round" stroke-linejoin="round"/>
<path d="M57.4092 50.9515C57.4092 50.9515 60.504 47.3617 70.5466 47.0889" stroke="#B2B2B2" stroke-width="0.778894" stroke-linecap="round" stroke-linejoin="round"/>
<path d="M57.0283 53.7323C57.0283 53.7323 60.1231 50.1921 70.1843 49.8542" stroke="#B2B2B2" stroke-width="0.778894" stroke-linecap="round" stroke-linejoin="round"/>
<path d="M56.6504 56.5128C56.6504 56.5128 59.7452 53.0253 69.825 52.6223" stroke="#B2B2B2" stroke-width="0.778894" stroke-linecap="round" stroke-linejoin="round"/>
<path d="M56.2734 59.2906C56.2734 59.2906 59.3682 55.8558 69.4635 55.3877" stroke="#B2B2B2" stroke-width="0.778894" stroke-linecap="round" stroke-linejoin="round"/>
<path d="M55.8926 62.0713C55.8926 62.0713 58.9874 58.6861 69.1012 58.156" stroke="#B2B2B2" stroke-width="0.778894" stroke-linecap="round" stroke-linejoin="round"/>
<path d="M55.5146 64.8488C55.5146 64.8488 58.6095 61.5163 68.7388 60.9211" stroke="#B2B2B2" stroke-width="0.778894" stroke-linecap="round" stroke-linejoin="round"/>
<path d="M55.1377 67.6296C55.1377 67.6296 58.2325 64.3498 68.3804 63.6895" stroke="#B2B2B2" stroke-width="0.778894" stroke-linecap="round" stroke-linejoin="round"/>
<path d="M54.7568 70.4102C54.7568 70.4102 57.8702 67.18 68.0181 66.4546" stroke="#B2B2B2" stroke-width="0.778894" stroke-linecap="round" stroke-linejoin="round"/>
<path d="M54.3789 73.1878C54.3789 73.1878 57.4923 70.0103 67.6556 69.2229" stroke="#B2B2B2" stroke-width="0.778894" stroke-linecap="round" stroke-linejoin="round"/>
<path d="M54.002 75.9687C54.002 75.9532 57.1153 72.8408 67.2941 71.9883" stroke="#B2B2B2" stroke-width="0.778894" stroke-linecap="round" stroke-linejoin="round"/>
<path d="M53.624 78.7399C53.624 78.7244 56.7374 75.6678 66.9317 74.7502" stroke="#B2B2B2" stroke-width="0.778894" stroke-linecap="round" stroke-linejoin="round"/>
<path d="M53.2305 81.5299C53.2459 81.5113 56.3469 78.5074 66.5598 77.5247" stroke="#B2B2B2" stroke-width="0.778894" stroke-linecap="round" stroke-linejoin="round"/>
<path d="M52.8662 84.32C52.8817 84.2983 55.9827 81.3471 66.211 80.29" stroke="#B2B2B2" stroke-width="0.778894" stroke-linecap="round" stroke-linejoin="round"/>
<path d="M52.4883 87.0852C52.5038 87.0635 55.6048 84.165 65.8486 83.0552" stroke="#B2B2B2" stroke-width="0.778894" stroke-linecap="round" stroke-linejoin="round"/>
<path d="M52.1074 89.8658C52.126 89.841 55.227 86.9983 65.4894 85.8358" stroke="#B2B2B2" stroke-width="0.778894" stroke-linecap="round" stroke-linejoin="round"/>
<path d="M51.7305 92.6434C51.749 92.6186 54.85 89.8286 65.1279 88.5886" stroke="#B2B2B2" stroke-width="0.778894" stroke-linecap="round" stroke-linejoin="round"/>
<path d="M51.3525 95.4241C51.3711 95.3962 54.4721 92.6589 64.7654 91.3569" stroke="#B2B2B2" stroke-width="0.778894" stroke-linecap="round" stroke-linejoin="round"/>
<path d="M50.9717 98.2048C50.9933 98.1769 54.0943 95.4892 64.4031 94.1221" stroke="#B2B2B2" stroke-width="0.778894" stroke-linecap="round" stroke-linejoin="round"/>
<path d="M50.5947 100.982C50.6164 100.954 53.7174 98.3226 64.0448 96.8904" stroke="#B2B2B2" stroke-width="0.778894" stroke-linecap="round" stroke-linejoin="round"/>
<path d="M50.2168 103.763C50.2385 103.732 53.3395 101.153 63.6823 99.6558" stroke="#B2B2B2" stroke-width="0.778894" stroke-linecap="round" stroke-linejoin="round"/>
<path d="M49.8271 106.541C49.855 106.51 52.9529 103.983 63.3112 102.424" stroke="#B2B2B2" stroke-width="0.778894" stroke-linecap="round" stroke-linejoin="round"/>
<path d="M49.458 109.322C49.4859 109.287 52.5838 106.814 62.9576 105.189" stroke="#B2B2B2" stroke-width="0.778894" stroke-linecap="round" stroke-linejoin="round"/>
<path d="M49.0811 112.102C49.1089 112.065 52.2068 109.647 62.5992 107.958" stroke="#B2B2B2" stroke-width="0.778894" stroke-linecap="round" stroke-linejoin="round"/>
<path d="M48.7002 114.88C48.7311 114.843 51.8321 112.477 62.2369 110.723" stroke="#B2B2B2" stroke-width="0.778894" stroke-linecap="round" stroke-linejoin="round"/>
<path d="M48.3223 117.66C48.3532 117.62 51.4542 115.308 61.8744 113.491" stroke="#B2B2B2" stroke-width="0.778894" stroke-linecap="round" stroke-linejoin="round"/>
<path d="M47.9453 120.438C47.9763 120.398 51.0773 118.138 61.5129 116.256" stroke="#B2B2B2" stroke-width="0.778894" stroke-linecap="round" stroke-linejoin="round"/>
<path d="M74.876 43.4867C74.876 43.4867 82.418 40.768 89.4897 45.5761" stroke="#B2B2B2" stroke-width="0.778894" stroke-linecap="round" stroke-linejoin="round"/>
<path d="M74.5293 46.2457C74.5293 46.2457 82.0466 43.5425 89.208 48.3041" stroke="#B2B2B2" stroke-width="0.778894" stroke-linecap="round" stroke-linejoin="round"/>
<path d="M74.1826 49.0016C74.1826 49.0016 81.6751 46.317 88.9263 51.029" stroke="#B2B2B2" stroke-width="0.778894" stroke-linecap="round" stroke-linejoin="round"/>
<path d="M73.8398 51.77C73.8398 51.77 81.3076 49.1009 88.6454 53.7664" stroke="#B2B2B2" stroke-width="0.778894" stroke-linecap="round" stroke-linejoin="round"/>
<path d="M73.4932 54.5196C75.9686 53.7878 78.5697 53.5843 81.1285 53.9223C83.6873 54.2603 86.1469 55.1323 88.3482 56.4819" stroke="#B2B2B2" stroke-width="0.778894" stroke-linecap="round" stroke-linejoin="round"/>
<path d="M73.1494 57.2786C75.6363 56.548 78.2476 56.3424 80.8179 56.6748C83.3883 57.0073 85.8618 57.8705 88.0819 59.2099" stroke="#B2B2B2" stroke-width="0.778894" stroke-linecap="round" stroke-linejoin="round"/>
<path d="M72.8027 60.0376C75.2998 59.3105 77.9192 59.1036 80.4992 59.4299C83.0792 59.7562 85.565 60.6088 87.8033 61.9348" stroke="#B2B2B2" stroke-width="0.778894" stroke-linecap="round" stroke-linejoin="round"/>
<path d="M72.459 62.7967C72.459 62.7967 79.8246 60.1896 87.5214 64.6567" stroke="#B2B2B2" stroke-width="0.778894" stroke-linecap="round" stroke-linejoin="round"/>
<path d="M72.1094 65.5557C72.1094 65.5557 79.4503 62.9641 87.2368 67.3878" stroke="#B2B2B2" stroke-width="0.778894" stroke-linecap="round" stroke-linejoin="round"/>
<path d="M71.7695 68.3147C71.7695 68.3147 79.0857 65.7386 86.9589 70.1158" stroke="#B2B2B2" stroke-width="0.778894" stroke-linecap="round" stroke-linejoin="round"/>
<path d="M71.4219 71.0736C71.4219 71.0736 78.7132 68.5161 86.6762 72.8406" stroke="#B2B2B2" stroke-width="0.778894" stroke-linecap="round" stroke-linejoin="round"/>
<path d="M71.0762 73.8296C71.0762 73.8296 78.3428 71.2907 86.3986 75.5687" stroke="#B2B2B2" stroke-width="0.778894" stroke-linecap="round" stroke-linejoin="round"/>
<path d="M70.7324 76.5885C70.7324 76.5885 77.9743 74.0651 86.1167 78.2935" stroke="#B2B2B2" stroke-width="0.778894" stroke-linecap="round" stroke-linejoin="round"/>
<path d="M70.3857 79.36C70.3857 79.36 77.6028 76.8521 85.835 81.034" stroke="#B2B2B2" stroke-width="0.778894" stroke-linecap="round" stroke-linejoin="round"/>
<path d="M70.042 82.1066C70.042 82.1066 77.2312 79.6266 85.5532 83.7465" stroke="#B2B2B2" stroke-width="0.778894" stroke-linecap="round" stroke-linejoin="round"/>
<path d="M69.6953 84.8655C69.6953 84.8655 76.8629 82.3855 85.2715 86.4744" stroke="#B2B2B2" stroke-width="0.778894" stroke-linecap="round" stroke-linejoin="round"/>
<path d="M69.3516 87.6245C69.3516 87.6245 76.4913 85.1631 84.9927 89.1993" stroke="#B2B2B2" stroke-width="0.778894" stroke-linecap="round" stroke-linejoin="round"/>
<path d="M69.0146 90.3837C69.0146 90.3837 76.1327 87.9378 84.7208 91.9337" stroke="#B2B2B2" stroke-width="0.778894" stroke-linecap="round" stroke-linejoin="round"/>
<path d="M68.6621 93.1426C68.6621 93.1426 75.7523 90.7122 84.4302 94.6554" stroke="#B2B2B2" stroke-width="0.778894" stroke-linecap="round" stroke-linejoin="round"/>
<path d="M68.3154 95.9015C68.3154 95.9015 75.3809 93.4866 84.1485 97.3802" stroke="#B2B2B2" stroke-width="0.778894" stroke-linecap="round" stroke-linejoin="round"/>
<path d="M67.9688 98.6606C67.9688 98.6606 75.0094 96.2612 83.8668 100.108" stroke="#B2B2B2" stroke-width="0.778894" stroke-linecap="round" stroke-linejoin="round"/>
<path d="M67.625 101.416C67.625 101.416 74.6378 99.0356 83.588 102.833" stroke="#B2B2B2" stroke-width="0.778894" stroke-linecap="round" stroke-linejoin="round"/>
<path d="M67.2783 104.175C67.2783 104.175 74.2695 101.813 83.3063 105.561" stroke="#B2B2B2" stroke-width="0.778894" stroke-linecap="round" stroke-linejoin="round"/>
<path d="M66.9355 106.95C66.9355 106.95 73.8989 104.603 83.0285 108.301" stroke="#B2B2B2" stroke-width="0.778894" stroke-linecap="round" stroke-linejoin="round"/>
<path d="M66.5879 109.694C66.5879 109.694 73.5264 107.362 82.7428 111.014" stroke="#B2B2B2" stroke-width="0.778894" stroke-linecap="round" stroke-linejoin="round"/>
<path d="M66.2441 112.453C66.2441 112.453 73.1579 110.137 82.4609 113.739" stroke="#B2B2B2" stroke-width="0.778894" stroke-linecap="round" stroke-linejoin="round"/>
<path d="M65.8984 115.211C65.8984 115.211 72.7875 112.911 82.1833 116.467" stroke="#B2B2B2" stroke-width="0.778894" stroke-linecap="round" stroke-linejoin="round"/>
<path d="M97.979 35.0827L93.668 74.5148L97.5272 69.0618L100.477 72.23L104.562 32.6833C104.562 32.6833 100.928 32.9251 97.979 35.0827Z" fill="#263238" stroke="#263238" stroke-width="0.778894" stroke-linecap="round" stroke-linejoin="round"/>
<path d="M26.2469 141.267C26.2469 141.267 25.8507 141.416 26.1974 141.763C26.544 142.11 27.9366 142.361 29.1777 142.262C30.2544 142.125 31.3072 141.84 32.3065 141.416C32.8017 141.218 32.4551 140.123 32.4551 140.123L26.2469 141.267Z" fill="#263238" stroke="#263238" stroke-width="0.778894" stroke-linecap="round" stroke-linejoin="round"/>
<path d="M28.4721 132.224C28.4721 132.224 29.2179 137.736 29.2179 137.984C29.2179 138.232 27.2806 140.421 26.3367 140.917C25.3928 141.413 27.8284 141.862 28.8713 141.763C29.9143 141.664 31.4524 141.366 31.7495 141.168C32.0466 140.969 32.3963 140.817 32.4458 140.123C32.4953 139.429 32.0992 137.287 32.0992 137.287L32.1859 132.041L28.4721 132.224Z" fill="white" stroke="#263238" stroke-width="0.778894" stroke-linecap="round" stroke-linejoin="round"/>
<path d="M32.1208 137.361C31.1503 137.581 30.1462 137.608 29.1652 137.442C29.2024 137.752 29.2271 137.941 29.2271 137.984C29.087 138.271 28.9009 138.533 28.6763 138.759C29.1683 138.669 30.168 138.576 30.8055 139.097C31.279 139.484 31.4833 140.173 31.4059 141.14C31.403 141.194 31.4114 141.248 31.4306 141.298C31.545 141.268 31.6552 141.225 31.7587 141.168C31.887 141.089 32.0091 141.001 32.1239 140.904C32.1548 139.841 31.8639 139.044 31.2511 138.545C31.1113 138.432 30.9586 138.335 30.7962 138.257C31.2827 138.235 31.7663 138.171 32.2415 138.065C32.1858 137.742 32.1425 137.482 32.1208 137.361Z" fill="#263238"/>
<path d="M30.428 139.674C29.7901 139.289 29.046 139.12 28.305 139.19C28.0636 139.454 27.7974 139.726 27.5312 139.984C28.2833 139.857 29.3881 139.807 30.0071 140.263C30.1986 140.406 30.3527 140.594 30.4562 140.81C30.5596 141.026 30.6094 141.263 30.6013 141.503C30.6013 141.503 30.6013 141.503 30.6013 141.518C30.8613 141.465 31.1027 141.41 31.2976 141.354C31.2888 141.026 31.2059 140.705 31.0553 140.414C30.9047 140.123 30.6902 139.87 30.428 139.674Z" fill="#263238"/>
<path d="M45.6637 140.929C45.6169 140.961 45.5769 141.002 45.5464 141.05C45.5159 141.098 45.4954 141.151 45.4861 141.207C45.4768 141.263 45.479 141.32 45.4925 141.375C45.506 141.43 45.5306 141.482 45.5647 141.527C45.8123 141.875 46.7067 141.875 47.2018 141.875C47.697 141.875 50.2812 141.924 50.2812 141.924C50.2812 141.924 54.0537 141.875 54.6139 141.726C55.1741 141.577 55.2081 141.279 55.01 141.128C54.8267 141.034 54.6194 141 54.4158 141.028C53.5089 141.137 52.5934 141.154 51.6831 141.078C50.5906 140.929 47.3132 140.979 46.8181 140.929C46.4338 140.901 46.048 140.901 45.6637 140.929Z" fill="#263238" stroke="#263238" stroke-width="0.778894" stroke-linecap="round" stroke-linejoin="round"/>
<path d="M43.9062 132.454C43.9062 132.454 45.5651 137.448 45.6146 137.696C45.6887 138.209 45.7218 138.727 45.7136 139.246C45.7136 139.94 45.2649 140.687 46.0602 141.183C46.8556 141.679 49.0405 141.335 50.133 141.434C51.2572 141.509 52.3852 141.509 53.5094 141.434C54.998 141.385 55.5458 140.588 55.1961 140.439C54.8464 140.291 54.7009 140.687 53.0607 139.742C51.4204 138.796 48.5423 137.404 48.4432 137.107C48.3442 136.809 47.7995 132.432 47.7995 132.432L43.9062 132.454Z" fill="white" stroke="#263238" stroke-width="0.778894" stroke-linecap="round" stroke-linejoin="round"/>
<path d="M51.3743 138.812C51.0637 139.665 50.9086 140.567 50.9163 141.475C51.1515 141.475 51.3867 141.475 51.6281 141.475C51.6237 140.682 51.7513 139.894 52.0057 139.144L51.3743 138.812Z" fill="#263238"/>
<path d="M47.8863 141.453C48.0121 140.095 48.5402 138.806 49.4027 137.752C49.1552 137.612 48.9416 137.485 48.7838 137.38C47.8581 138.542 47.2999 139.955 47.1807 141.438C47.4004 141.453 47.6387 141.456 47.8863 141.453Z" fill="#263238"/>
<path d="M48.4427 137.101C48.4272 137.054 48.4025 136.909 48.3684 136.698C47.4253 136.968 46.4523 137.12 45.4717 137.15C45.5521 137.445 45.6048 137.649 45.614 137.696L45.6388 137.86C46.6805 137.82 47.7126 137.644 48.7089 137.336C48.6044 137.278 48.5137 137.197 48.4427 137.101Z" fill="#263238"/>
<path d="M40.0036 62.3534C40.0036 62.3534 40.2388 64.4676 40.6782 65.3759C41.1177 66.2842 42.173 67.022 41.9162 68.9006C41.6593 70.7792 40.2728 71.7495 39.5393 71.8983C39.1327 71.9854 38.7171 72.0239 38.3014 72.013L38.4469 74.0993C39.6499 74.0542 40.8537 74.1667 42.0276 74.4341C43.5564 74.8588 46.0508 75.7082 47.1588 75.8787C48.2667 76.0492 52.5004 76.2662 53.3484 77.1993C54.1964 78.1324 53.9828 78.9849 53.4753 79.4933C52.9677 80.0017 50.2969 79.8715 46.7781 79.8715H43.2624C43.2624 79.8715 44.067 81.9516 43.9402 83.4396C43.8133 84.9276 42.5413 87.5595 42.5413 87.5595C42.5413 87.5595 42.6682 90.5324 42.922 92.8295C43.1757 95.1266 43.2314 96.6084 43.2314 96.6084C43.2314 96.6084 44.6303 106.079 46.2829 112.366C47.9356 118.652 47.7684 128.036 48.1924 129.692C48.6164 131.347 48.8578 132.99 48.8578 132.99C48.8578 132.99 44.7881 133.796 43.346 133.883C42.6405 133.934 41.9329 133.948 41.226 133.926L40.378 125.643C40.378 125.643 38.7254 114.644 38.6388 114.483C38.5521 114.322 36.1815 106.243 36.1815 106.243L34.696 120.59L33.2971 133.669L26.9249 132.875L27.0518 117.034C27.0518 117.034 26.7145 107.818 26.798 103.996C26.8816 100.173 28.07 96.7758 29.1284 95.4149C30.1868 94.054 32.8174 90.1449 32.8174 90.1449L32.3532 87.4696L29.8774 82.5871C29.8774 82.5871 24.1767 86.6915 23.2019 87.3735C22.227 88.0555 21.0355 87.544 20.726 85.9289C20.4165 84.3138 27.9957 77.6178 29.1841 76.7684C30.3725 75.919 34.4453 73.625 34.4453 73.625L34.2751 71.5852C34.2751 71.5852 32.8329 71.1202 32.3253 69.9732C31.8178 68.8262 33.6809 67.3816 33.7242 66.4485C33.7675 65.5154 33.0464 63.8135 34.2318 63.3888C35.4171 62.9641 40.0036 62.3534 40.0036 62.3534Z" fill="white" stroke="#263238" stroke-width="0.778894" stroke-linecap="round" stroke-linejoin="round"/>
<path d="M41.226 133.938C41.9329 133.961 42.6405 133.946 43.3459 133.895C44.7881 133.808 48.8578 133.002 48.8578 133.002C48.8578 133.002 48.604 131.347 48.18 129.688C47.756 128.03 47.9262 118.646 46.2705 112.362C44.6148 106.079 43.219 96.6052 43.219 96.6052C43.219 96.6052 43.1757 95.1172 42.9095 92.8263C42.8012 91.8591 42.7177 90.771 42.6558 89.8379L32.7802 89.9247L32.8174 90.1479C32.8174 90.1479 30.1899 94.057 29.1284 95.4179C28.0668 96.7788 26.8815 100.176 26.798 103.999C26.7144 107.821 27.0517 117.037 27.0517 117.037L26.9249 132.875L33.2847 133.681L34.6959 120.59L36.1814 106.234C36.1814 106.234 38.5551 114.294 38.6387 114.474C38.7223 114.653 40.378 125.634 40.378 125.634L41.226 133.938Z" fill="#7CB7FB" stroke="#263238" stroke-width="0.778894" stroke-linecap="round" stroke-linejoin="round"/>
<path d="M39.3262 93.1396L42.3529 93.0962" stroke="#263238" stroke-width="0.778894" stroke-linecap="round" stroke-linejoin="round"/>
<path d="M34.9434 93.2046L38.5798 93.1519" stroke="#263238" stroke-width="0.778894" stroke-linecap="round" stroke-linejoin="round"/>
<path d="M40.6934 93.1488L41.4145 99.5193" stroke="#263238" stroke-width="0.778894" stroke-linecap="round" stroke-linejoin="round"/>
<path d="M41.1924 93.9796L42.8512 101.46" stroke="#263238" stroke-width="0.778894" stroke-linecap="round" stroke-linejoin="round"/>
<path d="M34.4453 93.7596L33.0093 99.1877" stroke="#263238" stroke-width="0.778894" stroke-linecap="round" stroke-linejoin="round"/>
<path d="M34.0334 100.437L33.9468 101.292" stroke="#263238" stroke-width="0.778894" stroke-linecap="round" stroke-linejoin="round"/>
<path d="M34.6123 94.6461L34.1357 99.4108" stroke="#263238" stroke-width="0.778894" stroke-linecap="round" stroke-linejoin="round"/>
<path d="M35.9961 65.1402C36.1775 64.9624 36.3948 64.8256 36.6334 64.7389C36.8721 64.6523 37.1265 64.6179 37.3795 64.638" stroke="#263238" stroke-width="0.778894" stroke-miterlimit="10"/>
<path d="M39.1465 63.9623C39.3498 63.7288 39.6341 63.5815 39.9418 63.55" stroke="#263238" stroke-width="0.778894" stroke-miterlimit="10"/>
<path d="M42.1423 65.2054C42.1423 65.504 42.0539 65.7959 41.8883 66.0441C41.7227 66.2924 41.4873 66.4859 41.2119 66.6002C40.9365 66.7144 40.6334 66.7443 40.3411 66.6861C40.0487 66.6278 39.7802 66.484 39.5694 66.2729C39.3586 66.0618 39.215 65.7928 39.1569 65.4999C39.0987 65.2071 39.1286 64.9035 39.2427 64.6276C39.3567 64.3518 39.5499 64.116 39.7978 63.9501C40.0456 63.7842 40.337 63.6957 40.6351 63.6957C41.0348 63.6957 41.4182 63.8547 41.7008 64.1379C41.9835 64.421 42.1423 64.805 42.1423 65.2054Z" stroke="#263238" stroke-width="0.778894" stroke-linecap="round" stroke-linejoin="round"/>
<path d="M38.3418 68.7023C38.6159 68.8608 38.9212 68.9579 39.2364 68.9868C39.5517 69.0157 39.8694 68.9757 40.1677 68.8697" stroke="#263238" stroke-width="0.778894" stroke-linecap="round" stroke-linejoin="round"/>
<path d="M38.639 66.4703C38.639 66.7683 38.5508 67.0596 38.3855 67.3074C38.2203 67.5551 37.9854 67.7482 37.7105 67.8623C37.4357 67.9763 37.1333 68.0061 36.8415 67.948C36.5497 67.8899 36.2817 67.7464 36.0714 67.5357C35.861 67.325 35.7178 67.0565 35.6598 66.7643C35.6017 66.472 35.6315 66.1691 35.7454 65.8938C35.8592 65.6185 36.052 65.3832 36.2993 65.2177C36.5467 65.0521 36.8375 64.9637 37.1349 64.9637C37.5338 64.9637 37.9164 65.1225 38.1985 65.405C38.4805 65.6876 38.639 66.0708 38.639 66.4703Z" stroke="#263238" stroke-width="0.778894" stroke-linecap="round" stroke-linejoin="round"/>
<path d="M37.8312 66.3834C37.8776 66.65 37.8064 66.8856 37.6671 66.9104C37.5279 66.9352 37.3793 66.7399 37.3298 66.4764C37.2803 66.2129 37.3546 65.9742 37.4938 65.9494C37.6331 65.9246 37.7817 66.1168 37.8312 66.3834Z" fill="#263238"/>
<path d="M40.3005 65.5C40.35 65.7635 40.2789 65.9991 40.1396 66.0239C40.0003 66.0487 39.8487 65.8565 39.8023 65.5899C39.7558 65.3233 39.827 65.0908 39.9632 65.0629C40.0994 65.035 40.2541 65.2334 40.3005 65.5Z" fill="#263238"/>
<path d="M35.7141 67.0034L33.4673 68.0636" stroke="#263238" stroke-width="0.778894" stroke-linecap="round" stroke-linejoin="round"/>
<path d="M38.5986 66.0301C38.6507 65.9526 38.7218 65.8898 38.805 65.8476C38.8883 65.8055 38.9809 65.7855 39.0741 65.7896C39.1673 65.7936 39.2579 65.8216 39.3372 65.8707C39.4165 65.9199 39.4819 65.9887 39.5271 66.0704" stroke="#263238" stroke-width="0.778894" stroke-linecap="round" stroke-linejoin="round"/>
<path d="M38.9941 65.6426C39.1235 65.8434 39.3181 65.9934 39.545 66.0673C39.8854 66.1541 40.8603 66.2378 40.7829 66.7059C40.7512 66.8984 40.6728 67.0801 40.5546 67.2352C40.4365 67.3903 40.2821 67.5141 40.1052 67.5956" stroke="#263238" stroke-width="0.778894" stroke-linecap="round" stroke-linejoin="round"/>
<path d="M34.17 63.9995C34.17 63.9995 34.4331 65.7541 34.2133 66.898C33.9936 68.0419 33.0311 68.4759 33.1611 69.3997C33.2911 70.3235 34.7085 71.6813 34.7085 71.6813C34.3343 72.1328 33.8656 72.4964 33.3357 72.7466C32.8057 72.9967 32.2274 73.1273 31.6416 73.129C29.568 73.16 27.8535 72.3819 27.8535 68.9161C27.8535 65.4503 28.3363 61.5412 30.8338 60.3136C33.3313 59.086 38.02 59.5665 39.0722 59.9633C40.1244 60.3601 41.3066 61.7179 40.9105 62.3751C40.5144 63.0323 35.9217 64.2196 34.17 63.9995Z" fill="#263238" stroke="#263238" stroke-width="0.778894" stroke-linecap="round" stroke-linejoin="round"/>
<path d="M34.1451 68.6154C34.1451 68.6154 32.8731 67.5118 32.3656 68.0636C31.858 68.6154 32.4925 69.5919 32.9567 70.1437C33.0303 70.24 33.1258 70.3174 33.2353 70.3693C33.3447 70.4213 33.4649 70.4463 33.586 70.4424C33.7071 70.4384 33.8254 70.4056 33.9313 70.3467C34.0371 70.2877 34.1274 70.2043 34.1946 70.1034" fill="white"/>
<path d="M34.1451 68.6154C34.1451 68.6154 32.8731 67.5118 32.3656 68.0636C31.858 68.6154 32.4925 69.5919 32.9567 70.1437C33.0303 70.24 33.1258 70.3174 33.2353 70.3693C33.3447 70.4213 33.4649 70.4463 33.586 70.4424C33.7071 70.4384 33.8254 70.4056 33.9313 70.3467C34.0371 70.2877 34.1274 70.2043 34.1946 70.1034" stroke="#263238" stroke-width="0.778894" stroke-linecap="round" stroke-linejoin="round"/>
<path d="M38.3042 72.0161L36.7939 71.8115L38.3878 73.7366L38.3042 72.0161Z" fill="#263238" stroke="#263238" stroke-width="0.778894" stroke-linecap="round" stroke-linejoin="round"/>
<path d="M52.3489 79.4004C51.7497 79.3296 51.1758 79.117 50.6747 78.7804C49.9381 78.2472 49.6534 76.6104 49.0004 75.4231C48.3474 74.2358 44.9771 68.4512 44.9771 68.4512C44.6486 68.4357 44.3294 68.3376 44.0487 68.166C43.5999 67.8777 43.1512 67.5088 42.4579 67.4282C41.7647 67.3476 41.3933 67.4685 41.1488 67.3879C40.9043 67.3073 41.0684 66.6098 41.6409 66.4579C42.2135 66.306 43.0707 66.6222 43.0707 66.6222C43.1145 66.1822 43.0725 65.7379 42.9469 65.314C42.7427 64.7808 42.0494 64.167 41.5574 63.8818C41.0653 63.5966 40.5361 63.5935 40.7403 63.3083C40.9446 63.0231 41.2324 62.9394 41.8452 63.02C42.4579 63.1006 43.5195 64.2073 43.5195 64.2073C43.5195 64.2073 44.4479 64.9451 44.6614 64.9451C44.875 64.9451 45.7261 64.9048 46.1346 65.5651C46.5431 66.2254 46.9083 67.6111 46.868 67.98C46.8442 68.2108 46.8442 68.4435 46.868 68.6744C46.868 68.6744 51.4762 74.0529 52.4387 74.9922C53.4012 75.9315 54.0728 78.0922 53.9087 78.6347C53.8163 78.9459 53.6742 79.2401 53.4878 79.5058" fill="white"/>
<path d="M52.3489 79.4004C51.7497 79.3296 51.1758 79.117 50.6747 78.7804C49.9381 78.2472 49.6534 76.6104 49.0004 75.4231C48.3474 74.2358 44.9771 68.4512 44.9771 68.4512C44.6486 68.4357 44.3294 68.3376 44.0487 68.166C43.5999 67.8777 43.1512 67.5088 42.4579 67.4282C41.7647 67.3476 41.3933 67.4685 41.1488 67.3879C40.9043 67.3073 41.0684 66.6098 41.6409 66.4579C42.2135 66.306 43.0707 66.6222 43.0707 66.6222C43.1145 66.1822 43.0725 65.7379 42.9469 65.314C42.7427 64.7808 42.0494 64.167 41.5574 63.8818C41.0653 63.5966 40.5361 63.5935 40.7403 63.3083C40.9446 63.0231 41.2324 62.9394 41.8452 63.02C42.4579 63.1006 43.5195 64.2073 43.5195 64.2073C43.5195 64.2073 44.4479 64.9451 44.6614 64.9451C44.875 64.9451 45.7261 64.9048 46.1346 65.5651C46.5431 66.2254 46.9083 67.6111 46.868 67.98C46.8442 68.2108 46.8442 68.4435 46.868 68.6744C46.868 68.6744 51.4762 74.0529 52.4387 74.9922C53.4012 75.9315 54.0728 78.0922 53.9087 78.6347C53.8163 78.9459 53.6742 79.2401 53.4878 79.5058" stroke="#263238" stroke-width="0.778894" stroke-linecap="round" stroke-linejoin="round"/>
<path d="M44.4723 64.4801C44.4256 64.381 44.3542 64.2956 44.265 64.2321C43.646 63.7795 43.3984 64.6568 43.417 65.0629C43.4445 65.3847 43.5272 65.6993 43.6615 65.9929C43.7048 66.0983 43.7791 66.2192 43.8998 66.213C43.9293 66.2112 43.9582 66.2031 43.9843 66.1892C44.0105 66.1753 44.0334 66.1559 44.0514 66.1324C44.2804 65.8751 44.0855 65.4783 44.2154 65.1714C44.2897 64.9916 44.4754 64.8614 44.5002 64.663C44.5067 64.6007 44.4971 64.5377 44.4723 64.4801Z" fill="white" stroke="#263238" stroke-width="0.778894" stroke-linecap="round" stroke-linejoin="round"/>
<path d="M45.2897 64.5235C45.243 64.4244 45.1716 64.339 45.0823 64.2755C44.4634 63.826 44.2158 64.7002 44.2344 65.1063C44.2618 65.4281 44.3445 65.7427 44.4789 66.0363C44.5222 66.1386 44.5965 66.2626 44.7172 66.2564C44.7468 66.2535 44.7755 66.2445 44.8016 66.2302C44.8276 66.2158 44.8505 66.1962 44.8688 66.1727C45.0978 65.9185 44.9028 65.5217 45.0328 65.2148C45.1071 65.035 45.2928 64.9048 45.3175 64.7033C45.3231 64.642 45.3136 64.5802 45.2897 64.5235Z" fill="white" stroke="#263238" stroke-width="0.778894" stroke-linecap="round" stroke-linejoin="round"/>
<path d="M46.0418 64.8644C46.0007 64.7749 45.9366 64.6979 45.8561 64.6412C45.3083 64.232 45.0731 65.0256 45.0886 65.3914C45.1126 65.6861 45.187 65.9745 45.3083 66.2439C45.3486 66.3369 45.4167 66.4485 45.525 66.4423C45.552 66.44 45.5783 66.4322 45.6022 66.4194C45.6261 66.4066 45.6472 66.3891 45.6642 66.3679C45.8716 66.1385 45.6921 65.7789 45.8097 65.4999C45.8778 65.3387 46.0449 65.2116 46.0697 65.038C46.0758 64.9787 46.0662 64.9188 46.0418 64.8644Z" fill="white" stroke="#263238" stroke-width="0.778894" stroke-linecap="round" stroke-linejoin="round"/>
<path d="M44.8408 67.0283C44.8829 67.3899 44.9932 67.7402 45.1658 68.0606C45.3766 68.2755 45.6607 68.4028 45.9611 68.4171" stroke="#263238" stroke-width="0.778894" stroke-linecap="round" stroke-linejoin="round"/>
<path d="M42.5413 87.5596C42.5413 87.5596 43.8133 84.9246 43.9401 83.4397C44.067 81.9548 43.2624 79.8716 43.2624 79.8716C43.2624 79.8716 40.8546 75.296 40.1676 74.1397C39.8302 74.1118 39.5208 74.0994 39.2391 74.0963C39.5351 74.5222 39.7871 74.9772 39.9912 75.4541C40.1181 75.9222 41.1796 78.5944 41.1796 78.5944L38.5088 81.2666L34.3803 79.3601C34.2173 78.1703 33.8751 77.0122 33.3652 75.9253C33.1471 75.4949 32.8989 75.0806 32.6224 74.6853L32.0839 74.9953C32.2574 75.2336 32.4165 75.4821 32.5605 75.7393C33.2785 77.0134 33.4487 79.5988 33.4487 79.5988C33.4487 79.5988 31.8394 81.8494 31.4588 83.0367C31.2973 83.5341 31.0997 84.019 30.8677 84.4875L32.3656 87.4604L32.5884 88.7376L42.5568 87.9099C42.5475 87.6929 42.5413 87.5596 42.5413 87.5596Z" fill="#7CB7FB" stroke="#263238" stroke-width="0.778894" stroke-linecap="round" stroke-linejoin="round"/>
<path d="M22.4312 83.3713C22.4312 83.3713 20.1813 85.16 20.1442 86.1086C20.107 87.0572 27.7543 94.0663 28.3392 94.4786C28.9241 94.8909 29.4688 95.0242 29.7969 94.8785C30.1249 94.7328 31.9818 93.6757 31.9818 93.6757C31.9818 93.6757 34.2379 93.4928 34.3834 93.2758C34.5288 93.0588 34.4205 93.0185 33.9842 92.9813C33.5478 92.9441 33 92.8356 32.8917 92.8356C32.7834 92.8356 32.2356 92.7643 32.2356 92.7643C32.2356 92.7643 34.6774 91.8529 34.8228 91.8157C34.9683 91.7785 35.6244 91.7413 35.513 91.4871C35.4016 91.2329 34.7114 90.8671 34.0925 90.6842C33.4735 90.5013 31.9447 90.3556 31.5083 90.6842C31.0719 91.0128 29.3234 93.0557 29.3234 93.0557C28.4877 92.0995 27.8558 90.9824 27.4665 89.7728C26.8475 87.8012 24.446 85.0577 23.6444 84.5028" fill="white"/>
<path d="M22.4312 83.3713C22.4312 83.3713 20.1813 85.16 20.1442 86.1086C20.107 87.0572 27.7543 94.0663 28.3392 94.4786C28.9241 94.8909 29.4688 95.0242 29.7969 94.8785C30.1249 94.7328 31.9818 93.6757 31.9818 93.6757C31.9818 93.6757 34.2379 93.4928 34.3834 93.2758C34.5288 93.0588 34.4205 93.0185 33.9842 92.9813C33.5478 92.9441 33 92.8356 32.8917 92.8356C32.7834 92.8356 32.2356 92.7643 32.2356 92.7643C32.2356 92.7643 34.6774 91.8529 34.8228 91.8157C34.9683 91.7785 35.6244 91.7413 35.513 91.4871C35.4016 91.2329 34.7114 90.8671 34.0925 90.6842C33.4735 90.5013 31.9447 90.3556 31.5083 90.6842C31.0719 91.0128 29.3234 93.0557 29.3234 93.0557C28.4877 92.0995 27.8558 90.9824 27.4665 89.7728C26.8475 87.8012 24.446 85.0577 23.6444 84.5028" stroke="#263238" stroke-width="0.778894" stroke-linecap="round" stroke-linejoin="round"/>
<path d="M32.127 91.9895C32.127 91.9895 33.0368 91.6609 33.6929 91.4408C34.349 91.2207 34.8566 91.0409 35.1846 91.2579" stroke="#263238" stroke-width="0.778894" stroke-linecap="round" stroke-linejoin="round"/>
<path d="M31.8359 91.295C32.5585 90.9928 33.3167 90.7844 34.0921 90.675" stroke="#263238" stroke-width="0.778894" stroke-linecap="round" stroke-linejoin="round"/>
<path d="M31.6167 90.9293C31.9454 90.724 32.3004 90.5645 32.672 90.455" stroke="#263238" stroke-width="0.778894" stroke-linecap="round" stroke-linejoin="round"/>
</svg>
