<svg width="526" height="214" viewBox="0 0 526 214" fill="none" xmlns="http://www.w3.org/2000/svg">
<path d="M482.684 78.5136C485.594 65.4292 492.555 53.0419 480.248 40.4593C457.66 17.3691 389.526 5.11008 336.582 16.0473C309.508 21.6246 286.356 29.7843 256.538 32.7793C176.059 40.8609 51.8394 -2.19625 8.03581 47.933C-7.00125 65.1336 -0.937711 87.7999 26.252 102.178C34.982 106.791 45.6477 110.807 52.1086 116.083C69.7864 130.522 44.7631 146.39 33.4821 159.859C6.68978 191.689 107.706 209.303 162.534 212.549C253.167 217.947 327.929 172.771 418.062 191.176C480.876 204.004 535.999 172.771 524.462 141.538C516.911 121.091 478.684 101.52 482.261 80.6832C482.389 79.9637 482.53 79.2443 482.684 78.5136Z" fill="#EEF6FF"/>
<path d="M336.35 115.58L331 134.734L336.06 136.112L336.35 115.58Z" fill="white" stroke="#252428" stroke-linecap="round" stroke-linejoin="round"/>
<path d="M338.75 95.3359C338.146 94.4751 337.926 93.4305 338.135 92.422C338.41 90.5335 340.865 90.102 340.865 90.102C340.865 90.102 341.4 89.7261 343.365 90.4175C345.33 91.1089 360.525 93.0205 370.235 94.2409C379.945 95.4612 383.09 94.6724 382.955 97.7673C382.82 100.862 374.3 128.637 374.17 129.509C374.04 130.382 338.75 95.3359 338.75 95.3359Z" fill="white" stroke="#252428" stroke-miterlimit="10"/>
<path d="M379.592 100.475L338.746 95.3367L332.145 140.521L372.992 145.659L379.592 100.475Z" fill="white" stroke="#252428" stroke-linecap="round" stroke-linejoin="round"/>
<path d="M372 109.488L374.375 109.789" stroke="#252428" stroke-width="0.5" stroke-linecap="round" stroke-linejoin="round"/>
<path d="M357.125 107.618L370.12 109.256" stroke="#252428" stroke-width="0.5" stroke-linecap="round" stroke-linejoin="round"/>
<path d="M341.375 105.637L355.245 107.381" stroke="#252428" stroke-width="0.5" stroke-linecap="round" stroke-linejoin="round"/>
<path d="M368.28 113.112L373.79 113.808" stroke="#252428" stroke-width="0.5" stroke-linecap="round" stroke-linejoin="round"/>
<path d="M340.79 109.655L362.645 112.402" stroke="#252428" stroke-width="0.5" stroke-linecap="round" stroke-linejoin="round"/>
<path d="M351.88 115.139L373.205 117.821" stroke="#252428" stroke-width="0.5" stroke-linecap="round" stroke-linejoin="round"/>
<path d="M340.2 113.668L349.685 114.866" stroke="#252428" stroke-width="0.5" stroke-linecap="round" stroke-linejoin="round"/>
<path d="M358.965 120.123L372.615 121.84" stroke="#252428" stroke-width="0.5" stroke-linecap="round" stroke-linejoin="round"/>
<path d="M347.38 118.661L357.4 119.923" stroke="#252428" stroke-width="0.5" stroke-linecap="round" stroke-linejoin="round"/>
<path d="M339.615 117.687L345.655 118.448" stroke="#252428" stroke-width="0.5" stroke-linecap="round" stroke-linejoin="round"/>
<path d="M367.145 125.241L372.03 125.853" stroke="#252428" stroke-width="0.5" stroke-linecap="round" stroke-linejoin="round"/>
<path d="M339.03 121.705L363.86 124.828" stroke="#252428" stroke-width="0.5" stroke-linecap="round" stroke-linejoin="round"/>
<path d="M357.635 128.131L371.445 129.871" stroke="#252428" stroke-width="0.5" stroke-linecap="round" stroke-linejoin="round"/>
<path d="M338.44 125.719L355.285 127.839" stroke="#252428" stroke-width="0.5" stroke-linecap="round" stroke-linejoin="round"/>
<path d="M361.9 132.762L370.855 133.885" stroke="#252428" stroke-width="0.5" stroke-linecap="round" stroke-linejoin="round"/>
<path d="M343.74 130.475L359.71 132.484" stroke="#252428" stroke-width="0.5" stroke-linecap="round" stroke-linejoin="round"/>
<path d="M337.855 129.737L341.86 130.238" stroke="#252428" stroke-width="0.5" stroke-linecap="round" stroke-linejoin="round"/>
<path d="M379.595 100.477C379.595 100.477 380.295 94.1758 382.795 96.7092" stroke="#252428" stroke-linecap="round" stroke-linejoin="round"/>
<path d="M365.745 149.016L365.7 153.02L363.185 149.726L353.09 118.216L355.65 117.506L365.745 149.016Z" fill="white" stroke="#252428" stroke-linecap="round" stroke-linejoin="round"/>
<path d="M354.648 118.852L353.251 119.23L363.17 150.79L364.567 150.412L354.648 118.852Z" fill="#C8E1FF" stroke="#252428" stroke-width="0.5" stroke-linecap="round" stroke-linejoin="round"/>
<path d="M365.745 149.025L363.19 149.731L365.7 153.02L365.745 149.025Z" stroke="#252428" stroke-linecap="round" stroke-linejoin="round"/>
<path d="M364.445 151.373L365.7 153.02L365.725 151.021L364.445 151.373Z" fill="#252428" stroke="#252428" stroke-linecap="round" stroke-linejoin="round"/>
<path d="M353.24 114.332C352.901 114.427 352.616 114.642 352.448 114.93C352.279 115.219 352.24 115.558 352.34 115.873L353.09 118.216L355.65 117.511L354.9 115.167C354.798 114.853 354.566 114.589 354.255 114.432C353.944 114.276 353.579 114.24 353.24 114.332V114.332Z" fill="white" stroke="#252428" stroke-linecap="round" stroke-linejoin="round"/>
<path d="M353.24 114.332C352.901 114.427 352.616 114.642 352.448 114.93C352.279 115.219 352.24 115.558 352.34 115.873L352.7 116.991L355.255 116.286L354.9 115.167C354.798 114.853 354.566 114.589 354.255 114.432C353.944 114.276 353.579 114.24 353.24 114.332V114.332Z" fill="#252428" stroke="#252428" stroke-linecap="round" stroke-linejoin="round"/>
<g clip-path="url(#clip0_1763_5692)">
<path d="M155.782 78.5081H260.05C261.352 78.5081 262.6 78.9892 263.521 79.8456C264.441 80.7021 264.958 81.8636 264.958 83.0748V145.991C264.958 146.647 264.819 147.296 264.55 147.902C264.28 148.508 263.884 149.059 263.386 149.523C262.887 149.986 262.296 150.354 261.644 150.605C260.993 150.856 260.295 150.986 259.59 150.986H156.242C155.537 150.986 154.839 150.856 154.188 150.605C153.536 150.354 152.944 149.986 152.446 149.523C151.947 149.059 151.552 148.508 151.282 147.902C151.013 147.296 150.874 146.647 150.874 145.991V83.0748C150.874 81.8636 151.391 80.7021 152.311 79.8456C153.232 78.9892 154.48 78.5081 155.782 78.5081Z" fill="white" stroke="#252428" stroke-linecap="round" stroke-linejoin="round"/>
<path d="M193.943 85.6428H187.522V89.5676H193.943V85.6428Z" fill="#252428"/>
<path d="M173.138 109.855H167.176V115.359H173.138V109.855Z" fill="#252428"/>
<path d="M199.477 90.5093H193.47V96.0134H199.477V90.5093Z" fill="#252428"/>
<path d="M186.505 85.6428H180.084V89.5676H186.505V85.6428Z" fill="#252428"/>
<path d="M206.497 90.5093H200.489V96.0134H206.497V90.5093Z" fill="#252428"/>
<path d="M201.377 85.6428H194.955V89.5676H201.377V85.6428Z" fill="#252428"/>
<path d="M169.536 103.405H158.238V108.909H169.536V103.405Z" fill="#252428"/>
<path d="M185.433 90.5093H179.426V96.0134H185.433V90.5093Z" fill="#252428"/>
<path d="M166.164 109.855H158.238V115.359H166.164V109.855Z" fill="#252428"/>
<path d="M208.815 85.6428H202.394V89.5676H208.815V85.6428Z" fill="#252428"/>
<path d="M171.39 90.5093H165.382V96.0134H171.39V90.5093Z" fill="#252428"/>
<path d="M171.633 85.6428H165.212V89.5676H171.633V85.6428Z" fill="#252428"/>
<path d="M179.072 85.6428H172.65V89.5676H179.072V85.6428Z" fill="#252428"/>
<path d="M178.409 90.5093H172.402V96.0134H178.409V90.5093Z" fill="#252428"/>
<path d="M192.453 90.5093H186.445V96.0134H192.453V90.5093Z" fill="#252428"/>
<path d="M238.563 85.6428H232.142V89.5676H238.563V85.6428Z" fill="#252428"/>
<path d="M245.997 85.6428H239.575V89.5676H245.997V85.6428Z" fill="#252428"/>
<path d="M241.609 90.5093H235.601V96.0134H241.609V90.5093Z" fill="#252428"/>
<path d="M248.633 90.5093H242.625V96.0134H248.633V90.5093Z" fill="#252428"/>
<path d="M259.742 109.855H250.896V115.359H259.742V109.855Z" fill="#252428"/>
<path d="M253.435 85.6428H247.014V89.5676H253.435V85.6428Z" fill="#252428"/>
<path d="M164.37 90.5093H158.238V96.0134H164.37V90.5093Z" fill="#252428"/>
<path d="M216.253 85.6428H209.832V89.5676H216.253V85.6428Z" fill="#252428"/>
<path d="M223.687 85.6428H217.265V89.5676H223.687V85.6428Z" fill="#252428"/>
<path d="M220.545 90.5093H214.538V96.0134H220.545V90.5093Z" fill="#252428"/>
<path d="M234.589 90.5093H228.581V96.0134H234.589V90.5093Z" fill="#252428"/>
<path d="M213.521 90.5093H207.513V96.0134H213.521V90.5093Z" fill="#252428"/>
<path d="M227.565 90.5093H221.557V96.0134H227.565V90.5093Z" fill="#252428"/>
<path d="M231.125 85.6428H224.704V89.5676H231.125V85.6428Z" fill="#252428"/>
<path d="M221.976 109.855H216.014V115.359H221.976V109.855Z" fill="#252428"/>
<path d="M253.256 103.405H247.294V108.909H253.256V103.405Z" fill="#252428"/>
<path d="M246.278 103.405H240.316V108.909H246.278V103.405Z" fill="#252428"/>
<path d="M249.879 109.855H243.918V115.359H249.879V109.855Z" fill="#252428"/>
<path d="M242.906 109.855H236.944V115.359H242.906V109.855Z" fill="#252428"/>
<path d="M228.949 109.855H222.988V115.359H228.949V109.855Z" fill="#252428"/>
<path d="M235.928 109.855H229.966V115.359H235.928V109.855Z" fill="#252428"/>
<path d="M239.299 103.405H233.338V108.909H239.299V103.405Z" fill="#252428"/>
<path d="M232.326 103.405H226.364V108.909H232.326V103.405Z" fill="#252428"/>
<path d="M259.746 85.6428H254.452V89.5676H259.746V85.6428Z" fill="#252428"/>
<path d="M164.2 85.6428H158.238V89.5676H164.2V85.6428Z" fill="#252428"/>
<path d="M259.746 116.301H158.238V122.023H259.746V116.301Z" fill="#252428"/>
<path d="M259.742 90.5093H249.645V96.0134H259.742V90.5093Z" fill="#252428"/>
<path d="M259.742 103.405H254.268V108.909H259.742V103.405Z" fill="#252428"/>
<path d="M252.584 102.421H251.568V96.9592H245.606V102.421H244.594V96.9592H238.632V102.421H237.616V96.9592H231.654V102.421H230.638V96.9592H224.676V102.421H223.664V96.9592H217.702V102.421H216.686V96.9592H210.724V102.421H209.708V96.9592H203.746V102.421H202.734V96.9592H196.772V102.421H195.756V96.9592H189.794V102.421H188.778V96.9592H182.816V102.421H181.804V96.9592H175.842V102.421H174.826V96.9592H168.864V102.421H167.848V96.9592H158.238V102.463H259.742V96.9592H252.584V102.421Z" fill="#252428"/>
<path d="M204.418 103.405H198.456V108.909H204.418V103.405Z" fill="#252428"/>
<path d="M225.348 103.405H219.386V108.909H225.348V103.405Z" fill="#252428"/>
<path d="M190.466 103.405H184.504V108.909H190.466V103.405Z" fill="#252428"/>
<path d="M194.068 109.855H188.106V115.359H194.068V109.855Z" fill="#252428"/>
<path d="M197.439 103.405H191.478V108.909H197.439V103.405Z" fill="#252428"/>
<path d="M183.488 103.405H177.526V108.909H183.488V103.405Z" fill="#252428"/>
<path d="M180.116 109.855H174.154V115.359H180.116V109.855Z" fill="#252428"/>
<path d="M187.089 109.855H181.128V115.359H187.089V109.855Z" fill="#252428"/>
<path d="M211.396 103.405H205.434V108.909H211.396V103.405Z" fill="#252428"/>
<path d="M214.998 109.855H209.036V115.359H214.998V109.855Z" fill="#252428"/>
<path d="M218.369 103.405H212.408V108.909H218.369V103.405Z" fill="#252428"/>
<path d="M201.046 109.855H195.084V115.359H201.046V109.855Z" fill="#252428"/>
<path d="M208.019 109.855H202.058V115.359H208.019V109.855Z" fill="#252428"/>
<path d="M176.509 103.405H170.548V108.909H176.509V103.405Z" fill="#252428"/>
<path d="M271.472 39.1321H143.748C143.122 39.1325 142.504 39.267 141.942 39.5251C141.381 39.7832 140.891 40.158 140.51 40.6205C140.128 41.083 139.867 41.6209 139.745 42.1925C139.623 42.7642 139.644 43.3542 139.806 43.9171L149.144 76.2654C149.377 77.0728 149.889 77.7864 150.602 78.2955C151.314 78.8047 152.188 79.0809 153.086 79.0816H166.123V81.32H249.7V79.0944H262.12C263.019 79.0938 263.892 78.8175 264.604 78.3084C265.317 77.7992 265.83 77.0857 266.062 76.2782L275.4 43.93C275.565 43.3673 275.588 42.7769 275.468 42.2046C275.348 41.6323 275.088 41.0934 274.708 40.6295C274.328 40.1657 273.839 39.7893 273.278 39.5297C272.716 39.27 272.099 39.134 271.472 39.1321V39.1321Z" fill="#252428" stroke="#252428" stroke-linecap="round" stroke-linejoin="round"/>
<path d="M257.028 76.2269H158.192L148.307 43.1296H266.909L257.028 76.2269Z" fill="#C8E1FF" stroke="#252428" stroke-linecap="round" stroke-linejoin="round"/>
<path d="M164.752 61.7004V62.1284H163.008V61.7004H164.752Z" fill="#252428"/>
<path d="M166.923 61.7004V62.1284H165.175V61.7004H166.923Z" fill="#252428"/>
<path d="M169.094 61.7004V62.1284H167.36V61.7004H169.094Z" fill="#252428"/>
<path d="M171.261 61.7004V62.1284H169.517V61.7004H171.261Z" fill="#252428"/>
<path d="M173.432 61.7004V62.1284H171.684V61.7004H173.432Z" fill="#252428"/>
<path d="M175.603 61.7004V62.1284H173.855V61.7004H175.603Z" fill="#252428"/>
<path d="M177.77 61.7004V62.1284H176.026V61.7004H177.77Z" fill="#252428"/>
<path d="M179.918 63.9562L177.995 59.1882H178.455L180.378 63.9562H179.918Z" fill="#252428"/>
<path d="M162.995 54.7583V55.1863H161.251V54.7583H162.995Z" fill="#252428"/>
<path d="M165.166 54.7583V55.1863H163.422V54.7583H165.166Z" fill="#252428"/>
<path d="M167.36 54.7583V55.1863H165.612V54.7583H167.36Z" fill="#252428"/>
<path d="M169.508 54.7583V55.1863H167.76V54.7583H169.508Z" fill="#252428"/>
<path d="M171.675 54.7583V55.1863H169.931V54.7583H171.675Z" fill="#252428"/>
<path d="M175.346 54.7583V55.1863H173.598V54.7583H175.346Z" fill="#252428"/>
<path d="M177.512 54.7583V55.1863H175.769V54.7583H177.512Z" fill="#252428"/>
<path d="M179.683 54.7583V55.1863H177.94V54.7583H179.683Z" fill="#252428"/>
<path d="M181.855 54.7583V55.1863H180.107V54.7583H181.855Z" fill="#252428"/>
<path d="M184.021 54.7583V55.1863H182.278V54.7583H184.021Z" fill="#252428"/>
<path d="M186.192 54.7583V55.1863H184.449V54.7583H186.192Z" fill="#252428"/>
<path d="M188.364 54.7583V55.1863H186.616V54.7583H188.364Z" fill="#252428"/>
<path d="M192.03 54.7583V55.1863H190.286V54.7583H192.03Z" fill="#252428"/>
<path d="M194.201 54.7583V55.1863H192.453V54.7583H194.201Z" fill="#252428"/>
<path d="M196.372 54.7583V55.1863H194.624V54.7583H196.372Z" fill="#252428"/>
<path d="M200.02 54.7583V55.1863H198.277V54.7583H200.02Z" fill="#252428"/>
<path d="M202.21 54.7583V55.1863H200.48V54.7583H202.21Z" fill="#252428"/>
<path d="M204.381 54.7583V55.1863H202.633V54.7583H204.381Z" fill="#252428"/>
<path d="M212.541 54.7583V55.1863H210.798V54.7583H212.541Z" fill="#252428"/>
<path d="M214.712 54.7583V55.1863H212.964V54.7583H214.712Z" fill="#252428"/>
<path d="M216.884 54.7583V55.1863H215.136V54.7583H216.884Z" fill="#252428"/>
<path d="M219.05 54.7583V55.1863H217.307V54.7583H219.05Z" fill="#252428"/>
<path d="M221.221 54.7583V55.1863H219.473V54.7583H221.221Z" fill="#252428"/>
<path d="M224.888 54.7583V55.1863H223.144V54.7583H224.888Z" fill="#252428"/>
<path d="M227.059 54.7583V55.1863H225.32V54.7583H227.059Z" fill="#252428"/>
<path d="M229.23 54.7583V55.1863H227.482V54.7583H229.23Z" fill="#252428"/>
<path d="M232.896 54.7583V55.1863H231.153V54.7583H232.896Z" fill="#252428"/>
<path d="M236.567 54.7583V55.1863H234.819V54.7583H236.567Z" fill="#252428"/>
<path d="M165.359 106.782C165.065 107.167 164.775 107.569 164.485 107.993" stroke="white" stroke-linecap="round" stroke-linejoin="round"/>
<path d="M170.171 101.629C168.889 102.734 167.703 103.932 166.624 105.211" stroke="white" stroke-linecap="round" stroke-linejoin="round"/>
<path d="M164.95 103.901C163.693 105.541 162.554 107.257 161.541 109.037" stroke="white" stroke-linecap="round" stroke-linejoin="round"/>
<path d="M197.393 113.313C197.104 113.698 196.809 114.101 196.519 114.52" stroke="white" stroke-linecap="round" stroke-linejoin="round"/>
<path d="M202.205 108.16C200.926 109.266 199.741 110.464 198.663 111.742" stroke="white" stroke-linecap="round" stroke-linejoin="round"/>
<path d="M196.989 110.424C195.733 112.074 194.594 113.798 193.58 115.586" stroke="white" stroke-linecap="round" stroke-linejoin="round"/>
<path d="M243.311 102.72C242.892 102.455 242.45 102.189 241.995 101.924" stroke="white" stroke-linecap="round" stroke-linejoin="round"/>
<path d="M248.923 107.12C247.713 105.948 246.407 104.864 245.017 103.88" stroke="white" stroke-linecap="round" stroke-linejoin="round"/>
<path d="M246.402 102.292C244.612 101.148 242.743 100.115 240.808 99.1975" stroke="white" stroke-linecap="round" stroke-linejoin="round"/>
<path d="M195.995 129.256C195.756 130.865 195.397 133.108 195.038 134.439" stroke="#252428" stroke-linecap="round" stroke-linejoin="round"/>
<path d="M196.262 127.3C196.262 127.3 196.225 127.604 196.156 128.096" stroke="#252428" stroke-linecap="round" stroke-linejoin="round"/>
<path d="M197.49 131.867C196.988 133.426 196.373 134.951 195.65 136.433" stroke="#252428" stroke-linecap="round" stroke-linejoin="round"/>
<path d="M220.49 134.148C220.49 134.148 220.798 137.859 222.942 139.857" stroke="#252428" stroke-linecap="round" stroke-linejoin="round"/>
<path d="M220.182 137.859C220.182 137.859 221.102 140.427 222.942 141.569" stroke="#252428" stroke-linecap="round" stroke-linejoin="round"/>
<g style="mix-blend-mode:multiply">
<path d="M157.7 157.692C157.7 157.692 159.742 156.164 159.742 143.029C159.742 129.894 162.093 120.298 164.991 116.091C167.889 111.883 170.598 110.197 171.868 110.197C173.138 110.197 172.227 111.712 170.419 113.899C168.611 116.086 166.983 117.268 166.256 119.964C165.529 122.66 165.534 126.024 166.44 125.686C167.346 125.348 168.791 118.616 170.056 116.091C171.321 113.565 174.403 110.364 176.21 108.849C178.018 107.334 182.002 102.788 183.81 103.965C185.617 105.142 184.536 106.829 183.451 107.501C182.365 108.173 178.018 112.209 176.031 114.742C174.044 117.276 172.774 123.666 173.86 123.833C174.945 124 178.202 114.576 180.01 112.555C181.818 110.535 189.058 104.975 190.687 104.809C192.315 104.642 192.499 106.996 191.05 108.177C189.601 109.358 184.716 114.404 183.087 117.435C181.459 120.465 180.732 126.024 182.167 124.676C183.603 123.328 185.967 117.773 187.959 115.919C189.951 114.066 195.921 108.177 197.37 108.849C198.819 109.521 198.456 111.207 197.191 112.384C195.926 113.561 191.036 119.964 189.771 123.328C188.506 126.692 187.053 136.125 187.779 134.781C188.506 133.437 190.857 126.53 192.122 123.653C193.387 120.777 195.921 119.446 196.285 120.79C196.648 122.134 195.921 122.81 195.015 125.845C194.109 128.879 194.095 136.973 191.4 141.501C188.704 146.029 177.885 155.719 176.44 159.083C175.394 161.4 174.145 163.633 172.705 165.76" fill="#C8E1FF"/>
</g>
<g style="mix-blend-mode:multiply">
<path d="M258.233 158.831C258.233 158.831 256.14 156.164 256.14 143.029C256.14 129.894 253.785 120.298 250.891 116.091C247.998 111.883 245.279 110.197 244.014 110.197C242.749 110.197 243.651 111.712 245.463 113.899C247.276 116.086 248.9 117.268 249.603 119.964C250.307 122.66 250.33 126.024 249.424 125.686C248.518 125.348 247.073 118.616 245.804 116.091C244.534 113.565 241.461 110.364 239.654 108.849C237.846 107.334 233.862 102.788 232.05 103.965C230.237 105.142 231.328 106.829 232.413 107.501C233.499 108.173 237.841 112.209 239.833 114.742C241.825 117.276 243.09 123.666 242.004 123.833C240.919 124 237.676 114.575 235.868 112.564C234.06 110.552 226.815 104.984 225.187 104.817C223.558 104.65 223.379 107.004 224.828 108.185C226.277 109.367 231.162 114.413 232.79 117.443C234.419 120.473 235.141 126.033 233.71 124.685C232.28 123.337 229.911 117.781 227.924 115.928C225.936 114.075 219.961 108.185 218.512 108.857C217.063 109.529 217.426 111.216 218.691 112.393C219.956 113.57 224.846 119.973 226.111 123.337C227.376 126.701 228.825 136.134 228.103 134.79C227.381 133.446 225.026 126.538 223.761 123.662C222.496 120.786 219.961 119.455 219.598 120.799C219.234 122.143 219.961 122.819 220.863 125.853C221.764 128.888 221.783 136.981 224.483 141.51C227.183 146.038 237.694 154.876 239.143 158.244C240.592 161.613 243.214 166.92 243.214 166.92" fill="#C8E1FF"/>
</g>
<path d="M157.01 160.928C157.01 160.928 159.724 152.68 159.724 139.528C159.724 126.376 162.075 116.797 164.973 112.59C167.871 108.382 170.58 106.696 171.85 106.696C173.119 106.696 172.208 108.211 170.401 110.398C168.593 112.585 166.964 113.767 166.238 116.459C165.511 119.151 165.515 122.524 166.422 122.185C167.328 121.847 168.772 115.115 170.037 112.59C171.302 110.064 174.384 106.863 176.192 105.348C178 103.833 181.983 99.2874 183.791 100.464C185.599 101.641 184.518 103.328 183.432 104C182.347 104.672 178 108.708 176.013 111.241C174.025 113.775 172.756 120.165 173.841 120.332C174.927 120.499 178.184 111.075 179.992 109.05C181.799 107.026 189.04 101.474 190.668 101.308C192.297 101.141 192.481 103.495 191.032 104.676C189.583 105.857 184.697 110.903 183.069 113.934C181.441 116.964 180.714 122.524 182.149 121.175C183.584 119.827 185.949 114.272 187.94 112.418C189.932 110.565 195.903 104.676 197.352 105.348C198.801 106.02 198.438 107.706 197.173 108.883C195.908 110.06 191.018 116.459 189.753 119.827C188.488 123.195 187.034 132.624 187.761 131.276C188.488 129.928 190.838 123.029 192.103 120.148C193.368 117.268 195.903 115.937 196.266 117.285C196.63 118.633 195.903 119.305 194.997 122.335C194.091 125.365 194.077 133.463 191.381 137.996C188.686 142.528 178.17 154.833 176.721 158.202C175.272 161.57 172.015 168.979 172.015 168.979" fill="white"/>
<path d="M157.01 160.928C157.01 160.928 159.724 152.68 159.724 139.528C159.724 126.376 162.075 116.797 164.973 112.59C167.871 108.382 170.58 106.696 171.85 106.696C173.119 106.696 172.208 108.211 170.401 110.398C168.593 112.585 166.964 113.767 166.238 116.459C165.511 119.151 165.515 122.524 166.422 122.185C167.328 121.847 168.772 115.115 170.037 112.59C171.302 110.064 174.384 106.863 176.192 105.348C178 103.833 181.983 99.2874 183.791 100.464C185.599 101.641 184.518 103.328 183.432 104C182.347 104.672 178 108.708 176.013 111.241C174.025 113.775 172.756 120.165 173.841 120.332C174.927 120.499 178.184 111.075 179.992 109.05C181.799 107.026 189.04 101.474 190.668 101.308C192.297 101.141 192.481 103.495 191.032 104.676C189.583 105.857 184.697 110.903 183.069 113.934C181.441 116.964 180.714 122.524 182.149 121.175C183.584 119.827 185.949 114.272 187.94 112.418C189.932 110.565 195.903 104.676 197.352 105.348C198.801 106.02 198.438 107.706 197.173 108.883C195.908 110.06 191.018 116.459 189.753 119.827C188.488 123.195 187.034 132.624 187.761 131.276C188.488 129.928 190.838 123.029 192.103 120.148C193.368 117.268 195.903 115.937 196.266 117.285C196.63 118.633 195.903 119.305 194.997 122.335C194.091 125.365 194.077 133.463 191.381 137.996C188.686 142.528 178.17 154.833 176.721 158.202C175.272 161.57 172.015 168.979 172.015 168.979" stroke="#252428" stroke-linecap="round" stroke-linejoin="round"/>
<path d="M258.849 160.928C258.849 160.928 256.135 152.68 256.135 139.528C256.135 126.376 253.78 116.797 250.887 112.59C247.993 108.382 245.275 106.696 244.01 106.696C242.745 106.696 243.646 108.211 245.459 110.398C247.271 112.585 248.895 113.767 249.599 116.459C250.303 119.151 250.326 122.524 249.419 122.185C248.513 121.847 247.069 115.115 245.799 112.59C244.53 110.064 241.457 106.863 239.649 105.348C237.841 103.833 233.858 99.2874 232.045 100.464C230.233 101.641 231.323 103.328 232.409 104C233.494 104.672 237.837 108.708 239.828 111.241C241.82 113.775 243.085 120.165 242 120.332C240.914 120.499 237.657 111.075 235.849 109.05C234.042 107.026 226.797 101.474 225.168 101.308C223.54 101.141 223.36 103.495 224.809 104.676C226.258 105.857 231.144 110.903 232.772 113.934C234.4 116.964 235.123 122.524 233.692 121.175C232.261 119.827 229.892 114.272 227.905 112.418C225.918 110.565 219.943 104.676 218.494 105.348C217.045 106.02 217.408 107.706 218.673 108.883C219.938 110.06 224.828 116.459 226.093 119.827C227.358 123.195 228.807 132.624 228.085 131.276C227.362 129.928 225.007 123.029 223.742 120.148C222.477 117.268 219.943 115.937 219.579 117.285C219.216 118.633 219.943 119.305 220.844 122.335C221.746 125.365 221.764 133.463 224.464 137.996C227.165 142.528 237.676 154.833 239.125 158.202C240.574 161.57 243.83 168.979 243.83 168.979" fill="white"/>
<path d="M258.849 160.928C258.849 160.928 256.135 152.68 256.135 139.528C256.135 126.376 253.78 116.797 250.887 112.59C247.993 108.382 245.275 106.696 244.01 106.696C242.745 106.696 243.646 108.211 245.459 110.398C247.271 112.585 248.895 113.767 249.599 116.459C250.303 119.151 250.326 122.524 249.419 122.185C248.513 121.847 247.069 115.115 245.799 112.59C244.53 110.064 241.457 106.863 239.649 105.348C237.841 103.833 233.858 99.2874 232.045 100.464C230.233 101.641 231.323 103.328 232.409 104C233.494 104.672 237.837 108.708 239.828 111.241C241.82 113.775 243.085 120.165 242 120.332C240.914 120.499 237.657 111.075 235.849 109.05C234.042 107.026 226.797 101.474 225.168 101.308C223.54 101.141 223.36 103.495 224.809 104.676C226.258 105.857 231.144 110.903 232.772 113.934C234.4 116.964 235.123 122.524 233.692 121.175C232.261 119.827 229.892 114.272 227.905 112.418C225.918 110.565 219.943 104.676 218.494 105.348C217.045 106.02 217.408 107.706 218.673 108.883C219.938 110.06 224.828 116.459 226.093 119.827C227.358 123.195 228.807 132.624 228.085 131.276C227.362 129.928 225.007 123.029 223.742 120.148C222.477 117.268 219.943 115.937 219.579 117.285C219.216 118.633 219.943 119.305 220.844 122.335C221.746 125.365 221.764 133.463 224.464 137.996C227.165 142.528 237.676 154.833 239.125 158.202C240.574 161.57 243.83 168.979 243.83 168.979" stroke="#252428" stroke-linecap="round" stroke-linejoin="round"/>
<path d="M145.556 186.608H173.156C173.515 185.324 173.966 183.886 174.536 182.328C176.707 176.276 183.736 168.709 183.736 168.709C178.698 164.581 172.779 161.492 166.366 159.644C155.786 156.614 148.04 157.504 148.04 157.504C149.466 162.974 149.623 168.665 148.5 174.196C147.12 180.428 146.2 184.37 145.556 186.608Z" fill="#252428" stroke="#252428" stroke-linecap="round" stroke-linejoin="round"/>
<path d="M242.524 186.608H271.2C270.28 184.391 268.293 179.576 266.306 174.761C263.592 168.204 264.678 159.379 263.592 159.379C262.506 159.379 250.312 158.621 244.35 160.384C238.389 162.148 231.608 167.194 231.608 167.194C234.678 170.512 237.316 174.155 239.47 178.048C240.854 180.777 241.879 183.651 242.524 186.608V186.608Z" fill="#252428" stroke="#252428" stroke-linecap="round" stroke-linejoin="round"/>
<path d="M162.797 162.726C162.599 161.998 159.655 163.094 159.655 163.094C159.655 163.094 160.639 159.627 159.071 159.627C157.502 159.627 157.304 162.195 157.304 162.195C157.304 162.195 154.36 161.104 154.36 162.743C154.36 164.382 156.32 164.352 156.32 164.352C156.32 164.352 153.965 167.091 155.731 167.635C157.498 168.178 158.671 166.175 158.671 166.175C158.671 166.175 159.848 168.003 161.431 167.271C163.013 166.539 161.822 164.9 161.822 164.9C161.822 164.9 162.99 163.458 162.797 162.726ZM158.873 165.465C158.725 165.434 158.589 165.365 158.481 165.266C158.374 165.167 158.298 165.041 158.264 164.904C158.229 164.766 158.237 164.622 158.287 164.489C158.336 164.356 158.426 164.238 158.544 164.15C158.662 164.061 158.805 164.006 158.955 163.99C159.106 163.974 159.259 163.997 159.396 164.058C159.532 164.119 159.648 164.215 159.729 164.334C159.81 164.454 159.853 164.592 159.853 164.733C159.82 164.948 159.7 165.143 159.518 165.279C159.336 165.415 159.106 165.481 158.873 165.465V165.465ZM167.112 183.184C166.914 182.456 163.97 183.552 163.97 183.552C163.97 183.552 164.954 180.085 163.381 180.085C161.808 180.085 161.619 182.653 161.619 182.653C161.619 182.653 158.675 181.558 158.675 183.197C158.675 184.836 160.639 184.84 160.639 184.84C160.639 184.84 158.284 187.58 160.051 188.127C161.817 188.675 162.99 186.664 162.99 186.664C162.99 186.664 164.168 188.491 165.75 187.759C167.332 187.028 166.141 185.388 166.141 185.388C166.141 185.388 167.305 183.895 167.112 183.184ZM163.188 185.923C163.04 185.893 162.904 185.824 162.796 185.724C162.688 185.625 162.613 185.499 162.579 185.362C162.544 185.225 162.552 185.081 162.602 184.947C162.651 184.814 162.74 184.696 162.859 184.608C162.977 184.52 163.12 184.464 163.27 184.448C163.421 184.432 163.574 184.456 163.71 184.517C163.847 184.578 163.963 184.673 164.044 184.793C164.124 184.912 164.167 185.05 164.168 185.191C164.134 185.405 164.014 185.598 163.831 185.73C163.649 185.862 163.418 185.924 163.188 185.902V185.923ZM149.848 185.923C149.65 185.191 146.711 186.287 146.711 186.287C146.711 186.287 147.69 182.82 146.122 182.82C144.553 182.82 144.355 185.388 144.355 185.388C144.355 185.388 141.411 184.293 141.411 185.936C141.411 187.58 143.376 187.58 143.376 187.58C143.376 187.58 141.02 190.315 142.787 190.862C144.553 191.41 145.726 189.403 145.726 189.403C145.726 189.403 146.904 191.226 148.486 190.499C150.069 189.771 148.882 188.127 148.882 188.127C148.882 188.127 150.046 186.629 149.852 185.902L149.848 185.923ZM145.924 188.658C145.776 188.628 145.64 188.558 145.532 188.459C145.424 188.359 145.349 188.234 145.315 188.096C145.28 187.958 145.289 187.814 145.339 187.681C145.388 187.547 145.478 187.43 145.597 187.342C145.715 187.254 145.858 187.198 146.009 187.183C146.16 187.167 146.313 187.191 146.45 187.253C146.586 187.315 146.702 187.411 146.782 187.531C146.862 187.651 146.904 187.789 146.904 187.931C146.87 188.142 146.749 188.333 146.568 188.465C146.386 188.596 146.157 188.658 145.929 188.637L145.924 188.658ZM171.224 171.688H173.381C174.95 171.688 175.93 173.332 175.93 173.332C172.599 174.222 171.229 171.667 171.229 171.667L171.224 171.688ZM169.067 185.923H171.224C172.793 185.923 173.772 187.567 173.772 187.567C170.442 188.457 169.071 185.902 169.071 185.902L169.067 185.923ZM150.243 183.184H152.401C153.969 183.184 154.949 184.828 154.949 184.828C151.614 185.718 150.243 183.184 150.243 183.184ZM160.672 170.306L161.932 171.936C162.852 173.126 161.983 174.821 161.983 174.821C159.241 172.814 160.672 170.284 160.672 170.284V170.306ZM149.88 175.758L150.864 173.974C151.587 172.69 153.601 172.612 153.601 172.612C152.925 175.788 149.88 175.758 149.88 175.758Z" fill="white"/>
<path d="M255.169 166.192C254.972 165.465 252.028 166.561 252.028 166.561C252.028 166.561 253.012 163.094 251.443 163.094C249.875 163.094 249.677 165.662 249.677 165.662C249.677 165.662 246.733 164.57 246.733 166.21C246.733 167.849 248.697 167.853 248.697 167.853C248.697 167.853 246.342 170.592 248.108 171.14C249.875 171.688 251.048 169.676 251.048 169.676C251.048 169.676 252.225 171.504 253.808 170.772C255.39 170.04 254.199 168.401 254.199 168.401C254.199 168.401 255.363 166.92 255.169 166.192ZM251.246 168.932C251.098 168.901 250.962 168.832 250.854 168.733C250.746 168.633 250.671 168.508 250.636 168.37C250.602 168.233 250.61 168.089 250.66 167.956C250.709 167.822 250.798 167.705 250.916 167.616C251.035 167.528 251.177 167.473 251.328 167.456C251.479 167.44 251.631 167.464 251.768 167.525C251.905 167.586 252.02 167.682 252.101 167.801C252.182 167.92 252.225 168.059 252.225 168.2C252.198 168.417 252.079 168.615 251.896 168.752C251.713 168.889 251.479 168.953 251.246 168.932V168.932ZM264.383 180.428C264.19 179.696 261.246 180.792 261.246 180.792C261.246 180.792 262.226 177.325 260.657 177.325C259.089 177.325 258.895 179.893 258.895 179.893C258.895 179.893 255.951 178.797 255.951 180.441C255.951 182.084 257.911 182.084 257.911 182.084C257.911 182.084 255.56 184.819 257.327 185.367C259.093 185.915 260.266 183.907 260.266 183.907C260.266 183.907 261.444 185.731 263.026 185.003C264.609 184.275 263.417 182.632 263.417 182.632C263.417 182.632 264.581 181.155 264.383 180.428ZM260.464 183.184C260.316 183.153 260.18 183.084 260.072 182.985C259.964 182.885 259.889 182.759 259.855 182.622C259.82 182.484 259.829 182.34 259.879 182.207C259.928 182.073 260.018 181.956 260.137 181.868C260.255 181.779 260.398 181.724 260.549 181.709C260.7 181.693 260.853 181.717 260.99 181.779C261.126 181.84 261.242 181.937 261.322 182.057C261.402 182.177 261.445 182.315 261.444 182.456C261.415 182.673 261.296 182.87 261.113 183.006C260.93 183.142 260.697 183.206 260.464 183.184ZM254.581 185.923C254.383 185.191 251.443 186.287 251.443 186.287C251.443 186.287 252.423 182.82 250.855 182.82C249.286 182.82 249.088 185.388 249.088 185.388C249.088 185.388 246.144 184.293 246.144 185.936C246.144 187.58 248.108 187.58 248.108 187.58C248.108 187.58 245.753 190.315 247.52 190.862C249.286 191.41 250.459 189.403 250.459 189.403C250.459 189.403 251.637 191.226 253.219 190.499C254.801 189.771 253.615 188.127 253.615 188.127C253.615 188.127 254.76 186.629 254.581 185.902V185.923ZM250.657 188.658C250.509 188.627 250.373 188.558 250.265 188.459C250.157 188.359 250.082 188.234 250.047 188.096C250.013 187.958 250.021 187.814 250.071 187.681C250.121 187.547 250.211 187.43 250.329 187.342C250.448 187.253 250.591 187.198 250.742 187.183C250.893 187.167 251.046 187.191 251.182 187.253C251.319 187.315 251.434 187.411 251.515 187.531C251.595 187.651 251.637 187.789 251.637 187.931C251.602 188.143 251.481 188.335 251.299 188.466C251.116 188.598 250.886 188.659 250.657 188.637V188.658ZM263.601 175.155H265.759C267.327 175.155 268.307 176.798 268.307 176.798C264.972 177.689 263.601 175.133 263.601 175.133V175.155ZM240.459 185.538H242.616C244.185 185.538 245.164 187.177 245.164 187.177C241.829 188.093 240.459 185.538 240.459 185.538ZM253.044 173.768L254.305 175.399C255.225 176.589 254.355 178.283 254.355 178.283C251.614 176.28 253.044 173.768 253.044 173.768ZM265.8 183.972L267.056 185.602C267.976 186.788 267.106 188.487 267.106 188.487C264.365 186.497 265.8 183.972 265.8 183.972ZM242.234 179.225L243.219 177.44C243.941 176.156 245.979 176.079 245.979 176.079C245.298 179.255 242.23 179.225 242.23 179.225H242.234Z" fill="white"/>
</g>
<path d="M77.3297 80.7643C86.8649 80.7643 94.5947 73.591 94.5947 64.7424C94.5947 55.8937 86.8649 48.7205 77.3297 48.7205C67.7945 48.7205 60.0647 55.8937 60.0647 64.7424C60.0647 73.591 67.7945 80.7643 77.3297 80.7643Z" fill="white" stroke="#252428" stroke-linecap="round" stroke-linejoin="round"/>
<path d="M76.0447 79.1727C85.5799 79.1727 93.3097 71.9995 93.3097 63.1508C93.3097 54.3022 85.5799 47.1289 76.0447 47.1289C66.5095 47.1289 58.7797 54.3022 58.7797 63.1508C58.7797 71.9995 66.5095 79.1727 76.0447 79.1727Z" fill="white" stroke="#252428" stroke-linecap="round" stroke-linejoin="round"/>
<path d="M76.0448 77.5813C84.6328 77.5813 91.5948 71.1205 91.5948 63.1509C91.5948 55.1812 84.6328 48.7205 76.0448 48.7205C67.4567 48.7205 60.4948 55.1812 60.4948 63.1509C60.4948 71.1205 67.4567 77.5813 76.0448 77.5813Z" fill="#252428" stroke="#252428" stroke-linecap="round" stroke-linejoin="round"/>
<path d="M74.2197 52.3027C74.2197 52.3027 72.5047 48.3215 69.5047 45.5375C66.5047 42.7535 54.2747 40.9579 54.2747 40.9579C56.2496 42.7255 58.0455 44.6577 59.6397 46.73C62.4247 50.3121 71.6397 58.4739 71.6397 58.4739C71.6397 58.4739 67.1397 54.8918 63.0597 54.4927C58.9797 54.0937 48.6897 56.0843 48.0597 56.0843C47.4297 56.0843 51.9197 57.6758 55.1397 59.0678C58.3597 60.4598 70.7947 61.6569 70.7947 61.6569C70.7947 61.6569 65.4347 63.0489 61.7947 64.246C58.1547 65.4431 54.7047 74.1942 54.7047 74.1942C54.7047 74.1942 59.4247 70.2131 63.4997 69.2201C67.5747 68.2271 73.3647 66.4361 73.3647 66.4361C73.3647 66.4361 69.7197 70.2177 68.8647 72.8068C68.0097 75.3959 68.6497 81.363 68.6497 81.363C68.6497 81.363 70.5797 75.795 72.9397 73.6003C75.2997 71.4055 77.8647 67.6518 77.8647 67.6518C79.0527 69.4487 80.1278 71.3078 81.0847 73.2198C82.7997 76.6023 83.8697 81.5718 83.8697 81.5718C83.8697 81.5718 86.6597 76.0038 86.4447 73.2198C86.2297 70.4358 83.0147 65.4571 83.0147 65.4571C83.0147 65.4571 85.1597 64.0651 88.3747 65.2575C91.5897 66.45 97.1697 71.4287 97.1697 71.4287C97.1697 71.4287 95.8797 64.8585 93.7347 62.274C91.5897 59.6895 82.3697 58.8868 82.3697 58.8868C82.3697 58.8868 87.5197 56.1028 90.7347 55.5043C93.9497 54.9057 98.2347 56.3023 98.2347 56.3023C98.2347 56.3023 93.3047 49.9316 89.4447 49.5326C85.5847 49.1335 79.7947 54.6923 79.7947 54.6923L81.5147 46.73C81.9397 44.7395 81.0847 39.77 81.0847 39.77C81.0847 39.77 78.7247 40.9625 75.9347 44.7441C75.1182 45.8333 74.5457 47.0636 74.2511 48.3619C73.9565 49.6603 73.9458 51.0004 74.2197 52.3027Z" fill="#C8E1FF"/>
<path opacity="0.5" d="M74.2197 52.3027C74.2197 52.3027 72.5047 48.3215 69.5047 45.5375C66.5047 42.7535 54.2747 40.9579 54.2747 40.9579C56.2496 42.7255 58.0455 44.6577 59.6397 46.73C62.4247 50.3121 71.6397 58.4739 71.6397 58.4739C71.6397 58.4739 67.1397 54.8918 63.0597 54.4927C58.9797 54.0937 48.6897 56.0843 48.0597 56.0843C47.4297 56.0843 51.9197 57.6758 55.1397 59.0678C58.3597 60.4598 70.7947 61.6569 70.7947 61.6569C70.7947 61.6569 65.4347 63.0489 61.7947 64.246C58.1547 65.4431 54.7047 74.1942 54.7047 74.1942C54.7047 74.1942 59.4247 70.2131 63.4997 69.2201C67.5747 68.2271 73.3647 66.4361 73.3647 66.4361C73.3647 66.4361 69.7197 70.2177 68.8647 72.8068C68.0097 75.3959 68.6497 81.363 68.6497 81.363C68.6497 81.363 70.5797 75.795 72.9397 73.6003C75.2997 71.4055 77.8647 67.6518 77.8647 67.6518C79.0527 69.4487 80.1278 71.3078 81.0847 73.2198C82.7997 76.6023 83.8697 81.5718 83.8697 81.5718C83.8697 81.5718 86.6597 76.0038 86.4447 73.2198C86.2297 70.4358 83.0147 65.4571 83.0147 65.4571C83.0147 65.4571 85.1597 64.0651 88.3747 65.2575C91.5897 66.45 97.1697 71.4287 97.1697 71.4287C97.1697 71.4287 95.8797 64.8585 93.7347 62.274C91.5897 59.6895 82.3697 58.8868 82.3697 58.8868C82.3697 58.8868 87.5197 56.1028 90.7347 55.5043C93.9497 54.9057 98.2347 56.3023 98.2347 56.3023C98.2347 56.3023 93.3047 49.9316 89.4447 49.5326C85.5847 49.1335 79.7947 54.6923 79.7947 54.6923L81.5147 46.73C81.9397 44.7395 81.0847 39.77 81.0847 39.77C81.0847 39.77 78.7247 40.9625 75.9347 44.7441C75.1182 45.8333 74.5457 47.0636 74.2511 48.3619C73.9565 49.6603 73.9458 51.0004 74.2197 52.3027Z" fill="#808081"/>
<path d="M78.4447 46.2427C78.5947 45.672 78.7597 45.1012 78.9447 44.5398" stroke="#252428" stroke-width="0.5" stroke-linecap="round" stroke-linejoin="round"/>
<path d="M64.1198 46.2427C66.1198 47.6022 68.6198 49.4907 69.9298 51.11C72.2898 54.0936 77.0098 60.4643 77.0098 60.4643C76.8746 56.1853 77.24 51.9054 78.0998 47.6996" stroke="#252428" stroke-width="0.5" stroke-linecap="round" stroke-linejoin="round"/>
<path d="M61.1398 44.3403C61.1398 44.3403 61.7648 44.7115 62.6998 45.3101" stroke="#252428" stroke-width="0.5" stroke-linecap="round" stroke-linejoin="round"/>
<path d="M77.0098 60.4643C77.0098 60.4643 85.1598 52.9011 88.5898 52.3025C92.0198 51.704 95.0248 54.0936 95.0248 54.0936" stroke="#252428" stroke-width="0.5" stroke-linecap="round" stroke-linejoin="round"/>
<path d="M62.4447 66.7886C60.4447 67.9579 60.2797 68.6446 60.2797 68.6446" stroke="#252428" stroke-width="0.5" stroke-linecap="round" stroke-linejoin="round"/>
<path d="M94.8098 67.429C94.8098 67.429 93.5248 64.4408 89.0198 63.0488C84.5148 61.6568 77.4448 61.4573 77.4448 61.4573C77.4448 61.4573 67.5198 64.4733 63.8898 66.0462" stroke="#252428" stroke-width="0.5" stroke-linecap="round" stroke-linejoin="round"/>
<path d="M73.1047 60.3206C75.5047 60.9702 77.4397 61.4574 77.4397 61.4574" stroke="#252428" stroke-width="0.5" stroke-linecap="round" stroke-linejoin="round"/>
<path d="M57.9998 56.7849C60.3298 56.9148 63.3298 57.2118 64.9998 57.8753C66.3598 58.4182 69.0398 59.2024 71.5698 59.903" stroke="#252428" stroke-width="0.5" stroke-linecap="round" stroke-linejoin="round"/>
<path d="M54.7047 56.6829C54.7047 56.6829 55.4897 56.6829 56.6447 56.7246" stroke="#252428" stroke-width="0.5" stroke-linecap="round" stroke-linejoin="round"/>
<path d="M77.0098 62.6499C77.0098 62.6499 71.0098 71.0019 70.5748 73.0017C70.3171 74.1815 70.1732 75.3803 70.1448 76.5838" stroke="#252428" stroke-width="0.5" stroke-linecap="round" stroke-linejoin="round"/>
<path d="M79.6797 65.2808C80.8347 66.6728 82.2197 68.5288 82.7997 70.0136C83.4748 71.8251 83.9767 73.6883 84.2997 75.5816" stroke="#252428" stroke-width="0.5" stroke-linecap="round" stroke-linejoin="round"/>
<path d="M77.8647 63.2483C77.8647 63.2483 78.3647 63.7401 79.0097 64.4965" stroke="#252428" stroke-width="0.5" stroke-linecap="round" stroke-linejoin="round"/>
<path d="M71.4947 54.0194C71.4947 54.0194 70.3897 49.8434 71.0747 45.969C71.7597 42.0946 80.5747 34.0071 80.5747 34.0071C80.0848 36.5117 79.8421 39.0526 79.8497 41.5981C79.8497 46.0154 77.4747 57.634 77.4747 57.634C77.4747 57.634 78.8797 52.2887 81.9397 49.746C84.9997 47.2032 94.6147 43.25 95.1347 42.9112C95.6547 42.5725 92.9997 46.2938 91.2647 49.1706C89.5297 52.0474 80.1647 59.7637 80.1647 59.7637C80.1647 59.7637 85.3947 57.9912 89.1047 56.9797C92.8147 55.9682 101.105 61.23 101.105 61.23C101.105 61.23 94.7697 60.5525 90.8347 61.9492C86.8997 63.3458 81.0697 65.0255 81.0697 65.0255C81.0697 65.0255 86.4097 66.1252 88.7297 67.7631C91.0497 69.401 94.2897 74.6117 94.2897 74.6117C94.2897 74.6117 89.2197 71.1271 85.9247 70.626C82.6297 70.1248 78.1647 68.4498 78.1647 68.4498C78.3341 70.5517 78.6312 72.643 79.0547 74.7138C79.7897 78.3933 82.0547 83.0148 82.0547 83.0148C82.0547 83.0148 76.2897 79.9988 74.7097 77.6184C73.1297 75.2381 72.6197 69.4567 72.6197 69.4567C72.6197 69.4567 69.9997 69.4845 68.1197 72.1943C66.2397 74.904 64.8547 81.9661 64.8547 81.9661C64.8547 81.9661 61.7747 75.9341 61.8897 72.6861C62.0047 69.4381 68.9947 63.7866 68.9947 63.7866C68.9947 63.7866 63.0647 64.3109 60.0747 65.5637C57.0847 66.8165 54.4747 70.2733 54.4747 70.2733C54.4747 70.2733 54.4747 62.4317 57.3647 60.0189C60.2547 57.6061 68.4597 58.9981 68.4597 58.9981L62.0597 53.4626C60.4597 52.0706 58.0297 47.5698 58.0297 47.5698C58.0297 47.5698 60.6997 47.2636 65.3397 48.8272C66.6884 49.2655 67.9284 49.9509 68.9858 50.8429C70.0431 51.7349 70.8964 52.8152 71.4947 54.0194V54.0194Z" fill="#C8E1FF"/>
<path d="M64.2547 51.3839C63.7547 50.9987 63.2847 50.6275 62.7847 50.2656" stroke="#252428" stroke-width="0.5" stroke-linecap="round" stroke-linejoin="round"/>
<path d="M75.8897 43.6304C75.1147 45.8205 74.2497 48.7019 74.2297 50.7249C74.1897 54.4369 74.3597 62.1533 74.3597 62.1533C71.7789 58.6054 68.7897 55.3288 65.4447 52.3814" stroke="#252428" stroke-width="0.5" stroke-linecap="round" stroke-linejoin="round"/>
<path d="M77.1197 40.4707C77.1197 40.4707 76.8397 41.111 76.4597 42.0993" stroke="#252428" stroke-width="0.5" stroke-linecap="round" stroke-linejoin="round"/>
<path d="M74.3597 62.1532C74.3597 62.1532 62.9847 60.4225 59.8247 61.7959C56.6647 63.1694 55.7247 66.7236 55.7247 66.7236" stroke="#252428" stroke-width="0.5" stroke-linecap="round" stroke-linejoin="round"/>
<path d="M90.1697 59.4064C92.5147 59.2858 93.0747 59.7266 93.0747 59.7266" stroke="#252428" stroke-width="0.5" stroke-linecap="round" stroke-linejoin="round"/>
<path d="M64.2797 77.4468C64.2797 77.4468 63.4497 74.3241 66.2297 70.7559C69.0097 67.1877 74.6397 63.1973 74.6397 63.1973C74.6397 63.1973 84.5947 60.2695 88.5297 59.5874" stroke="#252428" stroke-width="0.5" stroke-linecap="round" stroke-linejoin="round"/>
<path d="M77.4448 59.926C75.9048 61.7495 74.6448 63.1972 74.6448 63.1972" stroke="#252428" stroke-width="0.5" stroke-linecap="round" stroke-linejoin="round"/>
<path d="M87.4897 48.8782C85.6797 50.2702 83.4297 52.1262 82.4897 53.5507C81.7247 54.7292 80.0397 56.7987 78.4247 58.7521" stroke="#252428" stroke-width="0.5" stroke-linecap="round" stroke-linejoin="round"/>
<path d="M90.0997 47.0083C90.0997 47.0083 89.4647 47.4352 88.5497 48.0941" stroke="#252428" stroke-width="0.5" stroke-linecap="round" stroke-linejoin="round"/>
<path d="M75.7347 63.9397C75.7347 63.9397 85.8697 67.4754 87.4647 68.8627C88.4159 69.6813 89.286 70.5773 90.0647 71.54" stroke="#252428" stroke-width="0.5" stroke-linecap="round" stroke-linejoin="round"/>
<path d="M75.2198 67.5125C75.1498 69.2664 75.1848 71.5168 75.6598 73.048C76.2492 74.8876 77.0139 76.6748 77.9448 78.3886" stroke="#252428" stroke-width="0.5" stroke-linecap="round" stroke-linejoin="round"/>
<path d="M75.4148 64.8677C75.4148 64.8677 75.3348 65.5266 75.2748 66.501" stroke="#252428" stroke-width="0.5" stroke-linecap="round" stroke-linejoin="round"/>
<defs>
<clipPath id="clip0_1763_5692">
<rect width="230" height="214" fill="white" transform="translate(91)"/>
</clipPath>
</defs>
</svg>
