<svg width="222" height="222" viewBox="0 0 222 222" fill="none" xmlns="http://www.w3.org/2000/svg">
<path d="M175.612 90.9755C175.43 90.9755 157.529 90.6514 157.048 90.6514C156.566 90.6514 155.036 90.6514 154.329 89.9455C153.622 89.2395 152.119 87.1172 152.066 87.024C152.049 86.9975 152.036 86.9678 152.03 86.9365C152.024 86.9053 152.024 86.8731 152.031 86.8419L156.672 67.3947C156.685 67.3377 156.721 67.2884 156.771 67.2576C156.82 67.2269 156.88 67.2171 156.937 67.2304C156.965 67.2367 156.992 67.2486 157.016 67.2655C157.04 67.2824 157.06 67.3039 157.075 67.3288C157.09 67.3536 157.1 67.3813 157.105 67.4102C157.109 67.4391 157.108 67.4685 157.101 67.4968L152.491 86.8464C152.782 87.2548 154.095 89.0663 154.647 89.6302C155.2 90.1941 156.597 90.2074 157.052 90.2074C157.507 90.2074 173.366 90.4916 175.422 90.5271L178.958 66.933C178.966 66.8741 178.997 66.8209 179.044 66.7851C179.091 66.7493 179.151 66.7338 179.209 66.742C179.268 66.7503 179.321 66.7816 179.357 66.829C179.392 66.8765 179.408 66.9362 179.4 66.9951L175.841 90.7846C175.834 90.8395 175.806 90.8896 175.763 90.9249C175.721 90.9602 175.667 90.9783 175.612 90.9755Z" fill="white"/>
<path d="M160.765 63.9981L159.293 63.9715C159.234 63.9703 159.178 63.9459 159.136 63.9036C159.095 63.8613 159.072 63.8043 159.072 63.745C159.077 63.6876 159.103 63.634 159.144 63.594C159.185 63.5541 159.24 63.5304 159.297 63.5275L160.773 63.5541C160.832 63.5541 160.888 63.5775 160.93 63.6191C160.971 63.6608 160.994 63.7172 160.994 63.7761C160.994 63.835 160.971 63.8915 160.93 63.9331C160.888 63.9747 160.832 63.9981 160.773 63.9981H160.765Z" fill="white"/>
<path d="M153.211 87.4369C153.152 87.4369 153.096 87.4135 153.055 87.3719C153.013 87.3302 152.99 87.2738 152.99 87.2149C152.99 87.156 153.013 87.0995 153.055 87.0579C153.096 87.0163 153.152 86.9929 153.211 86.9929L172.548 86.9307L176.628 64.2867L162.568 64.0292C162.51 64.028 162.455 64.0041 162.415 63.9626C162.374 63.9211 162.352 63.8653 162.352 63.8072C162.358 63.7496 162.383 63.6959 162.424 63.6554C162.466 63.6149 162.52 63.5901 162.577 63.5852L176.893 63.8472C176.926 63.848 176.958 63.856 176.987 63.8705C177.016 63.8851 177.041 63.9059 177.061 63.9315C177.081 63.9562 177.096 63.9847 177.104 64.0152C177.112 64.0458 177.114 64.0778 177.11 64.1091L172.951 87.1971C172.942 87.2485 172.916 87.2951 172.876 87.3285C172.836 87.3619 172.786 87.3799 172.734 87.3792L153.211 87.4458V87.4369Z" fill="white"/>
<path d="M174.648 89.8478L155.929 89.3683C155.869 89.3636 155.812 89.3367 155.77 89.2928L154.17 87.5168C154.129 87.4746 154.106 87.4181 154.106 87.3592C154.106 87.3004 154.129 87.2438 154.17 87.2016C154.19 87.1809 154.214 87.1645 154.241 87.1533C154.267 87.1421 154.296 87.1363 154.325 87.1363C154.354 87.1363 154.382 87.1421 154.409 87.1533C154.435 87.1645 154.459 87.1809 154.479 87.2016L156.018 88.8977L174.449 89.3728L177.791 69.0331L176.416 67.0928C176.398 67.0695 176.385 67.0427 176.378 67.0142C176.371 66.9857 176.37 66.9561 176.374 66.927C176.379 66.898 176.389 66.8701 176.404 66.8452C176.42 66.8203 176.44 66.7988 176.465 66.782C176.488 66.765 176.515 66.7529 176.544 66.7463C176.572 66.7398 176.601 66.739 176.63 66.7439C176.659 66.7489 176.687 66.7595 176.711 66.7752C176.736 66.7909 176.757 66.8113 176.774 66.8353L178.241 68.8733C178.275 68.9226 178.288 68.9833 178.277 69.042L174.891 89.6614C174.882 89.7179 174.852 89.7689 174.807 89.8037C174.761 89.8384 174.705 89.8542 174.648 89.8478Z" fill="white"/>
<path d="M157.604 88.396H160.314C160.314 88.396 159.872 90.5538 159.638 92.5918C159.403 94.6298 159.297 97.2449 159.297 97.2449L157.719 94.2923L155.797 96.792L157.604 88.396Z" fill="white"/>
<path d="M43.4137 92.8804C43.3699 92.8808 43.3271 92.8678 43.2908 92.8432C43.2545 92.8187 43.2264 92.7836 43.2104 92.7427C43.1882 92.6879 43.1883 92.6265 43.2106 92.5718C43.2329 92.517 43.2757 92.4732 43.3297 92.4497L54.7731 87.8188C55.0141 87.1435 55.2191 86.4558 55.3875 85.7586C55.4405 85.4478 55.2505 84.9816 54.8261 84.3822C54.6626 84.1513 49.2481 76.2082 48.3729 74.9295L35.2013 81.6339C35.1759 81.6477 35.1479 81.6562 35.1191 81.659C35.0903 81.6618 35.0613 81.6587 35.0337 81.65C35.0061 81.6413 34.9805 81.6272 34.9584 81.6084C34.9363 81.5896 34.9183 81.5665 34.9052 81.5406C34.8915 81.5144 34.8832 81.4858 34.8807 81.4563C34.8782 81.4269 34.8816 81.3972 34.8906 81.3691C34.8997 81.341 34.9142 81.315 34.9334 81.2926C34.9526 81.2702 34.9761 81.2519 35.0024 81.2387L48.3464 74.4455C48.3943 74.4218 48.449 74.4159 48.5008 74.4289C48.5526 74.4419 48.5982 74.473 48.6293 74.5165C48.6956 74.6098 55.0162 83.8849 55.1842 84.1247C55.5068 84.5687 55.9223 85.248 55.8251 85.8297C55.7278 86.4113 55.1842 87.9919 55.1621 88.0497C55.1515 88.0804 55.1347 88.1085 55.1126 88.1322C55.0905 88.1559 55.0637 88.1747 55.0339 88.1873L43.4977 92.8537C43.472 92.8687 43.4433 92.8778 43.4137 92.8804Z" fill="white"/>
<path d="M40.6689 92.9913C40.633 92.991 40.5978 92.982 40.5663 92.965C40.5347 92.9479 40.5077 92.9235 40.4877 92.8937L39.9661 92.13C39.9327 92.0811 39.92 92.0209 39.9307 91.9626C39.9415 91.9043 39.9749 91.8527 40.0236 91.8192C40.0722 91.7856 40.1321 91.7728 40.1902 91.7837C40.2482 91.7945 40.2995 91.828 40.333 91.8769L40.8545 92.645C40.8858 92.6938 40.8973 92.7527 40.8866 92.8097C40.8759 92.8667 40.8439 92.9174 40.7971 92.9514C40.7592 92.9772 40.7146 92.9911 40.6689 92.9913Z" fill="white"/>
<path d="M39.5109 91.2908C39.4751 91.2905 39.4399 91.2814 39.4083 91.2644C39.3767 91.2474 39.3497 91.2229 39.3297 91.1931L34.2776 83.7739C34.2598 83.7475 34.2477 83.7176 34.2424 83.6862C34.2371 83.6548 34.2385 83.6226 34.2467 83.5918C34.2554 83.561 34.2706 83.5324 34.2912 83.5079C34.3117 83.4834 34.3373 83.4636 34.366 83.4497L47.5686 77.2337C47.6151 77.2106 47.6684 77.205 47.7187 77.2181C47.769 77.2311 47.813 77.2619 47.8426 77.3048L54.9455 87.2637C54.9791 87.3117 54.9928 87.371 54.9837 87.429C54.9747 87.487 54.9435 87.5391 54.8969 87.5745C54.8732 87.5915 54.8463 87.6037 54.8178 87.6102C54.7894 87.6168 54.7599 87.6176 54.7312 87.6126C54.7024 87.6077 54.6749 87.5971 54.6502 87.5814C54.6256 87.5657 54.6043 87.5452 54.5875 87.5212L47.5907 77.6999L34.7727 83.7384L39.6789 90.9445C39.7108 90.9934 39.7223 91.0531 39.7107 91.1104C39.6991 91.1678 39.6654 91.2183 39.617 91.2508C39.586 91.2738 39.5493 91.2876 39.5109 91.2908Z" fill="white"/>
<path d="M54.424 86.9707H54.3798C54.3229 86.9579 54.2732 86.9235 54.241 86.8746C54.2089 86.8258 54.1968 86.7663 54.2074 86.7087L54.508 85.3412L48.1476 75.8263L36.744 81.434L36.271 82.8371C36.251 82.8925 36.2102 82.9379 36.1574 82.9636C36.1046 82.9893 36.0439 82.9933 35.9882 82.9747C35.9333 82.9555 35.8882 82.9154 35.8625 82.8631C35.8369 82.8107 35.8328 82.7503 35.8511 82.695L36.355 81.2031C36.3738 81.1474 36.4134 81.1013 36.4655 81.0744L48.1432 75.3423C48.1914 75.3181 48.2467 75.3124 48.2988 75.3263C48.3509 75.3402 48.3962 75.3727 48.426 75.4178L54.9588 85.1858C54.9763 85.2098 54.9885 85.2372 54.9946 85.2663C55.0007 85.2954 55.0006 85.3255 54.9942 85.3545L54.6759 86.8153C54.6604 86.8679 54.6261 86.9129 54.5796 86.9415C54.5331 86.9702 54.4777 86.9806 54.424 86.9707Z" fill="white"/>
<path d="M53.7742 84.7062L52.793 83.321C52.793 83.321 54.0483 82.7704 55.1665 82.1444C56.2848 81.5183 57.6461 80.6348 57.6461 80.6348L56.7223 82.5129L58.6804 82.5884L53.7742 84.7062Z" fill="white"/>
<path d="M50.3046 127.086H50.2781C50.2429 127.08 50.2094 127.066 50.1803 127.046C50.1512 127.025 50.1272 126.998 50.1102 126.966L42.0216 111.426C41.9996 111.371 41.9996 111.309 42.0216 111.253C42.0403 111.197 42.08 111.151 42.1321 111.124L43.047 110.68C43.0985 110.659 43.1562 110.658 43.2086 110.677C43.2609 110.696 43.304 110.735 43.3292 110.785C43.3544 110.835 43.3598 110.893 43.3443 110.947C43.3289 111.001 43.2937 111.047 43.2459 111.075L42.5343 111.435L50.3709 126.5L63.7061 112.23C63.7312 112.202 63.7633 112.182 63.7989 112.172L80.0512 107.133L72.0113 94.2567L71.419 94.3011C71.3898 94.3042 71.3604 94.3012 71.3324 94.2925C71.3044 94.2838 71.2784 94.2694 71.2561 94.2503C71.2338 94.2312 71.2156 94.2078 71.2025 94.1814C71.1895 94.155 71.1819 94.1263 71.1803 94.0969C71.1766 94.0387 71.1959 93.9814 71.234 93.9374C71.272 93.8933 71.3258 93.8661 71.3836 93.8616L72.1129 93.8038C72.153 93.7997 72.1933 93.8071 72.2293 93.8252C72.2653 93.8433 72.2955 93.8713 72.3162 93.906L80.5772 107.15C80.5921 107.181 80.5998 107.214 80.5998 107.248C80.5998 107.282 80.5921 107.315 80.5772 107.346C80.5653 107.378 80.5464 107.407 80.5219 107.431C80.4975 107.454 80.468 107.472 80.4358 107.483L63.9624 112.585L50.4682 127.024C50.4239 127.065 50.3652 127.088 50.3046 127.086Z" fill="white"/>
<path d="M50.4815 124.968H50.4461C50.4132 124.962 50.3821 124.949 50.3553 124.929C50.3284 124.909 50.3066 124.883 50.2914 124.853L42.5564 110.019C42.532 109.973 42.5244 109.921 42.5349 109.87C42.5454 109.82 42.5734 109.775 42.6139 109.743C42.6492 109.712 46.2825 106.724 47.9974 102.586C49.5798 98.7677 52.3025 96.8719 55.2816 97.5112C55.3125 97.5179 55.3415 97.5313 55.3667 97.5505C55.3919 97.5697 55.4127 97.5942 55.4274 97.6222L62.6365 110.689C62.6572 110.727 62.6667 110.769 62.6638 110.812C62.6608 110.855 62.6455 110.896 62.6198 110.931C62.5941 110.965 62.559 110.991 62.5188 111.006C62.4786 111.02 62.435 111.023 62.3934 111.013C62.274 110.987 59.432 110.396 58.7911 113.144C58.1015 116.084 55.0827 119.867 53.6329 121.683L53.4738 121.887C52.6067 122.969 51.6564 123.982 50.6317 124.915C50.5898 124.95 50.5363 124.969 50.4815 124.968ZM43.0249 109.965L50.5389 124.387C51.4649 123.522 52.3276 122.592 53.1202 121.603L53.2793 121.398C54.7114 119.622 57.6993 115.88 58.3491 113.038C58.9281 110.569 61.0806 110.445 62.0265 110.516L55.0871 97.9197C52.3732 97.3913 49.8803 99.1895 48.3996 102.755C46.835 106.529 43.7189 109.366 43.0249 109.965Z" fill="white"/>
<path d="M62.4374 111C62.3981 111 62.3594 110.991 62.3252 110.971C62.291 110.951 62.2626 110.923 62.2429 110.889L55.0339 97.8176C55.0186 97.7684 55.0186 97.7158 55.0339 97.6666C55.5555 95.2246 58.2252 94.1146 63.6883 94.1146C68.4575 94.1146 70.389 92.5917 70.4067 92.5784C70.4312 92.5585 70.4596 92.5439 70.49 92.5355C70.5204 92.5271 70.5523 92.5251 70.5835 92.5295C70.6142 92.5352 70.6434 92.5472 70.6693 92.5647C70.6952 92.5823 70.7171 92.6051 70.7338 92.6317L78.8224 105.876C78.8515 105.926 78.8608 105.984 78.8485 106.04C78.8362 106.096 78.8032 106.146 78.7561 106.178C78.734 106.178 78.1638 106.56 74.8311 107.617C72.5194 108.354 69.9691 108.252 67.9138 108.172C67.0982 108.125 66.2807 108.125 65.4651 108.172C63.5292 108.332 62.6761 110.836 62.6673 110.836C62.6537 110.877 62.6284 110.913 62.5947 110.94C62.5609 110.966 62.5201 110.983 62.4772 110.987L62.4374 111ZM55.4627 97.6799L62.4065 110.272C62.7689 109.473 63.706 107.879 65.4077 107.737C66.2409 107.69 67.0761 107.69 67.9094 107.737C69.9249 107.816 72.4355 107.914 74.6764 107.204C75.9058 106.842 77.1143 106.412 78.2964 105.916L70.4597 93.0757C69.8409 93.4797 67.7856 94.5675 63.6662 94.5675C58.5125 94.5719 55.9754 95.5487 55.4627 97.6799Z" fill="white"/>
<path d="M56.108 119.667C56.0586 119.668 56.0104 119.652 55.9709 119.623C55.9251 119.585 55.8957 119.531 55.8891 119.472C55.8825 119.413 55.8992 119.354 55.9356 119.307C56.7886 118.233 57.4649 117.283 58.0616 116.443C58.7198 115.421 59.4908 114.477 60.36 113.629C61.1207 112.972 61.9686 112.425 62.8794 112.003C62.9058 111.992 62.9342 111.986 62.963 111.985C62.9918 111.985 63.0204 111.99 63.0472 112.001C63.0739 112.011 63.0983 112.027 63.1188 112.048C63.1393 112.068 63.1556 112.092 63.1667 112.119C63.1891 112.173 63.1897 112.234 63.1683 112.289C63.1468 112.343 63.105 112.388 63.0518 112.412C62.1834 112.817 61.3744 113.34 60.6473 113.966C59.81 114.792 59.0686 115.711 58.4373 116.705C57.8362 117.549 57.1555 118.481 56.2936 119.587C56.2712 119.614 56.2427 119.636 56.2104 119.649C56.1781 119.663 56.143 119.669 56.108 119.667Z" fill="white"/>
<path d="M64.3691 111.369C64.3204 111.369 64.2732 111.352 64.2365 111.32C64.1903 111.284 64.1601 111.231 64.1527 111.173C64.1452 111.114 64.1611 111.055 64.1967 111.009C65.0315 109.994 66.217 109.332 67.5161 109.157L68.3073 109.095C71.6982 108.908 75.0349 108.158 78.1816 106.875C78.2367 106.854 78.2979 106.856 78.3518 106.88C78.4056 106.904 78.4478 106.949 78.4689 107.004C78.49 107.059 78.4883 107.121 78.4643 107.175C78.4402 107.229 78.3958 107.271 78.3407 107.293C75.153 108.587 71.7753 109.346 68.3427 109.539L67.5559 109.601C66.3792 109.767 65.306 110.367 64.5459 111.284C64.5242 111.31 64.4972 111.331 64.4667 111.346C64.4362 111.36 64.4029 111.368 64.3691 111.369Z" fill="white"/>
<path d="M45.3851 112.074C45.342 112.075 45.2997 112.062 45.2635 112.039C45.2273 112.015 45.1987 111.982 45.1813 111.942C45.164 111.902 45.1585 111.858 45.1657 111.816C45.1728 111.773 45.1922 111.733 45.2216 111.701C46.7241 109.966 48.1261 108.146 49.4206 106.249C51.9179 102.67 53.7522 101.21 55.7544 101.21C55.813 101.21 55.8692 101.233 55.9107 101.275C55.9521 101.316 55.9754 101.373 55.9754 101.432C55.9754 101.491 55.9521 101.547 55.9107 101.589C55.8692 101.63 55.813 101.654 55.7544 101.654C53.9157 101.654 52.1831 103.061 49.783 106.507C48.4753 108.417 47.0616 110.252 45.5486 112.003C45.5278 112.026 45.5025 112.044 45.4743 112.056C45.4462 112.068 45.4158 112.075 45.3851 112.074Z" fill="white"/>
<path d="M46.7907 114.37C46.7352 114.37 46.6815 114.35 46.6404 114.312C46.6199 114.292 46.6035 114.268 46.5924 114.241C46.5812 114.214 46.5754 114.186 46.5754 114.157C46.5754 114.128 46.5812 114.099 46.5924 114.073C46.6035 114.046 46.6199 114.022 46.6404 114.001C48.1416 112.263 49.5449 110.441 50.8439 108.545C53.3367 104.966 55.171 103.505 57.1777 103.505C57.236 103.506 57.2915 103.53 57.3327 103.572C57.3739 103.613 57.3976 103.669 57.3987 103.727C57.3987 103.786 57.3754 103.843 57.334 103.884C57.2926 103.926 57.2363 103.949 57.1777 103.949C55.3346 103.949 53.6064 105.357 51.2019 108.802C49.8942 110.713 48.4805 112.548 46.9675 114.299C46.9452 114.323 46.9177 114.342 46.8871 114.355C46.8565 114.367 46.8236 114.372 46.7907 114.37Z" fill="white"/>
<path d="M48.1963 116.665C48.154 116.665 48.1128 116.652 48.0774 116.629C48.0421 116.606 48.0141 116.573 47.9969 116.534C47.9797 116.495 47.9739 116.452 47.9803 116.41C47.9866 116.368 48.0049 116.329 48.0328 116.297C49.5334 114.559 50.9367 112.739 52.2362 110.845C54.7291 107.262 56.5634 105.801 58.5701 105.801C58.6283 105.802 58.6839 105.826 58.7251 105.867C58.7663 105.908 58.7899 105.964 58.791 106.023C58.791 106.082 58.7678 106.138 58.7263 106.18C58.6849 106.221 58.6287 106.245 58.5701 106.245C56.7269 106.245 54.9987 107.652 52.5986 111.098C51.2887 113.008 49.8736 114.843 48.3598 116.594C48.3392 116.617 48.3139 116.635 48.2857 116.648C48.2575 116.66 48.227 116.666 48.1963 116.665Z" fill="white"/>
<path d="M49.6017 118.961C49.5748 118.961 49.5481 118.957 49.523 118.947C49.498 118.937 49.4752 118.922 49.4559 118.903C49.4353 118.883 49.4189 118.859 49.4078 118.832C49.3966 118.805 49.3909 118.777 49.3909 118.748C49.3909 118.719 49.3966 118.69 49.4078 118.664C49.4189 118.637 49.4353 118.613 49.4559 118.592C50.9581 116.856 52.3615 115.036 53.6593 113.14C56.1522 109.557 57.9865 108.101 59.9932 108.101C60.0518 108.101 60.108 108.124 60.1494 108.166C60.1909 108.207 60.2142 108.264 60.2142 108.323C60.2142 108.382 60.1909 108.438 60.1494 108.48C60.108 108.521 60.0518 108.545 59.9932 108.545C58.15 108.545 56.4218 109.948 54.0217 113.393C52.715 115.306 51.2997 117.141 49.783 118.89C49.7604 118.915 49.7322 118.935 49.7007 118.947C49.6693 118.959 49.6354 118.964 49.6017 118.961Z" fill="white"/>
<path d="M58.2163 100.597H58.1411C58.0868 100.576 58.0426 100.535 58.0179 100.482C57.9932 100.429 57.9898 100.368 58.0085 100.313C58.0085 100.291 58.7997 98.2216 61.5445 98.2216C66.6938 98.2216 70.0354 97.4224 70.4774 96.0771C70.4961 96.0182 70.5374 95.9692 70.5921 95.9409C70.6192 95.9269 70.6488 95.9184 70.6791 95.9158C70.7095 95.9133 70.7401 95.9168 70.7691 95.9261C70.7981 95.9355 70.825 95.9504 70.8483 95.9702C70.8715 95.99 70.8907 96.0142 70.9046 96.0414C70.9186 96.0686 70.9271 96.0983 70.9296 96.1288C70.9321 96.1593 70.9287 96.19 70.9194 96.2192C70.2166 98.3504 64.7579 98.6656 61.5666 98.6656C59.1268 98.6656 58.4726 100.388 58.4329 100.464C58.4148 100.506 58.3843 100.541 58.3455 100.565C58.3068 100.589 58.2616 100.6 58.2163 100.597Z" fill="white"/>
<path d="M59.7987 103.243C59.7495 103.244 59.7015 103.228 59.6617 103.199C59.6162 103.162 59.5869 103.109 59.5803 103.051C59.5737 102.993 59.5902 102.934 59.6264 102.888C59.6794 102.817 60.9524 101.21 64.369 101.21C68.042 101.21 70.7692 100.344 72.4797 98.6257C72.521 98.585 72.5766 98.5623 72.6344 98.5623C72.6923 98.5623 72.7478 98.585 72.7891 98.6257C72.8098 98.6464 72.8263 98.6709 72.8375 98.698C72.8487 98.725 72.8545 98.754 72.8545 98.7833C72.8545 98.8126 72.8487 98.8417 72.8375 98.8687C72.8263 98.8958 72.8098 98.9203 72.7891 98.941C70.999 100.744 68.1658 101.676 64.369 101.676C61.1955 101.676 59.9844 103.168 59.9755 103.181C59.9524 103.204 59.9246 103.221 59.894 103.232C59.8635 103.243 59.8309 103.247 59.7987 103.243Z" fill="white"/>
<path d="M60.855 105.894C60.8229 105.893 60.7913 105.885 60.7622 105.872C60.7358 105.86 60.7121 105.843 60.6924 105.821C60.6727 105.8 60.6574 105.775 60.6476 105.748C60.6377 105.72 60.6333 105.691 60.6348 105.662C60.6363 105.633 60.6435 105.605 60.6561 105.579C61.065 104.815 61.68 104.182 62.4305 103.753C63.181 103.325 64.0367 103.117 64.8993 103.155C68.5944 103.155 71.8299 102.378 73.5581 101.081C73.5811 101.063 73.6075 101.05 73.6357 101.042C73.6639 101.035 73.6933 101.033 73.7222 101.037C73.7511 101.041 73.7789 101.051 73.8038 101.066C73.8288 101.081 73.8504 101.102 73.8675 101.125C73.9015 101.173 73.9159 101.232 73.9077 101.29C73.8995 101.348 73.8692 101.4 73.8233 101.436C71.2287 103.385 66.7159 103.599 64.8993 103.599C64.1207 103.562 63.3475 103.746 62.6677 104.129C61.9878 104.512 61.4287 105.079 61.0539 105.765C61.0367 105.804 61.0088 105.836 60.9735 105.859C60.9382 105.882 60.897 105.894 60.855 105.894Z" fill="white"/>
<path d="M62.0838 107.834C62.0633 107.838 62.0423 107.838 62.0219 107.834C61.9663 107.817 61.9196 107.778 61.8915 107.727C61.8635 107.676 61.8564 107.615 61.8716 107.559C61.8981 107.479 62.4816 105.641 65.5888 105.459C68.8225 105.287 72.0054 104.577 75.0078 103.359C75.0347 103.343 75.0646 103.333 75.0955 103.33C75.1264 103.327 75.1576 103.33 75.1871 103.34C75.2166 103.35 75.2438 103.366 75.2668 103.387C75.2898 103.407 75.3081 103.433 75.3206 103.462C75.3331 103.49 75.3395 103.521 75.3393 103.552C75.3391 103.583 75.3324 103.614 75.3196 103.643C75.3067 103.671 75.2881 103.696 75.2648 103.717C75.2416 103.738 75.2143 103.753 75.1846 103.763C72.136 105.007 68.9016 105.731 65.6153 105.903C62.8352 106.067 62.318 107.621 62.2959 107.679C62.2817 107.724 62.2535 107.764 62.2153 107.792C62.1771 107.82 62.131 107.835 62.0838 107.834Z" fill="white"/>
<path d="M147.686 55.9795C147.653 55.9757 147.621 55.9645 147.593 55.9469C147.565 55.9292 147.541 55.9055 147.522 55.8774L141.299 45.7675L129.4 39.254C129.369 39.2378 129.342 39.2139 129.322 39.1844C129.301 39.1549 129.289 39.1208 129.286 39.0853C129.281 39.0501 129.286 39.0144 129.298 38.9812C129.31 38.948 129.33 38.9182 129.356 38.8944L138.249 30.8003C138.271 30.7801 138.297 30.7645 138.325 30.7546C138.353 30.7447 138.383 30.7406 138.413 30.7425C138.442 30.7444 138.47 30.7521 138.496 30.765C138.521 30.778 138.544 30.796 138.563 30.818L139.027 31.3508C139.057 31.3958 139.07 31.4503 139.063 31.5039C139.056 31.5576 139.029 31.6069 138.988 31.6423C138.948 31.6778 138.895 31.6971 138.842 31.6966C138.788 31.696 138.736 31.6757 138.696 31.6394L138.382 31.2798L129.882 39.0143L141.547 45.4034C141.58 45.4242 141.608 45.4513 141.631 45.4833L147.735 55.3979L154.785 47.8854L154.665 47.5391C154.656 47.5114 154.652 47.482 154.653 47.4528C154.655 47.4235 154.662 47.3949 154.675 47.3685C154.688 47.3421 154.706 47.3185 154.727 47.299C154.749 47.2795 154.775 47.2645 154.802 47.2549C154.83 47.2453 154.859 47.2412 154.888 47.2429C154.917 47.2446 154.946 47.2521 154.972 47.2649C154.998 47.2776 155.022 47.2955 155.041 47.3174C155.061 47.3393 155.075 47.3648 155.085 47.3925L155.249 47.8676C155.262 47.9062 155.265 47.9478 155.256 47.9877C155.247 48.0277 155.228 48.0645 155.2 48.0941L147.858 55.9129C147.836 55.9356 147.809 55.9533 147.779 55.9647C147.75 55.9762 147.718 55.9813 147.686 55.9795Z" fill="white"/>
<path d="M142.249 44.6087C142.223 44.6128 142.196 44.6128 142.17 44.6087C142.13 44.5925 142.095 44.5651 142.07 44.5296C142.045 44.4942 142.03 44.4523 142.028 44.4088C142.028 44.3289 141.927 42.3798 140.066 42.4375C137.971 42.4819 134.943 41.1055 133.484 40.4617L133.325 40.3907C132.454 39.9975 131.615 39.5374 130.815 39.0143C130.787 38.9954 130.764 38.9704 130.747 38.9412C130.73 38.9119 130.72 38.8792 130.718 38.8455C130.715 38.8114 130.721 38.7773 130.734 38.7457C130.747 38.7141 130.767 38.686 130.793 38.6635L139.288 30.9068C139.328 30.8744 139.378 30.8567 139.429 30.8567C139.481 30.8567 139.531 30.8744 139.571 30.9068C141.26 32.0878 143.184 32.8875 145.211 33.2511C148.048 33.6552 149.799 35.1736 149.891 37.3093C149.893 37.3405 149.888 37.3717 149.876 37.4008C149.865 37.4298 149.847 37.4562 149.825 37.478L142.417 44.582C142.367 44.6121 142.307 44.6217 142.249 44.6087ZM140.132 41.9757C140.683 41.9652 141.219 42.1583 141.638 42.5184C142.057 42.8786 142.329 43.3806 142.404 43.9293L149.454 37.2116C149.321 35.3335 147.761 34.0503 145.158 33.6596C143.115 33.309 141.172 32.5167 139.465 31.3375L131.301 38.7834C132.009 39.2299 132.748 39.626 133.511 39.9688L133.67 40.0399C135.102 40.6837 138.09 42.029 140.061 41.9757H140.132Z" fill="white"/>
<path d="M148.212 54.612C148.157 54.612 148.104 54.5932 148.062 54.5587C148.026 54.5232 147.677 54.1857 146.417 52.17C145.533 50.7403 145.144 49.0087 144.844 47.619C144.736 47.0689 144.598 46.525 144.433 45.9895C143.991 44.7641 142.254 44.6309 142.223 44.6264C142.18 44.6241 142.139 44.6095 142.105 44.5843C142.07 44.5591 142.044 44.5244 142.028 44.4843C142.014 44.443 142.012 44.3985 142.022 44.3561C142.033 44.3137 142.055 44.275 142.086 44.2446L149.494 37.1628C149.532 37.1266 149.582 37.106 149.635 37.1051C151.372 37.0207 152.588 38.6369 153.542 42.3309C154.365 45.5055 155.686 46.5045 155.699 46.5134C155.725 46.5322 155.746 46.5561 155.762 46.5836C155.778 46.6111 155.789 46.6416 155.792 46.6733C155.795 46.7049 155.79 46.7366 155.78 46.7664C155.769 46.7963 155.752 46.8235 155.73 46.8464L148.371 54.5232C148.352 54.5483 148.328 54.5691 148.301 54.5844C148.273 54.5997 148.243 54.6091 148.212 54.612ZM142.731 44.2535C143.368 44.3911 144.477 44.7729 144.848 45.843C145.029 46.393 145.176 46.9535 145.29 47.5213C145.586 48.8799 145.958 50.5671 146.811 51.9347C147.251 52.6673 147.727 53.3771 148.238 54.0614L155.279 46.7043C154.86 46.3003 153.834 45.0882 153.145 42.4419C152.283 39.1075 151.209 37.5579 149.772 37.5579L142.731 44.2535Z" fill="white"/>
<path d="M141.405 45.2036C141.372 45.2031 141.339 45.1953 141.31 45.1807C141.28 45.1661 141.253 45.1451 141.233 45.1192C140.819 44.6109 140.337 44.1626 139.801 43.7872C139.112 43.3719 138.38 43.0339 137.617 42.7793C136.954 42.5263 136.203 42.2377 135.332 41.8469C135.279 41.8227 135.237 41.7783 135.216 41.7233C135.196 41.6684 135.198 41.6075 135.221 41.5539C135.233 41.527 135.25 41.5027 135.271 41.4825C135.292 41.4622 135.317 41.4465 135.344 41.4361C135.371 41.4257 135.4 41.421 135.429 41.4222C135.458 41.4233 135.487 41.4304 135.513 41.4429C136.371 41.8247 137.118 42.1133 137.772 42.3664C138.57 42.6304 139.335 42.985 140.053 43.4231C140.623 43.8229 141.137 44.2978 141.582 44.8351C141.618 44.8823 141.634 44.9419 141.626 45.0009C141.619 45.0598 141.589 45.1135 141.542 45.1503C141.504 45.1832 141.455 45.202 141.405 45.2036Z" fill="white"/>
<path d="M147.447 54.5409C147.412 54.5407 147.377 54.5322 147.346 54.516C147.314 54.4998 147.287 54.4764 147.266 54.4476C145.853 52.5365 144.763 50.405 144.039 48.1384C143.978 47.9519 143.916 47.7788 143.863 47.6234C143.552 46.8847 142.983 46.286 142.263 45.9406C142.233 45.9312 142.206 45.9157 142.182 45.895C142.159 45.8743 142.14 45.849 142.128 45.8206C142.115 45.7921 142.108 45.7613 142.108 45.7301C142.108 45.6989 142.114 45.6681 142.127 45.6395C142.139 45.6109 142.157 45.5854 142.18 45.5644C142.203 45.5434 142.231 45.5276 142.26 45.5179C142.29 45.5082 142.321 45.5048 142.352 45.508C142.383 45.5112 142.412 45.521 142.439 45.5366C143.275 45.924 143.932 46.6161 144.278 47.4724C144.336 47.6322 144.393 47.8054 144.455 47.9919C145.166 50.2247 146.238 52.3247 147.628 54.2079C147.645 54.2314 147.657 54.258 147.664 54.2863C147.67 54.3145 147.671 54.3437 147.666 54.3723C147.661 54.4008 147.651 54.4281 147.635 54.4524C147.619 54.4768 147.599 54.4978 147.575 54.5142C147.537 54.5374 147.492 54.5468 147.447 54.5409Z" fill="white"/>
<path d="M147.293 38.5214C147.244 38.5209 147.196 38.504 147.158 38.4735C147.119 38.443 147.092 38.4005 147.08 38.3527C146.767 37.1495 145.551 36.2482 142.877 35.2447C141.381 34.7011 139.917 34.0726 138.492 33.3622C138.465 33.3497 138.44 33.3316 138.419 33.3092C138.399 33.2867 138.383 33.2602 138.374 33.2314C138.364 33.2026 138.36 33.1721 138.363 33.1417C138.365 33.1114 138.374 33.0819 138.388 33.055C138.402 33.0282 138.422 33.0046 138.446 32.9857C138.469 32.9668 138.497 32.953 138.526 32.9451C138.555 32.9373 138.586 32.9356 138.616 32.9401C138.646 32.9446 138.674 32.9553 138.7 32.9714C140.107 33.6707 141.552 34.2917 143.027 34.8318C145.856 35.8841 147.156 36.8742 147.509 38.2373C147.516 38.2656 147.518 38.295 147.514 38.3239C147.51 38.3529 147.5 38.3807 147.486 38.4059C147.471 38.431 147.451 38.453 147.428 38.4706C147.405 38.4881 147.378 38.5009 147.35 38.5081L147.293 38.5214Z" fill="white"/>
<path d="M146.015 39.8579C145.967 39.8576 145.92 39.8414 145.882 39.8117C145.843 39.782 145.816 39.7405 145.803 39.6936C145.489 38.4859 144.274 37.589 141.6 36.5856C140.104 36.0396 138.64 35.4096 137.215 34.6986C137.187 34.6861 137.163 34.6681 137.142 34.6456C137.122 34.6231 137.106 34.5966 137.096 34.5678C137.087 34.539 137.083 34.5085 137.085 34.4782C137.088 34.4478 137.096 34.4183 137.111 34.3915C137.125 34.3646 137.144 34.341 137.168 34.3221C137.192 34.3032 137.219 34.2894 137.249 34.2815C137.278 34.2737 137.308 34.272 137.338 34.2765C137.368 34.281 137.397 34.2917 137.423 34.3079C138.83 35.0099 140.277 35.631 141.754 36.1682C144.579 37.2249 145.878 38.2106 146.232 39.5737C146.24 39.602 146.242 39.6316 146.238 39.6607C146.234 39.6899 146.225 39.718 146.21 39.7433C146.195 39.7686 146.175 39.7906 146.152 39.808C146.128 39.8254 146.101 39.8378 146.073 39.8445C146.055 39.8533 146.035 39.8578 146.015 39.8579Z" fill="white"/>
<path d="M144.738 41.1943C144.689 41.194 144.643 41.1778 144.604 41.1481C144.566 41.1184 144.538 41.0769 144.526 41.03C144.212 39.8223 142.996 38.9254 140.322 37.922C138.826 37.3784 137.363 36.7499 135.938 36.0394C135.912 36.0257 135.889 36.007 135.87 35.9845C135.852 35.9619 135.838 35.9358 135.829 35.9078C135.82 35.8797 135.817 35.8503 135.82 35.8211C135.823 35.7918 135.831 35.7635 135.845 35.7375C135.858 35.7116 135.877 35.6886 135.9 35.6698C135.922 35.6511 135.948 35.637 135.976 35.6284C136.004 35.6197 136.033 35.6166 136.062 35.6194C136.091 35.6221 136.12 35.6306 136.145 35.6443C137.553 36.3463 138.999 36.9674 140.477 37.5046C143.301 38.5613 144.601 39.547 144.954 40.9145C144.962 40.9428 144.963 40.9723 144.959 41.0012C144.955 41.0301 144.946 41.058 144.931 41.0832C144.916 41.1083 144.897 41.1303 144.873 41.1478C144.85 41.1654 144.824 41.1781 144.795 41.1854L144.738 41.1943Z" fill="white"/>
<path d="M143.46 42.5351C143.412 42.5346 143.364 42.5177 143.326 42.4872C143.287 42.4566 143.26 42.4142 143.248 42.3664C142.935 41.1632 141.719 40.2618 139.045 39.2584C137.549 38.7148 136.085 38.0863 134.66 37.3758C134.609 37.3476 134.57 37.3002 134.553 37.2438C134.535 37.1874 134.541 37.1265 134.567 37.0739C134.596 37.0229 134.644 36.9849 134.699 36.9676C134.755 36.9502 134.815 36.9549 134.868 36.9807C136.275 37.685 137.721 38.3062 139.2 38.841C142.024 39.8978 143.323 40.8879 143.677 42.251C143.684 42.2792 143.686 42.3087 143.682 42.3376C143.678 42.3666 143.668 42.3944 143.653 42.4196C143.639 42.4447 143.619 42.4667 143.596 42.4842C143.573 42.5018 143.546 42.5146 143.518 42.5218L143.46 42.5351Z" fill="white"/>
<path d="M153.392 47.5924C151.894 47.4902 150.767 44.3378 150.086 41.7138C149.675 40.1332 148.464 39.9866 148.411 39.9822C148.353 39.9755 148.3 39.9461 148.264 39.9003C148.227 39.8546 148.21 39.7962 148.216 39.738C148.223 39.6803 148.252 39.6274 148.296 39.5902C148.34 39.553 148.397 39.5344 148.455 39.5382C148.521 39.5382 150.024 39.7069 150.515 41.5984C151.399 45.0127 152.486 47.0862 153.419 47.1484C153.448 47.1501 153.476 47.1575 153.502 47.1703C153.528 47.183 153.552 47.2008 153.571 47.2227C153.59 47.2446 153.605 47.27 153.615 47.2977C153.624 47.3253 153.628 47.3545 153.626 47.3837C153.622 47.4422 153.595 47.4966 153.551 47.5355C153.508 47.5745 153.451 47.5948 153.392 47.5924Z" fill="white"/>
<path d="M151.973 49.3417C151.933 49.3426 151.893 49.3318 151.858 49.3106C150.338 48.4226 149.233 46.6466 148.57 44.1114C148.031 42.029 146.864 41.4829 146.851 41.4785C146.803 41.4511 146.768 41.4073 146.751 41.3553C146.734 41.3034 146.737 41.2469 146.759 41.1969C146.781 41.1468 146.82 41.1066 146.87 41.084C146.919 41.0614 146.975 41.058 147.027 41.0744C147.085 41.0744 148.402 41.6872 148.999 44.0004C149.631 46.438 150.669 48.0941 152.093 48.9288C152.143 48.9585 152.179 49.0068 152.194 49.0633C152.209 49.1199 152.201 49.18 152.172 49.2307C152.152 49.2653 152.123 49.2938 152.088 49.3133C152.053 49.3328 152.013 49.3426 151.973 49.3417Z" fill="white"/>
<path d="M150.515 50.4738C150.465 50.4755 150.416 50.4581 150.378 50.425C148.61 49.0175 147.695 46.025 147.377 44.7995C147.267 44.2872 147.017 43.8156 146.656 43.4377C146.294 43.0597 145.835 42.7903 145.33 42.6594C145.273 42.6486 145.222 42.6155 145.189 42.5673C145.156 42.519 145.143 42.4596 145.153 42.4019C145.164 42.3441 145.197 42.2927 145.245 42.2587C145.293 42.2247 145.352 42.2108 145.41 42.2199C145.999 42.3657 146.535 42.6742 146.959 43.1105C147.382 43.5468 147.675 44.0934 147.805 44.6885C148.442 47.1438 149.507 49.1596 150.652 50.0787C150.675 50.0969 150.694 50.1195 150.709 50.1453C150.723 50.1711 150.732 50.1995 150.736 50.2288C150.739 50.2582 150.736 50.2879 150.728 50.3163C150.72 50.3446 150.706 50.371 150.687 50.3939C150.667 50.4198 150.64 50.4405 150.61 50.4543C150.581 50.4682 150.548 50.4749 150.515 50.4738Z" fill="white"/>
<path d="M149.238 51.8148C149.204 51.8141 149.172 51.8061 149.142 51.7916C149.112 51.777 149.086 51.7562 149.065 51.7305C147.707 49.9013 146.661 47.8576 145.971 45.6832C145.397 43.9072 144.322 43.8228 144.278 43.8228C144.219 43.8194 144.164 43.7928 144.124 43.7488C144.085 43.7048 144.064 43.6468 144.066 43.5875C144.065 43.5579 144.071 43.5285 144.082 43.5013C144.094 43.474 144.111 43.4496 144.133 43.4298C144.155 43.4099 144.181 43.3951 144.209 43.3863C144.237 43.3775 144.267 43.375 144.296 43.3788C144.353 43.3788 145.719 43.4543 146.391 45.5456C147.069 47.667 148.087 49.6631 149.405 51.4552C149.441 51.5017 149.457 51.5606 149.449 51.6188C149.442 51.6771 149.412 51.73 149.366 51.766C149.329 51.7952 149.284 51.8123 149.238 51.8148Z" fill="white"/>
<path d="M68.7713 61.3208H68.7183L67.1182 60.9212C67.0845 60.9126 67.0533 60.8961 67.0272 60.873C67.001 60.85 66.9806 60.821 66.9677 60.7886C66.9548 60.7561 66.9497 60.7211 66.9528 60.6862C66.9559 60.6514 66.9672 60.6179 66.9856 60.5882L74.3715 48.9554C74.4031 48.9054 74.4533 48.87 74.5109 48.8571C74.5685 48.8442 74.6288 48.8548 74.6787 48.8866C74.7285 48.9184 74.7637 48.9688 74.7765 49.0266C74.7894 49.0845 74.7788 49.1451 74.7472 49.1952L67.5249 60.566L68.6741 60.8546L75.9715 49.9544C76.0031 49.9076 76.051 49.8743 76.1058 49.8611C76.1606 49.848 76.2184 49.8559 76.2676 49.8834L87.8967 56.6189L89.1608 55.349L76.4533 48.689C76.4011 48.662 76.3618 48.6152 76.344 48.559C76.3262 48.5027 76.3313 48.4417 76.3583 48.3893C76.3852 48.3369 76.4318 48.2974 76.4877 48.2795C76.5437 48.2616 76.6044 48.2668 76.6566 48.2939L89.6337 55.1137C89.6648 55.1295 89.6916 55.1528 89.7117 55.1814C89.7317 55.2101 89.7444 55.2432 89.7486 55.278C89.754 55.3118 89.7512 55.3464 89.7404 55.3788C89.7296 55.4113 89.7112 55.4407 89.6868 55.4645L88.0911 57.0718C88.0569 57.106 88.0124 57.128 87.9645 57.1344C87.9166 57.1408 87.8679 57.1313 87.826 57.1073L76.2234 50.3896L68.9525 61.2498C68.9299 61.275 68.9018 61.2946 68.8703 61.3069C68.8389 61.3192 68.805 61.324 68.7713 61.3208Z" fill="white"/>
<path d="M89.1299 75.1559C89.0929 75.1561 89.0564 75.1469 89.0238 75.1292L79.2423 69.5126C79.2138 69.4964 79.1891 69.4741 79.17 69.4472C79.1509 69.4204 79.1379 69.3897 79.1318 69.3572L75.9362 50.1054C75.9272 50.0466 75.9417 49.9866 75.9764 49.9384C76.0112 49.8902 76.0634 49.8577 76.1218 49.8479C76.1506 49.8435 76.1799 49.8448 76.2081 49.8518C76.2363 49.8588 76.2629 49.8713 76.2863 49.8886C76.3097 49.9059 76.3295 49.9277 76.3445 49.9527C76.3595 49.9778 76.3694 50.0055 76.3738 50.0344L79.5517 69.1796L88.9 74.5343L87.5343 57.9065C87.5316 57.8481 87.5512 57.7909 87.5889 57.7464C87.6266 57.7019 87.6798 57.6734 87.7376 57.6667C87.7666 57.6643 87.7959 57.6677 87.8236 57.6766C87.8513 57.6856 87.877 57.7 87.8992 57.719C87.9214 57.7379 87.9396 57.7611 87.9529 57.7872C87.9661 57.8133 87.974 57.8418 87.9763 57.871L89.342 74.9161C89.3461 74.9563 89.3387 74.9969 89.3207 75.0331C89.3027 75.0692 89.2749 75.0995 89.2404 75.1204C89.2081 75.1435 89.1695 75.1559 89.1299 75.1559Z" fill="white"/>
<path d="M89.1299 75.1559C89.0921 75.1556 89.055 75.1456 89.0222 75.1268C88.9894 75.108 88.9619 75.081 88.9424 75.0485C88.9229 75.016 88.912 74.979 88.9108 74.9411C88.9095 74.9031 88.918 74.8655 88.9354 74.8318L90.5045 71.8792L89.3111 55.3002C89.3091 55.2711 89.3128 55.2418 89.322 55.2141C89.3312 55.1864 89.3458 55.1607 89.3649 55.1387C89.4034 55.0941 89.458 55.0668 89.5166 55.0627C89.5753 55.0586 89.6331 55.078 89.6774 55.1167C89.7218 55.1554 89.749 55.2103 89.7531 55.2691L90.9509 71.928C90.9515 71.9695 90.9424 72.0106 90.9244 72.0479L89.3421 75.036C89.3223 75.0747 89.2916 75.1066 89.2539 75.1279C89.2162 75.1493 89.1731 75.159 89.1299 75.1559Z" fill="white"/>
<path d="M72.7627 78.588H72.7185C72.6763 78.5801 72.6375 78.5599 72.6068 78.5299C72.5761 78.4998 72.555 78.4613 72.5461 78.4192L69.1515 62.7771C69.1397 62.7189 69.1511 62.6583 69.1834 62.6085C69.2156 62.5586 69.2661 62.5235 69.3239 62.5107C69.3523 62.5049 69.3816 62.5047 69.4101 62.5103C69.4386 62.5158 69.4658 62.527 69.49 62.543C69.5142 62.5591 69.535 62.5798 69.5513 62.604C69.5675 62.6282 69.5789 62.6553 69.5847 62.6839L72.8732 77.842L79.1761 69.1885C79.2107 69.1408 79.2627 69.1088 79.3207 69.0997C79.3787 69.0905 79.438 69.1049 79.4855 69.1396C79.533 69.1744 79.5648 69.2266 79.5739 69.2849C79.583 69.3432 79.5687 69.4027 79.5341 69.4504L72.9439 78.477C72.926 78.5098 72.8999 78.5374 72.8681 78.5569C72.8363 78.5763 72.7999 78.5871 72.7627 78.588Z" fill="white"/>
<path d="M72.7626 78.5879H72.7361L70.9416 78.3881C70.8959 78.3827 70.853 78.3631 70.819 78.3321C70.7849 78.3011 70.7613 78.2601 70.7515 78.215L66.9592 60.7658C66.9531 60.7366 66.9528 60.7065 66.9582 60.6773C66.9637 60.648 66.9749 60.6201 66.9911 60.5951C67.0073 60.5702 67.0282 60.5487 67.0527 60.5319C67.0772 60.5151 67.1047 60.5033 67.1338 60.4972C67.1628 60.491 67.1927 60.4907 67.2219 60.4962C67.251 60.5017 67.2788 60.5129 67.3036 60.5292C67.3285 60.5455 67.3498 60.5665 67.3666 60.5911C67.3833 60.6157 67.3951 60.6434 67.4012 60.6725L71.1626 77.9619L72.798 78.1439C72.8566 78.1439 72.9128 78.1673 72.9543 78.209C72.9957 78.2506 73.019 78.3071 73.019 78.3659C73.019 78.4248 72.9957 78.4813 72.9543 78.5229C72.9128 78.5645 72.8566 78.5879 72.798 78.5879H72.7626Z" fill="white"/>
<path d="M71.3658 64.1269C71.3251 64.1271 71.2851 64.1161 71.2503 64.095C71.2155 64.0738 71.1871 64.0435 71.1684 64.0072C71.1497 63.9709 71.1413 63.9302 71.1441 63.8894C71.1469 63.8486 71.1609 63.8094 71.1845 63.7762L76.378 56.5567C76.3943 56.5327 76.4153 56.5123 76.4397 56.4967C76.4641 56.4811 76.4915 56.4707 76.52 56.4662C76.5486 56.4616 76.5778 56.4629 76.6058 56.4701C76.6338 56.4773 76.6601 56.4901 76.683 56.5079C76.7069 56.5247 76.7273 56.5461 76.7429 56.5709C76.7585 56.5956 76.7691 56.6233 76.774 56.6522C76.7789 56.6811 76.7781 56.7107 76.7716 56.7392C76.7651 56.7678 76.753 56.7948 76.736 56.8187L71.5425 64.0381C71.5222 64.0659 71.4956 64.0885 71.4648 64.104C71.4341 64.1194 71.4001 64.1273 71.3658 64.1269Z" fill="white"/>
<path d="M71.7636 67.5369C71.7179 67.5367 71.6733 67.5228 71.6355 67.4969C71.5888 67.4615 71.5577 67.4094 71.5486 67.3514C71.5396 67.2934 71.5533 67.2342 71.5868 67.1861L76.7759 59.9667C76.7926 59.9425 76.814 59.922 76.8388 59.9064C76.8636 59.8908 76.8913 59.8804 76.9202 59.8758C76.9491 59.8712 76.9787 59.8726 77.0071 59.8798C77.0354 59.8871 77.062 59.9 77.0853 59.9178C77.1316 59.9524 77.1626 60.0038 77.1717 60.0611C77.1808 60.1183 77.1673 60.1769 77.1339 60.2242L71.9449 67.4436C71.9246 67.4729 71.8974 67.4967 71.8658 67.513C71.8342 67.5292 71.7991 67.5375 71.7636 67.5369Z" fill="white"/>
<path d="M72.1615 70.9468C72.1149 70.9471 72.0697 70.9315 72.0333 70.9024C71.987 70.8678 71.9559 70.8164 71.9468 70.7591C71.9378 70.7019 71.9513 70.6434 71.9847 70.596L77.1737 63.3766C77.1905 63.3526 77.2118 63.3321 77.2365 63.3164C77.2611 63.3008 77.2886 63.2901 77.3174 63.2852C77.3461 63.2802 77.3756 63.281 77.4041 63.2876C77.4325 63.2941 77.4594 63.3063 77.4831 63.3233C77.5298 63.3587 77.5609 63.4109 77.57 63.4688C77.579 63.5268 77.5653 63.5861 77.5318 63.6341L72.3427 70.8535C72.3224 70.8828 72.2953 70.9066 72.2637 70.9229C72.2321 70.9392 72.197 70.9474 72.1615 70.9468Z" fill="white"/>
<path d="M72.5461 74.3566C72.4995 74.3573 72.4541 74.3416 72.4179 74.3122C72.394 74.2954 72.3737 74.274 72.358 74.2492C72.3424 74.2244 72.3318 74.1968 72.3269 74.1679C72.322 74.139 72.3228 74.1094 72.3293 74.0808C72.3358 74.0523 72.3479 74.0253 72.3649 74.0014L77.5584 66.782C77.5928 66.7354 77.644 66.7043 77.701 66.6952C77.7579 66.686 77.8162 66.6997 77.8633 66.7331C77.8872 66.7499 77.9076 66.7714 77.9232 66.7961C77.9388 66.8209 77.9494 66.8485 77.9543 66.8774C77.9593 66.9063 77.9585 66.9359 77.9519 66.9645C77.9454 66.9931 77.9333 67.0201 77.9164 67.0439L72.7229 74.2634C72.7028 74.2918 72.6763 74.315 72.6456 74.3312C72.6149 74.3474 72.5808 74.3561 72.5461 74.3566Z" fill="white"/>
<path d="M85.7396 61.121C85.7005 61.1217 85.6621 61.1109 85.6291 61.0899L78.641 57.0939C78.5901 57.0644 78.5528 57.0159 78.5375 56.9588C78.5221 56.9018 78.53 56.841 78.5593 56.7897C78.5886 56.7385 78.6369 56.7011 78.6937 56.6857C78.7505 56.6703 78.8111 56.6782 78.862 56.7076L85.8501 60.7036C85.9006 60.7341 85.9371 60.7832 85.952 60.8405C85.9669 60.8977 85.9588 60.9586 85.9296 61.01C85.9103 61.0435 85.8827 61.0714 85.8493 61.0909C85.816 61.1104 85.7781 61.1207 85.7396 61.121Z" fill="white"/>
<path d="M85.7397 64.3267C85.7013 64.3269 85.6634 64.3178 85.6292 64.3001L78.6412 60.3041C78.613 60.2913 78.5878 60.2727 78.5673 60.2495C78.5467 60.2263 78.5312 60.199 78.5218 60.1695C78.5123 60.1399 78.5092 60.1086 78.5125 60.0777C78.5159 60.0469 78.5256 60.017 78.5412 59.9902C78.5567 59.9633 78.5777 59.94 78.6028 59.9218C78.6278 59.9037 78.6564 59.8909 78.6867 59.8845C78.7169 59.8781 78.7482 59.8782 78.7784 59.8847C78.8087 59.8912 78.8372 59.904 78.8622 59.9222L85.8502 63.9182C85.9004 63.9479 85.9369 63.9962 85.9518 64.0528C85.9667 64.1093 85.9588 64.1694 85.9298 64.2201C85.91 64.2529 85.882 64.2799 85.8487 64.2986C85.8154 64.3172 85.7779 64.3269 85.7397 64.3267Z" fill="white"/>
<path d="M86.7342 67.7366C86.6972 67.7362 86.6609 67.7271 86.6281 67.7099L79.6401 63.7139C79.5892 63.685 79.5517 63.637 79.536 63.5804C79.5202 63.5238 79.5275 63.4633 79.5561 63.412C79.5857 63.3606 79.6343 63.3229 79.6914 63.3071C79.7485 63.2913 79.8094 63.2987 79.8611 63.3277L86.8447 67.3237C86.8703 67.3375 86.8929 67.3565 86.9111 67.3793C86.9294 67.4022 86.9428 67.4285 86.9506 67.4567C86.9585 67.4849 86.9606 67.5143 86.9568 67.5434C86.953 67.5724 86.9434 67.6004 86.9287 67.6256C86.909 67.6598 86.8806 67.6881 86.8464 67.7076C86.8123 67.7271 86.7735 67.7371 86.7342 67.7366Z" fill="white"/>
<path d="M86.9376 71.1466C86.8985 71.1474 86.8601 71.1366 86.8271 71.1155L79.839 67.1195C79.8138 67.1049 79.7917 67.0855 79.7739 67.0623C79.7561 67.0392 79.743 67.0127 79.7355 66.9845C79.7279 66.9562 79.7259 66.9268 79.7296 66.8977C79.7334 66.8687 79.7428 66.8407 79.7573 66.8154C79.7718 66.79 79.7911 66.7678 79.8142 66.7499C79.8373 66.7321 79.8636 66.7189 79.8917 66.7113C79.9198 66.7037 79.9492 66.7017 79.9781 66.7055C80.0069 66.7092 80.0348 66.7187 80.06 66.7332L87.0481 70.7292C87.0896 70.754 87.1218 70.7916 87.14 70.8365C87.1582 70.8814 87.1613 70.931 87.1487 70.9778C87.1362 71.0246 87.1088 71.066 87.0707 71.0957C87.0325 71.1253 86.9858 71.1417 86.9376 71.1422V71.1466Z" fill="white"/>
<path d="M173.764 134.532C173.738 134.538 173.711 134.538 173.684 134.532L160.088 129.062C160.056 129.049 160.027 129.029 160.004 129.003C159.981 128.976 159.964 128.945 159.956 128.911C159.948 128.877 159.948 128.842 159.955 128.808C159.963 128.774 159.978 128.742 160 128.716L161.428 126.94C161.459 126.902 161.501 126.876 161.548 126.865C161.595 126.854 161.644 126.858 161.689 126.877L173.905 132.387L180.049 120.843C180.072 120.805 180.105 120.773 180.145 120.752C180.185 120.732 180.23 120.724 180.275 120.728L181.906 120.968C181.94 120.972 181.973 120.985 182.002 121.005C182.03 121.025 182.053 121.052 182.069 121.083C182.085 121.115 182.094 121.15 182.094 121.185C182.094 121.221 182.085 121.256 182.069 121.287L175.881 133.604C175.855 133.657 175.809 133.697 175.753 133.716C175.697 133.735 175.636 133.73 175.583 133.704C175.53 133.677 175.49 133.631 175.471 133.575C175.453 133.518 175.457 133.457 175.483 133.404L181.53 121.363L180.359 121.19L174.206 132.756C174.179 132.805 174.134 132.842 174.081 132.861C174.028 132.879 173.97 132.876 173.919 132.854L161.671 127.33L160.539 128.76L173.857 134.088C173.911 134.111 173.954 134.153 173.977 134.207C174 134.261 174.001 134.322 173.981 134.377C173.966 134.422 173.936 134.462 173.898 134.49C173.859 134.518 173.812 134.532 173.764 134.532Z" fill="white"/>
<path d="M174.011 132.885C173.963 132.886 173.915 132.871 173.876 132.842C173.837 132.813 173.808 132.772 173.795 132.725L168.716 113.993L158.899 109.61L161.923 126.016C161.933 126.074 161.92 126.133 161.887 126.181C161.854 126.23 161.803 126.263 161.746 126.274C161.688 126.284 161.629 126.271 161.581 126.238C161.533 126.205 161.5 126.154 161.49 126.096L158.396 109.277C158.387 109.238 158.39 109.197 158.404 109.159C158.418 109.121 158.443 109.088 158.475 109.064C158.506 109.039 158.544 109.023 158.584 109.017C158.623 109.012 158.664 109.017 158.701 109.033L168.995 113.633C169.024 113.646 169.051 113.665 169.072 113.69C169.094 113.715 169.109 113.744 169.118 113.775L174.206 132.605C174.22 132.662 174.212 132.722 174.183 132.773C174.154 132.825 174.107 132.863 174.051 132.88L174.011 132.885Z" fill="white"/>
<path d="M160.181 129.053C160.129 129.054 160.078 129.035 160.038 129.001C159.998 128.966 159.972 128.919 159.965 128.866L157.101 112.439C157.092 112.399 157.092 112.358 157.101 112.319L158.391 109.162C158.417 109.113 158.46 109.076 158.512 109.057C158.563 109.038 158.62 109.04 158.671 109.061C158.722 109.082 158.763 109.121 158.786 109.171C158.81 109.221 158.814 109.278 158.798 109.331L157.534 112.439L160.385 128.813C160.39 128.842 160.389 128.872 160.383 128.9C160.376 128.929 160.364 128.956 160.348 128.98C160.331 129.004 160.309 129.024 160.285 129.04C160.26 129.055 160.232 129.066 160.204 129.071L160.181 129.053Z" fill="white"/>
<path d="M179.51 119.631C179.463 119.631 179.417 119.616 179.379 119.588C179.341 119.56 179.313 119.521 179.298 119.476L174.507 104.726L169.105 113.948C169.075 113.998 169.026 114.033 168.97 114.047C168.914 114.061 168.854 114.052 168.805 114.023C168.755 113.993 168.718 113.945 168.704 113.888C168.689 113.832 168.697 113.772 168.725 113.722L174.374 104.078C174.396 104.041 174.428 104.011 174.466 103.992C174.505 103.973 174.548 103.966 174.591 103.971C174.633 103.976 174.673 103.993 174.705 104.02C174.738 104.046 174.763 104.082 174.776 104.122L179.718 119.338C179.727 119.366 179.731 119.395 179.729 119.425C179.727 119.454 179.72 119.482 179.706 119.508C179.693 119.535 179.675 119.558 179.653 119.577C179.63 119.595 179.604 119.609 179.576 119.618L179.51 119.631Z" fill="white"/>
<path d="M181.883 121.403C181.837 121.403 181.791 121.389 181.753 121.362C181.715 121.335 181.686 121.296 181.671 121.252L176.199 104.429H174.551C174.492 104.429 174.436 104.405 174.394 104.364C174.353 104.322 174.33 104.266 174.33 104.207C174.332 104.148 174.356 104.092 174.398 104.051C174.44 104.009 174.496 103.986 174.555 103.985H176.363C176.409 103.985 176.454 104.001 176.492 104.029C176.529 104.057 176.557 104.096 176.571 104.14L182.091 121.114C182.101 121.142 182.105 121.171 182.103 121.2C182.101 121.23 182.093 121.258 182.08 121.284C182.066 121.31 182.048 121.334 182.026 121.353C182.003 121.371 181.978 121.385 181.95 121.394L181.883 121.403Z" fill="white"/>
<path d="M172.951 126.345C172.912 126.345 172.873 126.335 172.84 126.313C172.79 126.284 172.753 126.236 172.738 126.179C172.722 126.123 172.729 126.063 172.756 126.012L177.176 118.304C177.206 118.253 177.254 118.217 177.31 118.201C177.366 118.185 177.426 118.192 177.477 118.219C177.527 118.25 177.564 118.299 177.58 118.356C177.595 118.413 177.588 118.474 177.561 118.526L173.119 126.234C173.101 126.264 173.077 126.29 173.048 126.309C173.019 126.329 172.985 126.341 172.951 126.345Z" fill="white"/>
<path d="M172.213 122.988C172.173 122.989 172.135 122.978 172.102 122.957C172.051 122.928 172.014 122.88 171.998 122.823C171.982 122.767 171.989 122.706 172.018 122.655L176.46 114.952C176.473 114.923 176.491 114.898 176.514 114.877C176.538 114.857 176.565 114.841 176.594 114.832C176.624 114.822 176.655 114.819 176.685 114.822C176.716 114.826 176.746 114.836 176.773 114.851C176.799 114.867 176.823 114.888 176.841 114.913C176.859 114.938 176.871 114.967 176.878 114.997C176.884 115.028 176.884 115.059 176.878 115.089C176.871 115.12 176.858 115.148 176.84 115.174L172.42 122.881C172.399 122.917 172.368 122.946 172.332 122.965C172.295 122.983 172.254 122.991 172.213 122.988Z" fill="white"/>
<path d="M171.47 119.64C171.431 119.64 171.393 119.63 171.36 119.609C171.334 119.595 171.312 119.576 171.294 119.553C171.277 119.53 171.264 119.503 171.256 119.475C171.249 119.447 171.247 119.418 171.251 119.389C171.255 119.36 171.265 119.332 171.28 119.307L175.722 111.599C175.754 111.555 175.802 111.524 175.855 111.513C175.909 111.501 175.965 111.51 176.012 111.538C176.059 111.566 176.095 111.61 176.111 111.662C176.128 111.715 176.125 111.771 176.102 111.821L171.682 119.529C171.661 119.566 171.63 119.596 171.592 119.615C171.555 119.635 171.512 119.644 171.47 119.64Z" fill="white"/>
<path d="M170.732 116.288C170.693 116.288 170.655 116.278 170.621 116.257C170.596 116.243 170.574 116.223 170.556 116.2C170.538 116.177 170.525 116.151 170.518 116.123C170.511 116.095 170.509 116.065 170.513 116.037C170.517 116.008 170.527 115.98 170.542 115.955L174.962 108.247C174.992 108.196 175.041 108.16 175.098 108.145C175.155 108.13 175.216 108.138 175.267 108.167C175.292 108.182 175.314 108.201 175.332 108.224C175.35 108.247 175.363 108.273 175.37 108.301C175.378 108.329 175.379 108.359 175.375 108.388C175.371 108.417 175.361 108.444 175.346 108.469L170.904 116.177C170.887 116.208 170.862 116.234 170.832 116.254C170.802 116.273 170.767 116.285 170.732 116.288Z" fill="white"/>
<path d="M170.745 126.367C170.714 126.366 170.684 126.359 170.657 126.345L163.302 123.063C163.275 123.052 163.251 123.035 163.231 123.014C163.21 122.993 163.195 122.968 163.184 122.94C163.174 122.913 163.169 122.884 163.171 122.855C163.172 122.826 163.179 122.797 163.191 122.77C163.203 122.743 163.219 122.719 163.24 122.699C163.261 122.678 163.286 122.662 163.313 122.652C163.34 122.641 163.369 122.636 163.398 122.636C163.428 122.637 163.456 122.643 163.483 122.655L170.833 125.941C170.892 125.952 170.944 125.987 170.977 126.037C171.01 126.087 171.022 126.148 171.01 126.207C170.998 126.266 170.964 126.318 170.914 126.351C170.864 126.384 170.804 126.396 170.745 126.385V126.367Z" fill="white"/>
<path d="M170.423 123.174C170.393 123.179 170.363 123.179 170.334 123.174L162.979 119.88C162.951 119.869 162.925 119.853 162.904 119.832C162.882 119.811 162.865 119.785 162.853 119.757C162.842 119.729 162.836 119.699 162.836 119.669C162.837 119.639 162.844 119.609 162.856 119.581C162.868 119.553 162.886 119.529 162.909 119.508C162.931 119.488 162.957 119.472 162.986 119.462C163.014 119.453 163.044 119.449 163.074 119.451C163.104 119.453 163.134 119.462 163.16 119.476L170.511 122.757C170.57 122.769 170.621 122.804 170.654 122.853C170.687 122.903 170.699 122.965 170.688 123.023C170.676 123.082 170.641 123.134 170.592 123.167C170.542 123.201 170.481 123.213 170.423 123.201V123.174Z" fill="white"/>
<path d="M169.088 119.88C169.057 119.879 169.027 119.872 168.999 119.858L161.644 116.577C161.617 116.565 161.593 116.548 161.573 116.527C161.553 116.506 161.537 116.481 161.527 116.454C161.517 116.426 161.512 116.397 161.513 116.368C161.514 116.339 161.521 116.31 161.534 116.284C161.545 116.257 161.562 116.232 161.583 116.212C161.604 116.192 161.629 116.176 161.656 116.165C161.683 116.154 161.712 116.149 161.741 116.149C161.77 116.15 161.799 116.156 161.825 116.168L169.176 119.454C169.203 119.465 169.227 119.482 169.247 119.503C169.267 119.524 169.283 119.549 169.294 119.576C169.305 119.603 169.31 119.633 169.309 119.662C169.309 119.691 169.303 119.72 169.291 119.747C169.273 119.786 169.245 119.82 169.209 119.843C169.173 119.867 169.131 119.88 169.088 119.88Z" fill="white"/>
<path d="M168.548 116.51C168.519 116.517 168.489 116.517 168.46 116.51L161.105 113.22C161.075 113.211 161.048 113.195 161.025 113.174C161.002 113.154 160.983 113.128 160.97 113.1C160.957 113.072 160.951 113.041 160.95 113.01C160.95 112.978 160.957 112.947 160.969 112.919C160.982 112.89 161 112.865 161.023 112.844C161.046 112.823 161.073 112.807 161.103 112.797C161.132 112.788 161.163 112.784 161.194 112.787C161.225 112.791 161.255 112.8 161.282 112.816L168.637 116.102C168.664 116.113 168.688 116.13 168.708 116.151C168.728 116.172 168.744 116.197 168.755 116.224C168.766 116.251 168.771 116.28 168.77 116.31C168.77 116.339 168.763 116.368 168.752 116.395C168.731 116.43 168.701 116.46 168.666 116.48C168.63 116.501 168.589 116.511 168.548 116.51Z" fill="white"/>
<path d="M148.884 139.9C147.646 142.977 146.373 140.504 146.577 127.614C146.67 121.572 147.094 109.228 153.746 111.946C160.133 114.556 151.713 132.814 151.713 132.814L148.884 139.9ZM158.02 141.729C158.02 141.729 171.886 127.215 166.688 122.659C161.273 117.922 156.884 129.457 154.838 135.14C150.48 147.266 150.886 150.019 153.07 147.519L158.02 141.729ZM160.946 154.756C160.946 154.756 173.64 145.676 170.321 141.436C166.865 137.027 161.843 145.206 159.461 149.255C154.382 157.891 154.294 160.058 156.31 158.459L160.946 154.756ZM164.38 167.743C164.38 167.743 177.075 158.663 173.755 154.423C170.303 150.01 165.282 158.193 162.9 162.238C157.817 170.873 157.728 173.04 159.748 171.442L164.38 167.743ZM142.21 141.636C142.21 141.636 124.446 132.347 121.56 138.639C118.55 145.192 130.806 146.187 136.809 146.555C149.627 147.346 152.137 146.183 149.136 144.779L142.21 141.636ZM144.711 151.848C144.711 151.848 125.467 146.289 123.88 153.033C122.227 160.062 134.426 158.588 140.393 157.753C153.105 155.977 155.342 154.33 152.128 153.571L144.711 151.848ZM149.131 162.992C149.131 162.992 132.724 158.743 131.54 164.484C130.307 170.456 140.596 168.924 145.613 168.081C156.323 166.282 158.175 164.839 155.439 164.271L149.131 162.992ZM151.699 172.196C151.699 172.196 135.836 166.22 134.05 171.801C132.19 177.613 142.585 177.187 147.664 176.881C158.502 176.232 160.482 174.998 157.83 174.141L151.699 172.196ZM141.091 125.576C141.091 125.576 133.852 102.968 125.621 107.075C117.064 111.351 126.947 121.545 131.893 126.425C142.444 136.841 145.71 137.569 144.323 133.933L141.091 125.576Z" fill="#C8E1FF"/>
<path opacity="0.65" d="M148.884 139.9C147.646 142.977 146.373 140.504 146.577 127.614C146.67 121.572 147.094 109.228 153.746 111.946C160.133 114.556 151.713 132.814 151.713 132.814L148.884 139.9ZM158.02 141.729C158.02 141.729 171.886 127.215 166.688 122.659C161.273 117.922 156.884 129.457 154.838 135.14C150.48 147.266 150.886 150.019 153.07 147.519L158.02 141.729ZM160.946 154.756C160.946 154.756 173.64 145.676 170.321 141.436C166.865 137.027 161.843 145.206 159.461 149.255C154.382 157.891 154.294 160.058 156.31 158.459L160.946 154.756ZM164.38 167.743C164.38 167.743 177.075 158.663 173.755 154.423C170.303 150.01 165.282 158.193 162.9 162.238C157.817 170.873 157.728 173.04 159.748 171.442L164.38 167.743ZM142.21 141.636C142.21 141.636 124.446 132.347 121.56 138.639C118.55 145.192 130.806 146.187 136.809 146.555C149.627 147.346 152.137 146.183 149.136 144.779L142.21 141.636ZM144.711 151.848C144.711 151.848 125.467 146.289 123.88 153.033C122.227 160.062 134.426 158.588 140.393 157.753C153.105 155.977 155.342 154.33 152.128 153.571L144.711 151.848ZM149.131 162.992C149.131 162.992 132.724 158.743 131.54 164.484C130.307 170.456 140.596 168.924 145.613 168.081C156.323 166.282 158.175 164.839 155.439 164.271L149.131 162.992ZM151.699 172.196C151.699 172.196 135.836 166.22 134.05 171.801C132.19 177.613 142.585 177.187 147.664 176.881C158.502 176.232 160.482 174.998 157.83 174.141L151.699 172.196ZM141.091 125.576C141.091 125.576 133.852 102.968 125.621 107.075C117.064 111.351 126.947 121.545 131.893 126.425C142.444 136.841 145.71 137.569 144.323 133.933L141.091 125.576Z" fill="white"/>
<path d="M160.659 188.092C160.589 188.091 160.521 188.063 160.471 188.015C160.42 187.966 160.389 187.9 160.385 187.83C159.717 176.015 156.407 161.749 151.324 148.691C147.036 137.698 129.012 115.538 128.826 115.316C128.78 115.258 128.759 115.185 128.766 115.112C128.774 115.039 128.809 114.972 128.866 114.925C128.894 114.902 128.926 114.884 128.961 114.873C128.996 114.863 129.032 114.859 129.069 114.863C129.105 114.867 129.14 114.878 129.172 114.895C129.204 114.913 129.232 114.936 129.255 114.965C129.436 115.187 147.523 137.418 151.841 148.487C156.968 161.616 160.27 175.926 160.946 187.812C160.95 187.885 160.924 187.957 160.876 188.012C160.827 188.067 160.758 188.1 160.685 188.105L160.659 188.092Z" fill="white"/>
<path d="M147.96 141.587H147.929C147.856 141.578 147.789 141.541 147.744 141.482C147.698 141.424 147.677 141.35 147.686 141.276L150.214 120.018C150.223 119.945 150.26 119.878 150.318 119.833C150.376 119.787 150.449 119.767 150.521 119.776C150.594 119.785 150.66 119.822 150.706 119.88C150.751 119.938 150.771 120.011 150.762 120.084L148.234 141.343C148.226 141.41 148.193 141.472 148.143 141.517C148.092 141.562 148.027 141.587 147.96 141.587Z" fill="white"/>
<path d="M151.58 148.869C151.537 148.867 151.495 148.856 151.456 148.838C151.424 148.821 151.395 148.798 151.371 148.769C151.348 148.741 151.33 148.709 151.319 148.674C151.308 148.639 151.304 148.602 151.307 148.565C151.31 148.529 151.32 148.493 151.337 148.46L160.504 130.594C160.518 130.557 160.54 130.524 160.568 130.496C160.596 130.469 160.629 130.447 160.666 130.433C160.702 130.42 160.741 130.414 160.781 130.416C160.82 130.418 160.858 130.429 160.892 130.447C160.927 130.466 160.958 130.491 160.982 130.522C161.006 130.553 161.024 130.588 161.033 130.626C161.043 130.664 161.045 130.704 161.038 130.743C161.031 130.782 161.016 130.819 160.995 130.851L151.828 148.74C151.801 148.781 151.764 148.815 151.721 148.837C151.677 148.86 151.629 148.871 151.58 148.869Z" fill="white"/>
<path d="M150.245 146.218H150.192L131.027 142.298C130.989 142.293 130.952 142.281 130.918 142.261C130.885 142.242 130.856 142.215 130.833 142.184C130.811 142.153 130.795 142.117 130.786 142.079C130.778 142.041 130.778 142.002 130.786 141.964C130.793 141.926 130.809 141.89 130.831 141.858C130.853 141.826 130.882 141.8 130.915 141.78C130.948 141.76 130.985 141.747 131.023 141.742C131.062 141.737 131.101 141.74 131.138 141.751L150.303 145.672C150.374 145.688 150.436 145.731 150.476 145.793C150.515 145.854 150.529 145.929 150.515 146C150.502 146.062 150.468 146.118 150.419 146.157C150.37 146.197 150.308 146.218 150.245 146.218Z" fill="white"/>
<path d="M155.2 159.005C155.15 159.002 155.102 158.986 155.061 158.957C155.02 158.929 154.987 158.89 154.965 158.845C154.944 158.8 154.935 158.749 154.94 158.699C154.945 158.65 154.963 158.602 154.992 158.561L166.25 145.632C166.274 145.605 166.303 145.582 166.335 145.566C166.368 145.55 166.403 145.54 166.439 145.538C166.475 145.535 166.512 145.54 166.546 145.552C166.58 145.563 166.612 145.581 166.639 145.605C166.666 145.629 166.689 145.658 166.705 145.691C166.721 145.723 166.73 145.759 166.733 145.795C166.735 145.831 166.731 145.868 166.719 145.902C166.708 145.937 166.689 145.969 166.666 145.996L155.399 158.894C155.375 158.926 155.345 158.952 155.311 158.971C155.277 158.99 155.239 159.002 155.2 159.005Z" fill="white"/>
<path d="M153.609 154.756L139.142 154.632C139.069 154.631 138.999 154.601 138.948 154.548C138.897 154.496 138.868 154.426 138.868 154.352C138.87 154.279 138.901 154.21 138.952 154.159C139.004 154.107 139.074 154.078 139.147 154.077L153.613 154.201C153.686 154.202 153.756 154.232 153.807 154.285C153.859 154.337 153.887 154.408 153.887 154.481C153.887 154.517 153.88 154.554 153.866 154.587C153.852 154.621 153.831 154.652 153.806 154.677C153.78 154.703 153.749 154.723 153.715 154.737C153.681 154.75 153.645 154.757 153.609 154.756Z" fill="white"/>
<path d="M145.299 165.75C145.227 165.75 145.157 165.721 145.105 165.671C145.053 165.62 145.023 165.551 145.021 165.479C145.02 165.406 145.046 165.335 145.096 165.281C145.145 165.227 145.213 165.195 145.286 165.19L156.38 164.746C156.453 164.744 156.524 164.77 156.578 164.82C156.632 164.87 156.664 164.939 156.668 165.013C156.669 165.049 156.664 165.086 156.651 165.12C156.639 165.154 156.62 165.186 156.595 165.213C156.57 165.24 156.541 165.261 156.508 165.276C156.474 165.292 156.439 165.3 156.402 165.301L145.308 165.745L145.299 165.75Z" fill="white"/>
<path d="M158.67 172.041C158.61 172.041 158.552 172.021 158.506 171.983C158.447 171.939 158.408 171.873 158.397 171.8C158.386 171.727 158.405 171.652 158.449 171.593L164.389 163.641C164.433 163.581 164.499 163.542 164.572 163.531C164.645 163.52 164.719 163.539 164.778 163.583C164.808 163.605 164.832 163.632 164.851 163.664C164.87 163.695 164.882 163.731 164.887 163.767C164.892 163.803 164.889 163.84 164.88 163.876C164.87 163.911 164.854 163.945 164.831 163.974L158.891 171.93C158.865 171.964 158.831 171.992 158.793 172.012C158.755 172.031 158.713 172.041 158.67 172.041Z" fill="white"/>
<path d="M159.107 174.998L146.135 174.35C146.098 174.348 146.062 174.339 146.029 174.324C145.996 174.308 145.966 174.286 145.942 174.259C145.917 174.231 145.898 174.2 145.885 174.165C145.873 174.13 145.868 174.094 145.869 174.057C145.874 173.983 145.907 173.915 145.962 173.866C146.016 173.817 146.088 173.791 146.161 173.795L159.138 174.443C159.174 174.445 159.21 174.454 159.242 174.469C159.275 174.485 159.304 174.506 159.328 174.533C159.353 174.56 159.371 174.591 159.383 174.625C159.396 174.659 159.401 174.696 159.399 174.732C159.397 174.769 159.388 174.805 159.373 174.838C159.357 174.871 159.335 174.901 159.308 174.926C159.281 174.95 159.249 174.97 159.215 174.982C159.181 174.994 159.144 175 159.107 174.998Z" fill="white"/>
<path d="M183.868 157.509C181.627 158.357 182.312 156.461 189.238 150.232C192.483 147.315 199.228 141.472 201.058 146.36C202.826 151.058 189.013 155.529 189.013 155.529L183.868 157.509ZM187.404 163.281C187.404 163.281 201.902 163.556 201.76 158.539C201.61 153.318 193.34 156.643 189.327 158.344C180.765 161.976 179.506 163.543 181.897 163.472L187.404 163.281ZM181.928 171.251C181.928 171.251 192.978 173.573 193.588 169.714C194.229 165.718 187.426 167.05 184.111 167.756C177.039 169.288 175.85 170.305 177.689 170.598L181.928 171.251ZM176.739 179.474C176.739 179.474 187.789 181.791 188.399 177.937C189.04 173.941 182.237 175.273 178.922 175.975C171.85 177.507 170.661 178.523 172.5 178.816L176.739 179.474ZM179.669 154.792C179.669 154.792 175.855 140.748 171.112 142.284C166.166 143.896 171.665 150.933 174.418 154.321C180.297 161.558 182.149 162.313 181.406 160.044L179.669 154.792ZM175.483 161.172C175.483 161.172 168.964 148.154 164.615 150.622C160.089 153.18 166.869 158.952 170.228 161.745C177.419 167.663 179.391 168.049 178.211 165.958L175.483 161.172ZM171.749 169.004C171.749 169.004 165.936 158.148 162.312 160.337C158.542 162.615 164.411 167.361 167.324 169.626C173.543 174.461 175.214 174.745 174.171 173.005L171.749 169.004ZM168.137 174.9C168.137 174.9 163.505 163.485 159.669 165.274C155.691 167.139 161.017 172.481 163.673 175.042C169.344 180.513 170.979 180.974 170.122 179.132L168.137 174.9ZM187.585 146.311C187.585 146.311 195.983 131.326 189.795 128.955C183.325 126.482 182.785 136.774 182.635 141.831C182.304 152.585 183.519 154.707 184.765 152.159L187.585 146.311Z" fill="#C8E1FF"/>
<path opacity="0.65" d="M183.868 157.509C181.627 158.357 182.312 156.461 189.238 150.232C192.483 147.315 199.228 141.472 201.058 146.36C202.826 151.058 189.013 155.529 189.013 155.529L183.868 157.509ZM187.404 163.281C187.404 163.281 201.902 163.556 201.76 158.539C201.61 153.318 193.34 156.643 189.327 158.344C180.765 161.976 179.506 163.543 181.897 163.472L187.404 163.281ZM181.928 171.251C181.928 171.251 192.978 173.573 193.588 169.714C194.229 165.718 187.426 167.05 184.111 167.756C177.039 169.288 175.85 170.305 177.689 170.598L181.928 171.251ZM176.739 179.474C176.739 179.474 187.789 181.791 188.399 177.937C189.04 173.941 182.237 175.273 178.922 175.975C171.85 177.507 170.661 178.523 172.5 178.816L176.739 179.474ZM179.669 154.792C179.669 154.792 175.855 140.748 171.112 142.284C166.166 143.896 171.665 150.933 174.418 154.321C180.297 161.558 182.149 162.313 181.406 160.044L179.669 154.792ZM175.483 161.172C175.483 161.172 168.964 148.154 164.615 150.622C160.089 153.18 166.869 158.952 170.228 161.745C177.419 167.663 179.391 168.049 178.211 165.958L175.483 161.172ZM171.749 169.004C171.749 169.004 165.936 158.148 162.312 160.337C158.542 162.615 164.411 167.361 167.324 169.626C173.543 174.461 175.214 174.745 174.171 173.005L171.749 169.004ZM168.137 174.9C168.137 174.9 163.505 163.485 159.669 165.274C155.691 167.139 161.017 172.481 163.673 175.042C169.344 180.513 170.979 180.974 170.122 179.132L168.137 174.9ZM187.585 146.311C187.585 146.311 195.983 131.326 189.795 128.955C183.325 126.482 182.785 136.774 182.635 141.831C182.304 152.585 183.519 154.707 184.765 152.159L187.585 146.311Z" fill="#9FA2A5"/>
<path d="M163.722 188.256C163.687 188.257 163.652 188.25 163.619 188.237C163.587 188.224 163.557 188.205 163.532 188.18C163.48 188.128 163.45 188.057 163.45 187.983C163.45 187.909 163.48 187.838 163.532 187.785C169.6 181.481 176.045 172.019 180.35 163.094C184.058 155.413 186.931 134.9 186.958 134.678C186.969 134.605 187.008 134.539 187.066 134.495C187.125 134.45 187.199 134.43 187.272 134.439C187.344 134.45 187.409 134.489 187.453 134.548C187.497 134.607 187.516 134.681 187.506 134.754C187.479 134.963 184.593 155.56 180.849 163.321C176.518 172.29 170.034 181.809 163.93 188.154C163.905 188.186 163.873 188.211 163.837 188.229C163.801 188.247 163.762 188.256 163.722 188.256Z" fill="white"/>
<path d="M182.666 157.984C182.622 157.984 182.579 157.974 182.539 157.954C182.5 157.934 182.466 157.904 182.441 157.869C182.398 157.808 182.381 157.734 182.393 157.661C182.404 157.588 182.444 157.522 182.502 157.478L195.002 148.385C195.03 148.356 195.064 148.333 195.102 148.319C195.14 148.305 195.18 148.299 195.22 148.301C195.261 148.304 195.3 148.316 195.335 148.335C195.37 148.355 195.401 148.381 195.425 148.414C195.449 148.447 195.466 148.484 195.474 148.524C195.482 148.563 195.482 148.604 195.473 148.644C195.463 148.683 195.446 148.72 195.421 148.752C195.396 148.784 195.365 148.81 195.329 148.829L182.83 157.931C182.782 157.965 182.725 157.984 182.666 157.984Z" fill="white"/>
<path d="M180.593 163.494C180.527 163.492 180.465 163.466 180.416 163.422C180.367 163.378 180.335 163.318 180.326 163.253C180.317 163.187 180.332 163.121 180.367 163.065C180.402 163.009 180.455 162.968 180.518 162.948L194.476 159.058C194.511 159.049 194.547 159.046 194.583 159.051C194.619 159.055 194.654 159.067 194.685 159.085C194.716 159.103 194.744 159.127 194.766 159.155C194.788 159.184 194.805 159.217 194.814 159.252C194.824 159.287 194.826 159.323 194.822 159.359C194.817 159.395 194.806 159.43 194.788 159.461C194.77 159.493 194.746 159.521 194.718 159.543C194.689 159.565 194.657 159.582 194.622 159.591L180.664 163.485C180.641 163.492 180.617 163.495 180.593 163.494Z" fill="white"/>
<path d="M181.336 161.478C181.288 161.479 181.242 161.467 181.2 161.444C181.159 161.42 181.125 161.386 181.101 161.345L173.764 149.184C173.745 149.153 173.732 149.118 173.726 149.082C173.721 149.046 173.722 149.009 173.731 148.974C173.739 148.938 173.755 148.905 173.777 148.875C173.798 148.846 173.826 148.821 173.857 148.802C173.92 148.764 173.995 148.753 174.066 148.77C174.137 148.788 174.199 148.833 174.237 148.895L181.579 161.061C181.616 161.124 181.628 161.2 181.61 161.271C181.593 161.343 181.548 161.404 181.486 161.443C181.441 161.47 181.388 161.483 181.336 161.478Z" fill="white"/>
<path d="M176.991 170.403C176.924 170.394 176.862 170.361 176.817 170.31C176.772 170.259 176.747 170.193 176.747 170.125C176.747 170.057 176.772 169.991 176.817 169.94C176.862 169.889 176.924 169.856 176.991 169.848L189.367 169.528C189.44 169.528 189.511 169.556 189.564 169.606C189.617 169.657 189.65 169.725 189.654 169.799C189.655 169.872 189.628 169.943 189.577 169.996C189.527 170.05 189.458 170.081 189.384 170.083L177.008 170.403H176.991Z" fill="white"/>
<path d="M178.467 167.472C178.429 167.472 178.391 167.464 178.356 167.449C178.321 167.434 178.29 167.412 178.264 167.384L171.218 159.591C171.167 159.538 171.139 159.468 171.139 159.394C171.139 159.32 171.167 159.249 171.218 159.196C171.246 159.172 171.277 159.153 171.312 159.141C171.346 159.129 171.383 159.123 171.42 159.125C171.456 159.128 171.492 159.137 171.525 159.153C171.558 159.169 171.587 159.191 171.612 159.218L178.657 167.011C178.687 167.051 178.705 167.099 178.709 167.149C178.714 167.199 178.705 167.249 178.684 167.294C178.663 167.34 178.63 167.379 178.589 167.407C178.547 167.435 178.499 167.452 178.449 167.455L178.467 167.472Z" fill="white"/>
<path d="M174.25 174.146C174.214 174.146 174.179 174.139 174.145 174.125C174.112 174.111 174.081 174.091 174.056 174.066L168.367 168.356C168.319 168.303 168.293 168.233 168.295 168.161C168.296 168.089 168.326 168.02 168.376 167.97C168.427 167.919 168.495 167.889 168.567 167.888C168.638 167.886 168.708 167.912 168.761 167.961L174.445 173.671C174.483 173.71 174.509 173.759 174.519 173.813C174.529 173.866 174.524 173.922 174.503 173.972C174.482 174.023 174.447 174.066 174.403 174.097C174.358 174.128 174.305 174.145 174.25 174.146Z" fill="white"/>
<path d="M171.806 178.674C171.738 178.671 171.673 178.642 171.625 178.593C171.577 178.544 171.548 178.479 171.544 178.411C171.54 178.342 171.562 178.275 171.604 178.221C171.647 178.167 171.708 178.131 171.775 178.12L178.909 177.382C178.979 177.38 179.048 177.405 179.101 177.451C179.154 177.498 179.187 177.563 179.195 177.633C179.202 177.703 179.183 177.774 179.14 177.83C179.098 177.887 179.036 177.925 178.966 177.937L171.833 178.674H171.806Z" fill="white"/>
<path d="M170.453 180.362C170.411 180.364 170.368 180.357 170.329 180.34C170.29 180.323 170.255 180.297 170.228 180.264L164.19 173.013C164.144 172.957 164.122 172.884 164.128 172.811C164.135 172.738 164.17 172.67 164.226 172.623C164.253 172.599 164.286 172.581 164.32 172.57C164.355 172.559 164.391 172.555 164.428 172.559C164.464 172.562 164.499 172.572 164.531 172.59C164.563 172.607 164.592 172.63 164.615 172.658L170.67 179.904C170.716 179.961 170.739 180.034 170.732 180.107C170.725 180.18 170.69 180.248 170.635 180.295C170.584 180.339 170.52 180.362 170.453 180.362Z" fill="white"/>
<path d="M77.1827 139.9C78.4203 142.977 79.6932 140.504 79.4943 127.614C79.3971 121.572 78.9728 109.228 72.3207 111.946C65.9338 114.556 74.3539 132.814 74.3539 132.814L77.1827 139.9ZM68.0465 141.729C68.0465 141.729 54.181 127.215 59.3789 122.659C64.7934 117.922 69.1869 129.457 71.2289 135.14C75.5871 147.266 75.1804 150.019 72.9969 147.519L68.0465 141.729ZM65.1205 154.756C65.1205 154.756 52.4263 145.676 55.7457 141.436C59.2021 137.027 64.2232 145.206 66.6056 149.255C71.6842 157.891 71.7726 160.058 69.7571 158.459L65.1205 154.756ZM61.6862 167.743C61.6862 167.743 48.9919 158.663 52.3113 154.423C55.7634 150.01 60.7845 158.193 63.1669 162.238C68.2499 170.873 68.3383 173.04 66.3183 171.442L61.6862 167.743ZM83.8569 141.636C83.8569 141.636 101.621 132.347 104.507 138.639C107.517 145.192 95.2605 146.187 89.2581 146.555C76.4401 147.346 73.9296 146.183 76.9307 144.779L83.8569 141.636ZM81.3552 151.848C81.3552 151.848 100.604 146.289 102.187 153.033C103.84 160.053 91.6317 158.579 85.6735 157.744C72.9616 155.968 70.7251 154.321 73.9428 153.562L81.3552 151.848ZM76.9352 162.992C76.9352 162.992 93.3422 158.743 94.5268 164.484C95.7599 170.456 85.4702 168.924 80.4535 168.081C69.7438 166.282 67.8918 164.839 70.6278 164.271L76.9352 162.992ZM74.3671 172.196C74.3671 172.196 90.2261 166.229 92.0295 171.828C93.8903 177.64 83.4944 177.214 78.4159 176.907C67.578 176.259 65.5979 175.025 68.2499 174.168L74.3671 172.196ZM84.9751 125.576C84.9751 125.576 92.2195 102.968 100.445 107.075C109.002 111.351 99.1191 121.545 94.1732 126.425C83.6226 136.841 80.3563 137.569 81.7486 133.933L84.9751 125.576Z" fill="#C8E1FF"/>
<path opacity="0.65" d="M77.1827 139.9C78.4203 142.977 79.6932 140.504 79.4943 127.614C79.3971 121.572 78.9728 109.228 72.3207 111.946C65.9338 114.556 74.3539 132.814 74.3539 132.814L77.1827 139.9ZM68.0465 141.729C68.0465 141.729 54.181 127.215 59.3789 122.659C64.7934 117.922 69.1869 129.457 71.2289 135.14C75.5871 147.266 75.1804 150.019 72.9969 147.519L68.0465 141.729ZM65.1205 154.756C65.1205 154.756 52.4263 145.676 55.7457 141.436C59.2021 137.027 64.2232 145.206 66.6056 149.255C71.6842 157.891 71.7726 160.058 69.7571 158.459L65.1205 154.756ZM61.6862 167.743C61.6862 167.743 48.9919 158.663 52.3113 154.423C55.7634 150.01 60.7845 158.193 63.1669 162.238C68.2499 170.873 68.3383 173.04 66.3183 171.442L61.6862 167.743ZM83.8569 141.636C83.8569 141.636 101.621 132.347 104.507 138.639C107.517 145.192 95.2605 146.187 89.2581 146.555C76.4401 147.346 73.9296 146.183 76.9307 144.779L83.8569 141.636ZM81.3552 151.848C81.3552 151.848 100.604 146.289 102.187 153.033C103.84 160.053 91.6317 158.579 85.6735 157.744C72.9616 155.968 70.7251 154.321 73.9428 153.562L81.3552 151.848ZM76.9352 162.992C76.9352 162.992 93.3422 158.743 94.5268 164.484C95.7599 170.456 85.4702 168.924 80.4535 168.081C69.7438 166.282 67.8918 164.839 70.6278 164.271L76.9352 162.992ZM74.3671 172.196C74.3671 172.196 90.2261 166.229 92.0295 171.828C93.8903 177.64 83.4944 177.214 78.4159 176.907C67.578 176.259 65.5979 175.025 68.2499 174.168L74.3671 172.196ZM84.9751 125.576C84.9751 125.576 92.2195 102.968 100.445 107.075C109.002 111.351 99.1191 121.545 94.1732 126.425C83.6226 136.841 80.3563 137.569 81.7486 133.933L84.9751 125.576Z" fill="white"/>
<path d="M65.4079 188.092C65.3348 188.087 65.2664 188.054 65.2176 187.999C65.1688 187.944 65.1434 187.872 65.1471 187.799C65.8145 175.926 69.1251 161.603 74.2479 148.487C78.5618 137.418 96.6484 115.187 96.8296 114.965C96.8524 114.936 96.8805 114.913 96.9125 114.895C96.9445 114.878 96.9796 114.867 97.0158 114.863C97.052 114.859 97.0886 114.863 97.1234 114.873C97.1582 114.884 97.1906 114.902 97.2186 114.925C97.275 114.972 97.3108 115.039 97.3182 115.112C97.3257 115.185 97.3042 115.258 97.2584 115.316C97.0772 115.538 79.048 137.702 74.7606 148.691C69.6687 161.749 66.3626 176.015 65.6996 187.83C65.695 187.903 65.6618 187.972 65.6072 188.021C65.5526 188.07 65.481 188.095 65.4079 188.092Z" fill="white"/>
<path d="M78.1065 141.587C78.0392 141.587 77.9743 141.562 77.9239 141.517C77.8735 141.472 77.841 141.41 77.8325 141.343L75.3042 120.084C75.2955 120.011 75.3159 119.938 75.3611 119.88C75.4062 119.822 75.4725 119.785 75.5451 119.776C75.6178 119.767 75.691 119.787 75.7486 119.833C75.8062 119.878 75.8435 119.945 75.8523 120.018L78.3806 141.276C78.3893 141.35 78.3686 141.424 78.323 141.482C78.2774 141.541 78.2107 141.578 78.1375 141.587H78.1065Z" fill="white"/>
<path d="M74.4863 148.869C74.4354 148.868 74.3855 148.854 74.3419 148.828C74.2983 148.801 74.2627 148.763 74.2388 148.718L65.0894 130.851C65.0726 130.819 65.0623 130.783 65.0591 130.746C65.056 130.71 65.0601 130.673 65.0712 130.638C65.0823 130.603 65.1001 130.57 65.1237 130.542C65.1473 130.514 65.1762 130.491 65.2088 130.474C65.2748 130.442 65.3505 130.437 65.4203 130.459C65.4902 130.481 65.5489 130.529 65.5845 130.594L74.7294 148.46C74.7463 148.493 74.7566 148.529 74.7597 148.565C74.7629 148.602 74.7588 148.639 74.7477 148.674C74.7366 148.709 74.7188 148.741 74.6951 148.77C74.6715 148.798 74.6426 148.821 74.6101 148.838C74.5714 148.856 74.5293 148.867 74.4863 148.869Z" fill="white"/>
<path d="M75.8214 146.218C75.7578 146.218 75.6961 146.196 75.6469 146.156C75.5977 146.115 75.5641 146.059 75.5518 145.996C75.5374 145.924 75.5521 145.849 75.5927 145.787C75.6332 145.725 75.6964 145.683 75.7683 145.668L94.929 141.747C94.9661 141.736 95.005 141.733 95.0433 141.738C95.0816 141.743 95.1185 141.755 95.1516 141.775C95.1847 141.795 95.2133 141.822 95.2356 141.854C95.2579 141.885 95.2734 141.921 95.2811 141.959C95.2888 141.997 95.2885 142.037 95.2803 142.075C95.2721 142.113 95.2561 142.148 95.2334 142.18C95.2107 142.211 95.1817 142.237 95.1483 142.257C95.115 142.276 95.0779 142.289 95.0395 142.293L75.8788 146.214L75.8214 146.218Z" fill="white"/>
<path d="M70.8841 159.005C70.8449 159.005 70.8062 158.997 70.7704 158.98C70.7347 158.964 70.7026 158.941 70.6763 158.912L59.4097 146.014C59.3859 145.986 59.3677 145.955 59.3562 145.92C59.3446 145.886 59.34 145.849 59.3424 145.813C59.3449 145.777 59.3544 145.741 59.3705 145.709C59.3866 145.676 59.409 145.647 59.4362 145.623C59.4635 145.599 59.4952 145.581 59.5295 145.569C59.5639 145.558 59.6001 145.553 59.6362 145.555C59.6723 145.558 59.7076 145.568 59.7401 145.584C59.7725 145.6 59.8014 145.622 59.8252 145.65L71.0918 158.526C71.1212 158.566 71.1392 158.614 71.144 158.664C71.1487 158.714 71.1401 158.764 71.1188 158.809C71.0976 158.855 71.0646 158.894 71.0233 158.922C70.982 158.95 70.9339 158.967 70.8841 158.97V159.005Z" fill="white"/>
<path d="M72.4621 154.756C72.4257 154.757 72.3896 154.75 72.3558 154.736C72.3221 154.723 72.2913 154.703 72.2654 154.677C72.2395 154.651 72.2189 154.621 72.2049 154.587C72.1908 154.554 72.1836 154.517 72.1836 154.481C72.1836 154.407 72.2123 154.337 72.2636 154.285C72.3149 154.232 72.3846 154.202 72.4576 154.201L86.9243 154.077C86.9607 154.076 86.9968 154.083 87.0305 154.096C87.0643 154.11 87.095 154.13 87.1209 154.156C87.1469 154.181 87.1674 154.212 87.1815 154.246C87.1955 154.279 87.2028 154.316 87.2028 154.352C87.2028 154.426 87.174 154.496 87.1228 154.548C87.0715 154.601 87.0018 154.631 86.9287 154.632L72.4621 154.756Z" fill="white"/>
<path d="M80.7674 165.75L69.6732 165.306C69.6059 165.295 69.545 165.259 69.5019 165.207C69.4588 165.154 69.4365 165.087 69.4392 165.018C69.4419 164.95 69.4695 164.885 69.5167 164.836C69.5638 164.786 69.6274 164.756 69.6953 164.751L80.7895 165.195C80.8622 165.199 80.9303 165.232 80.9797 165.285C81.0291 165.339 81.056 165.41 81.0547 165.483C81.0512 165.557 81.0192 165.626 80.9654 165.676C80.9116 165.725 80.8405 165.752 80.7674 165.75Z" fill="white"/>
<path d="M67.3968 172.041C67.3539 172.041 67.3117 172.031 67.2733 172.012C67.235 171.992 67.2016 171.964 67.1758 171.93L61.2353 163.974C61.2128 163.945 61.1963 163.911 61.1867 163.876C61.1772 163.84 61.1748 163.803 61.1798 163.767C61.1847 163.731 61.1969 163.695 61.2155 163.664C61.2341 163.632 61.2589 163.605 61.2883 163.583C61.3476 163.539 61.4218 163.52 61.4947 163.531C61.5676 163.542 61.6333 163.581 61.6773 163.641L67.6178 171.593C67.6616 171.652 67.6802 171.727 67.6694 171.8C67.6586 171.873 67.6194 171.939 67.5603 171.983C67.5141 172.021 67.4563 172.041 67.3968 172.041Z" fill="white"/>
<path d="M66.9636 174.998C66.892 174.998 66.8231 174.971 66.7712 174.921C66.7194 174.871 66.6886 174.804 66.6852 174.732C66.6834 174.696 66.6887 174.659 66.7008 174.625C66.713 174.591 66.7317 174.56 66.7559 174.533C66.7802 174.506 66.8094 174.485 66.842 174.469C66.8746 174.454 66.9099 174.445 66.9459 174.443L79.923 173.795C79.9595 173.792 79.9962 173.796 80.031 173.808C80.0657 173.82 80.0977 173.838 80.125 173.863C80.1522 173.887 80.1743 173.917 80.1897 173.951C80.2052 173.984 80.2137 174.02 80.2148 174.057C80.2165 174.094 80.2111 174.13 80.1987 174.165C80.1864 174.2 80.1673 174.231 80.1427 174.259C80.118 174.286 80.0883 174.308 80.0552 174.324C80.022 174.339 79.9861 174.348 79.9496 174.35L66.9769 174.998H66.9636Z" fill="white"/>
<path d="M42.2028 157.509C44.4393 158.357 43.7542 156.461 36.8281 150.232C33.5838 147.315 26.8389 141.472 25.009 146.36C23.241 151.058 37.0535 155.529 37.0535 155.529L42.2028 157.509ZM38.6668 163.281C38.6668 163.281 24.1648 163.556 24.3062 158.539C24.4609 153.318 32.7042 156.643 36.7397 158.344C45.3012 161.976 46.5609 163.543 44.1741 163.472L38.6668 163.281ZM44.1387 171.251C44.1387 171.251 33.0887 173.573 32.4788 169.714C31.8423 165.718 38.6403 167.05 41.9553 167.756C49.0273 169.288 50.2162 170.305 48.3775 170.598L44.1387 171.251ZM49.3278 179.474C49.3278 179.474 38.2778 181.791 37.6679 177.937C37.027 173.941 43.8293 175.273 47.1443 175.975C54.2163 177.507 55.4053 178.523 53.5666 178.816L49.3278 179.474ZM46.3974 154.792C46.3974 154.792 50.2118 140.735 54.9633 142.284C59.9093 143.896 54.4108 150.933 51.6572 154.321C45.7786 161.558 43.9266 162.313 44.6691 160.044L46.3974 154.792ZM50.5831 161.172C50.5831 161.172 57.1026 148.154 61.4519 150.622C65.9824 153.193 59.1977 158.987 55.8296 161.762C48.6383 167.681 46.667 168.067 47.8471 165.976L50.5831 161.172ZM54.318 169.004C54.318 169.004 60.1303 158.148 63.7547 160.337C67.525 162.615 61.6552 167.361 58.7424 169.626C52.5235 174.461 50.8527 174.745 51.8958 173.005L54.318 169.004ZM57.9291 174.9C57.9291 174.9 62.5613 163.485 66.3979 165.274C70.3759 167.139 65.0498 172.481 62.3933 175.042C56.7225 180.513 55.0871 180.974 55.9446 179.132L57.9291 174.9ZM38.4811 146.311C38.4811 146.311 30.0831 131.326 36.2711 128.955C42.742 126.482 43.2813 136.774 43.436 141.831C43.763 152.585 42.552 154.707 41.3011 152.159L38.4811 146.311Z" fill="#C8E1FF"/>
<path opacity="0.65" d="M42.2028 157.509C44.4393 158.357 43.7542 156.461 36.8281 150.232C33.5838 147.315 26.8389 141.472 25.009 146.36C23.241 151.058 37.0535 155.529 37.0535 155.529L42.2028 157.509ZM38.6668 163.281C38.6668 163.281 24.1648 163.556 24.3062 158.539C24.4609 153.318 32.7042 156.643 36.7397 158.344C45.3012 161.976 46.5609 163.543 44.1741 163.472L38.6668 163.281ZM44.1387 171.251C44.1387 171.251 33.0887 173.573 32.4788 169.714C31.8423 165.718 38.6403 167.05 41.9553 167.756C49.0273 169.288 50.2162 170.305 48.3775 170.598L44.1387 171.251ZM49.3278 179.474C49.3278 179.474 38.2778 181.791 37.6679 177.937C37.027 173.941 43.8293 175.273 47.1443 175.975C54.2163 177.507 55.4053 178.523 53.5666 178.816L49.3278 179.474ZM46.3974 154.792C46.3974 154.792 50.2118 140.735 54.9633 142.284C59.9093 143.896 54.4108 150.933 51.6572 154.321C45.7786 161.558 43.9266 162.313 44.6691 160.044L46.3974 154.792ZM50.5831 161.172C50.5831 161.172 57.1026 148.154 61.4519 150.622C65.9824 153.193 59.1977 158.987 55.8296 161.762C48.6383 167.681 46.667 168.067 47.8471 165.976L50.5831 161.172ZM54.318 169.004C54.318 169.004 60.1303 158.148 63.7547 160.337C67.525 162.615 61.6552 167.361 58.7424 169.626C52.5235 174.461 50.8527 174.745 51.8958 173.005L54.318 169.004ZM57.9291 174.9C57.9291 174.9 62.5613 163.485 66.3979 165.274C70.3759 167.139 65.0498 172.481 62.3933 175.042C56.7225 180.513 55.0871 180.974 55.9446 179.132L57.9291 174.9ZM38.4811 146.311C38.4811 146.311 30.0831 131.326 36.2711 128.955C42.742 126.482 43.2813 136.774 43.436 141.831C43.763 152.585 42.552 154.707 41.3011 152.159L38.4811 146.311Z" fill="#9FA2A5"/>
<path d="M62.3447 188.256C62.3076 188.256 62.2708 188.249 62.2365 188.235C62.2023 188.22 62.1714 188.199 62.1458 188.172C56.0418 181.827 49.5577 172.312 45.2261 163.339C41.4823 155.578 38.5961 134.98 38.5696 134.772C38.5594 134.699 38.5784 134.625 38.6222 134.566C38.6661 134.507 38.7313 134.467 38.8038 134.456C38.8769 134.448 38.9506 134.468 39.0092 134.512C39.0678 134.557 39.1067 134.623 39.1176 134.696C39.1442 134.9 42.0172 155.418 45.7255 163.112C50.0306 172.037 56.475 181.498 62.5436 187.803C62.5957 187.855 62.625 187.927 62.625 188.001C62.625 188.075 62.5957 188.146 62.5436 188.198C62.5162 188.221 62.4844 188.238 62.4501 188.248C62.4159 188.258 62.3801 188.26 62.3447 188.256Z" fill="white"/>
<path d="M43.4007 157.984C43.3419 157.984 43.2847 157.965 43.2371 157.931L30.7374 148.833C30.7016 148.815 30.6702 148.788 30.6455 148.756C30.6208 148.724 30.6032 148.687 30.5941 148.648C30.585 148.609 30.5845 148.568 30.5927 148.528C30.6009 148.488 30.6176 148.451 30.6415 148.418C30.6655 148.386 30.6962 148.359 30.7316 148.339C30.7669 148.32 30.8061 148.308 30.8463 148.306C30.8865 148.303 30.9268 148.309 30.9645 148.323C31.0022 148.338 31.0363 148.36 31.0644 148.389L43.5642 157.482C43.623 157.527 43.6624 157.592 43.674 157.665C43.6855 157.738 43.6683 157.813 43.6261 157.873C43.5995 157.908 43.5654 157.936 43.5263 157.955C43.4872 157.974 43.4442 157.984 43.4007 157.984Z" fill="white"/>
<path d="M45.4781 163.494C45.4532 163.499 45.4278 163.499 45.4029 163.494L31.4402 159.591C31.4053 159.582 31.3727 159.565 31.3442 159.543C31.3157 159.521 31.2918 159.493 31.274 159.461C31.2561 159.43 31.2446 159.395 31.2402 159.359C31.2357 159.323 31.2383 159.287 31.2479 159.252C31.2575 159.217 31.2738 159.184 31.296 159.155C31.3182 159.127 31.3457 159.103 31.3771 159.085C31.4085 159.067 31.4431 159.055 31.479 159.051C31.5148 159.046 31.5512 159.049 31.586 159.058L45.5488 162.948C45.6111 162.968 45.6645 163.009 45.6997 163.064C45.7348 163.12 45.7494 163.186 45.741 163.251C45.7326 163.316 45.7016 163.376 45.6535 163.42C45.6055 163.465 45.5434 163.491 45.4781 163.494Z" fill="white"/>
<path d="M44.7311 161.478C44.6796 161.48 44.6289 161.466 44.5853 161.438C44.5229 161.4 44.4782 161.338 44.4608 161.267C44.4435 161.195 44.4548 161.12 44.4924 161.056L51.8385 148.891C51.8549 148.855 51.8787 148.823 51.9083 148.797C51.9378 148.771 51.9725 148.752 52.01 148.741C52.0475 148.729 52.087 148.726 52.126 148.731C52.1649 148.736 52.2023 148.749 52.2358 148.769C52.2693 148.79 52.2982 148.817 52.3205 148.849C52.3427 148.882 52.3579 148.919 52.3651 148.957C52.3722 148.996 52.3711 149.036 52.3619 149.074C52.3526 149.112 52.3354 149.148 52.3114 149.179L44.9654 161.345C44.9417 161.386 44.9075 161.42 44.8663 161.444C44.8251 161.467 44.7784 161.479 44.7311 161.478Z" fill="white"/>
<path d="M49.0758 170.403L36.6998 170.083C36.6268 170.081 36.5575 170.05 36.5071 169.996C36.4566 169.943 36.429 169.872 36.4302 169.799C36.4357 169.726 36.4683 169.658 36.5215 169.607C36.5746 169.557 36.6446 169.529 36.7175 169.528L49.0935 169.848C49.1299 169.848 49.1658 169.856 49.1991 169.871C49.2324 169.885 49.2625 169.907 49.2876 169.933C49.3127 169.96 49.3323 169.991 49.3453 170.025C49.3582 170.059 49.3643 170.095 49.3631 170.132C49.362 170.169 49.3537 170.205 49.3386 170.238C49.3235 170.272 49.302 170.302 49.2754 170.327C49.2487 170.352 49.2173 170.372 49.1831 170.385C49.1489 170.398 49.1124 170.404 49.0758 170.403Z" fill="white"/>
<path d="M47.5997 167.472C47.5495 167.47 47.501 167.454 47.4594 167.426C47.4178 167.397 47.3847 167.358 47.3637 167.312C47.3427 167.267 47.3347 167.216 47.3404 167.166C47.3462 167.116 47.3655 167.068 47.3964 167.028L54.4242 159.218C54.4485 159.191 54.478 159.169 54.511 159.153C54.544 159.137 54.5797 159.128 54.6163 159.125C54.6528 159.123 54.6894 159.129 54.7239 159.141C54.7585 159.153 54.7903 159.172 54.8175 159.196C54.8686 159.249 54.8971 159.32 54.8971 159.394C54.8971 159.468 54.8686 159.538 54.8175 159.591L47.7942 167.388C47.7429 167.441 47.673 167.471 47.5997 167.472Z" fill="white"/>
<path d="M51.8162 174.146C51.7618 174.145 51.7089 174.128 51.664 174.097C51.619 174.066 51.5841 174.023 51.5634 173.972C51.5427 173.922 51.5372 173.866 51.5476 173.813C51.5579 173.759 51.5837 173.71 51.6217 173.671L57.3058 167.961C57.3587 167.912 57.4282 167.886 57.4998 167.888C57.5714 167.889 57.6396 167.919 57.6903 167.97C57.7409 168.02 57.7701 168.089 57.7718 168.161C57.7734 168.233 57.7474 168.303 57.6992 168.356L52.0106 174.048C51.9866 174.077 51.9569 174.1 51.9235 174.117C51.89 174.134 51.8535 174.144 51.8162 174.146Z" fill="white"/>
<path d="M54.2606 178.674H54.2341L47.1002 177.937C47.0309 177.925 46.9688 177.887 46.9264 177.83C46.8841 177.774 46.8646 177.703 46.8719 177.633C46.8791 177.563 46.9127 177.498 46.9657 177.451C47.0187 177.405 47.0873 177.38 47.1576 177.382L54.2915 178.12C54.359 178.131 54.4198 178.167 54.4625 178.221C54.5051 178.275 54.5265 178.342 54.5227 178.411C54.5189 178.479 54.4901 178.544 54.4417 178.593C54.3934 178.642 54.3289 178.671 54.2606 178.674Z" fill="white"/>
<path d="M55.6131 180.362C55.5482 180.361 55.4856 180.338 55.4363 180.295C55.3806 180.248 55.3456 180.18 55.339 180.107C55.3324 180.034 55.3547 179.961 55.401 179.904L61.4387 172.654C61.4617 172.626 61.4902 172.602 61.5223 172.585C61.5544 172.568 61.5896 172.558 61.6258 172.554C61.662 172.551 61.6985 172.555 61.7331 172.566C61.7678 172.577 61.7999 172.595 61.8277 172.618C61.8834 172.666 61.9184 172.733 61.925 172.806C61.9316 172.879 61.9093 172.952 61.863 173.009L55.8253 180.264C55.7993 180.295 55.7668 180.32 55.7301 180.337C55.6934 180.354 55.6535 180.362 55.6131 180.362Z" fill="white"/>
<path d="M188.655 188.309H36.1163C36.0577 188.309 36.0014 188.286 35.96 188.244C35.9185 188.203 35.8953 188.146 35.8953 188.087C35.8953 188.028 35.9185 187.972 35.96 187.93C36.0014 187.889 36.0577 187.865 36.1163 187.865H188.655C188.714 187.865 188.77 187.889 188.811 187.93C188.853 187.972 188.876 188.028 188.876 188.087C188.876 188.146 188.853 188.203 188.811 188.244C188.77 188.286 188.714 188.309 188.655 188.309Z" fill="white"/>
</svg>
