<svg width="136" height="42" viewBox="0 0 136 42" fill="none" xmlns="http://www.w3.org/2000/svg">
<path d="M117.781 0.772211C118.459 -0.0996836 119.716 -0.256753 120.588 0.421387L134.796 11.4723C135.668 12.1505 135.825 13.407 135.147 14.2789C134.469 15.1508 133.212 15.3079 132.34 14.6297L118.132 3.5788C117.26 2.90066 117.103 1.6441 117.781 0.772211Z" fill="#2A4988"/>
<path d="M130.553 22.529L108.185 6.54337C107.287 5.90113 107.079 4.65198 107.721 3.75331C108.363 2.85465 109.612 2.64678 110.511 3.28902L133.716 19.8729C134.314 20.2997 134.606 20.9947 134.546 21.6767C134.551 21.7341 134.553 21.7922 134.553 21.8509V39.3509C134.553 40.4555 133.658 41.3509 132.553 41.3509C131.449 41.3509 130.553 40.4555 130.553 39.3509V22.529Z" fill="#2A4988"/>
<path d="M3.65257 35.3829C4.67657 35.5749 5.64724 35.6709 6.56457 35.6709C8.59124 35.6709 10.2126 35.2336 11.4286 34.3589C12.6446 33.4629 13.2526 32.2362 13.2526 30.6789C13.2526 29.5269 12.8899 28.6096 12.1646 27.9269C11.4606 27.2442 10.4152 26.7749 9.02857 26.5189L5.82857 25.9109C5.2099 25.8042 4.75124 25.6016 4.45257 25.3029C4.1539 25.0042 4.00457 24.6309 4.00457 24.1829C4.00457 23.5856 4.2499 23.1056 4.74057 22.7429C5.25257 22.3802 6.03124 22.1989 7.07657 22.1989C7.63124 22.1989 8.20724 22.2736 8.80457 22.4229C9.42324 22.5722 10.0632 22.8176 10.7246 23.1589C11.0872 23.3296 11.4072 23.3936 11.6846 23.3509C11.9832 23.2869 12.2286 23.1482 12.4206 22.9349C12.6126 22.7002 12.7406 22.4442 12.8046 22.1669C12.8686 21.8682 12.8366 21.5802 12.7086 21.3029C12.6019 21.0256 12.3886 20.8016 12.0686 20.6309C11.3006 20.2042 10.5006 19.8949 9.66857 19.7029C8.85791 19.4896 7.98324 19.3829 7.04457 19.3829C5.74324 19.3829 4.59124 19.5856 3.58857 19.9909C2.5859 20.3962 1.79657 20.9722 1.22057 21.7189C0.665905 22.4656 0.388571 23.3509 0.388571 24.3749C0.388571 25.5056 0.729905 26.4336 1.41257 27.1589C2.11657 27.8629 3.1299 28.3429 4.45257 28.5989L7.65257 29.2069C8.31391 29.3349 8.80457 29.5376 9.12457 29.8149C9.46591 30.0709 9.63657 30.4442 9.63657 30.9349C9.63657 31.5109 9.38057 31.9802 8.86857 32.3429C8.37791 32.6842 7.62057 32.8549 6.59657 32.8549C5.87124 32.8549 5.13524 32.7802 4.38857 32.6309C3.6419 32.4602 2.8419 32.1722 1.98857 31.7669C1.64724 31.5962 1.32724 31.5429 1.02857 31.6069C0.751238 31.6709 0.516571 31.8096 0.324571 32.0229C0.153905 32.2362 0.0472381 32.4922 0.00457141 32.7909C-0.0167619 33.0682 0.0365715 33.3562 0.164571 33.6549C0.313905 33.9322 0.559238 34.1776 0.900571 34.3909C1.71124 34.8602 2.62857 35.1909 3.65257 35.3829Z" fill="#2A4988"/>
<path d="M16.9736 34.9989C17.3149 35.3829 17.8056 35.5749 18.4456 35.5749C19.1069 35.5749 19.6082 35.3829 19.9496 34.9989C20.2909 34.6149 20.4616 34.0816 20.4616 33.3989V21.6549C20.4616 20.9509 20.2802 20.4176 19.9176 20.0549C19.5762 19.6709 19.0856 19.4789 18.4456 19.4789C17.8056 19.4789 17.3149 19.6709 16.9736 20.0549C16.6322 20.4176 16.4616 20.9509 16.4616 21.6549V33.3989C16.4616 34.0816 16.6322 34.6149 16.9736 34.9989Z" fill="#2A4988"/>
<path d="M16.6856 15.9589C17.1122 16.3216 17.6989 16.5029 18.4456 16.5029C19.2136 16.5029 19.8002 16.3216 20.2056 15.9589C20.6109 15.5749 20.8136 15.0522 20.8136 14.3909C20.8136 13.7082 20.6109 13.1856 20.2056 12.8229C19.8002 12.4602 19.2136 12.2789 18.4456 12.2789C17.6989 12.2789 17.1122 12.4602 16.6856 12.8229C16.2802 13.1856 16.0776 13.7082 16.0776 14.3909C16.0776 15.0522 16.2802 15.5749 16.6856 15.9589Z" fill="#2A4988"/>
<path d="M25.1938 35.0949C25.5352 35.4362 26.0258 35.6069 26.6658 35.6069C28.0098 35.6069 28.6818 34.9242 28.6818 33.5589V26.6789C28.6818 25.3776 28.9805 24.3642 29.5778 23.6389C30.1752 22.8922 30.9965 22.5189 32.0418 22.5189C32.9592 22.5189 33.6098 22.7962 33.9938 23.3509C34.3992 23.9056 34.6018 24.7802 34.6018 25.9749V33.5589C34.6018 34.2202 34.7725 34.7322 35.1138 35.0949C35.4765 35.4362 35.9778 35.6069 36.6178 35.6069C37.2578 35.6069 37.7485 35.4362 38.0898 35.0949C38.4312 34.7322 38.6018 34.2202 38.6018 33.5589V26.6789C38.6018 25.3776 38.9005 24.3642 39.4978 23.6389C40.0952 22.8922 40.9165 22.5189 41.9618 22.5189C42.9005 22.5189 43.5618 22.7962 43.9458 23.3509C44.3512 23.9056 44.5538 24.7802 44.5538 25.9749V33.5589C44.5538 34.2202 44.7245 34.7322 45.0658 35.0949C45.4072 35.4362 45.8978 35.6069 46.5378 35.6069C47.1778 35.6069 47.6685 35.4362 48.0098 35.0949C48.3725 34.7322 48.5538 34.2202 48.5538 33.5589V25.8149C48.5538 24.3642 48.3618 23.1696 47.9778 22.2309C47.5938 21.2709 47.0072 20.5562 46.2178 20.0869C45.4498 19.6176 44.4685 19.3829 43.2738 19.3829C41.9938 19.3829 40.8632 19.7136 39.8818 20.3749C39.0815 20.8968 38.4657 21.5819 38.0343 22.4302C37.6994 21.4922 37.1953 20.7751 36.5218 20.2789C35.7112 19.6816 34.6765 19.3829 33.4178 19.3829C32.1805 19.3829 31.1138 19.6922 30.2178 20.3109C29.5392 20.7795 28.9952 21.3765 28.5858 22.1021V21.4629C28.5858 20.8016 28.4152 20.3002 28.0738 19.9589C27.7325 19.6176 27.2525 19.4469 26.6338 19.4469C26.0152 19.4469 25.5352 19.6176 25.1938 19.9589C24.8525 20.3002 24.6818 20.8016 24.6818 21.4629V33.5589C24.6818 34.2202 24.8525 34.7322 25.1938 35.0949Z" fill="#2A4988"/>
<path fill-rule="evenodd" clip-rule="evenodd" d="M53.1923 40.8549C53.5337 41.1962 54.0243 41.3669 54.6643 41.3669C55.3043 41.3669 55.795 41.1962 56.1363 40.8549C56.499 40.5136 56.6803 40.0122 56.6803 39.3509V33.023C57.0541 33.6814 57.5875 34.244 58.2803 34.7109C59.2617 35.3509 60.403 35.6709 61.7043 35.6709C63.091 35.6709 64.2963 35.3402 65.3203 34.6789C66.3443 34.0176 67.1443 33.0789 67.7203 31.8629C68.2963 30.6256 68.5843 29.1749 68.5843 27.5109C68.5843 25.8256 68.2963 24.3856 67.7203 23.1909C67.1443 21.9749 66.3337 21.0362 65.2883 20.3749C64.2643 19.7136 63.0697 19.3829 61.7043 19.3829C60.3817 19.3829 59.219 19.7136 58.2163 20.3749C57.5133 20.8487 56.9799 21.432 56.6163 22.1248V21.4629C56.6163 20.8016 56.4457 20.3002 56.1043 19.9589C55.763 19.6176 55.2723 19.4469 54.6323 19.4469C54.0137 19.4469 53.5337 19.6176 53.1923 19.9589C52.851 20.3002 52.6803 20.8016 52.6803 21.4629V39.3509C52.6803 40.0122 52.851 40.5136 53.1923 40.8549ZM62.6643 32.0549C62.067 32.4389 61.3737 32.6309 60.5843 32.6309C59.3897 32.6309 58.4297 32.2042 57.7043 31.3509C56.979 30.4762 56.6163 29.1962 56.6163 27.5109C56.6163 26.3802 56.7763 25.4416 57.0963 24.6949C57.4377 23.9269 57.907 23.3616 58.5043 22.9989C59.1017 22.6149 59.795 22.4229 60.5843 22.4229C61.779 22.4229 62.739 22.8496 63.4643 23.7029C64.1897 24.5349 64.5523 25.8042 64.5523 27.5109C64.5523 28.6416 64.3817 29.5909 64.0403 30.3589C63.7203 31.1056 63.2617 31.6709 62.6643 32.0549Z" fill="#2A4988"/>
<path d="M73.2118 34.1669C74.1078 35.1696 75.4412 35.6709 77.2118 35.6709C77.4465 35.6709 77.6812 35.6602 77.9158 35.6389C78.1505 35.6176 78.3745 35.5962 78.5878 35.5749C79.0785 35.5109 79.4305 35.3296 79.6438 35.0309C79.8572 34.7322 79.9638 34.3162 79.9638 33.7829C79.9638 33.1642 79.9105 32.7589 79.8038 32.5669C79.6972 32.3536 79.4945 32.2682 79.1958 32.3109L78.7478 32.3749H78.2678C77.4998 32.3749 76.9025 32.1402 76.4758 31.6709C76.0705 31.2016 75.8678 30.4762 75.8678 29.4949V14.5509C75.8678 13.8896 75.6865 13.3882 75.3238 13.0469C74.9825 12.7056 74.4918 12.5349 73.8518 12.5349C73.2118 12.5349 72.7212 12.7056 72.3798 13.0469C72.0385 13.3882 71.8678 13.8896 71.8678 14.5509V29.6869C71.8678 31.6496 72.3158 33.1429 73.2118 34.1669Z" fill="#2A4988"/>
<path d="M82.5986 34.9989C82.9399 35.3829 83.4306 35.5749 84.0706 35.5749C84.7319 35.5749 85.2332 35.3829 85.5746 34.9989C85.9159 34.6149 86.0866 34.0816 86.0866 33.3989V21.6549C86.0866 20.9509 85.9052 20.4176 85.5426 20.0549C85.2012 19.6709 84.7106 19.4789 84.0706 19.4789C83.4306 19.4789 82.9399 19.6709 82.5986 20.0549C82.2572 20.4176 82.0866 20.9509 82.0866 21.6549V33.3989C82.0866 34.0816 82.2572 34.6149 82.5986 34.9989Z" fill="#2A4988"/>
<path d="M82.3106 15.9589C82.7372 16.3216 83.3239 16.5029 84.0706 16.5029C84.8386 16.5029 85.4252 16.3216 85.8306 15.9589C86.2359 15.5749 86.4386 15.0522 86.4386 14.3909C86.4386 13.7082 86.2359 13.1856 85.8306 12.8229C85.4252 12.4602 84.8386 12.2789 84.0706 12.2789C83.3239 12.2789 82.7372 12.4602 82.3106 12.8229C81.9052 13.1856 81.7026 13.7082 81.7026 14.3909C81.7026 15.0522 81.9052 15.5749 82.3106 15.9589Z" fill="#2A4988"/>
<path d="M91.8108 35.0949C92.1735 35.4362 92.6748 35.6069 93.3148 35.6069C94.6375 35.6069 95.2988 34.9242 95.2988 33.5589V22.7109H98.0188C98.5308 22.7109 98.9255 22.5829 99.2028 22.3269C99.4802 22.0496 99.6188 21.6762 99.6188 21.2069C99.6188 20.7162 99.4802 20.3429 99.2028 20.0869C98.9255 19.8309 98.5308 19.7029 98.0188 19.7029H95.2988V19.0309C95.2988 17.9429 95.5761 17.1322 96.1308 16.5989C96.6855 16.0656 97.5708 15.7562 98.7868 15.6709L99.2348 15.6389C99.5548 15.6176 99.8108 15.5002 100.003 15.2869C100.216 15.0522 100.355 14.7856 100.419 14.4869C100.483 14.1882 100.472 13.9002 100.387 13.6229C100.301 13.3242 100.131 13.0896 99.8748 12.9189C99.6188 12.7269 99.2775 12.6522 98.8508 12.6949L97.7628 12.7909C95.6721 12.9829 94.0722 13.6336 92.9628 14.7429C91.8535 15.8309 91.2988 17.4736 91.2988 19.6709V19.7029H89.8268C89.3148 19.7029 88.9202 19.8309 88.6428 20.0869C88.3655 20.3429 88.2268 20.7162 88.2268 21.2069C88.2268 21.6762 88.3655 22.0496 88.6428 22.3269C88.9202 22.5829 89.3148 22.7109 89.8268 22.7109H91.2988V33.5589C91.2988 34.2202 91.4695 34.7322 91.8108 35.0949Z" fill="#2A4988"/>
<path d="M104.403 40.9829C104.701 41.2389 105.085 41.3669 105.555 41.3669C106.067 41.3669 106.483 41.2602 106.803 41.0469C107.123 40.8336 107.421 40.4282 107.699 39.8309L115.475 22.0709C115.688 21.6016 115.763 21.1749 115.699 20.7909C115.635 20.3856 115.464 20.0656 115.187 19.8309C114.909 19.5749 114.536 19.4469 114.067 19.4469C113.533 19.4469 113.107 19.5642 112.787 19.7989C112.467 20.0122 112.189 20.4176 111.955 21.0149L108.023 30.6441L104.179 21.0469C103.944 20.4282 103.677 20.0122 103.379 19.7989C103.08 19.5642 102.685 19.4469 102.195 19.4469C101.619 19.4469 101.16 19.5749 100.819 19.8309C100.499 20.0656 100.307 20.3856 100.243 20.7909C100.179 21.1962 100.243 21.6336 100.435 22.1029L105.892 34.7259L104.083 38.7429C103.891 39.1909 103.816 39.6176 103.859 40.0229C103.923 40.4282 104.104 40.7482 104.403 40.9829Z" fill="#2A4988"/>
</svg>
