<svg width="106" height="32" viewBox="0 0 106 32" fill="none" xmlns="http://www.w3.org/2000/svg">
<path d="M92.0924 0.597356C92.6226 -0.0771118 93.6051 -0.198615 94.2868 0.325971L105.396 8.87459C106.078 9.39918 106.201 10.3712 105.671 11.0457C105.14 11.7201 104.158 11.8416 103.476 11.3171L92.3667 2.76843C91.6849 2.24385 91.5621 1.27182 92.0924 0.597356Z" fill="url(#paint0_linear_1434_7914)"/>
<path d="M102.079 17.4276L84.5894 5.06173C83.8867 4.56491 83.7242 3.59861 84.2263 2.90343C84.7285 2.20826 85.7052 2.04745 86.4079 2.54427L104.552 15.373C105.019 15.7032 105.247 16.2408 105.201 16.7683C105.204 16.8127 105.206 16.8577 105.206 16.9031V30.4405C105.206 31.295 104.506 31.9877 103.643 31.9877C102.779 31.9877 102.079 31.295 102.079 30.4405V17.4276Z" fill="url(#paint1_linear_1434_7914)"/>
<path d="M2.85592 27.371C3.65658 27.5195 4.41553 27.5938 5.13279 27.5938C6.71743 27.5938 7.98514 27.2555 8.93592 26.5789C9.8867 25.8857 10.3621 24.9368 10.3621 23.7321C10.3621 22.841 10.0785 22.1314 9.51139 21.6033C8.96094 21.0752 8.1436 20.7121 7.05937 20.5141L4.55732 20.0438C4.07359 19.9613 3.71496 19.8045 3.48143 19.5734C3.24791 19.3424 3.13115 19.0536 3.13115 18.7071C3.13115 18.245 3.32297 17.8737 3.70662 17.5931C4.10695 17.3126 4.71578 17.1723 5.53312 17.1723C5.96681 17.1723 6.41718 17.2301 6.88423 17.3456C7.36796 17.4611 7.86837 17.6509 8.38546 17.9149C8.66903 18.0469 8.91924 18.0964 9.13608 18.0634C9.36961 18.0139 9.56143 17.9067 9.71156 17.7416C9.86168 17.5601 9.96176 17.3621 10.0118 17.1475C10.0618 16.9165 10.0368 16.6937 9.93674 16.4792C9.85334 16.2646 9.68653 16.0914 9.43633 15.9593C8.83584 15.6293 8.21032 15.39 7.55979 15.2415C6.92593 15.0764 6.24204 14.9939 5.5081 14.9939C4.4906 14.9939 3.58986 15.1507 2.80588 15.4643C2.0219 15.7778 1.40473 16.2234 0.954356 16.801C0.520666 17.3786 0.303821 18.0634 0.303821 18.8556C0.303821 19.7302 0.570707 20.4481 1.10448 21.0092C1.65493 21.5538 2.44725 21.9251 3.48143 22.1231L5.98349 22.5934C6.50058 22.6925 6.88423 22.8492 7.13444 23.0638C7.40132 23.2618 7.53477 23.5506 7.53477 23.9302C7.53477 24.3757 7.3346 24.7388 6.93427 25.0193C6.55062 25.2834 5.95847 25.4154 5.15781 25.4154C4.59068 25.4154 4.01521 25.3577 3.43139 25.2421C2.84758 25.1101 2.22206 24.8873 1.55485 24.5738C1.28796 24.4417 1.03776 24.4005 0.804233 24.45C0.587388 24.4995 0.403903 24.6068 0.25378 24.7718C0.120337 24.9368 0.0369351 25.1349 0.00357436 25.3659C-0.013106 25.5804 0.028595 25.8032 0.128677 26.0343C0.24544 26.2488 0.437264 26.4386 0.70415 26.6036C1.338 26.9667 2.05526 27.2225 2.85592 27.371Z" fill="url(#paint2_linear_1434_7914)"/>
<path d="M13.2715 27.0739C13.5384 27.371 13.922 27.5195 14.4225 27.5195C14.9395 27.5195 15.3315 27.371 15.5984 27.0739C15.8653 26.7769 15.9988 26.3643 15.9988 25.8362V16.7515C15.9988 16.2069 15.857 15.7943 15.5734 15.5138C15.3065 15.2167 14.9229 15.0682 14.4225 15.0682C13.922 15.0682 13.5384 15.2167 13.2715 15.5138C13.0046 15.7943 12.8712 16.2069 12.8712 16.7515V25.8362C12.8712 26.3643 13.0046 26.7769 13.2715 27.0739Z" fill="url(#paint3_linear_1434_7914)"/>
<path d="M13.0463 12.3452C13.3799 12.6258 13.8386 12.7661 14.4225 12.7661C15.023 12.7661 15.4817 12.6258 15.7986 12.3452C16.1155 12.0482 16.274 11.6439 16.274 11.1323C16.274 10.6042 16.1155 10.1999 15.7986 9.91934C15.4817 9.6388 15.023 9.49853 14.4225 9.49853C13.8386 9.49853 13.3799 9.6388 13.0463 9.91934C12.7294 10.1999 12.5709 10.6042 12.5709 11.1323C12.5709 11.6439 12.7294 12.0482 13.0463 12.3452Z" fill="url(#paint4_linear_1434_7914)"/>
<path d="M19.6989 27.1482C19.9658 27.4122 20.3494 27.5443 20.8498 27.5443C21.9007 27.5443 22.4261 27.0162 22.4261 25.96V20.6379C22.4261 19.6312 22.6596 18.8473 23.1267 18.2862C23.5937 17.7086 24.2359 17.4198 25.0533 17.4198C25.7705 17.4198 26.2793 17.6344 26.5795 18.0634C26.8964 18.4925 27.0549 19.1691 27.0549 20.0933V25.96C27.0549 26.4716 27.1884 26.8677 27.4552 27.1482C27.7388 27.4122 28.1308 27.5443 28.6312 27.5443C29.1316 27.5443 29.5153 27.4122 29.7822 27.1482C30.049 26.8677 30.1825 26.4716 30.1825 25.96V20.6379C30.1825 19.6312 30.416 18.8473 30.8831 18.2862C31.3501 17.7086 31.9923 17.4198 32.8096 17.4198C33.5436 17.4198 34.0607 17.6344 34.3609 18.0634C34.6778 18.4925 34.8363 19.1691 34.8363 20.0933V25.96C34.8363 26.4716 34.9698 26.8677 35.2366 27.1482C35.5035 27.4122 35.8872 27.5443 36.3876 27.5443C36.888 27.5443 37.2716 27.4122 37.5385 27.1482C37.8221 26.8677 37.9639 26.4716 37.9639 25.96V19.9695C37.9639 18.8473 37.8138 17.9232 37.5135 17.1971C37.2133 16.4544 36.7546 15.9016 36.1374 15.5385C35.5369 15.1755 34.7696 14.9939 33.8355 14.9939C32.8347 14.9939 31.9506 15.2497 31.1833 15.7613C30.5576 16.1651 30.076 16.695 29.7387 17.3512C29.4769 16.6256 29.0827 16.0709 28.5561 15.6871C27.9223 15.225 27.1133 14.9939 26.1292 14.9939C25.1617 14.9939 24.3277 15.2332 23.6271 15.7118C23.0965 16.0743 22.6711 16.5361 22.351 17.0974V16.603C22.351 16.0914 22.2176 15.7036 21.9507 15.4395C21.6838 15.1755 21.3085 15.0434 20.8248 15.0434C20.3411 15.0434 19.9658 15.1755 19.6989 15.4395C19.432 15.7036 19.2985 16.0914 19.2985 16.603V25.96C19.2985 26.4716 19.432 26.8677 19.6989 27.1482Z" fill="url(#paint5_linear_1434_7914)"/>
<path fill-rule="evenodd" clip-rule="evenodd" d="M41.5907 31.6039C41.8576 31.868 42.2412 32 42.7416 32C43.242 32 43.6257 31.868 43.8926 31.6039C44.1761 31.3399 44.3179 30.9521 44.3179 30.4405V25.5455C44.6102 26.0547 45.0272 26.49 45.569 26.8511C46.3363 27.3462 47.2287 27.5938 48.2462 27.5938C49.3304 27.5938 50.2728 27.338 51.0735 26.8264C51.8741 26.3148 52.4997 25.5887 52.95 24.648C53.4004 23.6909 53.6256 22.5687 53.6256 21.2815C53.6256 19.9778 53.4004 18.8638 52.95 17.9397C52.4997 16.999 51.8658 16.2729 51.0485 15.7613C50.2478 15.2497 49.3137 14.9939 48.2462 14.9939C47.212 14.9939 46.3029 15.2497 45.5189 15.7613C44.9692 16.1278 44.5522 16.579 44.2679 17.115V16.603C44.2679 16.0914 44.1344 15.7036 43.8676 15.4395C43.6007 15.1755 43.217 15.0434 42.7166 15.0434C42.2329 15.0434 41.8576 15.1755 41.5907 15.4395C41.3238 15.7036 41.1904 16.0914 41.1904 16.603V30.4405C41.1904 30.9521 41.3238 31.3399 41.5907 31.6039ZM48.9968 24.7966C48.5297 25.0936 47.9876 25.2421 47.3704 25.2421C46.4363 25.2421 45.6857 24.9121 45.1186 24.252C44.5515 23.5754 44.2679 22.5852 44.2679 21.2815C44.2679 20.4068 44.393 19.6807 44.6432 19.1031C44.9101 18.509 45.2771 18.0717 45.7441 17.7911C46.2112 17.4941 46.7533 17.3456 47.3704 17.3456C48.3045 17.3456 49.0552 17.6756 49.6223 18.3357C50.1894 18.9793 50.473 19.9613 50.473 21.2815C50.473 22.1561 50.3395 22.8905 50.0727 23.4846C49.8225 24.0622 49.4638 24.4995 48.9968 24.7966Z" fill="url(#paint6_linear_1434_7914)"/>
<path d="M57.2438 26.4303C57.9444 27.206 58.9869 27.5938 60.3714 27.5938C60.5548 27.5938 60.7383 27.5855 60.9218 27.569C61.1053 27.5525 61.2804 27.536 61.4472 27.5195C61.8309 27.47 62.1061 27.3297 62.2729 27.0987C62.4397 26.8677 62.5231 26.5458 62.5231 26.1333C62.5231 25.6547 62.4814 25.3412 62.398 25.1926C62.3146 25.0276 62.1562 24.9616 61.9226 24.9946L61.5723 25.0441H61.197C60.5965 25.0441 60.1295 24.8626 59.7959 24.4995C59.479 24.1364 59.3205 23.5754 59.3205 22.8162V11.2561C59.3205 10.7445 59.1787 10.3567 58.8951 10.0926C58.6283 9.82858 58.2446 9.69656 57.7442 9.69656C57.2438 9.69656 56.8601 9.82858 56.5933 10.0926C56.3264 10.3567 56.1929 10.7445 56.1929 11.2561V22.9648C56.1929 24.483 56.5432 25.6382 57.2438 26.4303Z" fill="url(#paint7_linear_1434_7914)"/>
<path d="M64.5832 27.0739C64.8501 27.371 65.2338 27.5195 65.7342 27.5195C66.2513 27.5195 66.6432 27.371 66.9101 27.0739C67.177 26.7769 67.3105 26.3643 67.3105 25.8362V16.7515C67.3105 16.2069 67.1687 15.7943 66.8851 15.5138C66.6182 15.2167 66.2346 15.0682 65.7342 15.0682C65.2338 15.0682 64.8501 15.2167 64.5832 15.5138C64.3163 15.7943 64.1829 16.2069 64.1829 16.7515V25.8362C64.1829 26.3643 64.3163 26.7769 64.5832 27.0739Z" fill="url(#paint8_linear_1434_7914)"/>
<path d="M64.358 12.3452C64.6916 12.6258 65.1504 12.7661 65.7342 12.7661C66.3347 12.7661 66.7934 12.6258 67.1103 12.3452C67.4272 12.0482 67.5857 11.6439 67.5857 11.1323C67.5857 10.6042 67.4272 10.1999 67.1103 9.91934C66.7934 9.6388 66.3347 9.49853 65.7342 9.49853C65.1504 9.49853 64.6916 9.6388 64.358 9.91934C64.0411 10.1999 63.8826 10.6042 63.8826 11.1323C63.8826 11.6439 64.0411 12.0482 64.358 12.3452Z" fill="url(#paint9_linear_1434_7914)"/>
<path d="M71.7862 27.1482C72.0698 27.4122 72.4618 27.5443 72.9622 27.5443C73.9964 27.5443 74.5135 27.0162 74.5135 25.96V17.5684H76.6402C77.0405 17.5684 77.3491 17.4693 77.566 17.2713C77.7828 17.0568 77.8912 16.768 77.8912 16.4049C77.8912 16.0254 77.7828 15.7366 77.566 15.5385C77.3491 15.3405 77.0405 15.2415 76.6402 15.2415H74.5135V14.7216C74.5135 13.88 74.7303 13.2529 75.164 12.8403C75.5977 12.4278 76.2899 12.1885 77.2407 12.1225L77.591 12.0977C77.8412 12.0812 78.0414 11.9904 78.1915 11.8254C78.3583 11.6439 78.4667 11.4376 78.5167 11.2066C78.5668 10.9755 78.5584 10.7527 78.4917 10.5382C78.425 10.3072 78.2916 10.1256 78.0914 9.99361C77.8912 9.84508 77.6243 9.78732 77.2907 9.82033L76.44 9.89459C74.8054 10.0431 73.5543 10.5464 72.687 11.4046C71.8196 12.2462 71.3859 13.5169 71.3859 15.2167V15.2415H70.2349C69.8346 15.2415 69.526 15.3405 69.3092 15.5385C69.0923 15.7366 68.9839 16.0254 68.9839 16.4049C68.9839 16.768 69.0923 17.0568 69.3092 17.2713C69.526 17.4693 69.8346 17.5684 70.2349 17.5684H71.3859V25.96C71.3859 26.4716 71.5193 26.8677 71.7862 27.1482Z" fill="url(#paint10_linear_1434_7914)"/>
<path d="M81.6316 31.703C81.8651 31.901 82.1654 32 82.5323 32C82.9327 32 83.2579 31.9175 83.5081 31.7525C83.7584 31.5874 83.9919 31.2739 84.2087 30.8118L90.2887 17.0733C90.4555 16.7102 90.5139 16.3802 90.4639 16.0831C90.4138 15.7696 90.2804 15.522 90.0635 15.3405C89.8467 15.1425 89.5548 15.0434 89.1878 15.0434C88.7708 15.0434 88.4372 15.1342 88.187 15.3157C87.9368 15.4808 87.7199 15.7943 87.5365 16.2564L84.4625 23.7052L81.4565 16.2811C81.273 15.8026 81.0645 15.4808 80.8309 15.3157C80.5974 15.1342 80.2888 15.0434 79.9052 15.0434C79.4548 15.0434 79.0962 15.1425 78.8293 15.3405C78.5791 15.522 78.429 15.7696 78.3789 16.0831C78.3289 16.3967 78.3789 16.735 78.5291 17.098L82.7958 26.8628L81.3814 29.9702C81.2313 30.3167 81.1729 30.6468 81.2063 30.9603C81.2563 31.2739 81.3981 31.5214 81.6316 31.703Z" fill="url(#paint11_linear_1434_7914)"/>
<defs>
<linearGradient id="paint0_linear_1434_7914" x1="4.04237" y1="24" x2="101.059" y2="24" gradientUnits="userSpaceOnUse">
<stop stop-color="#78BBFA"/>
<stop offset="1" stop-color="#A687FF"/>
</linearGradient>
<linearGradient id="paint1_linear_1434_7914" x1="4.04237" y1="24" x2="101.059" y2="24" gradientUnits="userSpaceOnUse">
<stop stop-color="#78BBFA"/>
<stop offset="1" stop-color="#A687FF"/>
</linearGradient>
<linearGradient id="paint2_linear_1434_7914" x1="4.04237" y1="24" x2="101.059" y2="24" gradientUnits="userSpaceOnUse">
<stop stop-color="#78BBFA"/>
<stop offset="1" stop-color="#A687FF"/>
</linearGradient>
<linearGradient id="paint3_linear_1434_7914" x1="4.04237" y1="24" x2="101.059" y2="24" gradientUnits="userSpaceOnUse">
<stop stop-color="#78BBFA"/>
<stop offset="1" stop-color="#A687FF"/>
</linearGradient>
<linearGradient id="paint4_linear_1434_7914" x1="4.04237" y1="24" x2="101.059" y2="24" gradientUnits="userSpaceOnUse">
<stop stop-color="#78BBFA"/>
<stop offset="1" stop-color="#A687FF"/>
</linearGradient>
<linearGradient id="paint5_linear_1434_7914" x1="4.04237" y1="24" x2="101.059" y2="24" gradientUnits="userSpaceOnUse">
<stop stop-color="#78BBFA"/>
<stop offset="1" stop-color="#A687FF"/>
</linearGradient>
<linearGradient id="paint6_linear_1434_7914" x1="4.04237" y1="24" x2="101.059" y2="24" gradientUnits="userSpaceOnUse">
<stop stop-color="#78BBFA"/>
<stop offset="1" stop-color="#A687FF"/>
</linearGradient>
<linearGradient id="paint7_linear_1434_7914" x1="4.04237" y1="24" x2="101.059" y2="24" gradientUnits="userSpaceOnUse">
<stop stop-color="#78BBFA"/>
<stop offset="1" stop-color="#A687FF"/>
</linearGradient>
<linearGradient id="paint8_linear_1434_7914" x1="4.04237" y1="24" x2="101.059" y2="24" gradientUnits="userSpaceOnUse">
<stop stop-color="#78BBFA"/>
<stop offset="1" stop-color="#A687FF"/>
</linearGradient>
<linearGradient id="paint9_linear_1434_7914" x1="4.04237" y1="24" x2="101.059" y2="24" gradientUnits="userSpaceOnUse">
<stop stop-color="#78BBFA"/>
<stop offset="1" stop-color="#A687FF"/>
</linearGradient>
<linearGradient id="paint10_linear_1434_7914" x1="4.04237" y1="24" x2="101.059" y2="24" gradientUnits="userSpaceOnUse">
<stop stop-color="#78BBFA"/>
<stop offset="1" stop-color="#A687FF"/>
</linearGradient>
<linearGradient id="paint11_linear_1434_7914" x1="4.04237" y1="24" x2="101.059" y2="24" gradientUnits="userSpaceOnUse">
<stop stop-color="#78BBFA"/>
<stop offset="1" stop-color="#A687FF"/>
</linearGradient>
</defs>
</svg>
