<svg width="162" height="40" viewBox="0 0 162 40" fill="none" xmlns="http://www.w3.org/2000/svg">
<g filter="url(#filter0_i_1323_1125)">
<path d="M26.3712 0L30.9745 17.0888L13.7948 21.6678L9.19147 4.57894L26.3712 0Z" fill="#78BCFA"/>
<path d="M21.7754 9.14282L26.3788 26.2316L9.19903 30.8106L4.59573 13.7218L21.7754 9.14282Z" fill="url(#paint0_linear_1323_1125)"/>
</g>
<path d="M43.6742 29.4855C42.6938 29.4855 41.7623 29.3636 40.88 29.1198C40.0222 28.8516 39.2255 28.4859 38.4902 28.0226C37.7549 27.5351 37.1176 26.962 36.5783 26.3038L38.7108 24.1826C39.3481 24.9628 40.0834 25.548 40.9167 25.938C41.7502 26.3038 42.6815 26.4866 43.7109 26.4866C44.7404 26.4866 45.5371 26.316 46.1007 25.9746C46.6645 25.6089 46.9463 25.1091 46.9463 24.4752C46.9463 23.8414 46.7136 23.3537 46.2478 23.0123C45.8066 22.6466 45.2306 22.354 44.5198 22.1346C43.8091 21.8908 43.0491 21.6592 42.2403 21.4398C41.456 21.196 40.7084 20.8912 39.9976 20.5255C39.2868 20.1598 38.6986 19.66 38.2328 19.026C37.7916 18.3922 37.571 17.5511 37.571 16.5026C37.571 15.4543 37.8284 14.5522 38.3431 13.7963C38.8578 13.0162 39.5687 12.4188 40.4755 12.0043C41.407 11.5899 42.5222 11.3827 43.8212 11.3827C45.1939 11.3827 46.4071 11.6265 47.4611 12.114C48.5396 12.5774 49.422 13.2843 50.1082 14.2352L47.9758 16.3563C47.4856 15.7225 46.8728 15.2348 46.1375 14.8935C45.4268 14.5522 44.6179 14.3815 43.7109 14.3815C42.755 14.3815 42.0197 14.5522 41.505 14.8935C41.0148 15.2105 40.7697 15.6615 40.7697 16.2466C40.7697 16.8318 40.9903 17.2828 41.4314 17.5998C41.8726 17.9168 42.4487 18.1849 43.1594 18.4043C43.8948 18.6238 44.6547 18.8554 45.4389 19.0992C46.2233 19.3186 46.9709 19.6234 47.6817 20.0135C48.3925 20.4036 48.9685 20.9278 49.4097 21.586C49.8754 22.2443 50.1082 23.1099 50.1082 24.1826C50.1082 25.8162 49.52 27.1083 48.3434 28.0592C47.1915 29.01 45.6351 29.4855 43.6742 29.4855ZM53.8495 29.1198V11.7483H57.1584V29.1198H53.8495ZM55.504 8.27408C54.8911 8.27408 54.3887 8.07904 53.9966 7.68895C53.6043 7.27447 53.4083 6.76247 53.4083 6.15295C53.4083 5.5678 53.6043 5.08018 53.9966 4.69008C54.3887 4.27561 54.8911 4.06836 55.504 4.06836C56.1167 4.06836 56.6191 4.27561 57.0114 4.69008C57.4035 5.08018 57.5996 5.5678 57.5996 6.15295C57.5996 6.76247 57.4035 7.27447 57.0114 7.68895C56.6191 8.07904 56.1167 8.27408 55.504 8.27408ZM62.0347 29.1198V11.7483H65.3437V29.1198H62.0347ZM73.8366 29.1198V18.6238C73.8366 17.3316 73.4322 16.3198 72.6233 15.5883C71.8391 14.8326 70.8464 14.4546 69.6453 14.4546C68.8364 14.4546 68.1134 14.6254 67.4761 14.9666C66.8389 15.308 66.3242 15.7834 65.9319 16.3929C65.5398 17.0025 65.3437 17.7339 65.3437 18.5872L63.9833 17.9289C63.9833 16.6123 64.2653 15.4665 64.829 14.4912C65.4172 13.516 66.2139 12.7602 67.2187 12.2238C68.2237 11.6631 69.3512 11.3827 70.6012 11.3827C71.8268 11.3827 72.9298 11.6508 73.9101 12.1872C74.9151 12.7236 75.6995 13.4794 76.2632 14.4546C76.8514 15.4299 77.1456 16.588 77.1456 17.9289V29.1198H73.8366ZM85.6385 29.1198V18.6238C85.6385 17.3316 85.2341 16.3198 84.4252 15.5883C83.6409 14.8326 82.6604 14.4546 81.4839 14.4546C80.6751 14.4546 79.9398 14.6254 79.278 14.9666C78.6408 15.308 78.1261 15.7834 77.7338 16.3929C77.3417 17.0025 77.1456 17.7339 77.1456 18.5872L75.2705 17.9289C75.344 16.588 75.6995 15.442 76.3367 14.4912C76.9985 13.516 77.8441 12.7602 78.8736 12.2238C79.903 11.6631 81.0306 11.3827 82.256 11.3827C83.5306 11.3827 84.6704 11.6508 85.6753 12.1872C86.6802 12.7236 87.4768 13.4794 88.065 14.4546C88.6779 15.4299 88.9842 16.6002 88.9842 17.9655V29.1198H85.6385ZM102.678 29.4855C101.355 29.4855 100.154 29.2174 99.0753 28.6809C98.0214 28.1202 97.1758 27.3522 96.5384 26.3769C95.9012 25.4017 95.5458 24.2923 95.4722 23.0489V17.8192C95.5458 16.5514 95.9012 15.442 96.5384 14.4912C97.2002 13.516 98.0581 12.7602 99.1121 12.2238C100.191 11.6631 101.379 11.3827 102.678 11.3827C104.272 11.3827 105.705 11.7849 106.98 12.5895C108.279 13.394 109.296 14.4791 110.032 15.8443C110.767 17.2097 111.135 18.7457 111.135 20.4523C111.135 22.1591 110.767 23.6951 110.032 25.0603C109.296 26.4257 108.279 27.5106 106.98 28.3152C105.705 29.0954 104.272 29.4855 102.678 29.4855ZM102.127 26.3769C103.23 26.3769 104.198 26.1209 105.031 25.6089C105.865 25.0969 106.527 24.402 107.017 23.5243C107.507 22.6223 107.752 21.586 107.752 20.4158C107.752 19.2699 107.507 18.2459 107.017 17.3438C106.527 16.4417 105.865 15.7468 105.031 15.2592C104.198 14.7472 103.242 14.4912 102.164 14.4912C101.061 14.4912 100.093 14.7472 99.2591 15.2592C98.4258 15.7468 97.7763 16.4417 97.3105 17.3438C96.8449 18.2459 96.612 19.282 96.612 20.4523C96.612 21.5983 96.8326 22.6223 97.2738 23.5243C97.7395 24.402 98.389 25.0969 99.2224 25.6089C100.08 26.1209 101.048 26.3769 102.127 26.3769ZM93.4869 36.3975V11.7483H96.7958V16.3198L96.1708 20.5255L96.7958 24.7678V36.3975H93.4869ZM114.886 29.1198V3.00779H118.195V29.1198H114.886ZM123.073 29.1198V11.7483H126.382V29.1198H123.073ZM124.727 8.27408C124.115 8.27408 123.612 8.07904 123.22 7.68895C122.828 7.27447 122.632 6.76247 122.632 6.15295C122.632 5.5678 122.828 5.08018 123.22 4.69008C123.612 4.27561 124.115 4.06836 124.727 4.06836C125.34 4.06836 125.843 4.27561 126.235 4.69008C126.627 5.08018 126.823 5.5678 126.823 6.15295C126.823 6.76247 126.627 7.27447 126.235 7.68895C125.843 8.07904 125.34 8.27408 124.727 8.27408ZM133.758 29.1198V9.1518C133.758 7.85961 134.041 6.73809 134.604 5.78723C135.168 4.81199 135.94 4.04399 136.92 3.48323C137.925 2.92247 139.089 2.64209 140.413 2.64209C141.418 2.64209 142.288 2.81275 143.023 3.15409C143.758 3.49542 144.433 3.99523 145.045 4.65352L142.876 6.77466C142.558 6.43332 142.203 6.17732 141.81 6.00666C141.418 5.81161 140.94 5.71408 140.376 5.71408C139.322 5.71408 138.501 6.01884 137.913 6.62838C137.35 7.2379 137.067 8.07904 137.067 9.1518V29.1198H133.758ZM129.456 14.7472V11.7483H142.619V14.7472H129.456ZM151.104 29.266L143.53 11.7483H147.206L152.831 25.4626H151.655L157.574 11.7483H161.251L153.089 29.266H151.104ZM146.103 36.3975L151.251 25.9015L153.089 29.266L149.78 36.3975H146.103Z" fill="url(#paint1_linear_1323_1125)"/>
<defs>
<filter id="filter0_i_1323_1125" x="4.59573" y="0" width="26.3788" height="34.8105" filterUnits="userSpaceOnUse" color-interpolation-filters="sRGB">
<feFlood flood-opacity="0" result="BackgroundImageFix"/>
<feBlend mode="normal" in="SourceGraphic" in2="BackgroundImageFix" result="shape"/>
<feColorMatrix in="SourceAlpha" type="matrix" values="0 0 0 0 0 0 0 0 0 0 0 0 0 0 0 0 0 0 127 0" result="hardAlpha"/>
<feOffset dy="4"/>
<feGaussianBlur stdDeviation="2"/>
<feComposite in2="hardAlpha" operator="arithmetic" k2="-1" k3="1"/>
<feColorMatrix type="matrix" values="0 0 0 0 0.645938 0 0 0 0 0.757819 0 0 0 0 0.975 0 0 0 1 0"/>
<feBlend mode="normal" in2="shape" result="effect1_innerShadow_1323_1125"/>
</filter>
<linearGradient id="paint0_linear_1323_1125" x1="5.60171" y1="23.108" x2="29.745" y2="23.108" gradientUnits="userSpaceOnUse">
<stop stop-color="#749FF3"/>
<stop offset="1" stop-color="#3A00DF"/>
</linearGradient>
<linearGradient id="paint1_linear_1323_1125" x1="40.39" y1="22.2626" x2="156.062" y2="22.2626" gradientUnits="userSpaceOnUse">
<stop offset="0.338542" stop-color="#78BBFA"/>
<stop offset="1" stop-color="#3A00DF"/>
</linearGradient>
</defs>
</svg>
