<svg width="158" height="48" viewBox="0 0 158 48" fill="none" xmlns="http://www.w3.org/2000/svg">
<path d="M137.27 0.896033C138.06 -0.115668 139.525 -0.297922 140.541 0.488956L157.1 13.3119C158.116 14.0988 158.299 15.5568 157.509 16.5685C156.719 17.5802 155.254 17.7625 154.238 16.9756L137.679 4.15265C136.662 3.36577 136.479 1.90773 137.27 0.896033Z" fill="url(#paint0_linear_1434_4352)"/>
<path d="M152.155 26.1414L126.086 7.59259C125.039 6.84737 124.796 5.39792 125.545 4.35515C126.293 3.31239 127.749 3.07118 128.797 3.81641L155.841 23.0595C156.538 23.5548 156.878 24.3612 156.808 25.1525C156.814 25.2191 156.817 25.2866 156.817 25.3547V45.6608C156.817 46.9425 155.773 47.9815 154.486 47.9815C153.199 47.9815 152.155 46.9425 152.155 45.6608V26.1414Z" fill="url(#paint1_linear_1434_4352)"/>
<path d="M4.25694 41.0565C5.45037 41.2793 6.58165 41.3907 7.65076 41.3907C10.0128 41.3907 11.9024 40.8832 13.3196 39.8683C14.7368 38.8286 15.4454 37.4053 15.4454 35.5982C15.4454 34.2615 15.0227 33.1971 14.1774 32.4049C13.3569 31.6128 12.1386 31.0682 10.5225 30.7711L6.79298 30.0657C6.07195 29.9419 5.53739 29.7067 5.18931 29.3602C4.84122 29.0136 4.66718 28.5804 4.66718 28.0606C4.66718 27.3675 4.95311 26.8105 5.52496 26.3897C6.12168 25.9689 7.02918 25.7584 8.24748 25.7584C8.89392 25.7584 9.56523 25.8451 10.2614 26.0184C10.9824 26.1916 11.7283 26.4763 12.4991 26.8724C12.9218 27.0704 13.2947 27.1447 13.6179 27.0952C13.966 27.0209 14.2519 26.86 14.4757 26.6125C14.6995 26.3402 14.8487 26.0431 14.9233 25.7213C14.9978 25.3748 14.9605 25.0406 14.8114 24.7188C14.6871 24.397 14.4384 24.1371 14.0655 23.939C13.1704 23.4439 12.238 23.085 11.2684 22.8622C10.3236 22.6147 9.30417 22.4909 8.21019 22.4909C6.69353 22.4909 5.35092 22.7261 4.18235 23.1964C3.01378 23.6667 2.09384 24.3351 1.42253 25.2015C0.776087 26.0679 0.452866 27.0952 0.452866 28.2834C0.452866 29.5953 0.850677 30.6721 1.6463 31.5138C2.46679 32.3307 3.64779 32.8876 5.18931 33.1847L8.91879 33.8902C9.68955 34.0387 10.2614 34.2739 10.6343 34.5957C11.0322 34.8927 11.2311 35.3259 11.2311 35.8952C11.2311 36.5636 10.9327 37.1082 10.336 37.529C9.76414 37.9251 8.88149 38.1231 7.68806 38.1231C6.84271 38.1231 5.98493 38.0365 5.11472 37.8632C4.2445 37.6652 3.31213 37.331 2.31761 36.8607C1.91979 36.6626 1.54685 36.6007 1.19876 36.675C0.87554 36.7493 0.602045 36.9102 0.378276 37.1577C0.17937 37.4053 0.0550542 37.7023 0.00532781 38.0489C-0.0195354 38.3707 0.0426227 38.7048 0.191802 39.0514C0.365844 39.3732 0.651771 39.6579 1.04958 39.9054C1.99438 40.45 3.0635 40.8337 4.25694 41.0565Z" fill="url(#paint2_linear_1434_4352)"/>
<path d="M19.7821 40.6109C20.1799 41.0565 20.7517 41.2793 21.4976 41.2793C22.2684 41.2793 22.8527 41.0565 23.2505 40.6109C23.6483 40.1653 23.8472 39.5465 23.8472 38.7543V25.1272C23.8472 24.3103 23.6359 23.6915 23.2132 23.2707C22.8154 22.8251 22.2435 22.6023 21.4976 22.6023C20.7517 22.6023 20.1799 22.8251 19.7821 23.2707C19.3843 23.6915 19.1853 24.3103 19.1853 25.1272V38.7543C19.1853 39.5465 19.3843 40.1653 19.7821 40.6109Z" fill="url(#paint3_linear_1434_4352)"/>
<path d="M19.4464 18.5179C19.9437 18.9387 20.6274 19.1491 21.4976 19.1491C22.3927 19.1491 23.0764 18.9387 23.5488 18.5179C24.0212 18.0723 24.2574 17.4658 24.2574 16.6984C24.2574 15.9063 24.0212 15.2998 23.5488 14.879C23.0764 14.4582 22.3927 14.2478 21.4976 14.2478C20.6274 14.2478 19.9437 14.4582 19.4464 14.879C18.974 15.2998 18.7378 15.9063 18.7378 16.6984C18.7378 17.4658 18.974 18.0723 19.4464 18.5179Z" fill="url(#paint4_linear_1434_4352)"/>
<path d="M29.3625 40.7223C29.7603 41.1184 30.3321 41.3164 31.078 41.3164C32.6444 41.3164 33.4276 40.5243 33.4276 38.94V30.9568C33.4276 29.4468 33.7757 28.271 34.4718 27.4293C35.168 26.563 36.1253 26.1298 37.3436 26.1298C38.4127 26.1298 39.171 26.4516 39.6185 27.0952C40.0909 27.7388 40.3271 28.7537 40.3271 30.1399V38.94C40.3271 39.7074 40.526 40.3015 40.9239 40.7223C41.3465 41.1184 41.9308 41.3164 42.6767 41.3164C43.4226 41.3164 43.9945 41.1184 44.3923 40.7223C44.7901 40.3015 44.989 39.7074 44.989 38.94V30.9568C44.989 29.4468 45.3371 28.271 46.0332 27.4293C46.7294 26.563 47.6866 26.1298 48.9049 26.1298C49.9989 26.1298 50.7697 26.4516 51.2172 27.0952C51.6896 27.7388 51.9258 28.7537 51.9258 30.1399V38.94C51.9258 39.7074 52.1247 40.3015 52.5225 40.7223C52.9203 41.1184 53.4922 41.3164 54.2381 41.3164C54.984 41.3164 55.5559 41.1184 55.9537 40.7223C56.3763 40.3015 56.5877 39.7074 56.5877 38.94V29.9543C56.5877 28.271 56.3639 26.8848 55.9164 25.7956C55.4688 24.6816 54.7851 23.8524 53.8652 23.3078C52.9701 22.7632 51.8264 22.4909 50.434 22.4909C48.9422 22.4909 47.6245 22.8746 46.4808 23.642C45.5481 24.2476 44.8303 25.0425 44.3275 26.0268C43.9373 24.9385 43.3497 24.1064 42.5648 23.5306C41.62 22.8375 40.4142 22.4909 38.9472 22.4909C37.5052 22.4909 36.262 22.8498 35.2177 23.5677C34.4268 24.1114 33.7928 24.8042 33.3157 25.6461V24.9044C33.3157 24.1371 33.1168 23.5553 32.719 23.1593C32.3212 22.7632 31.7618 22.5652 31.0407 22.5652C30.3197 22.5652 29.7603 22.7632 29.3625 23.1593C28.9646 23.5553 28.7657 24.1371 28.7657 24.9044V38.94C28.7657 39.7074 28.9646 40.3015 29.3625 40.7223Z" fill="url(#paint5_linear_1434_4352)"/>
<path fill-rule="evenodd" clip-rule="evenodd" d="M61.9937 47.4059C62.3915 47.802 62.9633 48 63.7092 48C64.4551 48 65.027 47.802 65.4248 47.4059C65.8475 47.0098 66.0588 46.4281 66.0588 45.6607V38.3182C66.4945 39.0821 67.1161 39.7349 67.9235 40.2767C69.0673 41.0193 70.3974 41.3907 71.9141 41.3907C73.5302 41.3907 74.935 41.007 76.1284 40.2396C77.3218 39.4722 78.2542 38.383 78.9255 36.972C79.5968 35.5363 79.9325 33.853 79.9325 31.9222C79.9325 29.9666 79.5968 28.2957 78.9255 26.9095C78.2542 25.4985 77.3094 24.4093 76.0911 23.642C74.8977 22.8746 73.5053 22.4909 71.9141 22.4909C70.3726 22.4909 69.0175 22.8746 67.849 23.642C67.0296 24.1917 66.408 24.8686 65.9842 25.6724V24.9044C65.9842 24.1371 65.7853 23.5553 65.3875 23.1593C64.9897 22.7632 64.4178 22.5652 63.6719 22.5652C62.9509 22.5652 62.3915 22.7632 61.9937 23.1593C61.5959 23.5553 61.397 24.1371 61.397 24.9044V45.6607C61.397 46.4281 61.5959 47.0098 61.9937 47.4059ZM73.0329 37.1948C72.3368 37.6404 71.5287 37.8632 70.6088 37.8632C69.2164 37.8632 68.0976 37.3681 67.2522 36.378C66.4069 35.363 65.9842 33.8778 65.9842 31.9222C65.9842 30.6102 66.1707 29.5211 66.5436 28.6547C66.9414 27.7635 67.4884 27.1075 68.1846 26.6867C68.8808 26.2411 69.6888 26.0184 70.6088 26.0184C72.0011 26.0184 73.12 26.5134 73.9653 27.5036C74.8107 28.469 75.2333 29.9419 75.2333 31.9222C75.2333 33.2342 75.0344 34.3357 74.6366 35.2269C74.2637 36.0933 73.7291 36.7493 73.0329 37.1948Z" fill="url(#paint6_linear_1434_4352)"/>
<path d="M85.3257 39.6455C86.3699 40.8089 87.9239 41.3907 89.9875 41.3907C90.261 41.3907 90.5345 41.3783 90.808 41.3535C91.0815 41.3288 91.3425 41.304 91.5912 41.2793C92.163 41.205 92.5733 40.9946 92.8219 40.648C93.0705 40.3015 93.1949 39.8188 93.1949 39.1999C93.1949 38.482 93.1327 38.0117 93.0084 37.7889C92.8841 37.5414 92.6479 37.4424 92.2998 37.4919L91.7776 37.5661H91.2182C90.3232 37.5661 89.627 37.2939 89.1297 36.7493C88.6573 36.2047 88.4211 35.363 88.4211 34.2243V16.8841C88.4211 16.1167 88.2098 15.535 87.7871 15.1389C87.3893 14.7429 86.8174 14.5448 86.0715 14.5448C85.3257 14.5448 84.7538 14.7429 84.356 15.1389C83.9582 15.535 83.7593 16.1167 83.7593 16.8841V34.4471C83.7593 36.7245 84.2814 38.4573 85.3257 39.6455Z" fill="url(#paint7_linear_1434_4352)"/>
<path d="M96.2656 40.6109C96.6634 41.0565 97.2352 41.2793 97.9811 41.2793C98.7519 41.2793 99.3362 41.0565 99.734 40.6109C100.132 40.1653 100.331 39.5465 100.331 38.7543V25.1272C100.331 24.3103 100.119 23.6915 99.6967 23.2707C99.2989 22.8251 98.727 22.6023 97.9811 22.6023C97.2352 22.6023 96.6634 22.8251 96.2656 23.2707C95.8677 23.6915 95.6688 24.3103 95.6688 25.1272V38.7543C95.6688 39.5465 95.8677 40.1653 96.2656 40.6109Z" fill="url(#paint8_linear_1434_4352)"/>
<path d="M95.9299 18.5179C96.4272 18.9387 97.1109 19.1491 97.9811 19.1491C98.8762 19.1491 99.5599 18.9387 100.032 18.5179C100.505 18.0723 100.741 17.4658 100.741 16.6984C100.741 15.9063 100.505 15.2998 100.032 14.879C99.5599 14.4582 98.8762 14.2478 97.9811 14.2478C97.1109 14.2478 96.4272 14.4582 95.9299 14.879C95.4575 15.2998 95.2213 15.9063 95.2213 16.6984C95.2213 17.4658 95.4575 18.0723 95.9299 18.5179Z" fill="url(#paint9_linear_1434_4352)"/>
<path d="M107.002 40.7223C107.425 41.1184 108.009 41.3164 108.755 41.3164C110.296 41.3164 111.067 40.5243 111.067 38.94V26.3525H114.237C114.834 26.3525 115.294 26.204 115.617 25.907C115.94 25.5852 116.102 25.152 116.102 24.6074C116.102 24.038 115.94 23.6048 115.617 23.3078C115.294 23.0107 114.834 22.8622 114.237 22.8622H111.067V22.0825C111.067 20.82 111.39 19.8793 112.037 19.2605C112.683 18.6416 113.715 18.2827 115.132 18.1837L115.654 18.1466C116.027 18.1218 116.326 17.9857 116.55 17.7381C116.798 17.4658 116.96 17.1564 117.034 16.8098C117.109 16.4633 117.097 16.1291 116.997 15.8073C116.898 15.4607 116.699 15.1884 116.4 14.9904C116.102 14.7676 115.704 14.681 115.207 14.7305L113.939 14.8419C111.502 15.0647 109.638 15.8197 108.345 17.1069C107.052 18.3693 106.405 20.2754 106.405 22.8251V22.8622H104.69C104.093 22.8622 103.633 23.0107 103.31 23.3078C102.987 23.6048 102.825 24.038 102.825 24.6074C102.825 25.152 102.987 25.5852 103.31 25.907C103.633 26.204 104.093 26.3525 104.69 26.3525H106.405V38.94C106.405 39.7074 106.604 40.3015 107.002 40.7223Z" fill="url(#paint10_linear_1434_4352)"/>
<path d="M121.677 47.5544C122.025 47.8515 122.473 48 123.02 48C123.617 48 124.101 47.8762 124.474 47.6287C124.847 47.3811 125.195 46.9108 125.519 46.2177L134.581 25.6099C134.83 25.0653 134.917 24.5702 134.842 24.1247C134.768 23.6543 134.569 23.283 134.246 23.0107C133.922 22.7137 133.487 22.5652 132.94 22.5652C132.319 22.5652 131.821 22.7013 131.449 22.9736C131.076 23.2211 130.752 23.6915 130.479 24.3846L125.897 35.5578L121.416 24.4217C121.143 23.7039 120.832 23.2211 120.484 22.9736C120.136 22.7013 119.676 22.5652 119.104 22.5652C118.433 22.5652 117.898 22.7137 117.5 23.0107C117.127 23.283 116.904 23.6543 116.829 24.1247C116.754 24.595 116.829 25.1025 117.053 25.6471L123.413 40.2941L121.304 44.9552C121.081 45.4751 120.994 45.9702 121.043 46.4405C121.118 46.9108 121.329 47.2821 121.677 47.5544Z" fill="url(#paint11_linear_1434_4352)"/>
<defs>
<linearGradient id="paint0_linear_1434_4352" x1="6.02542" y1="36" x2="150.636" y2="36" gradientUnits="userSpaceOnUse">
<stop stop-color="#78BBFA"/>
<stop offset="1" stop-color="#A687FF"/>
</linearGradient>
<linearGradient id="paint1_linear_1434_4352" x1="6.02542" y1="36" x2="150.636" y2="36" gradientUnits="userSpaceOnUse">
<stop stop-color="#78BBFA"/>
<stop offset="1" stop-color="#A687FF"/>
</linearGradient>
<linearGradient id="paint2_linear_1434_4352" x1="6.02542" y1="36" x2="150.636" y2="36" gradientUnits="userSpaceOnUse">
<stop stop-color="#78BBFA"/>
<stop offset="1" stop-color="#A687FF"/>
</linearGradient>
<linearGradient id="paint3_linear_1434_4352" x1="6.02542" y1="36" x2="150.636" y2="36" gradientUnits="userSpaceOnUse">
<stop stop-color="#78BBFA"/>
<stop offset="1" stop-color="#A687FF"/>
</linearGradient>
<linearGradient id="paint4_linear_1434_4352" x1="6.02542" y1="36" x2="150.636" y2="36" gradientUnits="userSpaceOnUse">
<stop stop-color="#78BBFA"/>
<stop offset="1" stop-color="#A687FF"/>
</linearGradient>
<linearGradient id="paint5_linear_1434_4352" x1="6.02542" y1="36" x2="150.636" y2="36" gradientUnits="userSpaceOnUse">
<stop stop-color="#78BBFA"/>
<stop offset="1" stop-color="#A687FF"/>
</linearGradient>
<linearGradient id="paint6_linear_1434_4352" x1="6.02542" y1="36" x2="150.636" y2="36" gradientUnits="userSpaceOnUse">
<stop stop-color="#78BBFA"/>
<stop offset="1" stop-color="#A687FF"/>
</linearGradient>
<linearGradient id="paint7_linear_1434_4352" x1="6.02542" y1="36" x2="150.636" y2="36" gradientUnits="userSpaceOnUse">
<stop stop-color="#78BBFA"/>
<stop offset="1" stop-color="#A687FF"/>
</linearGradient>
<linearGradient id="paint8_linear_1434_4352" x1="6.02542" y1="36" x2="150.636" y2="36" gradientUnits="userSpaceOnUse">
<stop stop-color="#78BBFA"/>
<stop offset="1" stop-color="#A687FF"/>
</linearGradient>
<linearGradient id="paint9_linear_1434_4352" x1="6.02542" y1="36" x2="150.636" y2="36" gradientUnits="userSpaceOnUse">
<stop stop-color="#78BBFA"/>
<stop offset="1" stop-color="#A687FF"/>
</linearGradient>
<linearGradient id="paint10_linear_1434_4352" x1="6.02542" y1="36" x2="150.636" y2="36" gradientUnits="userSpaceOnUse">
<stop stop-color="#78BBFA"/>
<stop offset="1" stop-color="#A687FF"/>
</linearGradient>
<linearGradient id="paint11_linear_1434_4352" x1="6.02542" y1="36" x2="150.636" y2="36" gradientUnits="userSpaceOnUse">
<stop stop-color="#78BBFA"/>
<stop offset="1" stop-color="#A687FF"/>
</linearGradient>
</defs>
</svg>
