<svg width="36" height="37" viewBox="0 0 36 37" fill="none" xmlns="http://www.w3.org/2000/svg">
<path d="M30.2097 20.5216L30.2167 20.5251C30.3257 19.8606 30.3784 19.1821 30.3784 18.5106C30.3784 17.9094 30.3327 17.3048 30.2483 16.7141C30.3327 17.3012 30.3749 17.8954 30.3749 18.4895C30.3749 19.1716 30.3187 19.8536 30.2097 20.5216ZM3.48037 14.4887C3.46279 14.4747 3.44873 14.4606 3.43115 14.443C3.45576 14.4677 3.48037 14.4923 3.5085 14.5169L5.81123 16.4821V16.4786L3.48037 14.4887ZM22.3452 6.895H22.3487L21.8038 3.9489C21.7968 3.91375 21.7897 3.8821 21.7792 3.85046C21.7827 3.86804 21.7897 3.88914 21.7933 3.90671L22.3452 6.895ZM24.2437 26.1079L25.3476 25.2009L28.6101 26.3575C29.2077 25.5524 29.7105 24.6876 30.1077 23.77L27.4815 21.5235L27.7136 20.1137C27.8015 19.5829 27.8472 19.038 27.8472 18.493C27.8472 17.9481 27.8015 17.4032 27.7136 16.8723L27.4851 15.4696L30.1112 13.2231C29.7105 12.3091 29.2112 11.4407 28.6136 10.6356L25.3511 11.7923L24.2472 10.8852C23.4069 10.1962 22.4683 9.65476 21.4593 9.27507L20.1198 8.77234L19.4905 5.36218C18.4976 5.24968 17.4952 5.24968 16.5022 5.36218L15.8729 8.77937L14.5405 9.2821C13.5386 9.66179 12.6069 10.2032 11.7737 10.8887L10.6698 11.7993L7.38623 10.6321C6.78857 11.4372 6.28584 12.302 5.88857 13.2196L8.54287 15.4872L8.31436 16.8934C8.22646 17.4173 8.18428 17.9552 8.18428 18.493C8.18428 19.0274 8.22998 19.5688 8.31436 20.0927L8.54287 21.4989L5.88857 23.7665C6.28936 24.6805 6.78857 25.5489 7.38623 26.354L10.6698 25.1868L11.7737 26.0973C12.6069 26.7829 13.5386 27.3243 14.5405 27.704L15.8694 28.2137L16.4987 31.6309C17.4901 31.7434 18.4991 31.7434 19.487 31.6309L20.1163 28.2208L21.4558 27.718C22.4683 27.3384 23.4034 26.7969 24.2437 26.1079V26.1079ZM18.0175 24.3395C16.9452 24.3395 15.9362 24.0653 15.0538 23.5837C13.1237 22.536 11.8124 20.4934 11.8124 18.1415C11.8124 14.7243 14.5827 11.954 17.9999 11.954C20.3519 11.954 22.3944 13.2653 23.4421 15.1954C23.9237 16.0743 24.1979 17.0833 24.1979 18.1591C24.1979 21.5727 21.4312 24.3395 18.0175 24.3395V24.3395ZM7.28428 29.068C7.09092 29.1348 6.89053 29.1489 6.70068 29.1102C6.90107 29.1524 7.11201 29.1454 7.31592 29.0751L10.1776 28.0555C10.1741 28.052 10.1671 28.0485 10.1636 28.045L7.28428 29.068V29.068ZM32.5124 14.4887L30.2097 16.4575C30.2097 16.4645 30.2132 16.4751 30.2132 16.4821L32.5124 14.5169C32.762 14.3024 32.9026 13.993 32.9062 13.6731C32.8956 13.9825 32.755 14.2813 32.5124 14.4887Z" fill="#EDF3FE"/>
<path d="M32.8993 23.2251C32.9168 23.3903 32.8993 23.5591 32.8395 23.7208L32.8079 23.8122C32.1723 25.5832 31.2232 27.2254 30.0059 28.6603L29.9426 28.7341C29.7951 28.9084 29.5981 29.0337 29.3777 29.0934C29.1573 29.153 28.9239 29.1442 28.7086 29.0681L25.8504 28.0521C24.8019 28.9159 23.6175 29.6002 22.3454 30.0771L21.7934 33.0653C21.7518 33.2902 21.6427 33.497 21.4807 33.6584C21.3187 33.8198 21.1114 33.9281 20.8864 33.9688L20.7915 33.9864C19.8726 34.1525 18.9408 34.2361 18.0071 34.236H18.0176C18.9563 34.236 19.895 34.1517 20.809 33.9864L20.904 33.9688C21.129 33.9281 21.3362 33.8198 21.4983 33.6584C21.6603 33.497 21.7693 33.2902 21.811 33.0653L22.3629 30.0806C23.6356 29.6024 24.8098 28.9239 25.8645 28.0591L28.7192 29.0751C28.9345 29.1512 29.1678 29.1601 29.3882 29.1004C29.6086 29.0408 29.8057 28.9154 29.9532 28.7411L30.0165 28.6673C31.2399 27.2224 32.1786 25.5946 32.8149 23.8263L32.8465 23.7349C32.9028 23.5696 32.9204 23.3938 32.8993 23.2251V23.2251Z" fill="#EDF3FE"/>
<path d="M24.1875 18.1415C24.1875 17.0762 23.9168 16.0708 23.4422 15.1954C22.3945 13.2653 20.352 11.954 18 11.954C14.5828 11.954 11.8125 14.7243 11.8125 18.1415C11.8125 20.4934 13.1238 22.536 15.0539 23.5837C15.9293 24.0583 16.9313 24.329 18 24.329C21.4172 24.329 24.1875 21.5587 24.1875 18.1415ZM14.0625 18.1415C14.0625 17.0903 14.4738 16.1024 15.2156 15.3571C15.9609 14.6118 16.9488 14.204 18 14.204C19.0512 14.204 20.0391 14.6118 20.7844 15.3571C21.1506 15.7223 21.441 16.1563 21.6389 16.6342C21.8368 17.112 21.9383 17.6243 21.9375 18.1415C21.9375 19.1927 21.5262 20.1805 20.7844 20.9259C20.4192 21.2921 19.9852 21.5825 19.5073 21.7804C19.0295 21.9783 18.5172 22.0798 18 22.079C16.9488 22.079 15.9609 21.6677 15.2156 20.9259C14.8494 20.5607 14.559 20.1267 14.3611 19.6488C14.1632 19.171 14.0617 18.6587 14.0625 18.1415Z" fill="#2A4988"/>
<path d="M20.8863 33.9688C21.1113 33.9281 21.3186 33.8198 21.4806 33.6584C21.6426 33.497 21.7517 33.2902 21.7933 33.0653L22.3453 30.0771C23.6174 29.6002 24.8018 28.9159 25.8503 28.0521L28.7086 29.0681C28.9238 29.1442 29.1572 29.153 29.3776 29.0934C29.598 29.0337 29.795 28.9084 29.9425 28.7341L30.0058 28.6603C31.2293 27.2153 32.1714 25.5841 32.8078 23.8122L32.8394 23.7208C32.8992 23.5591 32.9168 23.3903 32.8992 23.2251C32.8675 22.9474 32.7339 22.6837 32.5125 22.4903L30.2168 20.5251L30.2097 20.5216C30.3187 19.8536 30.375 19.1716 30.375 18.4896C30.375 17.8954 30.3328 17.2978 30.2484 16.7142C30.2379 16.6368 30.2238 16.5595 30.2132 16.4821C30.2132 16.4751 30.2097 16.4646 30.2097 16.4575L32.5125 14.4888C32.755 14.2813 32.8957 13.9825 32.9062 13.6731C32.9097 13.5325 32.8886 13.3884 32.8394 13.2513L32.8078 13.1599C32.1738 11.3881 31.2246 9.74561 30.0058 8.31182L29.9425 8.23799C29.7947 8.06415 29.5976 7.93918 29.3774 7.87956C29.1571 7.81994 28.9239 7.82846 28.7086 7.904L25.8503 8.92002C24.7957 8.05518 23.6214 7.37314 22.3488 6.89502H22.3453L21.7933 3.90674C21.7898 3.88916 21.7863 3.86807 21.7793 3.85049C21.7285 3.63793 21.6171 3.4447 21.4586 3.29429C21.3 3.14387 21.1012 3.04275 20.8863 3.00322L20.7914 2.98564C18.9597 2.65518 17.0332 2.65518 15.2015 2.98564L15.1066 3.00322C14.8816 3.04399 14.6743 3.15226 14.5123 3.31364C14.3503 3.47503 14.2412 3.68189 14.1996 3.90674L13.6441 6.90908C12.3816 7.38731 11.2059 8.06898 10.1636 8.92705L7.28433 7.904C7.06906 7.82786 6.83571 7.81903 6.61529 7.87869C6.39488 7.93835 6.19784 8.06366 6.05035 8.23799L5.98707 8.31182C4.76977 9.74663 3.82065 11.3888 3.18511 13.1599L3.15347 13.2513C3.08021 13.4556 3.06745 13.6767 3.11671 13.8881C3.16597 14.0995 3.27517 14.2922 3.43121 14.4431C3.44879 14.4571 3.46285 14.4747 3.48043 14.4888L5.81129 16.4786V16.4821C5.7023 17.1431 5.64957 17.8146 5.64957 18.486C5.64957 19.161 5.7023 19.836 5.81129 20.4935L3.48043 22.4833C3.30674 22.632 3.18243 22.83 3.12403 23.0511C3.06562 23.2721 3.07589 23.5057 3.15347 23.7208L3.18511 23.8122C3.82144 25.5841 4.76363 27.2188 5.98707 28.6603L6.05035 28.7341C6.22261 28.9345 6.45113 29.0646 6.70074 29.1103C6.89058 29.1454 7.09097 29.1349 7.28433 29.0681L10.1636 28.045C10.1671 28.0485 10.1742 28.0521 10.1777 28.0556C11.2218 28.9099 12.3855 29.5884 13.6441 30.063L14.1996 33.0653C14.2412 33.2902 14.3503 33.497 14.5123 33.6584C14.6743 33.8198 14.8816 33.9281 15.1066 33.9688L15.2015 33.9864C16.1191 34.1517 17.0578 34.236 17.9964 34.236H18.007C18.9421 34.236 19.8808 34.1517 20.7914 33.9864L20.8863 33.9688ZM19.4871 31.631C18.4942 31.7435 17.4917 31.7435 16.4988 31.631L15.8695 28.2138L14.5406 27.704C13.5386 27.3243 12.607 26.7829 11.7738 26.0974L10.6699 25.1868L7.38629 26.354C6.78863 25.5489 6.28941 24.6806 5.88863 23.7665L8.54293 21.4989L8.31441 20.0927C8.23004 19.5688 8.18433 19.0274 8.18433 18.4931C8.18433 17.9552 8.22652 17.4173 8.31441 16.8935L8.54293 15.4872L5.88863 13.2196C6.2859 12.3021 6.78863 11.4372 7.38629 10.6321L10.6699 11.7993L11.7738 10.8888C12.607 10.2032 13.5386 9.66182 14.5406 9.28213L15.873 8.77939L16.5023 5.36221C17.4902 5.24971 18.4992 5.24971 19.4906 5.36221L20.1199 8.77236L21.4593 9.2751C22.4683 9.65479 23.407 10.1962 24.2472 10.8853L25.3511 11.7923L28.6136 10.6356C29.2113 11.4407 29.7105 12.3091 30.1113 13.2231L27.4851 15.4696L27.7136 16.8724C27.8015 17.4032 27.8472 17.9481 27.8472 18.4931C27.8472 19.038 27.8015 19.5829 27.7136 20.1138L27.4816 21.5235L30.1078 23.77C29.7097 24.6872 29.2071 25.5554 28.6101 26.3575L25.3476 25.2009L24.2437 26.1079C23.4035 26.797 22.4683 27.3384 21.4558 27.7181L20.1164 28.2208L19.4871 31.631Z" fill="#2A4988"/>
</svg>
