<svg width="24" height="25" viewBox="0 0 24 25" fill="none" xmlns="http://www.w3.org/2000/svg">
<path d="M21.9328 15.6547C21.9445 15.7648 21.9328 15.8773 21.893 15.9851L21.8719 16.0461C21.4482 17.2268 20.8155 18.3216 20.0039 19.2781L19.9617 19.3273C19.8634 19.4435 19.732 19.5271 19.5851 19.5669C19.4382 19.6066 19.2826 19.6007 19.1391 19.55L17.2336 18.8726C16.5346 19.4485 15.745 19.9047 14.8969 20.2226L14.5289 22.2148C14.5012 22.3647 14.4284 22.5026 14.3204 22.6102C14.2124 22.7178 14.0742 22.79 13.9242 22.8172L13.8609 22.8289C13.2484 22.9396 12.6272 22.9953 12.0047 22.9953H12.0117C12.6375 22.9953 13.2633 22.939 13.8727 22.8289L13.9359 22.8172C14.086 22.79 14.2241 22.7178 14.3322 22.6102C14.4402 22.5026 14.5129 22.3647 14.5406 22.2148L14.9086 20.225C15.757 19.9062 16.5399 19.4539 17.243 18.8773L19.1461 19.5547C19.2896 19.6054 19.4452 19.6113 19.5921 19.5715C19.7391 19.5318 19.8704 19.4482 19.9688 19.332L20.0109 19.2828C20.8266 18.3195 21.4524 17.2344 21.8766 16.0554L21.8977 15.9945C21.9352 15.8844 21.9469 15.7672 21.9328 15.6547Z" fill="current" fill-opacity="1"/>
<path d="M16.125 12.2656C16.125 11.5555 15.9445 10.8852 15.6281 10.3016C14.9297 9.01484 13.568 8.14062 12 8.14062C9.72188 8.14062 7.875 9.9875 7.875 12.2656C7.875 13.8336 8.74922 15.1953 10.0359 15.8937C10.6195 16.2102 11.2875 16.3906 12 16.3906C14.2781 16.3906 16.125 14.5437 16.125 12.2656ZM9.375 12.2656C9.375 11.5648 9.64922 10.9062 10.1437 10.4094C10.6406 9.9125 11.2992 9.64062 12 9.64062C12.7008 9.64062 13.3594 9.9125 13.8563 10.4094C14.1004 10.6528 14.294 10.9422 14.426 11.2607C14.5579 11.5793 14.6255 11.9208 14.625 12.2656C14.625 12.9664 14.3508 13.625 13.8563 14.1219C13.6128 14.366 13.3234 14.5597 13.0049 14.6916C12.6863 14.8235 12.3448 14.8912 12 14.8906C11.2992 14.8906 10.6406 14.6164 10.1437 14.1219C9.89959 13.8784 9.70597 13.5891 9.57404 13.2705C9.44211 12.9519 9.37446 12.6104 9.375 12.2656Z" fill="current" fill-opacity="1"/>
<path d="M13.9242 22.8172C14.0742 22.79 14.2124 22.7178 14.3204 22.6102C14.4284 22.5026 14.5011 22.3647 14.5289 22.2148L14.8969 20.2226C15.745 19.9047 16.5345 19.4485 17.2336 18.8726L19.1391 19.55C19.2826 19.6007 19.4381 19.6066 19.5851 19.5669C19.732 19.5271 19.8634 19.4435 19.9617 19.3273L20.0039 19.2781C20.8195 18.3148 21.4476 17.2273 21.8719 16.0461L21.893 15.9851C21.9328 15.8773 21.9445 15.7648 21.9328 15.6547C21.9117 15.4695 21.8226 15.2937 21.675 15.1648L20.1445 13.8547L20.1398 13.8523C20.2125 13.407 20.25 12.9523 20.25 12.4976C20.25 12.1015 20.2219 11.7031 20.1656 11.314C20.1586 11.2625 20.1492 11.2109 20.1422 11.1594C20.1422 11.1547 20.1398 11.1476 20.1398 11.1429L21.675 9.83044C21.8367 9.69216 21.9305 9.49294 21.9375 9.28669C21.9398 9.19294 21.9258 9.09685 21.893 9.00544L21.8719 8.94451C21.4492 7.76332 20.8164 6.66834 20.0039 5.71248L19.9617 5.66326C19.8631 5.54736 19.7318 5.46405 19.5849 5.42431C19.4381 5.38456 19.2826 5.39024 19.1391 5.4406L17.2336 6.11794C16.5305 5.54138 15.7476 5.08669 14.8992 4.76794H14.8969L14.5289 2.77576C14.5266 2.76404 14.5242 2.74998 14.5195 2.73826C14.4857 2.59655 14.4114 2.46773 14.3057 2.36745C14.2 2.26718 14.0675 2.19977 13.9242 2.17341L13.8609 2.16169C12.6398 1.94138 11.3555 1.94138 10.1344 2.16169L10.0711 2.17341C9.92108 2.20059 9.78289 2.27277 9.67488 2.38036C9.56688 2.48795 9.49416 2.62586 9.4664 2.77576L9.09609 4.77732C8.25442 5.09614 7.47062 5.55058 6.77577 6.12263L4.85624 5.4406C4.71272 5.38984 4.55716 5.38395 4.41022 5.42372C4.26327 5.4635 4.13191 5.54704 4.03359 5.66326L3.9914 5.71248C3.17987 6.66902 2.54712 7.76381 2.12343 8.94451L2.10234 9.00544C2.0535 9.14166 2.04499 9.28907 2.07783 9.43C2.11067 9.57092 2.18347 9.69939 2.28749 9.79998C2.29921 9.80935 2.30859 9.82107 2.32031 9.83044L3.87421 11.157V11.1594C3.80156 11.6 3.7664 12.0476 3.7664 12.4953C3.7664 12.9453 3.80156 13.3953 3.87421 13.8336L2.32031 15.1601C2.20451 15.2593 2.12164 15.3913 2.0827 15.5387C2.04377 15.686 2.05062 15.8418 2.10234 15.9851L2.12343 16.0461C2.54765 17.2273 3.17577 18.3172 3.9914 19.2781L4.03359 19.3273C4.14843 19.4609 4.30077 19.5476 4.46718 19.5781C4.59374 19.6015 4.72734 19.5945 4.85624 19.55L6.77577 18.8679C6.77812 18.8703 6.78281 18.8726 6.78515 18.875C7.48124 19.4445 8.25702 19.8969 9.09609 20.2133L9.4664 22.2148C9.49416 22.3647 9.56688 22.5026 9.67488 22.6102C9.78289 22.7178 9.92108 22.79 10.0711 22.8172L10.1344 22.8289C10.7461 22.939 11.3719 22.9953 11.9976 22.9953H12.0047C12.6281 22.9953 13.2539 22.939 13.8609 22.8289L13.9242 22.8172ZM12.9914 21.2586C12.3295 21.3336 11.6612 21.3336 10.9992 21.2586L10.5797 18.9804L9.69374 18.6406C9.02577 18.3875 8.40468 18.0265 7.84921 17.5695L7.11327 16.9625L4.92421 17.7406C4.52577 17.2039 4.19296 16.625 3.92577 16.0156L5.69531 14.5039L5.54296 13.5664C5.48671 13.2172 5.45624 12.8562 5.45624 12.5C5.45624 12.1414 5.48437 11.7828 5.54296 11.4336L5.69531 10.4961L3.92577 8.98435C4.19062 8.37263 4.52577 7.79607 4.92421 7.25935L7.11327 8.03748L7.84921 7.43044C8.40468 6.97341 9.02577 6.61248 9.69374 6.35935L10.582 6.02419L11.0016 3.74607C11.6601 3.67107 12.3328 3.67107 12.9937 3.74607L13.4133 6.01951L14.3062 6.35466C14.9789 6.60779 15.6047 6.96873 16.1648 7.4281L16.9008 8.03279L19.0758 7.26169C19.4742 7.79841 19.807 8.37732 20.0742 8.98669L18.3234 10.4844L18.4758 11.4195C18.5344 11.7734 18.5648 12.1367 18.5648 12.5C18.5648 12.8633 18.5344 13.2265 18.4758 13.5804L18.3211 14.5203L20.0719 16.0179C19.8065 16.6294 19.4714 17.2082 19.0734 17.7429L16.8984 16.9719L16.1625 17.5765C15.6023 18.0359 14.9789 18.3969 14.3039 18.65L13.4109 18.9851L12.9914 21.2586Z" fill="current" fill-opacity="1"/>
</svg>
